<svg width="22" height="22" viewBox="0 0 22 22" fill="none" xmlns="http://www.w3.org/2000/svg">
<path d="M20.8282 4.98264C20.1802 4.33726 19.4242 4.01456 18.5602 4.01456H15.2122L16.4002 1.97083C16.6162 1.54057 16.5082 1.11031 16.0762 0.787618C15.8602 0.680054 15.6442 0.680054 15.4282 0.680054C15.2122 0.787618 14.9962 0.895183 14.8882 1.11031L13.2682 3.907H9.05619L7.43619 1.11031C7.22019 0.787618 6.68019 0.572489 6.24819 0.787618C5.92419 1.11031 5.8162 1.54057 6.0322 1.97083L7.22019 4.01456H3.4402C2.5762 4.01456 1.7122 4.33726 1.1722 4.98264C0.524195 5.52047 0.200195 6.38099 0.200195 7.2415V18.2131C0.200195 19.0736 0.524195 19.9341 1.1722 20.472C1.8202 21.1174 2.5762 21.4401 3.4402 21.4401H18.5602C19.4242 21.4401 20.2882 21.1174 20.8282 20.472C21.4762 19.8266 21.8002 19.0736 21.8002 18.2131V7.2415C21.8002 6.38099 21.4762 5.52047 20.8282 4.98264ZM15.1042 13.6954L8.94819 17.245C8.73219 17.3526 8.62419 17.3526 8.40819 17.245C8.19219 17.1375 8.19219 16.9223 8.19219 16.8148V9.60793C8.19219 9.3928 8.30019 9.28523 8.40819 9.17767C8.62419 9.0701 8.73219 9.0701 8.94819 9.17767L15.1042 12.7273C15.3202 12.8349 15.3202 13.05 15.3202 13.1576C15.4282 13.3727 15.3202 13.5878 15.1042 13.6954Z" fill="#414BB2" fill-opacity="0.5"/>
</svg>
