<svg width="20" height="20" viewBox="0 0 20 20" fill="none" xmlns="http://www.w3.org/2000/svg">
<path d="M18.1892 0C19.9448 0.00506613 19.4684 1.83225 19.8477 3.18575C19.3278 3.31999 18.7866 3.36177 18.2509 3.30902C17.157 2.34928 16.0689 1.38924 14.9867 0.428932V0.398535L18.1892 0ZM13.7339 0.551363H14.0427C15.1278 1.53166 16.2218 2.51195 17.3069 3.49225C16.2218 3.62566 15.1278 3.75822 14.0427 3.89078C12.9399 2.91077 11.8313 1.93048 10.7167 0.949899H10.7785L13.7339 0.551363ZM9.49925 1.07233C9.96344 1.19919 10.3643 1.48186 10.6285 1.86856L13.037 4.01322H12.9752L9.74627 4.41175C8.65232 3.44159 7.54954 2.46974 6.45558 1.50126V1.47002L9.49925 1.07233ZM5.32633 1.5933L5.5116 1.62369C6.60556 2.58372 7.70834 3.54376 8.80229 4.50379L8.77583 4.56458L5.47631 4.93272L2.2209 1.99099L5.32633 1.5933ZM1.11812 2.11426C2.36616 2.99499 3.52147 3.99013 4.56762 5.08555C3.13841 5.25948 1.70921 5.43342 0.271184 5.60651V5.54488L0.112383 4.35011C-0.134639 2.92822 -0.0464168 2.60821 1.11812 2.11089V2.11426ZM0.209428 5.72894H19.9448V15.4719C19.9448 16.4928 20.1565 18.7202 19.7507 19.3627C19.1861 20.2645 16.9011 19.9453 15.4543 19.9445H4.76171C3.72068 19.9445 1.30339 20.1564 0.712296 19.7309C-0.0464169 19.182 0.209428 17.3186 0.209428 16.0537V5.72894ZM8.2112 8.45621C7.99362 8.47788 7.78417 8.54718 7.59906 8.65875C7.41395 8.77032 7.25814 8.92117 7.14371 9.09961C7.05034 9.56383 7.02952 10.0388 7.08196 10.5088V14.2459C6.99249 14.834 7.05613 15.4341 7.26722 15.9929C7.44007 16.1612 7.65392 16.2858 7.88954 16.3553C8.12516 16.4249 8.37515 16.4373 8.61703 16.3915C9.13925 16.212 9.62781 15.9531 10.0639 15.6248C11.1225 15.0228 12.19 14.4199 13.2575 13.8179C13.5506 13.7303 13.819 13.5799 14.0422 13.3782C14.2654 13.1764 14.4375 12.9285 14.5456 12.6535C14.7485 11.7104 13.9457 11.441 13.4516 11.1522C12.3577 10.5392 11.2725 9.92623 10.1874 9.31323C9.63176 8.84672 8.94402 8.54847 8.2112 8.45621Z" fill="#414BB2" fill-opacity="0.5"/>
</svg>
