<svg width="22" height="18" viewBox="0 0 22 18" fill="none" xmlns="http://www.w3.org/2000/svg">
<path d="M20.3333 0.75H1.72807C1.05263 0.75 0.5 1.28804 0.5 1.94565V16.0543C0.5 16.712 1.05263 17.25 1.72807 17.25H20.2719C20.9474 17.25 21.5 16.712 21.5 16.0543V1.88587C21.5 1.28804 20.9474 0.75 20.3333 0.75ZM4.30702 2.54348C5.04386 2.54348 5.59649 3.08152 5.59649 3.79891C5.59649 4.5163 5.04386 5.05435 4.30702 5.05435C3.57018 5.05435 3.01754 4.5163 3.01754 3.79891C3.01754 3.1413 3.57018 2.54348 4.30702 2.54348ZM0.991228 16.2935L4.67544 9.29891C4.85965 8.94022 5.41228 8.88043 5.65789 9.17935L10.3246 13.3641C10.5702 13.6033 10.9386 13.663 11.1842 13.4239L14.1316 10.6739C14.3772 10.4348 14.7456 10.4348 14.9912 10.6739L20.4561 16.2935H0.991228Z" fill="#414BB2" fill-opacity="0.5"/>
</svg>
