<svg width="22" height="16" viewBox="0 0 22 16" fill="none" xmlns="http://www.w3.org/2000/svg">
<path d="M21.6298 1.9C21.6298 1.9 18.7398 3.05 17.1098 4.21V2.78C17.1098 2.04 16.8098 1.33 16.2898 0.81C15.7698 0.29 15.0498 0 14.3098 0H3.0998C2.3598 0 1.6498 0.29 1.1198 0.82C0.599805 1.34 0.299805 2.04 0.299805 2.78V13.21C0.299805 13.95 0.599805 14.66 1.1198 15.18C1.6498 15.71 2.3598 16 3.0998 16H14.3098C15.0498 16 15.7698 15.71 16.2898 15.18C16.8198 14.66 17.1098 13.95 17.1098 13.21V11.57C18.5998 12.43 21.1398 13.85 21.6298 13.71V1.9ZM4.7898 4.46C4.5298 4.72 4.1698 4.87 3.7998 4.87C3.6198 4.87 3.4298 4.83 3.2598 4.76C3.0998 4.69 2.9398 4.59 2.8098 4.46C2.6798 4.33 2.5798 4.18 2.5098 4.01C2.4398 3.84 2.3998 3.66 2.3998 3.48C2.3998 3.3 2.4398 3.12 2.5098 2.95C2.5798 2.78 2.6798 2.63 2.8098 2.5C2.9398 2.37 3.0898 2.27 3.2598 2.2C3.4298 2.13 3.6198 2.09 3.7998 2.09C4.1698 2.09 4.5298 2.24 4.7898 2.5C5.0498 2.76 5.1998 3.11 5.1998 3.48C5.1998 3.85 5.0598 4.2 4.7898 4.46Z" fill="#3D4A9D" fill-opacity="0.5"/>
</svg>
