<svg width="18" height="18" viewBox="0 0 18 18" fill="none" xmlns="http://www.w3.org/2000/svg">
<path d="M12.7261 3.83661V2.47782C12.7261 2.36005 12.5907 2.29501 12.4993 2.36708L4.57512 8.55634C4.5078 8.6087 4.45332 8.67574 4.41584 8.75236C4.37837 8.82898 4.35889 8.91314 4.35889 8.99843C4.35889 9.08372 4.37837 9.16788 4.41584 9.2445C4.45332 9.32112 4.5078 9.38816 4.57512 9.44052L12.4993 15.6298C12.5925 15.7018 12.7261 15.6368 12.7261 15.519V14.1602C12.7261 14.0741 12.6857 13.9915 12.6189 13.9388L6.29075 8.99931L12.6189 4.0581C12.6857 4.00536 12.7261 3.92275 12.7261 3.83661Z" fill="white"/>
</svg>
