<svg width="24" height="24" viewBox="0 0 24 24" fill="none" xmlns="http://www.w3.org/2000/svg">
<mask id="mask0" mask-type="alpha" maskUnits="userSpaceOnUse" x="0" y="0" width="24" height="24">
<path d="M0 8.86154C0 5.75971 0 4.20879 0.603656 3.02405C1.13465 1.98192 1.98192 1.13465 3.02405 0.603656C4.20879 0 5.75971 0 8.86154 0H15.1385C18.2403 0 19.7912 0 20.9759 0.603656C22.0181 1.13465 22.8654 1.98192 23.3963 3.02405C24 4.20879 24 5.75971 24 8.86154V15.1385C24 18.2403 24 19.7912 23.3963 20.9759C22.8654 22.0181 22.0181 22.8654 20.9759 23.3963C19.7912 24 18.2403 24 15.1385 24H8.86154C5.75971 24 4.20879 24 3.02405 23.3963C1.98192 22.8654 1.13465 22.0181 0.603656 20.9759C0 19.7912 0 18.2403 0 15.1385V8.86154Z" fill="url(#paint0_radial)"/>
</mask>
<g mask="url(#mask0)">
<rect x="-2.76953" y="-2.76917" width="29.5385" height="29.5385" fill="url(#paint1_radial)"/>
<circle cx="11.9997" cy="12.0001" r="14.7692" fill="white"/>
<path fill-rule="evenodd" clip-rule="evenodd" d="M11.9997 -2.76917C20.1566 -2.76917 26.7689 3.84321 26.7689 12.0001C26.7689 20.1569 20.1566 26.7693 11.9997 26.7693C3.84285 26.7693 -2.76953 20.1569 -2.76953 12.0001C-2.76953 3.84321 3.84285 -2.76917 11.9997 -2.76917ZM8.3982 3.5545H15.6016C18.3066 3.5545 20.5187 5.73922 20.5187 8.40814V15.5921C20.5187 18.2616 18.3066 20.4456 15.6016 20.4456L8.3982 20.4455C5.69313 20.4455 3.48077 18.2615 3.48077 15.592V8.40805C3.48077 5.73922 5.69313 3.5545 8.3982 3.5545ZM11.9539 7.43966C14.5825 7.43966 16.7155 9.57281 16.7155 12.2014C16.7155 14.8303 14.5825 16.9631 11.9539 16.9631C9.3245 16.9631 7.19179 14.8303 7.19179 12.2014C7.19179 9.57281 9.32458 7.43966 11.9539 7.43966ZM11.9539 9.04803C13.6946 9.04803 15.1073 10.4605 15.1073 12.2014C15.1073 13.9424 13.6946 15.3551 11.9539 15.3551C10.2126 15.3551 8.80007 13.9423 8.80007 12.2014C8.80007 10.4605 10.2126 9.04803 11.9539 9.04803ZM16.5606 6.77965C16.9877 6.77965 17.3339 7.12587 17.3339 7.55247C17.3339 7.9795 16.9877 8.32573 16.5606 8.32573C16.134 8.32573 15.7878 7.9795 15.7878 7.55247C15.7878 7.12579 16.134 6.77965 16.5606 6.77965ZM8.98687 4.93424H15.0135C17.2765 4.93424 19.1272 6.77584 19.1272 9.02632V15.0832C19.1272 17.3335 17.2765 19.1749 15.0135 19.1749L8.98687 19.175C6.7239 19.175 4.87282 17.3337 4.87282 15.0833V9.02623C4.87282 6.77584 6.7239 4.93424 8.98687 4.93424Z" fill="url(#paint2_radial)"/>
</g>
<defs>
<radialGradient id="paint0_radial" cx="0" cy="0" r="1" gradientUnits="userSpaceOnUse" gradientTransform="translate(6.37503 25.8485) rotate(-90) scale(23.7858)">
<stop stop-color="#FFDD55"/>
<stop offset="0.1" stop-color="#FFDD55"/>
<stop offset="0.5" stop-color="#FF543E"/>
<stop offset="1" stop-color="#C837AB"/>
</radialGradient>
<radialGradient id="paint1_radial" cx="0" cy="0" r="1" gradientUnits="userSpaceOnUse" gradientTransform="translate(5.07666 29.0444) rotate(-90) scale(29.2748)">
<stop stop-color="#FFDD55"/>
<stop offset="0.1" stop-color="#FFDD55"/>
<stop offset="0.5" stop-color="#FF543E"/>
<stop offset="1" stop-color="#C837AB"/>
</radialGradient>
<radialGradient id="paint2_radial" cx="0" cy="0" r="1" gradientUnits="userSpaceOnUse" gradientTransform="translate(5.07666 29.0444) rotate(-90) scale(29.2748)">
<stop stop-color="#FFDD55"/>
<stop offset="0.1" stop-color="#FFDD55"/>
<stop offset="0.5" stop-color="#FF543E"/>
<stop offset="1" stop-color="#C837AB"/>
</radialGradient>
</defs>
</svg>
