<svg width="24" height="24" viewBox="0 0 24 24" fill="none" xmlns="http://www.w3.org/2000/svg">
<mask id="mask0" mask-type="alpha" maskUnits="userSpaceOnUse" x="0" y="0" width="24" height="24">
<path d="M0 8.86154C0 5.75971 0 4.20879 0.603656 3.02405C1.13465 1.98192 1.98192 1.13465 3.02405 0.603656C4.20879 0 5.75971 0 8.86154 0H15.1385C18.2403 0 19.7912 0 20.9759 0.603656C22.0181 1.13465 22.8654 1.98192 23.3963 3.02405C24 4.20879 24 5.75971 24 8.86154V15.1385C24 18.2403 24 19.7912 23.3963 20.9759C22.8654 22.0181 22.0181 22.8654 20.9759 23.3963C19.7912 24 18.2403 24 15.1385 24H8.86154C5.75971 24 4.20879 24 3.02405 23.3963C1.98192 22.8654 1.13465 22.0181 0.603656 20.9759C0 19.7912 0 18.2403 0 15.1385V8.86154Z" fill="url(#paint0_radial)"/>
</mask>
<g mask="url(#mask0)">
<circle cx="11.9997" cy="12.0001" r="14.7692" fill="white"/>
</g>
<g clip-path="url(#clip0)">
<path d="M12.0003 21.2154C17.0984 21.2154 21.2311 17.0996 21.2311 12.0227C21.2311 6.94536 17.0984 2.82959 12.0003 2.82959C6.90222 2.82959 2.76953 6.94536 2.76953 12.0227C2.76953 17.0996 6.90222 21.2154 12.0003 21.2154Z" fill="white"/>
<path d="M12.0003 2.82959C6.90261 2.82959 2.76953 6.94574 2.76953 12.0227C2.76953 15.9192 5.20069 19.2484 8.63453 20.5873C8.55107 19.8611 8.48261 18.7415 8.66492 17.9469C8.83222 17.228 9.74376 13.3769 9.74376 13.3769C9.74376 13.3769 9.4703 12.8246 9.4703 12.015C9.4703 10.7361 10.2149 9.78305 11.1418 9.78305C11.9318 9.78305 12.3118 10.373 12.3118 11.0769C12.3118 11.8634 11.8103 13.0438 11.5445 14.1411C11.3241 15.0565 12.008 15.8057 12.9118 15.8057C14.553 15.8057 15.8141 14.0807 15.8141 11.5988C15.8141 9.3969 14.2265 7.86113 11.9549 7.86113C9.32607 7.86113 7.78376 9.82074 7.78376 11.8484C7.78376 12.6354 8.08761 13.4827 8.46761 13.9442C8.49993 13.9793 8.52254 14.0222 8.5332 14.0686C8.54386 14.1151 8.5422 14.1636 8.52838 14.2092C8.45992 14.4965 8.3003 15.1246 8.26992 15.2534C8.23222 15.4196 8.13338 15.4577 7.95838 15.3742C6.80376 14.8373 6.08184 13.165 6.08184 11.8107C6.08184 8.91266 8.19415 6.24959 12.1826 6.24959C15.3811 6.24959 17.873 8.5192 17.873 11.5611C17.873 14.7311 15.8672 17.2811 13.0868 17.2811C12.1522 17.2811 11.2711 16.7969 10.9745 16.2219L10.3972 18.4084C10.1922 19.2104 9.62992 20.2092 9.24992 20.8219C10.1362 21.0937 11.0582 21.2315 11.9853 21.2307C17.083 21.2307 21.2161 17.1146 21.2161 12.0377C21.2311 6.94574 17.098 2.82959 12.0003 2.82959Z" fill="#E60023"/>
</g>
<defs>
<radialGradient id="paint0_radial" cx="0" cy="0" r="1" gradientUnits="userSpaceOnUse" gradientTransform="translate(6.37503 25.8485) rotate(-90) scale(23.7858)">
<stop stop-color="#FFDD55"/>
<stop offset="0.1" stop-color="#FFDD55"/>
<stop offset="0.5" stop-color="#FF543E"/>
<stop offset="1" stop-color="#C837AB"/>
</radialGradient>
<clipPath id="clip0">
<rect width="18.4615" height="18.4615" fill="white" transform="translate(2.76953 2.76917)"/>
</clipPath>
</defs>
</svg>
