<svg width="24" height="24" viewBox="0 0 24 24" fill="none" xmlns="http://www.w3.org/2000/svg">
<mask id="mask0" mask-type="alpha" maskUnits="userSpaceOnUse" x="0" y="0" width="24" height="24">
<path d="M0 8.86154C0 5.75971 0 4.20879 0.603656 3.02405C1.13465 1.98192 1.98192 1.13465 3.02405 0.603656C4.20879 0 5.75971 0 8.86154 0H15.1385C18.2403 0 19.7912 0 20.9759 0.603656C22.0181 1.13465 22.8654 1.98192 23.3963 3.02405C24 4.20879 24 5.75971 24 8.86154V15.1385C24 18.2403 24 19.7912 23.3963 20.9759C22.8654 22.0181 22.0181 22.8654 20.9759 23.3963C19.7912 24 18.2403 24 15.1385 24H8.86154C5.75971 24 4.20879 24 3.02405 23.3963C1.98192 22.8654 1.13465 22.0181 0.603656 20.9759C0 19.7912 0 18.2403 0 15.1385V8.86154Z" fill="url(#paint0_radial)"/>
</mask>
<g mask="url(#mask0)">
<circle cx="12.0001" cy="12.0001" r="20.3077" fill="#130C17"/>
<path d="M10.1974 10.0397V9.31832C9.9471 9.27849 9.69428 9.25689 9.44089 9.25368C8.24803 9.25084 7.08546 9.62921 6.12278 10.3336C5.1601 11.038 4.44767 12.0316 4.08942 13.1694C3.73116 14.3072 3.74583 15.5297 4.13127 16.6585C4.51672 17.7874 5.25278 18.7636 6.23208 19.4447C5.49571 18.6559 5.00334 17.6709 4.81437 16.6085C4.62541 15.546 4.74793 14.4516 5.16715 13.4573C5.58638 12.463 6.28439 11.6112 7.17696 11.0048C8.06953 10.3984 9.11853 10.0632 10.1974 10.0397Z" fill="#00F2EA"/>
<path d="M10.335 18.1896C10.9938 18.1888 11.627 17.9339 12.1026 17.478C12.5783 17.0221 12.8597 16.4003 12.8884 15.7421V3.54157H15.1179C15.0724 3.2867 15.0506 3.02818 15.0526 2.76929H12.004V14.9574C11.9795 15.6187 11.6998 16.2448 11.2236 16.7044C10.7474 17.1639 10.1117 17.4211 9.44991 17.4221C9.03905 17.4185 8.63488 17.3176 8.27051 17.1278C8.50663 17.4549 8.81671 17.7216 9.17548 17.9061C9.53425 18.0906 9.93155 18.1878 10.335 18.1896Z" fill="#00F2EA"/>
<path d="M19.2795 7.68091V7.00284C18.4591 7.00282 17.657 6.76073 16.9736 6.30688C17.5725 7.00359 18.3819 7.48638 19.2795 7.68228V7.68091Z" fill="#00F2EA"/>
<path d="M16.9727 6.30703C16.2997 5.54038 15.9287 4.55505 15.9288 3.53491H15.1152C15.2204 4.09881 15.4392 4.63539 15.7585 5.11198C16.0777 5.58856 16.4906 5.99517 16.972 6.30703H16.9727Z" fill="#FF004F"/>
<path d="M9.44346 12.304C8.8727 12.3072 8.31936 12.501 7.87136 12.8547C7.42336 13.2084 7.10638 13.7016 6.97077 14.256C6.83516 14.8105 6.88871 15.3943 7.12291 15.9148C7.3571 16.4353 7.75851 16.8627 8.26337 17.1289C7.98726 16.7476 7.82194 16.2973 7.78567 15.8279C7.74941 15.3584 7.8436 14.8881 8.05786 14.4689C8.27211 14.0496 8.59808 13.6977 8.99976 13.4521C9.40144 13.2065 9.8632 13.0767 10.334 13.077C10.5905 13.0797 10.8453 13.1193 11.0905 13.1946V10.0924C10.8401 10.055 10.5873 10.0354 10.334 10.0339H10.1965V12.3927C9.95108 12.327 9.69744 12.2971 9.44346 12.304Z" fill="#FF004F"/>
<path d="M19.28 7.68079V10.0396C17.7611 10.0363 16.2816 9.5551 15.0514 8.6642V14.8624C15.0483 16.3478 14.456 17.7713 13.4046 18.8205C12.3532 19.8697 10.9285 20.4589 9.44318 20.4589C8.29436 20.4612 7.17317 20.1067 6.23438 19.4446C6.99988 20.268 7.99563 20.8418 9.09191 21.0913C10.1882 21.3407 11.3342 21.2542 12.3806 20.8431C13.427 20.4319 14.3254 19.7152 14.9586 18.7862C15.5919 17.8572 15.9307 16.759 15.9309 15.6347V9.45574C17.1654 10.3408 18.6468 10.8154 20.1658 10.8126V7.775C19.8681 7.77435 19.5712 7.74277 19.28 7.68079Z" fill="#FF004F"/>
<path d="M15.0521 14.8641V8.66584C16.2873 9.55151 17.7698 10.026 19.2897 10.022V7.66317C18.3924 7.47381 17.5809 6.99784 16.9777 6.30703C16.4962 5.99517 16.0833 5.58856 15.7641 5.11198C15.4449 4.63539 15.226 4.09881 15.1209 3.53491H12.8879V15.743C12.8662 16.2743 12.6795 16.7857 12.3538 17.2061C12.0281 17.6265 11.5795 17.935 11.0704 18.0887C10.5613 18.2425 10.017 18.2338 9.51301 18.064C9.00906 17.8942 8.57051 17.5716 8.25831 17.1411C7.7533 16.875 7.35169 16.4478 7.11733 15.9274C6.88297 15.4069 6.8293 14.823 6.96485 14.2686C7.10041 13.7141 7.41741 13.2208 7.86546 12.8672C8.31352 12.5136 8.86693 12.3199 9.43772 12.3168C9.69426 12.3189 9.94911 12.3586 10.1942 12.4344V10.0749C9.10944 10.0934 8.05348 10.427 7.15507 11.0352C6.25665 11.6434 5.55459 12.4998 5.13447 13.5001C4.71434 14.5003 4.59432 15.6012 4.78901 16.6685C4.98371 17.7358 5.48473 18.7234 6.23097 19.5109C7.17874 20.1503 8.30082 20.4815 9.44391 20.4592C10.929 20.4592 12.3535 19.8701 13.4049 18.8212C14.4562 17.7723 15.0486 16.3492 15.0521 14.8641Z" fill="white"/>
</g>
<defs>
<radialGradient id="paint0_radial" cx="0" cy="0" r="1" gradientUnits="userSpaceOnUse" gradientTransform="translate(6.37503 25.8485) rotate(-90) scale(23.7858)">
<stop stop-color="#FFDD55"/>
<stop offset="0.1" stop-color="#FFDD55"/>
<stop offset="0.5" stop-color="#FF543E"/>
<stop offset="1" stop-color="#C837AB"/>
</radialGradient>
</defs>
</svg>
