<svg width="24" height="24" viewBox="0 0 24 24" fill="none" xmlns="http://www.w3.org/2000/svg">
<mask id="mask0" mask-type="alpha" maskUnits="userSpaceOnUse" x="0" y="0" width="24" height="24">
<path d="M0 8.86154C0 5.75971 0 4.20879 0.603656 3.02405C1.13465 1.98192 1.98192 1.13465 3.02405 0.603656C4.20879 0 5.75971 0 8.86154 0H15.1385C18.2403 0 19.7912 0 20.9759 0.603656C22.0181 1.13465 22.8654 1.98192 23.3963 3.02405C24 4.20879 24 5.75971 24 8.86154V15.1385C24 18.2403 24 19.7912 23.3963 20.9759C22.8654 22.0181 22.0181 22.8654 20.9759 23.3963C19.7912 24 18.2403 24 15.1385 24H8.86154C5.75971 24 4.20879 24 3.02405 23.3963C1.98192 22.8654 1.13465 22.0181 0.603656 20.9759C0 19.7912 0 18.2403 0 15.1385V8.86154Z" fill="url(#paint0_radial)"/>
</mask>
<g mask="url(#mask0)">
<circle cx="11.9997" cy="12.0001" r="14.7692" fill="white"/>
<path fill-rule="evenodd" clip-rule="evenodd" d="M12 -3C20.2843 -3 27 3.7157 27 12C27 20.2843 20.2843 27 12 27C3.7157 27 -3 20.2843 -3 12C-3 3.7157 3.7157 -3 12 -3ZM19.5775 8.90671C19.5775 8.90671 19.4265 7.8403 18.9617 7.37203C18.3726 6.75616 17.7131 6.7522 17.4116 6.71656C15.2484 6.55897 11.9992 6.55897 11.9992 6.55897H11.9935C11.9935 6.55897 8.74588 6.55897 6.58138 6.71656C6.27871 6.75337 5.62009 6.75589 5.03131 7.37203C4.5662 7.8403 4.41832 8.90671 4.41832 8.90671C4.41832 8.90671 4.26434 10.1581 4.26434 11.4121V12.5847C4.26434 13.8362 4.41815 15.0901 4.41815 15.0901C4.41815 15.0901 4.56916 16.1565 5.03113 16.6255C5.61991 17.2414 6.39364 17.2214 6.73906 17.287C7.97755 17.4053 12.0002 17.4409 12.0002 17.4409C12.0002 17.4409 15.2521 17.4352 17.4154 17.2805C17.718 17.2447 18.3764 17.241 18.9654 16.6249C19.4306 16.1567 19.5813 15.0891 19.5813 15.0891C19.5813 15.0891 19.7353 13.8377 19.7353 12.5837V11.4112C19.7322 10.1598 19.5783 8.9059 19.5783 8.9059L19.5774 8.90671L19.5774 8.90662L19.5775 8.90671ZM10.3967 14.0074V9.65928L14.576 11.8406L10.3967 14.0074Z" fill="#FE1F1F"/>
</g>
<defs>
<radialGradient id="paint0_radial" cx="0" cy="0" r="1" gradientUnits="userSpaceOnUse" gradientTransform="translate(6.37503 25.8485) rotate(-90) scale(23.7858)">
<stop stop-color="#FFDD55"/>
<stop offset="0.1" stop-color="#FFDD55"/>
<stop offset="0.5" stop-color="#FF543E"/>
<stop offset="1" stop-color="#C837AB"/>
</radialGradient>
</defs>
</svg>
