<svg fill="none" height="37" viewBox="0 0 58 37" width="58" xmlns="http://www.w3.org/2000/svg">
    <path
        d="M16.8267 8.41512C16.8263 10.0791 16.3326 11.7057 15.4078 13.089C14.483 14.4724 13.1688 15.5505 11.6314 16.1869C10.0939 16.8234 8.4022 16.9897 6.77024 16.6647C5.13828 16.3397 3.63934 15.5381 2.46296 14.3612C1.28658 13.1843 0.485603 11.6851 0.161317 10.053C-0.162969 8.42086 0.00400111 6.72926 0.641112 5.19205C1.27822 3.65485 2.35686 2.34109 3.74062 1.41692C5.12438 0.492739 6.75112 -0.00035135 8.41512 1.87834e-07C10.6462 0.000471569 12.7857 0.887083 14.3631 2.46484C15.9405 4.0426 16.8267 6.18229 16.8267 8.41334"
        fill="#F89E2D"/>
    <path
        d="M34.9592 27.1312C34.9596 27.9076 34.7296 28.6667 34.2985 29.3124C33.8674 29.9581 33.2544 30.4615 32.5371 30.7587C31.8199 31.056 31.0305 31.1339 30.269 30.9825C29.5075 30.8311 28.808 30.4573 28.259 29.9083C27.7099 29.3593 27.3361 28.6597 27.1847 27.8982C27.0333 27.1367 27.1112 26.3474 27.4085 25.6301C27.7058 24.9128 28.2091 24.2999 28.8548 23.8687C29.5006 23.4376 30.2596 23.2077 31.0361 23.208C32.0764 23.2085 33.074 23.622 33.8096 24.3576C34.5453 25.0932 34.9588 26.0908 34.9592 27.1312Z"
        fill="#7B26DA"/>
    <path
        d="M29.6549 8.90338C29.6705 9.40538 29.5359 9.9006 29.2682 10.3256C29.0006 10.7506 28.6122 11.0861 28.1528 11.289C27.6934 11.4919 27.1839 11.553 26.6895 11.4646C26.1951 11.3761 25.7384 11.1421 25.3778 10.7925C25.0172 10.4428 24.7692 9.99352 24.6656 9.50209C24.562 9.01066 24.6074 8.49948 24.7961 8.03402C24.9848 7.56857 25.3081 7.17003 25.7247 6.88947C26.1412 6.60891 26.6321 6.45908 27.1343 6.4592C27.7922 6.45063 28.4268 6.70297 28.8991 7.16101C29.3715 7.61905 29.6432 8.24551 29.6549 8.90338Z"
        fill="#0D053B"/>
    <path
        d="M12.2297 26.5596V7.68154H16.8159V22.5867H24.1218V26.5596H12.2297ZM40.2788 9.628C40.1188 9.57468 39.9322 9.53024 39.7189 9.49468C39.5056 9.45913 39.2923 9.44136 39.0789 9.44136C38.6701 9.44136 38.3412 9.51246 38.0924 9.65467C37.8435 9.79687 37.648 9.99241 37.5058 10.2413C37.3636 10.4724 37.2658 10.739 37.2125 11.0412C37.1591 11.3434 37.1325 11.6456 37.1325 11.9478V13.281H40.0922V16.5606H37.1325V26.5596H32.7596V16.5606H30.3332V13.281H32.7596V12.0011C32.7596 11.1834 32.8485 10.4101 33.0262 9.68133C33.204 8.93474 33.5062 8.28592 33.9328 7.73487C34.3772 7.16604 34.9638 6.72164 35.6926 6.40167C36.4392 6.06393 37.3636 5.89506 38.4657 5.89506C38.839 5.89506 39.2034 5.92172 39.5589 5.97505C39.9322 6.0106 40.2699 6.07282 40.5721 6.1617L40.2788 9.628ZM55.8307 19.8669C55.8307 20.9513 55.6352 21.9378 55.2441 22.8266C54.8531 23.6976 54.3198 24.4442 53.6443 25.0664C52.9688 25.6708 52.1867 26.1418 51.2979 26.4796C50.4091 26.8173 49.4581 26.9862 48.4448 26.9862C47.4494 26.9862 46.4984 26.8173 45.5918 26.4796C44.703 26.1418 43.9209 25.6708 43.2454 25.0664C42.5877 24.4442 42.0633 23.6976 41.6722 22.8266C41.2811 21.9378 41.0856 20.9513 41.0856 19.8669C41.0856 18.7826 41.2811 17.8049 41.6722 16.9339C42.0633 16.0629 42.5877 15.3252 43.2454 14.7208C43.9209 14.1164 44.703 13.6543 45.5918 13.3343C46.4984 13.0143 47.4494 12.8543 48.4448 12.8543C49.4581 12.8543 50.4091 13.0143 51.2979 13.3343C52.1867 13.6543 52.9688 14.1164 53.6443 14.7208C54.3198 15.3252 54.8531 16.0629 55.2441 16.9339C55.6352 17.8049 55.8307 18.7826 55.8307 19.8669ZM51.6178 19.8669C51.6178 19.4403 51.5467 19.0226 51.4045 18.6137C51.2623 18.2049 51.0579 17.8494 50.7913 17.5472C50.5246 17.2272 50.1958 16.9695 49.8047 16.7739C49.4136 16.5784 48.9603 16.4806 48.4448 16.4806C47.9293 16.4806 47.4761 16.5784 47.085 16.7739C46.6939 16.9695 46.3651 17.2272 46.0984 17.5472C45.8496 17.8494 45.654 18.2049 45.5118 18.6137C45.3874 19.0226 45.3252 19.4403 45.3252 19.8669C45.3252 20.2936 45.3874 20.7113 45.5118 21.1201C45.654 21.529 45.8584 21.9023 46.1251 22.24C46.3917 22.56 46.7206 22.8177 47.1117 23.0133C47.5027 23.2088 47.956 23.3066 48.4715 23.3066C48.987 23.3066 49.4403 23.2088 49.8314 23.0133C50.2224 22.8177 50.5513 22.56 50.8179 22.24C51.0846 21.9023 51.2801 21.529 51.4045 21.1201C51.5467 20.7113 51.6178 20.2936 51.6178 19.8669Z"
        fill="#0D053B"/>
    <path d="M29.4068 13.9639H25.041V27.2229H29.4068V13.9639Z" fill="#0D053B"/>
    <path
        d="M57.7473 8.44398C57.7473 8.84387 57.6287 9.23477 57.4065 9.56722C57.1842 9.89967 56.8683 10.1587 56.4988 10.3116C56.1293 10.4645 55.7227 10.5043 55.3306 10.426C54.9384 10.3477 54.5783 10.1549 54.2958 9.87186C54.0133 9.58885 53.8211 9.22839 53.7435 8.83609C53.6659 8.4438 53.7064 8.03731 53.8599 7.66806C54.0135 7.29881 54.2731 6.9834 54.6059 6.76175C54.9388 6.54009 55.3299 6.42215 55.7298 6.42285C56.2652 6.4238 56.7783 6.63715 57.1566 7.01608C57.5349 7.39502 57.7473 7.90856 57.7473 8.44398Z"
        fill="#DE1FD6"/>
</svg>
