<svg width="11" height="9" viewBox="0 0 11 9" fill="none" xmlns="http://www.w3.org/2000/svg">
<path d="M10.9573 0.359458L5.01772 8.62415C4.93471 8.74043 4.82527 8.83518 4.69848 8.90054C4.57169 8.9659 4.43121 9 4.28867 9C4.14613 9 4.00564 8.9659 3.87886 8.90054C3.75207 8.83518 3.64263 8.74043 3.55961 8.62415L0.0426622 3.73326C-0.0645104 3.58325 0.0426622 3.37381 0.225984 3.37381H1.54872C1.83639 3.37381 2.10996 3.51249 2.27918 3.75024L4.28726 6.54665L8.72082 0.376439C8.89004 0.141518 9.16079 0 9.45128 0H10.774C10.9573 0 11.0645 0.209448 10.9573 0.359458Z" fill="white"/>
</svg>
