<svg width="10" height="12" viewBox="0 0 10 12" fill="none" xmlns="http://www.w3.org/2000/svg">
<path fill-rule="evenodd" clip-rule="evenodd" d="M5.43802 0.319987C5.305 0.243189 5.15411 0.202759 5.00052 0.202759C4.84692 0.202759 4.69604 0.243189 4.56302 0.319987L0.438019 2.70099C0.305042 2.77776 0.19461 2.88818 0.117815 3.02114C0.0410198 3.15411 0.000566575 3.30494 0.000518799 3.45849V8.22099C0.000518799 8.53349 0.167519 8.82249 0.438019 8.97849L4.56302 11.36C4.69604 11.4368 4.84692 11.4772 5.00052 11.4772C5.15411 11.4772 5.305 11.4368 5.43802 11.36L9.56302 8.97899C9.69607 8.90217 9.80655 8.79168 9.88335 8.65862C9.96015 8.52556 10.0006 8.37462 10.0005 8.22099V3.45849C10.0005 3.30494 9.96002 3.15411 9.88322 3.02114C9.80643 2.88818 9.696 2.77776 9.56302 2.70099L5.43802 0.319487V0.319987ZM4.93802 0.968987C4.95702 0.958016 4.97858 0.95224 5.00052 0.95224C5.02246 0.95224 5.04402 0.958016 5.06302 0.968987L8.87552 3.16999L5.00052 5.40699L1.12552 3.16999L4.93802 0.968987ZM0.750519 3.81999V8.22149C0.750519 8.26649 0.774519 8.30749 0.813019 8.32949L4.62552 10.5305V6.05699L0.750519 3.81999ZM5.37552 10.5305L9.18802 8.32949C9.20698 8.31854 9.22274 8.3028 9.23371 8.28384C9.24468 8.26489 9.25047 8.24339 9.25052 8.22149V3.81949L5.37552 6.05649V10.53V10.5305Z" fill="black"/>
</svg>
