<svg width="18" height="18" viewBox="0 0 18 18" fill="none" xmlns="http://www.w3.org/2000/svg">
<path d="M5.51612 2.84693V1.83057C5.51612 1.02702 6.0409 0.358203 6.71046 0.358203H11.2912C11.959 0.358203 12.4855 1.02697 12.4855 1.83057V2.84693H16.9909C17.21 2.84693 17.3832 3.03031 17.3833 3.25103M5.51612 2.84693L1.96696 15.6542C1.96696 16.7154 2.72308 17.5801 3.64872 17.5801H14.3512C15.2786 17.5801 16.033 16.7171 16.0313 15.6559H16.0813V15.6558V3.65557H16.9909C17.2096 3.65557 17.3851 3.47249 17.3833 3.25103M5.51612 2.84693H1.00911C0.791748 2.84693 0.616656 3.03027 0.616656 3.25125C0.616656 3.47223 0.791748 3.65557 1.00911 3.65557H1.91696L5.51612 2.84693ZM17.3833 3.25103C17.3833 3.25096 17.3833 3.25089 17.3833 3.25081L17.3333 3.25125H17.3833C17.3833 3.25118 17.3833 3.2511 17.3833 3.25103ZM11.3169 1.16854C11.3971 1.17897 11.487 1.23751 11.5613 1.34367C11.6427 1.45987 11.7006 1.62726 11.7006 1.82718V2.84184H6.30103V1.82888C6.30103 1.62896 6.35892 1.46156 6.44032 1.34537C6.52275 1.2277 6.62424 1.16854 6.71046 1.16854H11.2912H11.3169ZM5.51612 3.65557V3.65726H5.56612H12.4355H12.4855V3.65557H15.2947V15.6559C15.2947 16.3077 14.8624 16.8197 14.3496 16.8197H3.64702C3.13594 16.8197 2.70357 16.3077 2.70357 15.6559V3.65557H5.51612ZM12.0431 13.1994C12.0431 13.4217 12.2162 13.6054 12.4355 13.6054C12.6531 13.6054 12.828 13.4219 12.828 13.1994V6.44861C12.828 6.22763 12.6529 6.04429 12.4355 6.04429C12.2163 6.04429 12.0431 6.2278 12.0431 6.44861V13.1994ZM8.60837 13.1994C8.60837 13.4219 8.78331 13.6054 9.00083 13.6054C9.21834 13.6054 9.39328 13.4219 9.39328 13.1994V6.44861C9.39328 6.2278 9.22004 6.04429 9.00083 6.04429C8.78346 6.04429 8.60837 6.22763 8.60837 6.44861V13.1994ZM5.17367 13.1994C5.17367 13.4217 5.34675 13.6054 5.56612 13.6054C5.78549 13.6054 5.95857 13.4217 5.95857 13.1994V6.44861C5.95857 6.2278 5.78534 6.04429 5.56612 6.04429C5.3469 6.04429 5.17367 6.2278 5.17367 6.44861V13.1994Z" fill="black" stroke="black" stroke-width="0.1"/>
</svg>
