<svg width="24" height="24" viewBox="0 0 24 24" fill="none" xmlns="http://www.w3.org/2000/svg">
<g filter="url(#filter0_d)">
<path d="M9.96484 6.2959L11.983 13.3565L14.0013 6.2959H9.96484Z" fill="white"/>
<path d="M10.3905 2.60059H8.06561L6.25 5.55629H9.20801L10.3905 2.60059H10.3905Z" fill="white"/>
<path d="M13.962 5.55589L12.7793 2.60059H11.1867L10.0044 5.55629L13.962 5.55589Z" fill="white"/>
<path d="M6.41895 6.29529L8.42114 8.83598C8.42595 8.83378 11.0277 12.1435 11.0277 12.1435L9.18874 6.29529H6.41895ZM13.5752 2.60059L14.7578 5.55589L17.7501 5.55629L15.9002 2.60059H13.5752ZM12.9825 12.0947L16.4616 7.7083C16.4552 7.70519 17.577 6.2953 17.577 6.2953L14.7769 6.29529L12.9825 12.0947Z" fill="white"/>
</g>
<defs>
<filter id="filter0_d" x="0" y="0" width="24" height="24" filterUnits="userSpaceOnUse" color-interpolation-filters="sRGB">
<feFlood flood-opacity="0" result="BackgroundImageFix"/>
<feColorMatrix in="SourceAlpha" type="matrix" values="0 0 0 0 0 0 0 0 0 0 0 0 0 0 0 0 0 0 127 0"/>
<feOffset dy="4"/>
<feGaussianBlur stdDeviation="3"/>
<feColorMatrix type="matrix" values="0 0 0 0 0.909804 0 0 0 0 0.678431 0 0 0 0 0.360784 0 0 0 1 0"/>
<feBlend mode="normal" in2="BackgroundImageFix" result="effect1_dropShadow"/>
<feBlend mode="normal" in="SourceGraphic" in2="effect1_dropShadow" result="shape"/>
</filter>
</defs>
</svg>
