<svg width="14" height="9" viewBox="0 0 14 9" fill="none" xmlns="http://www.w3.org/2000/svg">
<path d="M1.83692 0.273778L0.478129 0.273778C0.360355 0.273778 0.295316 0.40913 0.367386 0.500536L6.55664 8.42476C6.609 8.49208 6.67605 8.54656 6.75266 8.58404C6.82928 8.62151 6.91344 8.64099 6.99873 8.64099C7.08402 8.64099 7.16819 8.62151 7.2448 8.58404C7.32142 8.54656 7.38846 8.49208 7.44082 8.42476L13.6301 0.500536C13.7022 0.407373 13.6371 0.273778 13.5193 0.273778L12.1606 0.273778C12.0744 0.273778 11.9918 0.314207 11.9391 0.381004L6.99961 6.70913L2.0584 0.381004C2.00567 0.314207 1.92305 0.273778 1.83692 0.273778Z" fill="#808080"/>
</svg>
