<svg width="112" height="20" viewBox="0 0 112 20" fill="none" xmlns="http://www.w3.org/2000/svg">
<rect width="112" height="20" rx="10" fill="#E41515"/>
<path d="M13.9996 6.49085C12.0003 3.48072 8 4.73337 8 8.01162C8 10.2299 9.99805 11.8115 11.5 13.0038C13.0626 14.2434 13.5002 15.0185 13.9996 15.52C14.4998 15.0185 14.9182 14.2166 16.4995 13.0038C18.0241 11.8358 20 10.2048 20 7.98774C20 4.73337 15.9997 3.48114 13.9996 6.49085Z" fill="white"/>
<path d="M25.6758 11.2227C25.7031 11.7109 25.8184 12.1074 26.0215 12.4121C26.4082 12.9824 27.0898 13.2676 28.0664 13.2676C28.5039 13.2676 28.9023 13.2051 29.2617 13.0801C29.957 12.8379 30.3047 12.4043 30.3047 11.7793C30.3047 11.3105 30.1582 10.9766 29.8652 10.7773C29.5684 10.582 29.1035 10.4121 28.4707 10.2676L27.3047 10.0039C26.543 9.83203 26.0039 9.64258 25.6875 9.43555C25.1406 9.07617 24.8672 8.53906 24.8672 7.82422C24.8672 7.05078 25.1348 6.41602 25.6699 5.91992C26.2051 5.42383 26.9629 5.17578 27.9434 5.17578C28.8457 5.17578 29.6113 5.39453 30.2402 5.83203C30.873 6.26562 31.1895 6.96094 31.1895 7.91797H30.0938C30.0352 7.45703 29.9102 7.10352 29.7188 6.85742C29.3633 6.4082 28.7598 6.18359 27.9082 6.18359C27.2207 6.18359 26.7266 6.32812 26.4258 6.61719C26.125 6.90625 25.9746 7.24219 25.9746 7.625C25.9746 8.04688 26.1504 8.35547 26.502 8.55078C26.7324 8.67578 27.2539 8.83203 28.0664 9.01953L29.2734 9.29492C29.8555 9.42773 30.3047 9.60938 30.6211 9.83984C31.168 10.2422 31.4414 10.8262 31.4414 11.5918C31.4414 12.5449 31.0938 13.2266 30.3984 13.6367C29.707 14.0469 28.9023 14.252 27.9844 14.252C26.9141 14.252 26.0762 13.9785 25.4707 13.4316C24.8652 12.8887 24.5684 12.1523 24.5801 11.2227H25.6758ZM35.4258 13.291C35.918 13.291 36.3262 13.0859 36.6504 12.6758C36.9785 12.2617 37.1426 11.6445 37.1426 10.8242C37.1426 10.3242 37.0703 9.89453 36.9258 9.53516C36.6523 8.84375 36.1523 8.49805 35.4258 8.49805C34.6953 8.49805 34.1953 8.86328 33.9258 9.59375C33.7812 9.98438 33.709 10.4805 33.709 11.082C33.709 11.5664 33.7812 11.9785 33.9258 12.3184C34.1992 12.9668 34.6992 13.291 35.4258 13.291ZM32.6953 7.75391H33.7207V8.58594C33.9316 8.30078 34.1621 8.08008 34.4121 7.92383C34.7676 7.68945 35.1855 7.57227 35.666 7.57227C36.377 7.57227 36.9805 7.8457 37.4766 8.39258C37.9727 8.93555 38.2207 9.71289 38.2207 10.7246C38.2207 12.0918 37.8633 13.0684 37.1484 13.6543C36.6953 14.0254 36.168 14.2109 35.5664 14.2109C35.0938 14.2109 34.6973 14.1074 34.377 13.9004C34.1895 13.7832 33.9805 13.582 33.75 13.2969V16.502H32.6953V7.75391ZM42.0703 7.58398C42.5156 7.58398 42.9473 7.68945 43.3652 7.90039C43.7832 8.10742 44.1016 8.37695 44.3203 8.70898C44.5312 9.02539 44.6719 9.39453 44.7422 9.81641C44.8047 10.1055 44.8359 10.5664 44.8359 11.1992H40.2363C40.2559 11.8359 40.4062 12.3477 40.6875 12.7344C40.9688 13.1172 41.4043 13.3086 41.9941 13.3086C42.5449 13.3086 42.9844 13.127 43.3125 12.7637C43.5 12.5527 43.6328 12.3086 43.7109 12.0312H44.748C44.7207 12.2617 44.6289 12.5195 44.4727 12.8047C44.3203 13.0859 44.1484 13.3164 43.957 13.4961C43.6367 13.8086 43.2402 14.0195 42.7676 14.1289C42.5137 14.1914 42.2266 14.2227 41.9062 14.2227C41.125 14.2227 40.4629 13.9395 39.9199 13.373C39.377 12.8027 39.1055 12.0059 39.1055 10.9824C39.1055 9.97461 39.3789 9.15625 39.9258 8.52734C40.4727 7.89844 41.1875 7.58398 42.0703 7.58398ZM43.752 10.3613C43.709 9.9043 43.6094 9.53906 43.4531 9.26562C43.1641 8.75781 42.6816 8.50391 42.0059 8.50391C41.5215 8.50391 41.1152 8.67969 40.7871 9.03125C40.459 9.37891 40.2852 9.82227 40.2656 10.3613H43.752ZM48.5566 7.54297C49.2637 7.54297 49.8379 7.71484 50.2793 8.05859C50.7246 8.40234 50.9922 8.99414 51.082 9.83398H50.0566C49.9941 9.44727 49.8516 9.12695 49.6289 8.87305C49.4062 8.61523 49.0488 8.48633 48.5566 8.48633C47.8848 8.48633 47.4043 8.81445 47.1152 9.4707C46.9277 9.89648 46.834 10.4219 46.834 11.0469C46.834 11.6758 46.9668 12.2051 47.2324 12.6348C47.498 13.0645 47.916 13.2793 48.4863 13.2793C48.9238 13.2793 49.2695 13.1465 49.5234 12.8809C49.7812 12.6113 49.959 12.2441 50.0566 11.7793H51.082C50.9648 12.6113 50.6719 13.2207 50.2031 13.6074C49.7344 13.9902 49.1348 14.1816 48.4043 14.1816C47.584 14.1816 46.9297 13.8828 46.4414 13.2852C45.9531 12.6836 45.709 11.9336 45.709 11.0352C45.709 9.93359 45.9766 9.07617 46.5117 8.46289C47.0469 7.84961 47.7285 7.54297 48.5566 7.54297ZM52.1367 7.75391H53.209V14H52.1367V7.75391ZM52.1367 5.39258H53.209V6.58789H52.1367V5.39258ZM55.6172 12.3301C55.6172 12.6348 55.7285 12.875 55.9512 13.0508C56.1738 13.2266 56.4375 13.3145 56.7422 13.3145C57.1133 13.3145 57.4727 13.2285 57.8203 13.0566C58.4062 12.7715 58.6992 12.3047 58.6992 11.6562V10.8066C58.5703 10.8887 58.4043 10.957 58.2012 11.0117C57.998 11.0664 57.7988 11.1055 57.6035 11.1289L56.9648 11.2109C56.582 11.2617 56.2949 11.3418 56.1035 11.4512C55.7793 11.6348 55.6172 11.9277 55.6172 12.3301ZM58.1719 10.1973C58.4141 10.166 58.5762 10.0645 58.6582 9.89258C58.7051 9.79883 58.7285 9.66406 58.7285 9.48828C58.7285 9.12891 58.5996 8.86914 58.3418 8.70898C58.0879 8.54492 57.7227 8.46289 57.2461 8.46289C56.6953 8.46289 56.3047 8.61133 56.0742 8.9082C55.9453 9.07227 55.8613 9.31641 55.8223 9.64062H54.8379C54.8574 8.86719 55.1074 8.33008 55.5879 8.0293C56.0723 7.72461 56.6328 7.57227 57.2695 7.57227C58.0078 7.57227 58.6074 7.71289 59.0684 7.99414C59.5254 8.27539 59.7539 8.71289 59.7539 9.30664V12.9219C59.7539 13.0312 59.7754 13.1191 59.8184 13.1855C59.8652 13.252 59.9609 13.2852 60.1055 13.2852C60.1523 13.2852 60.2051 13.2832 60.2637 13.2793C60.3223 13.2715 60.3848 13.2617 60.4512 13.25V14.0293C60.2871 14.0762 60.1621 14.1055 60.0762 14.1172C59.9902 14.1289 59.873 14.1348 59.7246 14.1348C59.3613 14.1348 59.0977 14.0059 58.9336 13.748C58.8477 13.6113 58.7871 13.418 58.752 13.168C58.5371 13.4492 58.2285 13.6934 57.8262 13.9004C57.4238 14.1074 56.9805 14.2109 56.4961 14.2109C55.9141 14.2109 55.4375 14.0352 55.0664 13.6836C54.6992 13.3281 54.5156 12.8848 54.5156 12.3535C54.5156 11.7715 54.6973 11.3203 55.0605 11C55.4238 10.6797 55.9004 10.4824 56.4902 10.4082L58.1719 10.1973ZM61.5176 5.39258H62.5723V14H61.5176V5.39258ZM67.752 5.39258H74.0273V6.44727H68.8887V9.06055H73.6406V10.0566H68.8887V12.9746H74.1152V14H67.752V5.39258ZM76.1719 10.9355C76.1719 11.6074 76.3145 12.1699 76.5996 12.623C76.8848 13.0762 77.3418 13.3027 77.9707 13.3027C78.459 13.3027 78.8594 13.0938 79.1719 12.6758C79.4883 12.2539 79.6465 11.6504 79.6465 10.8652C79.6465 10.0723 79.4844 9.48633 79.1602 9.10742C78.8359 8.72461 78.4355 8.5332 77.959 8.5332C77.4277 8.5332 76.9961 8.73633 76.6641 9.14258C76.3359 9.54883 76.1719 10.1465 76.1719 10.9355ZM77.7598 7.61328C78.2402 7.61328 78.6426 7.71484 78.9668 7.91797C79.1543 8.03516 79.3672 8.24023 79.6055 8.5332V5.36328H80.6191V14H79.6699V13.127C79.4238 13.5137 79.1328 13.793 78.7969 13.9648C78.4609 14.1367 78.0762 14.2227 77.6426 14.2227C76.9434 14.2227 76.3379 13.9297 75.8262 13.3438C75.3145 12.7539 75.0586 11.9707 75.0586 10.9941C75.0586 10.0801 75.291 9.28906 75.7559 8.62109C76.2246 7.94922 76.8926 7.61328 77.7598 7.61328ZM82.1836 7.75391H83.2559V14H82.1836V7.75391ZM82.1836 5.39258H83.2559V6.58789H82.1836V5.39258ZM85.0664 5.97266H86.1328V7.72461H87.1348V8.58594H86.1328V12.6816C86.1328 12.9004 86.207 13.0469 86.3555 13.1211C86.4375 13.1641 86.5742 13.1855 86.7656 13.1855C86.8164 13.1855 86.8711 13.1855 86.9297 13.1855C86.9883 13.1816 87.0566 13.1758 87.1348 13.168V14C87.0137 14.0352 86.8867 14.0605 86.7539 14.0762C86.625 14.0918 86.4844 14.0996 86.332 14.0996C85.8398 14.0996 85.5059 13.9746 85.3301 13.7246C85.1543 13.4707 85.0664 13.1426 85.0664 12.7402V8.58594H84.2168V7.72461H85.0664V5.97266ZM88.1953 7.75391H89.2676V14H88.1953V7.75391ZM88.1953 5.39258H89.2676V6.58789H88.1953V5.39258ZM93.3574 13.3203C94.0566 13.3203 94.5352 13.0566 94.793 12.5293C95.0547 11.998 95.1855 11.4082 95.1855 10.7598C95.1855 10.1738 95.0918 9.69727 94.9043 9.33008C94.6074 8.75195 94.0957 8.46289 93.3691 8.46289C92.7246 8.46289 92.2559 8.70898 91.9629 9.20117C91.6699 9.69336 91.5234 10.2871 91.5234 10.9824C91.5234 11.6504 91.6699 12.207 91.9629 12.6523C92.2559 13.0977 92.7207 13.3203 93.3574 13.3203ZM93.3984 7.54297C94.207 7.54297 94.8906 7.8125 95.4492 8.35156C96.0078 8.89062 96.2871 9.68359 96.2871 10.7305C96.2871 11.7422 96.041 12.5781 95.5488 13.2383C95.0566 13.8984 94.293 14.2285 93.2578 14.2285C92.3945 14.2285 91.709 13.9375 91.2012 13.3555C90.6934 12.7695 90.4395 11.9844 90.4395 11C90.4395 9.94531 90.707 9.10547 91.2422 8.48047C91.7773 7.85547 92.4961 7.54297 93.3984 7.54297ZM97.5469 7.72461H98.5488V8.61523C98.8457 8.24805 99.1602 7.98438 99.4922 7.82422C99.8242 7.66406 100.193 7.58398 100.6 7.58398C101.49 7.58398 102.092 7.89453 102.404 8.51562C102.576 8.85547 102.662 9.3418 102.662 9.97461V14H101.59V10.0449C101.59 9.66211 101.533 9.35352 101.42 9.11914C101.232 8.72852 100.893 8.5332 100.4 8.5332C100.15 8.5332 99.9453 8.55859 99.7852 8.60938C99.4961 8.69531 99.2422 8.86719 99.0234 9.125C98.8477 9.33203 98.7324 9.54688 98.6777 9.76953C98.627 9.98828 98.6016 10.3027 98.6016 10.7129V14H97.5469V7.72461Z" fill="white"/>
</svg>
