<svg fill="none" height="199" viewBox="0 0 267 199" width="267" xmlns="http://www.w3.org/2000/svg">
    <path
        d="M5.09016 138.78L4.49925 139.5C0.832586 147.333 -3.20075 165.5 9.99925 175.5C26.4993 188 53.4993 193.5 91.9993 189C130.499 184.5 170.999 208.5 182.499 193.5C193.999 178.5 226.499 189 251.999 175.5C277.499 162 264.499 135 244.999 102C225.499 69 223.999 57.5 194.499 58C164.999 58.5 166.499 47.9999 129.999 44.4999C93.4993 40.9999 58.4993 53.9999 53.4993 69.9999C48.5603 85.8047 21.179 119.173 5.09016 138.78Z"
        fill="#D9DCF6"/>
    <path
        d="M76.2268 62.2266C68.2504 74.9744 66.1435 147.527 65.6739 170.784C65.6619 171.308 65.6498 171.805 65.6438 172.274H45.4532C45.2064 171.778 44.9776 171.288 44.7609 170.784C32.7934 144.077 39.4333 112.054 39.7825 110.434C38.8735 115.525 42.985 130.281 47.6324 144.574C50.4677 100.627 74.7097 64.4454 76.2268 62.2266Z"
        fill="#76C654"/>
    <path
        d="M219.98 108.387C225.085 115.616 226.434 156.764 226.734 169.953C226.742 170.251 226.75 170.532 226.754 170.799H239.676C239.833 170.517 239.98 170.239 240.119 169.953C247.778 154.807 243.528 136.646 243.305 135.727C243.887 138.614 241.255 146.983 238.281 155.089C236.466 130.165 220.951 109.645 219.98 108.387Z"
        fill="#76C654"/>
    <rect fill="white" height="40" width="41" x="187" y="130"/>
    <path
        d="M147.825 171.137H80.6559C79.1433 171.141 77.6608 170.714 76.3822 169.906C75.3572 169.268 74.5099 168.381 73.9187 167.328C73.3275 166.275 73.0115 165.09 73 163.882V7.25919C73 3.25647 76.4345 1.68256e-06 80.6559 1.68256e-06H96.4416V1.44071C96.4416 4.51541 99.0885 7.01691 102.342 7.01691H124.596C125.848 7.02385 127.072 6.64278 128.099 5.92607C128.827 5.42346 129.424 4.75419 129.841 3.97399C130.258 3.19379 130.483 2.32525 130.496 1.4407V0H147.825C152.046 0 155.481 3.25647 155.481 7.25919V163.882C155.475 164.946 155.229 165.995 154.762 166.951C154.296 167.908 153.62 168.746 152.785 169.406C151.378 170.532 149.627 171.143 147.825 171.137Z"
        fill="#434CA1"/>
    <path
        d="M150.064 13.3139V156.266C150.063 157.969 149.385 159.601 148.181 160.805C146.976 162.009 145.343 162.685 143.64 162.686H85.6059C84.7622 162.687 83.9265 162.522 83.1467 162.2C82.3669 161.878 81.6583 161.405 81.0615 160.809C80.4647 160.213 79.9915 159.504 79.6689 158.725C79.3463 157.945 79.1807 157.11 79.1816 156.266V13.3139C79.1816 12.4702 79.3477 11.6348 79.6705 10.8554C79.9933 10.0759 80.4665 9.36766 81.0631 8.7711C81.6597 8.17454 82.3679 7.70134 83.1473 7.37852C83.9268 7.05569 84.7622 6.88958 85.6059 6.88965H94.2906V8.00336C94.2904 9.40621 94.8475 10.7517 95.8393 11.7438C96.831 12.736 98.1762 13.2936 99.5791 13.294H129.096C130.225 13.2965 131.325 12.9345 132.232 12.2619C132.415 12.1286 132.589 11.9826 132.752 11.8253C133.269 11.3319 133.68 10.7388 133.96 10.0818C134.241 9.42484 134.385 8.71772 134.384 8.00336V6.88965H143.64C144.484 6.88939 145.319 7.05538 146.099 7.37814C146.878 7.7009 147.587 8.17409 148.183 8.77069C148.78 9.36729 149.253 10.0756 149.576 10.8551C149.899 11.6347 150.065 12.4702 150.064 13.3139Z"
        fill="#606CE6"/>
    <path
        d="M92.7451 171.196L92.5084 171.107C92.4564 171.088 87.2798 169.104 84.8548 164.607C82.4298 160.11 83.6172 154.695 83.6295 154.641L83.6854 154.395L83.922 154.483C83.974 154.503 89.1505 156.486 91.5755 160.983C94.0006 165.481 92.8131 170.895 92.8009 170.949L92.7451 171.196Z"
        fill="#434CA1"/>
    <path
        d="M86.7081 163.029C91.066 165.651 92.7444 170.858 92.7444 170.858C92.7444 170.858 87.3571 171.815 82.9992 169.193C78.6413 166.571 76.9629 161.364 76.9629 161.364C76.9629 161.364 82.3501 160.407 86.7081 163.029Z"
        fill="#D6D6E3"/>
    <path
        d="M233.407 78.0205C230.727 78.0308 228.071 77.5108 225.592 76.4906C218.678 73.6082 214.099 67.4014 209.67 61.3989C207.28 58.1584 204.808 54.8076 201.984 51.9862C197.459 47.4652 192.209 44.5445 186.803 43.5397C180.727 42.4101 174.535 43.871 170.24 47.446C169.697 47.8986 169.185 48.3878 168.709 48.9101C169.335 48.9863 169.96 49.0675 170.584 49.1539C177.141 50.0627 185.365 52.5831 187.306 59.4302C188.051 62.0585 187.52 65.0336 185.851 67.5926C184.063 70.3345 181.217 72.22 178.238 72.6359C177.753 72.7035 177.263 72.7373 176.773 72.7371C171.408 72.7374 166.123 68.7496 164.558 63.2681C163.232 58.6259 164.569 53.2168 167.83 49.2508C163.888 48.8015 159.925 48.5552 155.957 48.5129L155.962 48.0718C160.043 48.1153 164.12 48.3738 168.174 48.8464C168.722 48.2211 169.319 47.6395 169.958 47.107C174.352 43.449 180.68 41.9535 186.883 43.106C192.378 44.1272 197.707 47.09 202.296 51.6742C205.143 54.519 207.625 57.8834 210.025 61.137C214.62 67.3653 218.96 73.2481 225.762 76.0836C232.599 78.9337 240.994 77.637 246.652 72.8578C252.311 68.0787 254.993 60.0187 253.327 52.8019L253.757 52.7026C255.459 60.0764 252.718 68.3117 246.937 73.1948C243.2 76.3508 238.295 78.0204 233.407 78.0205ZM168.354 49.3118C165.049 53.1858 163.671 58.5551 164.982 63.147C166.631 68.9242 172.551 72.9846 178.177 72.1992C181.031 71.8004 183.762 69.9883 185.482 67.3516C187.081 64.8994 187.591 62.056 186.881 59.5504C185.006 52.9325 176.95 50.4816 170.523 49.5909C169.802 49.491 169.079 49.3979 168.354 49.3118Z"
        fill="#3F3D56"/>
    <path
        d="M63.8045 75.2042C61.8247 75.2109 59.8503 74.9976 57.9176 74.5683C53.1118 73.5349 48.7939 70.9135 45.6597 67.1267C44.6252 65.8878 43.6829 64.4969 42.7718 63.1517C41.3886 61.1099 39.9583 58.9985 38.2014 57.4274C36.4531 55.8641 34.1514 55.0418 32.196 55.2791C31.4849 55.3603 30.8003 55.5967 30.1905 55.9716C29.5807 56.3464 29.0607 56.8506 28.6671 57.4485L28.3027 57.1999C28.7311 56.5496 29.297 56.0013 29.9605 55.5938C30.624 55.1862 31.3689 54.9293 32.1426 54.8412C34.2512 54.5847 36.6273 55.428 38.4953 57.0985C40.2929 58.706 41.7388 60.8403 43.1369 62.9044C44.042 64.2405 44.9779 65.6221 45.9982 66.8439C51.9484 73.9689 61.3995 76.4587 71.9289 73.6749L72.0415 74.1014C69.3547 74.8219 66.5862 75.1925 63.8045 75.2042Z"
        fill="#3F3D56"/>
    <circle cx="237.612" cy="37.299" fill="#606CE6" r="17.4504"/>
    <path
        d="M243.783 41.4089C243.443 42.676 242.691 43.6524 241.525 44.3382C240.379 45.0128 238.909 45.2487 237.115 45.046L236.433 47.5877L233.686 46.8515L234.342 44.4013C233.218 44.0182 232.185 43.537 231.244 42.9576C230.307 42.363 229.564 41.7467 229.015 41.1087L231.399 38.1644C231.99 38.8299 232.72 39.4344 233.589 39.9781C234.457 40.5217 235.35 40.9163 236.266 41.1617C238.006 41.628 238.993 41.4261 239.226 40.556C239.348 40.098 239.187 39.6946 238.74 39.3459C238.313 38.9861 237.582 38.5368 236.549 37.998C235.412 37.4153 234.478 36.8706 233.747 36.3638C233.02 35.8416 232.454 35.1747 232.05 34.3628C231.646 33.551 231.593 32.5878 231.891 31.4734C232.243 30.1606 233.017 29.1654 234.213 28.4878C235.413 27.7949 236.935 27.5809 238.778 27.8458L239.453 25.327L242.201 26.0632L241.538 28.5363C242.388 28.8457 243.179 29.2213 243.912 29.663C244.659 30.1088 245.297 30.5987 245.825 31.1328L243.526 34.1246C242.22 32.8912 240.85 32.0823 239.415 31.6978C238.514 31.4564 237.821 31.4179 237.335 31.5823C236.854 31.7313 236.555 32.0196 236.441 32.447C236.326 32.8745 236.485 33.2605 236.916 33.6051C237.347 33.9497 238.074 34.3817 239.097 34.9011C240.248 35.4879 241.18 36.0403 241.892 36.5583C242.623 37.0651 243.191 37.7245 243.595 38.5363C244.019 39.337 244.082 40.2945 243.783 41.4089Z"
        fill="white"/>
    <circle cx="238.55" cy="38.2863" r="17.2857" stroke="black" stroke-width="0.329252"/>
    <path
        d="M242.463 45.3254L242.296 45.0417L242.296 45.0417L242.463 45.3254ZM238.052 46.0333L238.089 45.7061L237.807 45.6743L237.734 45.9481L238.052 46.0333ZM237.371 48.575L237.286 48.8931L237.604 48.9783L237.689 48.6602L237.371 48.575ZM234.623 47.8388L234.305 47.7535L234.22 48.0716L234.538 48.1568L234.623 47.8388ZM235.28 45.3886L235.598 45.4738L235.677 45.1763L235.386 45.077L235.28 45.3886ZM232.181 43.9449L232.005 44.2229L232.009 44.2253L232.181 43.9449ZM229.953 42.096L229.697 41.8888L229.524 42.1025L229.703 42.3108L229.953 42.096ZM232.337 39.1517L232.583 38.9331L232.325 38.6427L232.081 38.9445L232.337 39.1517ZM234.526 40.9654L234.701 40.6863L234.526 40.9654ZM239.678 40.3332L239.465 40.5852L239.475 40.5927L239.678 40.3332ZM237.486 38.9853L237.638 38.6933L237.637 38.6923L237.486 38.9853ZM234.685 37.3511L234.493 37.6186L234.497 37.6217L234.685 37.3511ZM235.151 29.4751L235.313 29.7616L235.315 29.7602L235.151 29.4751ZM239.716 28.8331L239.669 29.159L239.958 29.2006L240.034 28.9183L239.716 28.8331ZM240.391 26.3143L240.476 25.9962L240.158 25.911L240.073 26.229L240.391 26.3143ZM243.138 27.0505L243.456 27.1358L243.542 26.8177L243.224 26.7325L243.138 27.0505ZM242.476 29.5236L242.158 29.4383L242.08 29.7297L242.363 29.8329L242.476 29.5236ZM244.849 30.6503L244.679 30.9323L244.68 30.9331L244.849 30.6503ZM246.762 32.1201L247.023 32.3207L247.198 32.093L246.996 31.8887L246.762 32.1201ZM244.463 35.1119L244.237 35.3512L244.502 35.6016L244.725 35.3125L244.463 35.1119ZM238.273 32.5696L238.37 32.8842L238.378 32.8815L238.273 32.5696ZM237.853 34.5924L237.648 34.8496L237.853 34.5924ZM240.034 35.8884L240.184 35.5951L240.183 35.5949L240.034 35.8884ZM242.83 37.5456L242.636 37.8119L242.642 37.8162L242.83 37.5456ZM244.533 39.5236L244.238 39.6704L244.242 39.6776L244.533 39.5236ZM244.402 42.311C244.086 43.4918 243.39 44.3982 242.296 45.0417L242.63 45.6092C243.867 44.8811 244.676 43.8347 245.038 42.4814L244.402 42.311ZM242.296 45.0417C241.23 45.6691 239.838 45.9037 238.089 45.7061L238.015 46.3605C239.855 46.5684 241.404 46.331 242.63 45.6092L242.296 45.0417ZM237.734 45.9481L237.053 48.4898L237.689 48.6602L238.37 46.1185L237.734 45.9481ZM237.456 48.257L234.708 47.5207L234.538 48.1568L237.286 48.8931L237.456 48.257ZM234.941 47.924L235.598 45.4738L234.962 45.3034L234.305 47.7535L234.941 47.924ZM235.386 45.077C234.283 44.7012 233.273 44.2301 232.354 43.6645L232.009 44.2253C232.972 44.8184 234.028 45.3098 235.173 45.7003L235.386 45.077ZM232.358 43.6669C231.44 43.0845 230.725 42.4883 230.202 41.8813L229.703 42.3108C230.279 42.9797 231.049 43.6161 232.005 44.2229L232.358 43.6669ZM230.209 42.3032L232.593 39.3589L232.081 38.9445L229.697 41.8888L230.209 42.3032ZM232.091 39.3703C232.705 40.0625 233.46 40.6867 234.351 41.2445L234.701 40.6863C233.855 40.1568 233.15 39.5719 232.583 38.9331L232.091 39.3703ZM234.351 41.2445C235.246 41.8041 236.168 42.2125 237.118 42.467L237.288 41.831C236.406 41.5947 235.544 41.214 234.701 40.6863L234.351 41.2445ZM237.118 42.467C238.004 42.7045 238.746 42.7862 239.314 42.6699C239.604 42.6106 239.86 42.4978 240.064 42.3179C240.271 42.1363 240.408 41.9017 240.481 41.6285L239.845 41.458C239.802 41.6199 239.728 41.7368 239.63 41.8232C239.529 41.9113 239.386 41.983 239.182 42.0247C238.764 42.1103 238.142 42.0598 237.288 41.831L237.118 42.467ZM240.481 41.6285C240.559 41.3373 240.549 41.0485 240.439 40.7746C240.331 40.5051 240.136 40.2733 239.88 40.0738L239.475 40.5927C239.666 40.7419 239.775 40.8861 239.828 41.0199C239.88 41.1494 239.89 41.2912 239.845 41.458L240.481 41.6285ZM239.89 40.0814C239.433 39.6969 238.676 39.2339 237.638 38.6933L237.334 39.2773C238.364 39.8142 239.067 40.2498 239.465 40.585L239.89 40.0814ZM237.637 38.6923C236.508 38.1137 235.588 37.5763 234.872 37.0804L234.497 37.6217C235.244 38.1395 236.192 38.6916 237.336 39.2783L237.637 38.6923ZM234.877 37.0836C234.193 36.5932 233.663 35.9679 233.282 35.2034L232.693 35.4969C233.12 36.3561 233.721 37.0647 234.493 37.6185L234.877 37.0836ZM233.282 35.2034C232.923 34.4813 232.863 33.6045 233.147 32.546L232.511 32.3755C232.197 33.5457 232.244 34.5952 232.693 35.4969L233.282 35.2034ZM233.147 32.546C233.476 31.3195 234.193 30.3962 235.313 29.7616L234.988 29.1886C233.717 29.9092 232.886 30.9764 232.511 32.3755L233.147 32.546ZM235.315 29.7602C236.432 29.1152 237.874 28.901 239.669 29.159L239.763 28.5072C237.871 28.2354 236.269 28.4493 234.986 29.19L235.315 29.7602ZM240.034 28.9183L240.709 26.3995L240.073 26.229L239.398 28.7479L240.034 28.9183ZM240.305 26.6323L243.053 27.3686L243.224 26.7325L240.476 25.9962L240.305 26.6323ZM242.82 26.9653L242.158 29.4383L242.794 29.6088L243.456 27.1358L242.82 26.9653ZM242.363 29.8329C243.194 30.1356 243.966 30.5022 244.679 30.9323L245.019 30.3684C244.267 29.9151 243.457 29.5305 242.588 29.2142L242.363 29.8329ZM244.68 30.9331C245.408 31.3668 246.023 31.8401 246.528 32.3515L246.996 31.8887C246.446 31.3319 245.786 30.8253 245.018 30.3675L244.68 30.9331ZM246.501 31.9195L244.202 34.9113L244.725 35.3125L247.023 32.3207L246.501 31.9195ZM244.69 34.8725C243.352 33.6094 241.935 32.7683 240.438 32.367L240.267 33.0031C241.64 33.3708 242.963 34.1476 244.237 35.3512L244.69 34.8725ZM240.438 32.367C239.519 32.1208 238.747 32.0615 238.167 32.2577L238.378 32.8815C238.77 32.749 239.385 32.7667 240.267 33.0031L240.438 32.367ZM238.175 32.255C237.603 32.4321 237.209 32.7956 237.06 33.3491L237.696 33.5196C237.777 33.2183 237.979 33.0052 238.37 32.8841L238.175 32.255ZM237.06 33.3491C236.986 33.628 236.998 33.9055 237.107 34.1694C237.213 34.4283 237.402 34.6533 237.648 34.8496L238.059 34.3352C237.873 34.1869 237.768 34.0466 237.716 33.9195C237.666 33.7974 237.657 33.6681 237.696 33.5196L237.06 33.3491ZM237.648 34.8496C238.107 35.2164 238.859 35.6608 239.885 36.182L240.183 35.5949C239.164 35.0772 238.463 34.6577 238.059 34.3352L237.648 34.8496ZM239.885 36.1818C241.027 36.764 241.943 37.3075 242.636 37.8118L243.023 37.2793C242.292 36.7476 241.344 36.1864 240.184 35.5951L239.885 36.1818ZM242.642 37.8162C243.327 38.2908 243.858 38.9072 244.238 39.6704L244.828 39.3769C244.399 38.5163 243.795 37.814 243.017 37.275L242.642 37.8162ZM244.242 39.6776C244.617 40.3863 244.686 41.2541 244.402 42.311L245.038 42.4814C245.352 41.3096 245.296 40.2623 244.824 39.3697L244.242 39.6776Z"
        fill="black"/>
    <path
        d="M35 85.1111V71.8889C35 70.85 34.15 70 33.1111 70H19.8889C18.85 70 18 70.85 18 71.8889V85.1111C18 86.15 18.85 87 19.8889 87H33.1111C34.15 87 35 86.15 35 85.1111ZM23.1944 79.9167L25.5556 82.7594L28.8611 78.5L33.1111 84.1667H19.8889L23.1944 79.9167Z"
        fill="#606CE6"/>
    <path
        d="M24.397 80.7484L24.1877 80.4964L23.9866 80.755L20.681 85.005L20.3504 85.43H20.8889H34.1111H34.6378L34.3218 85.0086L30.0718 79.342L29.8647 79.0658L29.6531 79.3385L26.5486 83.3389L24.397 80.7484ZM35.7366 72.8889V86.1111C35.7366 87.0046 35.0046 87.7366 34.1111 87.7366H20.8889C19.9954 87.7366 19.2634 87.0046 19.2634 86.1111V72.8889C19.2634 71.9954 19.9954 71.2634 20.8889 71.2634H34.1111C35.0046 71.2634 35.7366 71.9954 35.7366 72.8889Z"
        stroke="black" stroke-width="0.526719"/>
    <path
        d="M27.4999 96C17.8505 96 10 88.3739 10 79.0001C10 69.6262 17.8505 62 27.4999 62C37.1495 62 45 69.6262 45 79.0001C45 88.3739 37.1495 96 27.4999 96ZM27.4999 62.5301C18.1462 62.5301 10.5364 69.9184 10.5364 79.0001C10.5364 88.0816 18.1462 95.4699 27.4999 95.4699C36.8538 95.4699 44.4636 88.0816 44.4636 79.0001C44.4636 69.9184 36.8538 62.5301 27.4999 62.5301Z"
        fill="#3F3D56"/>
    <path
        d="M194.518 148.863C193.798 148.863 193.784 151.288 194.518 151.288H221.401C221.716 151.299 221.976 150.765 221.981 150.095C221.987 149.412 221.723 148.85 221.401 148.863H194.518Z"
        fill="#3F3D56"/>
    <path
        d="M202.622 140.262C201.678 140.262 201.673 142.688 202.622 142.687H212.626C213.036 142.698 213.373 142.164 213.38 141.495C213.388 140.811 213.044 140.25 212.626 140.262H202.622Z"
        fill="#606CE6"/>
    <path
        d="M194.518 157.463C193.798 157.463 193.784 159.889 194.518 159.889H221.401C221.716 159.9 221.976 159.366 221.981 158.696C221.987 158.012 221.723 157.451 221.401 157.463H194.518Z"
        fill="#3F3D56"/>
    <path
        d="M226.83 129.455H188.463C188.053 129.455 187.659 129.617 187.369 129.906C187.079 130.195 186.916 130.586 186.916 130.994V169.157C186.916 169.565 187.079 169.956 187.369 170.245C187.659 170.533 188.053 170.695 188.463 170.695H226.83C227.24 170.695 227.634 170.533 227.924 170.245C228.214 169.956 228.377 169.565 228.377 169.157V130.994C228.377 130.586 228.214 130.195 227.924 129.906C227.634 129.617 227.24 129.455 226.83 129.455ZM227.758 169.157C227.757 169.401 227.659 169.636 227.485 169.809C227.312 169.982 227.076 170.079 226.83 170.08H188.463C188.217 170.079 187.981 169.982 187.807 169.809C187.634 169.636 187.536 169.401 187.535 169.157V130.994C187.536 130.749 187.634 130.515 187.807 130.342C187.981 130.169 188.217 130.071 188.463 130.071H226.83C227.076 130.071 227.312 130.169 227.485 130.342C227.659 130.515 227.757 130.749 227.758 130.994V169.157Z"
        fill="#3F3D56"/>
    <path
        d="M173.368 97L177 95.2531L173.973 87.3922L173.176 83.4279C173.072 82.9128 172.83 82.433 172.473 82.0363C172.116 81.6395 171.657 81.3398 171.142 81.1671C170.627 80.9944 170.074 80.9547 169.538 81.052C169.002 81.1493 168.502 81.3802 168.088 81.7216C167.475 82.2275 167.089 82.943 167.014 83.717C166.938 84.491 167.178 85.2629 167.683 85.87L170.644 89.4302L173.368 97Z"
        fill="#A0616A"/>
    <path
        d="M172 96.5021L172.633 98.5256L175.475 107.615C175.753 108.506 176.277 109.297 176.984 109.891C177.691 110.486 178.551 110.86 179.461 110.968C180.371 111.075 181.292 110.913 182.114 110.5C182.936 110.086 183.623 109.44 184.094 108.638L193.306 92.5183C193.453 92.2671 193.579 92.0033 193.681 91.7299C194.127 90.5371 194.104 89.2149 193.62 88.0383C193.135 86.8617 192.225 85.9211 191.078 85.4119C189.932 84.9027 188.637 84.8642 187.463 85.3043C186.29 85.7444 185.327 86.6292 184.776 87.775L179.153 100.008L176.579 94.166L172 96.5021Z"
        fill="#E6E6E6"/>
    <path
        d="M174 154.423L180.24 155L183.643 129.893C194.862 131.813 205.446 132.428 214.601 130.105C215.374 129.912 216.1 129.557 216.733 129.065C217.366 128.572 217.891 127.952 218.277 127.242C218.663 126.533 218.9 125.75 218.975 124.943C219.049 124.136 218.959 123.322 218.709 122.552C217.613 119.225 215.683 115.66 213.424 112L198.392 117.483L197.824 119.792L181.791 117.727C180.981 117.623 180.159 117.691 179.377 117.927C178.594 118.164 177.869 118.563 177.246 119.1C176.624 119.637 176.118 120.3 175.761 121.047C175.403 121.793 175.203 122.607 175.171 123.437L174 154.423Z"
        fill="#2F2E41"/>
    <path
        d="M167.022 159.148C166.963 158.741 167.024 158.325 167.195 157.951C167.366 157.576 167.642 157.258 167.989 157.035L174.191 154L178.867 154.589L179.972 158.536C180.018 158.818 180.007 159.106 179.939 159.382C179.87 159.659 179.746 159.919 179.574 160.147C179.401 160.374 179.184 160.564 178.936 160.705C178.687 160.846 178.413 160.936 178.128 160.967L169.403 160.986C168.844 161.049 168.283 160.892 167.838 160.549C167.394 160.206 167.101 159.703 167.022 159.148Z"
        fill="#2F2E41"/>
    <path
        d="M172 151.423L178.378 152L181.857 126.893C193.326 128.813 204.145 129.428 213.503 127.105C214.294 126.912 215.036 126.557 215.683 126.065C216.329 125.572 216.867 124.952 217.261 124.242C217.655 123.533 217.898 122.75 217.974 121.943C218.05 121.136 217.958 120.322 217.703 119.552C216.583 116.225 214.609 112.66 212.3 109L196.934 114.483L196.354 116.792L179.964 114.727C179.136 114.623 178.296 114.691 177.496 114.927C176.696 115.164 175.955 115.563 175.318 116.1C174.682 116.637 174.165 117.3 173.8 118.047C173.434 118.793 173.229 119.607 173.197 120.437L172 151.423Z"
        fill="#2F2E41"/>
    <path
        d="M165.023 156.148C164.961 155.741 165.025 155.325 165.21 154.951C165.395 154.576 165.691 154.258 166.065 154.035L172.744 151L177.78 151.589L178.97 155.536C179.02 155.818 179.008 156.106 178.934 156.382C178.86 156.659 178.727 156.919 178.541 157.147C178.355 157.374 178.121 157.564 177.854 157.705C177.586 157.846 177.291 157.936 176.985 157.967L167.587 157.986C166.986 158.049 166.381 157.892 165.903 157.549C165.424 157.206 165.108 156.703 165.023 156.148Z"
        fill="#2F2E41"/>
    <path
        d="M183.5 83C187.642 83 191 79.4183 191 75C191 70.5817 187.642 67 183.5 67C179.358 67 176 70.5817 176 75C176 79.4183 179.358 83 183.5 83Z"
        fill="#A0616A"/>
    <path d="M184.143 91L193 89.8293L189.571 79H181L184.143 91Z" fill="#A0616A"/>
    <path
        d="M181.743 101.387C182.192 102.671 182.843 103.871 183.67 104.938C184.849 106.427 186.265 107.7 187.858 108.7C188.136 108.885 188.424 109.063 188.722 109.237L190.423 110.729L196.433 116L213 109.531C209.346 101.17 204.787 94.5605 199.563 89.2371C198.478 87.598 196.931 86.3408 195.13 85.6349C193.329 84.9291 191.362 84.8085 189.493 85.2894L183.295 86.8849C181.09 92.2427 180.27 97.1694 181.743 101.387Z"
        fill="#E14B5A"/>
    <path
        d="M167.722 79.1746C167.623 79.0771 167.493 79.0165 167.354 79.0029C167.214 78.9893 167.075 79.0235 166.958 79.0999C166.802 79.2635 161.694 82.2707 162.014 82.569C162.005 82.6594 162.016 82.7509 162.047 82.8366C162.077 82.9223 162.127 83 162.192 83.0641L174.063 94.8073C174.121 94.8644 174.189 94.9096 174.265 94.9401C174.34 94.9706 174.421 94.9859 174.502 94.985C174.741 95.2883 178.632 90.883 178.828 90.7986C178.941 90.6825 179.002 90.5269 179 90.3658C178.998 90.2047 178.931 90.051 178.816 89.9382L167.722 79.1746Z"
        fill="#3F3D56"/>
    <path
        d="M163.076 81.9859L163.552 81.6641C163.505 81.7589 163.488 81.8678 163.506 81.9736C163.523 82.0794 163.573 82.1761 163.648 82.2484C163.722 82.3208 163.818 82.3647 163.919 82.3732C164.02 82.3818 164.12 82.3544 164.205 82.2955L167.285 80.0498C167.354 79.9981 167.408 79.9272 167.441 79.8449C167.474 79.7625 167.485 79.672 167.473 79.5835C167.46 79.4949 167.425 79.4117 167.371 79.3432C167.316 79.2746 167.245 79.2234 167.165 79.1953C167.287 79.1514 167.484 78.8887 167.616 79.054L177.977 89.8529C178.346 90.0434 174.212 93.8426 174.21 93.9919C173.901 94.3567 163.274 82.2657 163.048 82.2574C163.031 82.2388 163.017 82.2163 163.009 82.1916C163.001 82.1669 162.998 82.1405 163.001 82.1145C163.004 82.0884 163.012 82.0634 163.025 82.0411C163.038 82.0189 163.056 82 163.076 81.9859Z"
        fill="white"/>
    <path d="M175 87.6926L172.04 91L165 82.7566L168.573 80L175 87.6926Z" fill="#606CE6"/>
    <path
        d="M164.97 84.9645C165.178 84.8141 164.249 84.1455 164.209 84.0354C164.185 84.0127 164.153 84 164.12 84C164.086 84 164.054 84.0127 164.03 84.0355C163.822 84.1859 164.751 84.8545 164.791 84.9646C164.815 84.9873 164.847 85 164.88 85C164.914 85 164.946 84.9873 164.97 84.9645Z"
        fill="#E6E6E6"/>
    <path
        d="M165.962 85.7846C165.849 85.7427 165.184 84.8253 165.03 85.0297C164.824 85.1807 165.745 85.8518 165.785 85.9623C165.898 86.0788 166.079 85.8984 165.962 85.7846Z"
        fill="#E6E6E6"/>
    <path d="M174 90C173.981 91.3333 176.019 91.3334 176 89.9999C176.019 88.6667 173.981 88.6667 174 90Z"
          fill="#606CE6"/>
    <path d="M183 105.036C184.186 106.57 185.61 107.88 187.213 108.91C187.492 109.101 187.782 109.284 188.082 109.463L189.793 111C193.189 106.295 192.998 92 192.998 92L187.828 92.5449L183 105.036Z"
          fill="black"
          opacity="0.2"/>
    <path
        d="M172.731 101L176 99.2531L173.276 91.3922L172.558 87.4279C172.465 86.9128 172.247 86.433 171.925 86.0363C171.604 85.6395 171.191 85.3398 170.728 85.1671C170.264 84.9944 169.767 84.9547 169.284 85.052C168.802 85.1493 168.352 85.3802 167.979 85.7216C167.427 86.2276 167.08 86.943 167.012 87.717C166.944 88.491 167.16 89.2629 167.615 89.87L170.279 93.4302L172.731 101Z"
        fill="#A0616A"/>
    <path
        d="M176.578 98.1645L172 100.502L175.474 111.616C175.724 112.414 176.171 113.133 176.773 113.703C177.374 114.272 178.11 114.674 178.908 114.868C179.892 115.107 180.926 115.02 181.858 114.619C182.791 114.219 183.574 113.525 184.095 112.639L193.307 96.5169C193.96 95.4059 194.162 94.0783 193.869 92.8177C193.576 91.5571 192.812 90.4634 191.74 89.7702C191.163 89.3974 190.516 89.1527 189.841 89.052C189.166 88.9514 188.477 88.9971 187.82 89.1861C187.163 89.3751 186.553 89.7032 186.028 90.1491C185.504 90.5949 185.077 91.1485 184.776 91.7739L179.153 104.007L176.578 98.1645Z"
        fill="#E14B5A"/>
    <path
        d="M180.626 71.6843C179.993 72.2043 179.279 72.6197 178.511 72.9142C178.126 73.0588 177.713 73.1186 177.302 73.0895C176.891 73.0605 176.491 72.9431 176.131 72.7458C175.736 72.4661 175.424 72.0869 175.229 71.6479C175.033 71.2089 174.961 70.7262 175.02 70.2503C175.151 69.2982 175.54 68.3982 176.144 67.6439C177.186 66.2153 178.557 65.0498 180.143 64.2427C181.73 63.4357 183.488 63.0099 185.273 63.0002C187.058 62.9904 188.821 63.397 190.416 64.1868C192.012 64.9765 193.395 66.127 194.454 67.5442C195.225 68.4931 195.699 69.6428 195.819 70.853C195.93 72.9789 194.454 74.9634 194.611 77.0865C194.745 78.8821 196.053 80.4204 197.602 81.3751C199.15 82.3299 200.94 82.814 202.672 83.3873C204.404 83.9607 206.155 84.6682 207.437 85.9511C208.719 87.2341 209.426 89.225 208.722 90.8866C208.144 92.2519 206.77 93.1202 205.393 93.7083C201.699 95.267 197.55 95.4205 193.748 94.139C192.346 93.6601 190.816 92.7019 190.794 91.24C190.785 90.6055 191.075 90.0098 191.249 89.3989C191.423 88.7879 191.455 88.0592 191.019 87.5927C190.478 87.014 189.478 87.1473 188.831 87.6088C188.184 88.0703 187.764 88.7703 187.23 89.3557C186.217 90.4673 184.681 91.1775 183.179 90.9681C181.678 90.7587 180.321 89.4983 180.259 88.0053C180.152 85.4405 183.413 83.8347 183.767 81.2917C184.004 79.5932 182.882 78.0393 181.91 76.6177C180.938 75.196 180.033 73.4149 180.714 71.8371"
        fill="#2F2E41"/>
    <path d="M141 48H88V52H141V48Z" fill="#D6D6E3"/>
    <path d="M133 32H99V37H133V32Z" fill="black" opacity="0.3"/>
    <path d="M141 56H88V60H141V56Z" fill="#D6D6E3"/>
    <path d="M141 64H88V68H141V64Z" fill="#D6D6E3"/>
    <path d="M91.5 38C93.433 38 95 36.433 95 34.5C95 32.567 93.433 31 91.5 31C89.567 31 88 32.567 88 34.5C88 36.433 89.567 38 91.5 38Z"
          fill="black"
          opacity="0.3"/>
    <path d="M141 78H88V111H141V78Z" fill="black" opacity="0.3"/>
    <path
        d="M91.0012 119.564C90.672 119.203 90.2251 119 89.7591 119C89.293 119 88.8458 119.202 88.5159 119.562C88.186 119.922 88.0005 120.41 88 120.92C87.9995 121.43 88.1843 121.919 88.5135 122.279L90.9964 125L93.4841 122.285C93.6474 122.106 93.7771 121.895 93.8656 121.662C93.9541 121.429 93.9998 121.179 94 120.926C94.0002 120.674 93.955 120.424 93.8669 120.191C93.7788 119.957 93.6495 119.745 93.4865 119.567C93.3235 119.388 93.1299 119.246 92.9167 119.15C92.7036 119.053 92.4751 119.003 92.2443 119.003C92.0136 119.002 91.785 119.052 91.5717 119.148C91.3584 119.245 91.1646 119.386 91.0012 119.564Z"
        fill="#D6D6E3"/>
</svg>
