<svg fill="none" height="222" viewBox="0 0 275 222" width="275" xmlns="http://www.w3.org/2000/svg">
    <g clip-path="url(#clip0)">
        <path
            d="M77.4105 147.623C94.6416 147.623 108.61 133.633 108.61 116.375C108.61 99.1172 94.6416 85.127 77.4105 85.127C60.1795 85.127 46.2109 99.1172 46.2109 116.375C46.2109 133.633 60.1795 147.623 77.4105 147.623Z"
            fill="#E6E6E6"/>
        <path
            d="M68.9815 162.005L76.6561 166.768V134.572L68.0537 129.233C67.3425 128.791 66.8229 128.098 66.5977 127.291C67.4195 127.134 68.2703 127.292 68.9815 127.733L76.6561 132.496V120.011C76.6561 117.596 76.9519 115.19 77.5368 112.847C78.1217 115.19 78.4174 117.596 78.4174 120.011V140.389L89.7397 133.362C90.6438 132.801 91.6898 132.512 92.7533 132.529C92.2955 133.491 91.5715 134.301 90.6674 134.862L78.4174 142.464V218.608H76.6561V168.844L68.0537 163.505C67.3425 163.063 66.8229 162.371 66.5977 161.563C67.4195 161.406 68.2703 161.564 68.9815 162.005Z"
            fill="#CCCCCC"/>
        <path
            d="M31.1996 150.276C48.4306 150.276 62.3992 136.285 62.3992 119.027C62.3992 101.77 48.4306 87.7793 31.1996 87.7793C13.9685 87.7793 0 101.77 0 119.027C0 136.285 13.9685 150.276 31.1996 150.276Z"
            fill="#E6E6E6"/>
        <path
            d="M39.6292 164.659L31.9545 169.422V137.225L40.5569 131.886C41.2681 131.445 41.7878 130.752 42.013 129.945C41.1912 129.787 40.3404 129.945 39.6292 130.386L31.9545 135.15V122.665C31.9545 120.249 31.6587 117.843 31.0738 115.5C30.489 117.843 30.1932 120.249 30.1932 122.665V143.043L18.871 136.016C17.9669 135.454 16.9209 135.165 15.8574 135.183C16.3152 136.144 17.0392 136.954 17.9433 137.515L30.1933 145.118V218.776H31.9545V171.497L40.5569 166.158C41.2681 165.717 41.7878 165.024 42.013 164.217C41.1912 164.06 40.3404 164.217 39.6292 164.659Z"
            fill="#CCCCCC"/>
        <path
            d="M53.8643 107.603C83.5318 107.603 107.582 83.5151 107.582 53.8014C107.582 24.0877 83.5318 0 53.8643 0C24.1968 0 0.146484 24.0877 0.146484 53.8014C0.146484 83.5151 24.1968 107.603 53.8643 107.603Z"
            fill="#E6E6E6"/>
        <path
            d="M68.3782 132.365L55.1644 140.566V85.1313L69.9755 75.939C71.2 75.179 72.0948 73.9861 72.4825 72.5966L72.4825 72.5965H72.4825C71.0675 72.3258 69.6027 72.5974 68.3782 73.3573L55.1644 81.5582V60.0622C55.1644 55.9037 54.6551 51.7609 53.6481 47.7266C52.6411 51.7609 52.1319 55.9037 52.1319 60.0622V95.1478L32.6378 83.0491C31.0812 82.083 29.2802 81.5854 27.4492 81.6154C28.2373 83.2709 29.4839 84.6647 31.0405 85.6308L52.1319 98.7208V218.893H55.1644V144.139L69.9755 134.947C71.2 134.187 72.0948 132.994 72.4825 131.605L72.4825 131.605H72.4825C71.0676 131.334 69.6027 131.605 68.3782 132.365Z"
            fill="#CCCCCC"/>
        <path d="M275 218.607H21.4238V219.25H275V218.607Z" fill="#3F3D56"/>
        <path d="M209.695 97.0663L197.109 104.344L204.376 116.949L216.961 109.671L209.695 97.0663Z" fill="#FF6584"/>
        <path
            d="M209.853 119.576L202.266 106.414L215.407 98.8154L222.994 111.978L209.853 119.576ZM203.143 106.65L210.088 118.698L222.117 111.742L215.172 99.6939L203.143 106.65Z"
            fill="#2F2E41"/>
        <path
            d="M198.079 154.944C201.447 154.944 204.178 152.209 204.178 148.836C204.178 145.462 201.447 142.728 198.079 142.728C194.711 142.728 191.98 145.462 191.98 148.836C191.98 152.209 194.711 154.944 198.079 154.944Z"
            fill="#D0CDE1"/>
        <path
            d="M202.574 155.266C201.304 155.266 200.063 154.888 199.007 154.182C197.952 153.475 197.129 152.471 196.643 151.296C196.157 150.122 196.03 148.829 196.278 147.582C196.525 146.334 197.137 145.189 198.035 144.289C198.932 143.39 200.076 142.778 201.322 142.53C202.567 142.282 203.858 142.409 205.031 142.896C206.204 143.382 207.206 144.206 207.912 145.264C208.617 146.321 208.994 147.564 208.994 148.836C208.994 150.541 208.317 152.177 207.113 153.382C205.909 154.588 204.277 155.266 202.574 155.266ZM202.574 143.049C201.431 143.049 200.314 143.389 199.364 144.024C198.414 144.66 197.673 145.564 197.236 146.621C196.799 147.679 196.684 148.842 196.907 149.965C197.13 151.087 197.68 152.118 198.489 152.928C199.297 153.737 200.326 154.288 201.447 154.511C202.568 154.735 203.729 154.62 204.785 154.182C205.841 153.744 206.743 153.002 207.378 152.051C208.013 151.099 208.352 149.98 208.352 148.836C208.352 147.301 207.743 145.829 206.659 144.744C205.576 143.659 204.106 143.049 202.574 143.049Z"
            fill="#2F2E41"/>
        <path
            d="M236.555 220.069H177.494C176.771 220.069 176.077 219.78 175.566 219.268C175.054 218.756 174.766 218.061 174.766 217.337V162.363C174.766 161.639 175.054 160.944 175.566 160.432C176.077 159.92 176.771 159.632 177.494 159.631H236.555C237.278 159.632 237.971 159.92 238.483 160.432C238.994 160.944 239.282 161.639 239.283 162.363V217.337C239.282 218.061 238.994 218.756 238.483 219.268C237.971 219.78 237.278 220.069 236.555 220.069Z"
            fill="#414BB2"/>
        <path
            d="M211.197 222H202.851C202.128 221.999 201.435 221.711 200.923 221.199C200.412 220.686 200.124 219.992 200.123 219.267V160.731C200.124 160.006 200.412 159.312 200.923 158.799C201.435 158.287 202.128 157.999 202.851 157.998H211.197C211.92 157.999 212.614 158.287 213.125 158.799C213.637 159.312 213.924 160.006 213.925 160.731V219.267C213.924 219.992 213.637 220.686 213.125 221.199C212.614 221.711 211.92 221.999 211.197 222Z"
            fill="#3F3D56"/>
        <path
            d="M252.246 154.189C251.901 159.86 244.252 164.007 244.252 164.007C244.252 164.007 237.163 158.96 237.508 153.289C237.853 147.618 245.502 143.471 245.502 143.471C245.502 143.471 252.591 148.518 252.246 154.189Z"
            fill="#3F3D56"/>
        <path
            d="M252.592 171.884C246.929 171.556 242.764 163.908 242.764 163.908C242.764 163.908 247.781 156.792 253.444 157.12C259.107 157.448 263.272 165.096 263.272 165.096C263.272 165.096 258.255 172.212 252.592 171.884Z"
            fill="#3F3D56"/>
        <path d="M239.123 166.358V187.344L218.281 159.793H234.157L239.123 166.358Z" fill="black" opacity="0.1"/>
        <path
            d="M256.814 202.281C256.392 202.282 255.976 202.184 255.598 201.997C255.22 201.809 254.891 201.536 254.636 201.2L211.216 143.802C210.999 143.516 210.841 143.19 210.751 142.843C210.66 142.496 210.639 142.134 210.688 141.778C210.737 141.423 210.855 141.081 211.036 140.771C211.217 140.461 211.457 140.19 211.743 139.974L218.139 135.12C218.424 134.903 218.75 134.745 219.097 134.654C219.443 134.563 219.804 134.542 220.159 134.591C220.514 134.64 220.856 134.759 221.165 134.94C221.474 135.121 221.745 135.362 221.961 135.648L265.382 193.045C265.598 193.331 265.756 193.657 265.847 194.005C265.937 194.352 265.959 194.713 265.91 195.069C265.861 195.424 265.743 195.767 265.562 196.076C265.38 196.386 265.14 196.657 264.855 196.874L258.459 201.727C257.986 202.087 257.408 202.281 256.814 202.281Z"
            fill="#414BB2"/>
        <path d="M239.435 157.68L228.434 166.028L236.769 177.047L247.77 168.698L239.435 157.68Z" fill="#3F3D56"/>
        <path d="M182.843 115.693L179.082 129.752L193.119 133.519L196.88 119.46L182.843 115.693Z" fill="#D0CDE1"/>
        <path
            d="M187.165 135.62L172.508 131.687L176.435 117.007L191.092 120.94L187.165 135.62ZM173.294 131.232L186.711 134.833L190.306 121.395L176.889 117.794L173.294 131.232Z"
            fill="#2F2E41"/>
        <path
            d="M125.423 169.742C125.809 169.372 126.109 168.922 126.302 168.423C126.495 167.924 126.577 167.389 126.541 166.855C126.506 166.322 126.353 165.802 126.096 165.334C125.838 164.865 125.481 164.459 125.049 164.144L119.155 116.555L111.539 118.823L119.761 165.135C119.28 165.896 119.095 166.807 119.24 167.696C119.385 168.585 119.851 169.389 120.549 169.957C121.247 170.525 122.129 170.817 123.027 170.777C123.925 170.738 124.778 170.369 125.423 169.742Z"
            fill="#FFB8B8"/>
        <path d="M132.482 215.229H136.937L139.057 198.021H132.482V215.229Z" fill="#FFB8B8"/>
        <path
            d="M145.527 219.371H131.528V213.954H140.613C141.917 213.954 143.167 214.472 144.088 215.395C145.01 216.318 145.527 217.57 145.527 218.876V219.371Z"
            fill="#2F2E41"/>
        <path d="M101.68 208.279L105.855 209.835L113.831 194.447L107.67 192.151L101.68 208.279Z" fill="#FFB8B8"/>
        <path
            d="M112.465 216.717L99.344 211.829L101.23 206.751L109.745 209.924C110.966 210.379 111.957 211.301 112.5 212.488C113.042 213.675 113.092 215.029 112.637 216.252L112.465 216.717L112.465 216.717Z"
            fill="#2F2E41"/>
        <path
            d="M124.492 104.201C129.144 104.201 132.915 100.424 132.915 95.7654C132.915 91.1067 129.144 87.3301 124.492 87.3301C119.841 87.3301 116.07 91.1067 116.07 95.7654C116.07 100.424 119.841 104.201 124.492 104.201Z"
            fill="#FFB8B8"/>
        <path
            d="M111.318 117.415C111.055 109.646 119.208 104.256 126.068 107.893C126.942 108.357 135.966 116.036 136.306 120.804C136.646 125.573 137.326 133.407 137.326 133.407L146.849 204.597L126.443 203.575L128.908 182.808L115.644 203.927L99.5762 198.807L119.301 141.923C119.301 141.923 111.718 129.19 111.318 117.415Z"
            fill="#2F2E41"/>
        <path
            d="M111.481 120.119L112.791 137.18C112.805 137.358 112.885 137.524 113.016 137.646C113.147 137.767 113.319 137.834 113.497 137.834H119.262C119.379 137.834 119.494 137.806 119.596 137.751C119.699 137.696 119.787 137.616 119.851 137.519C119.916 137.422 119.956 137.31 119.967 137.194C119.978 137.078 119.961 136.961 119.916 136.853L112.841 119.793C112.776 119.637 112.658 119.509 112.508 119.433C112.358 119.356 112.185 119.336 112.022 119.375C111.858 119.414 111.713 119.511 111.614 119.647C111.515 119.784 111.468 119.951 111.481 120.119Z"
            fill="#2F2E41"/>
        <path
            d="M141.088 166.785C141.428 166.373 141.673 165.89 141.807 165.372C141.94 164.854 141.959 164.313 141.861 163.788C141.763 163.262 141.552 162.764 141.241 162.329C140.93 161.893 140.528 161.532 140.063 161.269L128.648 114.698L121.35 117.843L134.926 162.874C134.538 163.686 134.46 164.613 134.708 165.478C134.956 166.344 135.513 167.088 136.272 167.571C137.032 168.053 137.942 168.239 138.829 168.094C139.717 167.95 140.521 167.484 141.088 166.785Z"
            fill="#FFB8B8"/>
        <path
            d="M122.363 110.586C122.363 110.586 119.982 115.354 122.363 123.87C124.743 132.385 126.444 139.538 126.444 139.538C126.444 139.538 131.885 136.132 134.266 137.154C136.647 138.176 130.5 114.454 130.5 114.454C130.5 114.454 126.784 106.498 122.363 110.586Z"
            fill="#2F2E41"/>
        <path
            d="M126.469 97.0814C126.582 95.3311 128.787 95.2711 130.538 95.2545C132.289 95.238 134.383 95.3006 135.374 93.8544C136.029 92.8986 135.904 91.5717 135.363 90.547C134.822 89.5223 133.932 88.7342 133.056 87.976C130.796 86.0186 128.467 84.0766 125.753 82.8237C123.04 81.5708 119.86 81.0646 117.046 82.0703C113.589 83.3058 108.916 89.6656 108.512 93.3196C108.109 96.9735 109.567 100.698 112.024 103.429C114.482 106.159 120.107 105.058 123.647 106.029C121.495 102.978 122.914 97.4349 126.361 96.0103L126.469 97.0814Z"
            fill="#2F2E41"/>
    </g>
    <defs>
        <clipPath id="clip0">
            <rect fill="white" height="222" width="275"/>
        </clipPath>
    </defs>
</svg>
