<svg fill="none" height="205" viewBox="0 0 270 205" width="270" xmlns="http://www.w3.org/2000/svg">
    <g clip-path="url(#clip0)">
        <path d="M204.701 6.21484H77.9688V169.197H204.701V6.21484Z" fill="#E6E8EC"/>
        <path d="M172.412 35.7188H107.711V36.4457H172.412V35.7188Z" fill="#3F3D56"/>
        <path d="M172.412 40.8066H107.711V41.5336H172.412V40.8066Z" fill="#3F3D56"/>
        <path d="M172.412 45.8955H107.711V46.6225H172.412V45.8955Z" fill="#3F3D56"/>
        <path d="M172.412 73.6162H107.711V74.3432H172.412V73.6162Z" fill="#606CE6"/>
        <path d="M172.412 78.7051H107.711V79.4321H172.412V78.7051Z" fill="#606CE6"/>
        <path d="M172.412 83.7949H107.711V84.5219H172.412V83.7949Z" fill="#3F3D56"/>
        <path d="M172.412 96.6582H107.711V97.3852H172.412V96.6582Z" fill="#3F3D56"/>
        <path d="M172.412 101.747H107.711V102.474H172.412V101.747Z" fill="#3F3D56"/>
        <path d="M172.412 106.837H107.711V107.564H172.412V106.837Z" fill="#3F3D56"/>
        <path d="M172.412 119.701H107.711V120.428H172.412V119.701Z" fill="#3F3D56"/>
        <path d="M172.412 124.79H107.711V125.517H172.412V124.79Z" fill="#606CE6"/>
        <path d="M172.412 129.878H107.711V130.605H172.412V129.878Z" fill="#3F3D56"/>
        <path d="M172.412 142.743H107.711V143.47H172.412V142.743Z" fill="#3F3D56"/>
        <path d="M172.412 147.832H107.711V148.559H172.412V147.832Z" fill="#3F3D56"/>
        <path d="M172.412 152.922H107.711V153.649H172.412V152.922Z" fill="#3F3D56"/>
        <path d="M213.647 181.003H77.5156V0H213.647V181.003ZM78.122 180.397H213.04V0.606375H78.122V180.397Z"
              fill="#3F3D56"/>
        <path
            d="M183.479 14.0977C183.479 13.4063 183.661 12.7272 184.007 12.1286C184.353 11.53 184.851 11.0331 185.45 10.6878C184.85 10.3405 184.17 10.1572 183.478 10.1563C182.786 10.1553 182.105 10.3368 181.505 10.6825C180.905 11.0282 180.407 11.5259 180.06 12.1254C179.714 12.725 179.531 13.4052 179.531 14.0977C179.531 14.7902 179.714 15.4704 180.06 16.0699C180.407 16.6695 180.905 17.1671 181.505 17.5128C182.105 17.8585 182.786 18.0401 183.478 18.0391C184.17 18.0382 184.85 17.8548 185.45 17.5075C184.851 17.1623 184.353 16.6654 184.007 16.0668C183.661 15.4682 183.479 14.7891 183.479 14.0977Z"
            fill="#3F3D56"/>
        <path
            d="M188.633 14.0977C188.633 13.4063 188.815 12.7272 189.161 12.1286C189.507 11.53 190.005 11.0331 190.604 10.6878C190.005 10.3405 189.325 10.1572 188.632 10.1563C187.94 10.1553 187.259 10.3368 186.659 10.6825C186.059 11.0282 185.561 11.5259 185.214 12.1254C184.868 12.725 184.686 13.4052 184.686 14.0977C184.686 14.7902 184.868 15.4704 185.214 16.0699C185.561 16.6695 186.059 17.1671 186.659 17.5128C187.259 17.8585 187.94 18.0401 188.632 18.0391C189.325 18.0382 190.005 17.8548 190.604 17.5075C190.005 17.1623 189.507 16.6654 189.161 16.0668C188.815 15.4682 188.633 14.7891 188.633 14.0977Z"
            fill="#606CE6"/>
        <path
            d="M193.785 18.0391C195.962 18.0391 197.727 16.2745 197.727 14.0977C197.727 11.9209 195.962 10.1562 193.785 10.1562C191.608 10.1562 189.844 11.9209 189.844 14.0977C189.844 16.2745 191.608 18.0391 193.785 18.0391Z"
            fill="#3F3D56"/>
        <path
            d="M190.091 181.322L189.765 181.2C189.694 181.173 182.577 178.446 179.243 172.264C175.91 166.081 177.542 158.637 177.559 158.563L177.636 158.224L177.961 158.346C178.032 158.373 185.149 161.099 188.483 167.282C191.817 173.464 190.184 180.909 190.167 180.983L190.091 181.322ZM179.777 171.976C182.596 177.203 188.22 179.883 189.644 180.495C189.915 178.967 190.765 172.792 187.949 167.569C185.133 162.348 179.507 159.664 178.082 159.051C177.811 160.579 176.961 166.754 179.777 171.976Z"
            fill="#3F3D56"/>
        <path
            d="M181.79 170.094C187.781 173.698 190.088 180.857 190.088 180.857C190.088 180.857 182.682 182.173 176.691 178.568C170.7 174.964 168.393 167.805 168.393 167.805C168.393 167.805 175.799 166.489 181.79 170.094Z"
            fill="#606CE6"/>
        <path
            d="M103.133 48.6622C103.132 54.5819 101.527 60.3906 98.4887 65.4711C95.4507 70.5517 91.093 74.7143 85.8787 77.5166C85.4875 77.7288 85.0904 77.932 84.6871 78.126C80.2124 80.2936 75.3034 81.4154 70.3313 81.4064C65.3592 81.3975 60.4543 80.2581 55.9874 78.0745C55.2173 77.6985 54.4654 77.2922 53.7317 76.8556C52.9858 76.4191 52.2612 75.9491 51.5578 75.4519C46.9321 72.1996 43.2274 67.805 40.8041 62.6959C38.3809 57.5869 37.3218 51.9374 37.73 46.2976C38.1381 40.6577 39.9996 35.2196 43.1332 30.5127C46.2667 25.8058 50.5657 21.9904 55.6114 19.438C57.6045 18.4249 59.6977 17.6222 61.8571 17.0428C62.8091 16.7851 63.7773 16.5708 64.7616 16.4C66.62 16.0778 68.5027 15.9165 70.3888 15.918C70.7769 15.918 71.1619 15.924 71.547 15.9422C71.829 15.9483 72.1109 15.9604 72.3929 15.9786C75.3405 16.1548 78.2505 16.7311 81.0428 17.6916C81.2823 17.7735 81.5219 17.8584 81.7583 17.9463C82.583 18.2495 83.3895 18.587 84.1778 18.959C89.8407 21.5872 94.6341 25.78 97.9926 31.0428C101.351 36.3057 103.135 42.4191 103.133 48.6622Z"
            fill="#3F3D56"/>
        <path
            d="M83.1694 15.1784C80.1903 8.14927 72.6069 6.82175 72.6069 6.82175C72.6069 6.82175 65.3052 4.87381 59.2072 14.1508C53.5235 22.7977 46.194 30.8991 55.4893 34.3505L57.9446 29.1939L58.2392 35.1284C59.5909 35.4098 60.9569 35.6172 62.3312 35.7493C72.6415 36.7968 82.3606 38.5383 82.5406 34.8123C82.7799 29.859 86.0359 21.9419 83.1694 15.1784Z"
            fill="#2F2E41"/>
        <path
            d="M56.6916 72.4643L56.449 74.4107L55.9882 78.0733C55.2181 77.6973 54.4662 77.291 53.7324 76.8544C52.9866 76.4178 52.262 75.9479 51.5586 75.4507L51.6314 73.5618L51.7132 71.4668L55.0786 72.1429L56.6916 72.4643Z"
            fill="#FFB8B8"/>
        <path
            d="M90.5672 74.4541C89.095 75.6067 87.5268 76.6312 85.8799 77.5163L84.2912 72.0135L84.082 71.2889L83.5605 69.4788L84.1214 69.3909L89.8638 68.4844L90.0488 70.0458L90.5672 74.4541Z"
            fill="#FFB8B8"/>
        <path
            d="M72.6126 29.6715C77.5591 29.6715 81.569 25.6616 81.569 20.7152C81.569 15.7687 77.5591 11.7588 72.6126 11.7588C67.6662 11.7588 63.6562 15.7687 63.6562 20.7152C63.6562 25.6616 67.6662 29.6715 72.6126 29.6715Z"
            fill="#FFB8B8"/>
        <path
            d="M66.4768 24.1982C66.4768 24.1982 67.1403 35.4766 65.15 36.1401C63.1596 36.8035 75.4332 36.1401 75.4332 36.1401C75.4332 36.1401 73.7746 29.174 75.4332 27.1837C77.0918 25.1934 66.4768 24.1982 66.4768 24.1982Z"
            fill="#FFB8B8"/>
        <path
            d="M75.5996 34.3163C75.5996 34.3163 66.9749 33.6529 65.3163 34.3163C63.6577 34.9798 59.0137 38.297 59.0137 38.297L61.3357 59.1952L80.2436 63.1758L83.2291 58.8634L86.2145 52.5608L84.8876 44.5996L84.5559 39.9555L75.5996 34.3163Z"
            fill="#D0CDE1"/>
        <path
            d="M57.3554 39.623C57.3554 39.623 53.043 40.6182 52.7113 43.9354C52.3796 47.2526 52.3796 55.5455 52.7113 56.8724C53.043 58.1992 52.7113 58.8627 52.3796 59.1944C52.0479 59.5261 51.3844 58.8627 52.0479 59.8578C52.7113 60.853 52.7113 60.853 52.3796 61.8481C52.0479 62.8433 51.0527 61.5164 51.7162 63.175C52.3796 64.8336 52.7113 65.1653 52.3796 65.497C52.0479 65.8287 51.0527 73.4582 51.0527 73.4582L56.6919 74.4534L62.3311 54.8821L57.3554 39.623Z"
            fill="#D0CDE1"/>
        <path
            d="M83.2283 39.623C83.8582 39.6582 84.4673 39.8613 84.9923 40.2113C85.5173 40.5613 85.939 41.0454 86.2137 41.6134C87.2089 43.6037 89.8626 56.5406 89.5309 57.5358C89.1992 58.531 88.5358 57.2041 89.1992 59.1944C89.8626 61.1847 89.1992 60.853 89.5309 62.1798C89.8626 63.5067 88.204 62.1798 89.5309 63.5067C90.8578 64.8336 91.5212 65.1653 90.8578 65.8287C90.1943 66.4922 89.1992 65.1653 90.1943 66.4922C91.1895 67.819 91.1895 69.8093 91.1895 69.8093L83.2283 71.4679L80.9062 52.8918L83.2283 39.623Z"
            fill="#D0CDE1"/>
        <path
            d="M84.2927 72.0132L84.6898 78.1255C80.2151 80.2931 75.3061 81.4148 70.334 81.4059C65.3619 81.397 60.457 80.2576 55.9901 78.0739C55.22 77.698 54.4681 77.2917 53.7344 76.8551C53.9891 75.9183 54.2468 74.9844 54.5105 74.0688C54.6985 73.417 54.8885 72.7752 55.0805 72.1436C56.5692 67.2714 58.173 63.1268 59.6769 61.5169C59.6769 61.5169 59.6769 57.8695 60.3408 57.536C60.66 57.2859 60.9035 56.9521 61.0442 56.5719C61.2914 56.0241 61.5001 55.4598 61.6688 54.8831L60.5713 52.3303L55.6596 40.894C55.5198 40.5669 55.51 40.1988 55.6323 39.8647C55.7545 39.5306 55.9996 39.2557 56.3175 39.0961L57.9457 38.2806C58.1106 38.1987 58.2901 38.1502 58.4738 38.1379C58.6576 38.1256 58.8419 38.1497 59.0163 38.2089C59.1907 38.268 59.3517 38.3611 59.49 38.4826C59.6284 38.6042 59.7413 38.7519 59.8224 38.9173L67.3081 54.2191L75.6003 59.5279L81.4154 56.9418L81.57 56.872C81.57 56.872 85.8844 50.2383 84.5564 46.9214C83.9895 45.5055 83.3649 43.6136 82.8282 41.9067C82.516 40.9001 82.237 39.9572 82.0187 39.2174C81.9844 39.0999 81.9869 38.9747 82.0262 38.8587C82.0654 38.7427 82.1394 38.6416 82.238 38.5691C82.3367 38.4966 82.4553 38.4562 82.5777 38.4534C82.7001 38.4506 82.8204 38.4855 82.9222 38.5534L84.0531 39.3084C84.3095 39.4803 84.5122 39.7209 84.6383 40.0027C84.6906 40.1127 84.7293 40.2288 84.7535 40.3483L87.2093 52.2302L83.8924 59.1944V65.8282L84.1229 69.3906L84.2441 71.2552L84.2927 72.0132Z"
            fill="#2F2E41"/>
        <path
            d="M81.4853 12.6244L73.8853 8.64355L63.3902 10.272L61.2188 19.8624L66.624 19.6547L68.1342 16.1311V19.5965L70.6282 19.5007L72.0759 13.8911L72.9806 19.8624L81.8473 19.6817L81.4853 12.6244Z"
            fill="#2F2E41"/>
        <path
            d="M63.4912 22.4567C64.0409 22.4567 64.4864 21.677 64.4864 20.7152C64.4864 19.7533 64.0409 18.9736 63.4912 18.9736C62.9416 18.9736 62.4961 19.7533 62.4961 20.7152C62.4961 21.677 62.9416 22.4567 63.4912 22.4567Z"
            fill="#FFB8B8"/>
        <path
            d="M261.88 102.951C261.88 117.484 252.063 129.783 238.536 133.899C236.538 134.511 234.488 134.933 232.411 135.16C231.143 135.302 229.868 135.373 228.592 135.373C228.118 135.373 227.646 135.364 227.178 135.34H227.172C222.412 135.155 217.746 133.964 213.48 131.846C210.484 130.357 207.728 128.426 205.306 126.118C202.152 123.139 199.637 119.549 197.918 115.565C196.198 111.582 195.309 107.29 195.305 102.951C195.305 89.2109 204.08 77.467 216.47 72.7478C217.953 72.181 219.474 71.7215 221.023 71.3729C226.728 70.0836 232.669 70.2748 238.28 71.9282C238.705 72.0483 239.127 72.1834 239.543 72.3275C239.547 72.3275 239.55 72.3305 239.553 72.3305C240.554 72.6671 241.537 73.0538 242.499 73.4893C242.829 73.6334 243.159 73.7865 243.483 73.9486C244.13 74.2608 244.765 74.5961 245.387 74.9543C245.628 75.0894 245.865 75.2275 246.099 75.3716C249.923 77.6727 253.241 80.724 255.854 84.3416C258.231 87.6307 259.957 91.3438 260.94 95.281C261.567 97.7894 261.883 100.366 261.88 102.951Z"
            fill="#606CE6"/>
        <path
            d="M264.506 50.3542L269.063 48.9704L269.456 45.0614C269.456 45.0614 258.372 40.9837 254.829 48.1965C253.578 50.7433 252.001 52.2728 250.484 53.1858C249.438 53.7914 248.27 54.1578 247.065 54.2589C245.859 54.36 244.647 54.1932 243.514 53.7705C235.832 51.0382 234.023 58.8084 234.023 58.8084C234.023 58.8084 234.687 59.9145 239.422 60.1864C241.779 60.3218 243.707 62.0489 245.049 63.75C247.924 67.3925 253.829 66.3398 255.279 61.9679C255.303 61.8974 255.326 61.826 255.348 61.7538C257.613 54.5268 267.925 60.2809 267.925 60.2809L268.583 53.7351L264.506 50.3542Z"
            fill="#2F2E41"/>
        <path
            d="M233.458 68.045C236.541 68.045 239.039 65.6112 239.039 62.6089C239.039 59.6067 236.541 57.1729 233.458 57.1729C230.376 57.1729 227.877 59.6067 227.877 62.6089C227.877 65.6112 230.376 68.045 233.458 68.045Z"
            fill="#2F2E41"/>
        <path
            d="M230.667 91.6009C238.886 91.6009 245.55 85.1107 245.55 77.1046C245.55 69.0986 238.886 62.6084 230.667 62.6084C222.447 62.6084 215.783 69.0986 215.783 77.1046C215.783 85.1107 222.447 91.6009 230.667 91.6009Z"
            fill="#2F2E41"/>
        <path
            d="M230.201 92.3561C235.852 92.3561 240.433 87.8941 240.433 82.39C240.433 76.8858 235.852 72.4238 230.201 72.4238C224.55 72.4238 219.969 76.8858 219.969 82.39C219.969 87.8941 224.55 92.3561 230.201 92.3561Z"
            fill="#A0616A"/>
        <path
            d="M226.17 89.9404L228.03 99.6046L237.332 98.3966C237.332 98.3966 235.782 90.8465 236.712 88.7324L226.17 89.9404Z"
            fill="#A0616A"/>
        <path
            d="M244.465 68.8005C244.465 68.8005 237.023 63.3644 233.922 65.4784C230.822 67.5925 242.294 74.5386 243.534 73.9346C244.775 73.3306 244.465 68.8005 244.465 68.8005Z"
            fill="#A0616A"/>
        <path
            d="M251.597 109.872C251.598 109.922 251.596 109.972 251.591 110.022V110.025C251.4 114.342 243.241 127.554 238.535 133.9C236.537 134.512 234.487 134.934 232.41 135.161C231.142 135.303 229.867 135.374 228.591 135.374C228.117 135.374 227.645 135.365 227.177 135.341H227.171C222.837 133.978 217.69 132.189 213.936 130.778C212.166 130.109 210.705 129.526 209.787 129.112C209.445 128.972 209.117 128.8 208.807 128.599C207.256 127.389 210.668 126.482 212.219 126.182C213.769 125.879 211.599 122.558 211.599 122.558C206.017 116.819 212.838 111.988 212.838 111.988C212.838 111.988 215.628 106.248 215.628 104.738C215.635 104.626 215.677 104.519 215.748 104.432C216.916 102.823 226.172 99.9082 226.172 99.9082V95.075L227.13 94.9188L236.562 93.3878L237.333 93.2617L238.883 95.6783L245.707 96.585C245.707 96.585 251.597 104.438 251.597 109.872Z"
            fill="#D0CDE1"/>
        <path
            d="M222.14 109.871C222.14 109.871 218.053 120.906 214.32 129.849C214.191 130.162 214.061 130.471 213.935 130.777C213.781 131.137 213.63 131.495 213.479 131.846C210.482 130.357 207.727 128.427 205.305 126.118C206.981 120.807 209.641 112.369 210.668 108.967C211.799 105.218 214.416 104.53 215.747 104.431C216.017 104.406 216.288 104.408 216.558 104.437L222.14 109.871Z"
            fill="#D0CDE1"/>
        <path
            d="M244.776 97.4904L245.707 96.5844C245.707 96.5844 257.489 84.2022 257.179 81.1821C257.179 81.1821 250.978 73.632 243.226 75.746C243.226 75.746 239.815 67.5919 245.086 67.8939C250.358 68.1959 269.892 66.9879 269.582 75.746C269.272 84.5042 250.668 111.383 250.668 111.383L244.776 97.4904Z"
            fill="#D0CDE1"/>
        <path
            d="M232.411 135.16C231.143 135.302 229.868 135.374 228.592 135.373C228.117 135.373 227.646 135.364 227.177 135.34H227.171C222.412 135.155 217.746 133.964 213.48 131.846C212.123 131.173 210.815 130.407 209.562 129.555L209.788 129.111V129.108L210.05 128.598L214.321 129.85L232.411 135.16Z"
            fill="#2F2E41"/>
        <path
            d="M240.386 77.8003C241.457 74.4558 237.973 70.3514 232.605 68.6329C227.237 66.9143 222.017 68.2325 220.946 71.577C219.876 74.9215 223.36 79.0259 228.728 80.7445C234.096 82.463 239.316 81.1448 240.386 77.8003Z"
            fill="#2F2E41"/>
        <path
            d="M0.353518 171.756C0.352925 173.439 0.480633 175.119 0.735532 176.783C1.96091 184.642 6.00175 191.787 12.1051 196.887C12.2718 197.027 12.4416 197.166 12.6144 197.303C12.9722 197.591 13.336 197.871 13.7059 198.142C14.2395 198.537 14.7852 198.913 15.3431 199.273C19.7287 202.099 24.7252 203.838 29.9176 204.345C35.1099 204.852 40.3484 204.113 45.198 202.19C45.4284 202.099 45.6588 202.005 45.8862 201.908C46.25 201.753 46.6078 201.593 46.9656 201.423C47.8721 201.001 48.7564 200.538 49.6185 200.031C50.5068 199.513 51.3658 198.955 52.1956 198.358C52.5745 198.085 52.9414 197.809 53.3083 197.521L53.3143 197.518C58.1654 193.708 61.8451 188.609 63.9319 182.804V182.801C66.426 175.818 66.4791 168.195 64.0827 161.178C61.6862 154.16 56.9818 148.162 50.7372 144.163C50.4492 143.981 50.1581 143.799 49.864 143.629C49.5609 143.441 49.2516 143.265 48.9393 143.096C44.7365 140.763 40.0683 139.393 35.2716 139.084C34.5531 139.036 33.8285 139.012 33.0978 139.012C33.0614 139.012 33.025 139.012 32.9886 139.015C32.0063 139.015 31.0361 139.06 30.078 139.151C21.9512 139.904 14.3983 143.664 8.89978 149.696C3.40121 155.727 0.353339 163.594 0.353518 171.756Z"
            fill="#3F3D56"/>
        <path
            d="M66.8477 183.001C66.8477 183.001 76.4109 173.119 78.9612 179.175C81.5114 185.232 69.3979 188.42 69.3979 188.42L66.8477 183.001Z"
            fill="#FFB8B8"/>
        <path
            d="M12.6152 197.302C12.973 197.59 13.3368 197.87 13.7067 198.142C14.2403 198.536 14.7861 198.913 15.3439 199.272C19.7296 202.098 24.726 203.837 29.9184 204.344C35.1107 204.851 40.3492 204.113 45.1988 202.189C45.4292 202.098 45.6596 202.004 45.887 201.907C46.2509 201.753 46.6086 201.592 46.9664 201.422L46.1266 200.215C45.5176 199.645 44.8355 199.159 44.0982 198.769C38.3528 195.649 27.5321 195.746 20.2101 196.259C19.1671 196.332 18.1969 196.413 17.3238 196.495C16.778 196.544 16.2687 196.595 15.8048 196.644C15.6168 196.665 15.4379 196.683 15.2681 196.701C13.634 196.883 12.6547 197.026 12.6547 197.026L12.6152 197.302Z"
            fill="#2F2E41"/>
        <path
            d="M40.7154 153.1C45.7748 153.1 49.8762 148.998 49.8762 143.939C49.8762 138.88 45.7748 134.778 40.7154 134.778C35.6561 134.778 31.5547 138.88 31.5547 143.939C31.5547 148.998 35.6561 153.1 40.7154 153.1Z"
            fill="#FFB8B8"/>
        <path
            d="M34.6499 146.979L27.9556 153.992L26.043 164.83L42.9381 167.699L41.663 157.817C41.663 157.817 41.9818 153.035 43.2569 152.079C44.532 151.123 34.6499 146.979 34.6499 146.979Z"
            fill="#FFB8B8"/>
        <path
            d="M14.8848 197.985C15.4436 197.805 16.0113 197.654 16.5856 197.533C18.031 197.219 19.5009 197.031 20.9788 196.972C24.4763 196.788 27.9657 197.463 31.1417 198.94C35.7865 201.168 41.2985 201.775 45.0883 201.89C45.3642 201.899 45.631 201.905 45.8857 201.908C46.2495 201.753 46.6073 201.593 46.965 201.423C47.8716 201.001 48.7559 200.538 49.6179 200.031L49.6058 198.909L49.4057 176.716V176.713L49.3117 166.105L43.2571 159.092L41.7017 157.339L40.9619 158.003L36.5627 161.963L30.1503 156.024L27.9552 153.992L17.4255 189.438L16.0672 194.01L15.2668 196.702L15.1425 197.115V197.118L14.8848 197.985Z"
            fill="#575A89"/>
        <path
            d="M39.3487 167.09C39.364 168.682 39.4978 170.272 39.7489 171.844C40.8404 178.814 41.7772 190.402 44.0966 198.77C44.3998 199.874 44.7303 200.917 45.088 201.89L45.1972 202.19C45.4276 202.099 45.658 202.005 45.8854 201.908C46.2492 201.754 46.607 201.593 46.9648 201.423C47.8713 201.002 48.7556 200.538 49.6177 200.031C50.506 199.513 51.365 198.955 52.1948 198.358L52.0977 197.976V197.973L50.5879 191.927C50.5879 191.927 51.5581 186.867 52.3342 181.207V181.203C53.2256 174.724 53.8623 167.466 52.501 166.105L41.8197 156.333L41.8167 156.336C41.4839 156.866 41.1978 157.424 40.9617 158.004C40.234 159.729 39.3123 162.773 39.3487 167.09Z"
            fill="#D0CDE1"/>
        <path
            d="M6.11719 190.31C7.80485 192.764 9.81941 194.977 12.1051 196.886C12.2719 197.026 12.4417 197.165 12.6145 197.302C12.9723 197.59 13.3361 197.87 13.706 198.141C14.2396 198.536 14.7853 198.913 15.3432 199.272C15.7555 198.699 16.1709 198.117 16.5863 197.532C16.8318 197.189 17.0774 196.844 17.323 196.495C17.7111 195.943 18.0992 195.389 18.4812 194.831C18.5297 194.764 18.5752 194.697 18.6206 194.631C19.1057 193.93 19.5848 193.227 20.0517 192.526C23.4959 187.381 26.3519 182.442 26.6794 179.492C27.0735 175.96 27.8709 170.497 28.6804 165.279C29.2019 161.889 29.7294 158.603 30.1509 156.023C30.6602 152.888 31.0119 150.79 31.0119 150.79C31.0119 150.79 14.3063 149.119 11.9657 150.759H11.9626C11.8955 150.798 11.8372 150.85 11.7918 150.913C11.7463 150.976 11.7146 151.047 11.6989 151.123C11.4442 152.9 12.8085 169.411 13.3725 176.082V176.085C13.518 177.795 13.612 178.856 13.612 178.856C13.612 178.856 12.6569 180.132 11.2562 182.179C9.82821 184.268 7.93328 187.157 6.11719 190.31Z"
            fill="#D0CDE1"/>
        <path
            d="M51.5439 175.03L53.1377 187.463L67.1639 181.406L71.6268 190.65L48.6749 199.257C48.6749 199.257 44.5308 177.262 51.5439 175.03Z"
            fill="#D0CDE1"/>
        <path
            d="M49.8669 145.616C49.8669 145.616 51.1118 144.271 50.9858 142.588C50.9028 141.631 50.964 140.667 51.1674 139.728C51.1674 139.728 50.7778 136.973 50.2025 135.377C49.6272 133.78 50.1122 133.224 47.6392 132.353C45.1662 131.481 46.7406 128.329 39.4495 130.841C39.1722 131.122 38.8182 131.313 38.4321 131.392C38.046 131.471 37.6452 131.434 37.2802 131.285C35.9341 130.792 35.1229 132.642 35.1229 132.642C35.1229 132.642 34.2833 131.953 33.8121 132.669C33.341 133.385 31.0624 131.753 30.2268 136.963C29.3912 142.173 32.2597 146.82 32.2597 146.82C32.2597 146.82 32.6622 138.482 37.3973 138.331C42.1324 138.18 47.4872 136.386 48.1514 139.897C48.4985 141.864 49.0742 143.783 49.8669 145.616Z"
            fill="#2F2E41"/>
        <path
            d="M12.1035 196.887C12.2703 197.026 12.4401 197.166 12.6129 197.302C12.9706 197.59 13.3345 197.87 13.7043 198.142C14.238 198.536 14.7837 198.913 15.3416 199.273C18.0278 201.011 20.9558 202.343 24.0309 203.227C24.7828 201.298 22.9819 198.9 20.9778 196.972C20.7232 196.726 20.4624 196.487 20.2077 196.259C19.6014 195.723 19.0041 195.238 18.4796 194.831C18.4553 194.813 18.4341 194.798 18.4129 194.78C17.4214 194.016 16.7029 193.546 16.7029 193.546L16.0662 194.01L12.1035 196.887Z"
            fill="#FFB8B8"/>
        <path
            d="M0.736328 176.783C1.96171 184.642 6.00255 191.787 12.1059 196.887C12.2726 197.027 12.4424 197.166 12.6152 197.302C12.973 197.59 13.3368 197.87 13.7067 198.142L15.1438 197.118V197.114L15.8048 196.645L18.4152 194.78L18.6214 194.631L20.6254 193.2L20.0524 192.527L17.4268 189.438L11.2569 182.179L9.78648 180.451L13.3732 176.085V176.082L17.1176 171.525L13.9311 151.124C13.3276 150.808 12.643 150.681 11.9664 150.76H11.9634C11.2418 150.884 10.505 151.382 10.1048 152.716C9.38021 155.132 3.52869 169.815 0.736328 176.783Z"
            fill="#D0CDE1"/>
    </g>
    <defs>
        <clipPath id="clip0">
            <rect fill="white" height="204.5" transform="translate(0.353516)" width="269.231"/>
        </clipPath>
    </defs>
</svg>
