<svg width="291" height="215" viewBox="0 0 291 215" fill="none" xmlns="http://www.w3.org/2000/svg">
    <path opacity="0.2" d="M38.5121 108.419C34.6849 109.579 31.1026 112.385 30.1466 116.278C29.0531 120.753 31.5747 125.263 31.9392 129.858C33.1163 144.911 11.7544 155.531 14.8018 170.318C16.0119 176.197 20.9027 180.522 25.7218 184.095C33.442 189.8 42.0077 194.841 51.4935 196.263C65.8912 198.426 80.9341 192.07 94.9284 196.087C106.216 199.327 114.853 208.824 126.063 212.329C134.596 214.997 143.789 213.946 152.653 212.865C157.434 212.284 162.441 211.613 166.298 208.738C173.469 203.385 173.92 192.816 178.721 185.242C186.136 173.561 202.395 171.267 216.028 173.537C229.661 175.807 242.899 181.396 256.711 180.941C259.663 180.842 262.687 180.441 265.262 178.988C268.393 177.224 270.508 174.115 272.379 171.039C284.068 151.742 290.484 129.7 290.983 107.129C291.064 103.25 290.926 99.2038 289.107 95.7805C286.806 91.4497 282.208 88.859 277.631 87.1159C266.639 82.9229 254.497 82.237 243.727 77.5079C233.339 72.9465 224.925 64.9468 215.879 58.0912C197.85 44.4556 176.954 35.1266 154.784 30.8156C149.588 29.8092 144.195 29.0904 139.033 30.2525C133.084 31.5913 127.957 35.3081 123.347 39.3094C111.083 49.9537 101.253 63.0869 89.951 74.7525C82.1541 82.7974 73.664 90.1368 64.5796 96.685C60.3968 99.707 55.9512 103.295 51.2904 105.529C47.024 107.572 43.0235 107.057 38.5121 108.419Z" fill="#606CE6"/>
    <path d="M93.1802 13.8184C93.1802 13.8184 81.6328 29.1918 89.8937 47.111C98.1547 65.0302 75.4961 93.8213 75.4961 93.8213" stroke="#535461" stroke-width="2" stroke-miterlimit="10"/>
    <path d="M98.357 8.06577C97.4398 12.0222 93.0509 14.3793 93.0509 14.3793C93.0509 14.3793 90.1528 10.321 91.07 6.3646C91.9873 2.40818 94.3565 -0.419114 96.3761 0.0511039C98.3958 0.521322 99.2742 4.10935 98.357 8.06577Z" fill="#8ED16F"/>
    <path d="M95.4091 7.37571C95.6975 6.13359 95.5547 5.03881 95.0902 4.93047C94.6258 4.82212 94.0155 5.74123 93.7272 6.98335C93.4388 8.22547 93.5816 9.32025 94.046 9.4286C94.5105 9.53695 95.1208 8.61784 95.4091 7.37571Z" fill="#8ED16F"/>
    <path opacity="0.3" d="M95.4091 7.37571C95.6975 6.13359 95.5547 5.03881 95.0902 4.93047C94.6258 4.82212 94.0155 5.74123 93.7272 6.98335C93.4388 8.22547 93.5816 9.32025 94.046 9.4286C94.5105 9.53695 95.1208 8.61784 95.4091 7.37571Z" fill="black"/>
    <path d="M96.3627 25.6432C92.5504 27.0209 88.1914 24.6069 88.1914 24.6069C88.1914 24.6069 90.0139 19.9617 93.8292 18.587C97.6444 17.2122 101.298 17.6884 102 19.6232C102.703 21.558 100.175 24.2655 96.3627 25.6432Z" fill="#8ED16F"/>
    <path d="M95.2915 22.5931C96.4873 22.1595 97.3253 21.4437 97.1632 20.9944C97.0011 20.545 95.9002 20.5323 94.7043 20.9659C93.5085 21.3995 92.6705 22.1152 92.8326 22.5646C92.9948 23.014 94.0956 23.0267 95.2915 22.5931Z" fill="#8ED16F"/>
    <path opacity="0.3" d="M95.2915 22.5931C96.4873 22.1595 97.3253 21.4437 97.1632 20.9944C97.0011 20.545 95.9002 20.5323 94.7043 20.9659C93.5085 21.3995 92.6705 22.1152 92.8326 22.5646C92.9948 23.014 94.0956 23.0267 95.2915 22.5931Z" fill="black"/>
    <path d="M95.474 39.651C91.6618 41.0287 87.3027 38.6148 87.3027 38.6148C87.3027 38.6148 89.1252 33.9695 92.9405 32.5948C96.7557 31.2201 100.41 31.6963 101.112 33.631C101.814 35.5658 99.2863 38.2763 95.474 39.651Z" fill="#8ED16F"/>
    <path d="M94.4476 36.8124C95.6446 36.3804 96.484 35.6656 96.3224 35.2158C96.1609 34.766 95.0596 34.7516 93.8626 35.1836C92.6657 35.6156 91.8263 36.3304 91.9878 36.7802C92.1493 37.23 93.2506 37.2444 94.4476 36.8124Z" fill="#8ED16F"/>
    <path opacity="0.3" d="M94.4476 36.8124C95.6446 36.3804 96.484 35.6656 96.3224 35.2158C96.1609 34.766 95.0596 34.7516 93.8626 35.1836C92.6657 35.6156 91.8263 36.3304 91.9878 36.7802C92.1493 37.23 93.2506 37.2444 94.4476 36.8124Z" fill="black"/>
    <path d="M99.9291 56.0846C96.1168 57.4623 91.7578 55.0484 91.7578 55.0484C91.7578 55.0484 93.5803 50.4031 97.3956 49.0284C101.211 47.6536 104.865 48.1299 105.567 50.0646C106.269 51.9994 103.741 54.7159 99.9291 56.0846Z" fill="#8ED16F"/>
    <path d="M98.9027 53.2528C100.1 52.8208 100.939 52.106 100.777 51.6562C100.616 51.2065 99.5147 51.192 98.3177 51.624C97.1207 52.056 96.2813 52.7709 96.4429 53.2206C96.6044 53.6704 97.7057 53.6848 98.9027 53.2528Z" fill="#8ED16F"/>
    <path opacity="0.3" d="M98.9027 53.2528C100.1 52.8208 100.939 52.106 100.777 51.6562C100.616 51.2065 99.5147 51.192 98.3177 51.624C97.1207 52.056 96.2813 52.7709 96.4429 53.2206C96.6044 53.6704 97.7057 53.6848 98.9027 53.2528Z" fill="black"/>
    <path d="M97.0307 71.1129C93.2184 72.4907 88.8594 70.0767 88.8594 70.0767C88.8594 70.0767 90.6819 65.4314 94.4971 64.0567C98.3124 62.682 101.966 63.1582 102.668 65.093C103.371 67.0277 100.846 69.7382 97.0307 71.1129Z" fill="#8ED16F"/>
    <path d="M96.0122 68.0277C97.208 67.5941 98.046 66.8783 97.8839 66.429C97.7218 65.9796 96.6209 65.9668 95.4251 66.4004C94.2292 66.834 93.3912 67.5498 93.5533 67.9992C93.7155 68.4485 94.8163 68.4613 96.0122 68.0277Z" fill="#8ED16F"/>
    <path opacity="0.3" d="M96.0122 68.0277C97.208 67.5941 98.046 66.8783 97.8839 66.429C97.7218 65.9796 96.6209 65.9668 95.4251 66.4004C94.2292 66.834 93.3912 67.5498 93.5533 67.9992C93.7155 68.4485 94.8163 68.4613 96.0122 68.0277Z" fill="black"/>
    <path d="M79.15 29.6239C81.9644 32.5471 86.9389 32.3194 86.9389 32.3194C86.9389 32.3194 87.3482 27.3447 84.5338 24.4216C81.7194 21.4984 78.2328 20.2944 76.7449 21.7261C75.257 23.1577 76.3356 26.7008 79.15 29.6239Z" fill="#8ED16F"/>
    <path d="M83.5475 28.5868C83.8906 28.2548 83.4524 27.2418 82.5688 26.3243C81.6853 25.4067 80.6909 24.9321 80.3478 25.2641C80.0047 25.5961 80.4428 26.609 81.3264 27.5266C82.21 28.4441 83.2044 28.9188 83.5475 28.5868Z" fill="#8ED16F"/>
    <path opacity="0.3" d="M83.5475 28.5868C83.8906 28.2548 83.4524 27.2418 82.5688 26.3243C81.6853 25.4067 80.6909 24.9321 80.3478 25.2641C80.0047 25.5961 80.4428 26.609 81.3264 27.5266C82.21 28.4441 83.2044 28.9188 83.5475 28.5868Z" fill="black"/>
    <path d="M77.5328 76.0439C80.3472 78.967 85.3217 78.7394 85.3217 78.7394C85.3217 78.7394 85.731 73.7647 82.9166 70.8415C80.1022 67.9184 76.6156 66.7144 75.1277 68.146C73.6399 69.5776 74.7184 73.1207 77.5328 76.0439Z" fill="#8ED16F"/>
    <path d="M81.9283 75.0106C82.2714 74.6786 81.8333 73.6656 80.9497 72.7481C80.0661 71.8306 79.0717 71.3559 78.7286 71.6879C78.3855 72.0199 78.8237 73.0329 79.7073 73.9504C80.5908 74.8679 81.5852 75.3426 81.9283 75.0106Z" fill="#8ED16F"/>
    <path opacity="0.3" d="M81.9283 75.0106C82.2714 74.6786 81.8333 73.6656 80.9497 72.7481C80.0661 71.8306 79.0717 71.3559 78.7286 71.6879C78.3855 72.0199 78.8237 73.0329 79.7073 73.9504C80.5908 74.8679 81.5852 75.3426 81.9283 75.0106Z" fill="black"/>
    <path d="M81.2651 46.0302C84.8922 47.8452 89.5022 45.9583 89.5022 45.9583C89.5022 45.9583 88.2324 41.1334 84.6083 39.3184C80.9843 37.5034 77.2945 37.5214 76.3713 39.3903C75.4481 41.2591 77.6381 44.2152 81.2651 46.0302Z" fill="#8ED16F"/>
    <path d="M85.0566 43.5728C85.2695 43.1451 84.5193 42.3367 83.381 41.7673C82.2427 41.1978 81.1473 41.0829 80.9344 41.5107C80.7214 41.9384 81.4716 42.7468 82.6099 43.3162C83.7483 43.8857 84.8437 44.0005 85.0566 43.5728Z" fill="#8ED16F"/>
    <path opacity="0.3" d="M85.0566 43.5728C85.2695 43.1451 84.5193 42.3367 83.381 41.7673C82.2427 41.1978 81.1473 41.0829 80.9344 41.5107C80.7214 41.9384 81.4716 42.7468 82.6099 43.3162C83.7483 43.8857 84.8437 44.0005 85.0566 43.5728Z" fill="black"/>
    <path d="M82.7857 62.374C86.4127 64.1889 91.0227 62.3021 91.0227 62.3021C91.0227 62.3021 89.753 57.4771 86.1289 55.6621C82.5049 53.8471 78.8151 53.8651 77.8919 55.734C76.9687 57.6029 79.1736 60.577 82.7857 62.374Z" fill="#8ED16F"/>
    <path d="M86.5781 59.9185C86.791 59.4908 86.0408 58.6824 84.9025 58.113C83.7642 57.5435 82.6688 57.4287 82.4558 57.8564C82.2429 58.2841 82.9931 59.0925 84.1314 59.6619C85.2698 60.2314 86.3652 60.3462 86.5781 59.9185Z" fill="#8ED16F"/>
    <path opacity="0.3" d="M86.5781 59.9185C86.791 59.4908 86.0408 58.6824 84.9025 58.113C83.7642 57.5435 82.6688 57.4287 82.4558 57.8564C82.2429 58.2841 82.9931 59.0925 84.1314 59.6619C85.2698 60.2314 86.3652 60.3462 86.5781 59.9185Z" fill="black"/>
    <path d="M37.5645 46.8633C37.5645 46.8633 58.6546 68.0051 46.7487 99.3779C34.8428 130.751 67.1575 182.921 67.1575 182.921C67.1575 182.921 66.8109 182.87 66.1686 182.756C22.8472 175.092 1.33593 125.429 25.4166 88.536C34.3588 74.8188 41.7234 58.7295 37.5645 46.8633Z" fill="#8ED16F"/>
    <path d="M0 132.374C0 132.374 24.0658 128.531 26.2587 150.152C28.4517 171.773 72.5349 174.771 72.5349 174.771C72.5349 174.771 72.2361 174.969 71.7073 175.322C35.3084 199.282 0.513882 190.579 5.75726 158.775C7.7112 146.947 7.54987 135.072 0 132.374Z" fill="#8ED16F"/>
    <g opacity="0.3">
        <path opacity="0.3" d="M0 132.374C0 132.374 24.0658 128.531 26.2587 150.152C28.4517 171.773 72.5349 174.771 72.5349 174.771C72.5349 174.771 72.2361 174.969 71.7073 175.322C35.3084 199.282 0.513882 190.579 5.75726 158.775C7.7112 146.947 7.54987 135.072 0 132.374Z" fill="white"/>
    </g>
    <path d="M31.4732 132.108C35.128 132.108 38.0909 124.358 38.0909 114.799C38.0909 105.24 35.128 97.4912 31.4732 97.4912C27.8183 97.4912 24.8555 105.24 24.8555 114.799C24.8555 124.358 27.8183 132.108 31.4732 132.108Z" fill="#8ED16F"/>
    <path opacity="0.3" d="M31.4732 132.108C35.128 132.108 38.0909 124.358 38.0909 114.799C38.0909 105.24 35.128 97.4912 31.4732 97.4912C27.8183 97.4912 24.8555 105.24 24.8555 114.799C24.8555 124.358 27.8183 132.108 31.4732 132.108Z" fill="black"/>
    <path d="M30.8684 177.659C32.6103 175.913 30.8794 171.346 27.0023 167.46C23.1251 163.573 18.5699 161.838 16.828 163.584C15.086 165.33 16.8169 169.897 20.694 173.784C24.5712 177.67 29.1264 179.405 30.8684 177.659Z" fill="#8ED16F"/>
    <path opacity="0.3" d="M30.8684 177.659C32.6103 175.913 30.8794 171.346 27.0023 167.46C23.1251 163.573 18.5699 161.838 16.828 163.584C15.086 165.33 16.8169 169.897 20.694 173.784C24.5712 177.67 29.1264 179.405 30.8684 177.659Z" fill="black"/>
    <path d="M216.276 79.5059H59.62C57.727 79.5059 55.9115 80.2597 54.573 81.6015C53.2344 82.9434 52.4824 84.7633 52.4824 86.661V178.707C52.4824 180.604 53.2344 182.424 54.573 183.766C55.9115 185.108 57.727 185.862 59.62 185.862H216.276C218.169 185.862 219.984 185.108 221.323 183.766C222.662 182.424 223.414 180.604 223.414 178.707V86.661C223.414 84.7633 222.662 82.9434 221.323 81.6015C219.984 80.2597 218.169 79.5059 216.276 79.5059Z" fill="url(#paint0_linear)"/>
    <path d="M213.986 80.7578H61.9046C57.8108 80.7578 54.4922 84.0846 54.4922 88.1885V177.179C54.4922 181.283 57.8108 184.61 61.9046 184.61H213.986C218.08 184.61 221.399 181.283 221.399 177.179V88.1885C221.399 84.0846 218.08 80.7578 213.986 80.7578Z" fill="#606CE6"/>
    <path d="M221.399 98.9316H54.4922V117.971H221.399V98.9316Z" fill="#606CE6"/>
    <path opacity="0.3" d="M221.399 98.9316H54.4922V117.971H221.399V98.9316Z" fill="black"/>
    <path d="M205.573 132.107H70.3203V141.338H205.573V132.107Z" fill="#D6D6E3"/>
    <path d="M81.5431 177.688C88.8545 177.688 94.7815 171.747 94.7815 164.417C94.7815 157.088 88.8545 151.146 81.5431 151.146C74.2317 151.146 68.3047 157.088 68.3047 164.417C68.3047 171.747 74.2317 177.688 81.5431 177.688Z" fill="#606CE6"/>
    <path opacity="0.3" d="M81.5431 177.688C88.8545 177.688 94.7815 171.747 94.7815 164.417C94.7815 157.088 88.8545 151.146 81.5431 151.146C74.2317 151.146 68.3047 157.088 68.3047 164.417C68.3047 171.747 74.2317 177.688 81.5431 177.688Z" fill="black"/>
    <path d="M211.91 55.1499C212.124 55.8273 212.577 56.4026 213.186 56.7673C215.931 58.5852 221.901 58.1989 222.618 58.1989C222.77 58.1989 222.97 58.4714 223.191 58.9297C224.246 61.11 225.88 67.5014 225.991 68.939C226.137 70.6791 227.751 78.8226 230.392 81.8565C230.472 81.9494 230.553 82.0362 230.631 82.1171C233.221 84.7257 236.259 81.8565 236.259 81.8565L236.696 80.338C236.573 80.937 236.436 81.6349 236.298 82.4166C236.23 82.8089 236.161 83.2252 236.095 83.6535C235.702 86.0668 235.495 88.5071 235.477 90.9524C235.47 91.8403 235.508 92.7279 235.59 93.612C235.614 93.8575 235.641 94.1001 235.674 94.3368C235.809 95.4136 235.875 96.498 235.871 97.5834C235.847 104.029 234.207 112.046 234.207 112.046L234.27 112.025C234.231 112.226 234.207 112.325 234.207 112.325L234.303 112.295C234.257 112.592 234.213 112.897 234.171 113.208C233.615 117.252 233.296 122.283 233.143 125.188C233.064 126.721 233.133 128.257 233.346 129.777L236.262 150.356V159.94C236.253 161.392 236.429 162.839 236.788 164.246C237.738 167.867 236.956 180.506 236.516 186.502C236.394 188.138 236.298 189.282 236.271 189.611V189.71L236.355 189.677C236.355 189.746 236.355 189.782 236.355 189.782C236.479 189.729 236.61 189.69 236.743 189.668C235.587 191.465 233.493 194.436 231.883 194.936C230.933 195.226 230.089 195.787 229.454 196.551L229.412 196.608L229.352 196.691C229.153 196.959 229.032 197.276 229.002 197.608C228.979 197.551 228.961 197.492 228.949 197.431C228.826 198.099 229.226 198.71 230.484 199.007C231.218 199.147 231.964 199.207 232.71 199.186C237.072 199.186 244.813 197.842 245.668 196.395V191.405L245.808 191.45V191.495L246.343 191.672L247.81 186.736C249.57 185.43 248.109 162.06 247.81 156.69C247.541 151.796 250.561 132.329 251.096 128.899L251.025 128.812L251.105 128.312C251.213 128.391 251.313 128.479 251.404 128.576C251.58 128.785 251.733 129.012 251.861 129.253C252.114 129.681 252.331 130.13 252.509 130.594C255.461 137.974 256.791 159.077 256.791 160.97V180.815C256.785 182.773 257.056 184.723 257.597 186.604C257.869 187.595 258.078 188.601 258.225 189.617C258.288 190.016 258.341 190.411 258.392 190.788C258.443 191.166 258.494 191.597 258.533 191.95C258.533 192.043 258.554 192.133 258.562 192.217C258.571 192.301 258.562 192.298 258.562 192.34C258.643 193.121 258.685 193.634 258.685 193.634C258.696 193.591 258.716 193.551 258.745 193.517L258.76 193.705C258.781 193.634 258.821 193.57 258.876 193.52C258.998 193.4 259.13 193.292 259.271 193.196V195.718L259.199 195.664V196.098C262.24 198.399 267.191 199.094 270.991 199.067C273.456 199.067 275.452 198.767 276.145 198.42C277.137 197.931 276.593 196.793 275.691 195.922C274.992 195.245 274.08 194.724 273.504 194.79C272.542 194.894 269.252 191.16 267.529 189.114L267.723 189.027L267.998 188.907V155.818C267.998 155.818 268.44 142.754 269.757 129.834C270.383 123.321 269.613 116.749 267.502 110.558L267.46 110.435L267.86 110.498C268.284 110.564 268.511 110.603 268.511 110.603C268.511 110.603 268.511 110.501 268.485 110.303H268.511C268.511 110.303 267.998 104.7 267.992 97.6612C267.992 89.6825 268.664 79.9547 271.445 74.4498C273.047 71.2811 273.582 68.7593 273.537 66.7706C273.607 65.0207 273.104 63.2959 272.106 61.8588C271.687 61.2803 271.117 60.8285 270.459 60.553L270.403 60.52H270.373C269.892 60.3251 269.379 60.2235 268.861 60.2205H262.853C262.157 60.2211 261.474 60.0405 260.869 59.6964L258.518 58.3606C257.735 56.6445 257.621 54.518 257.789 52.5233C257.789 52.3646 257.819 52.2058 257.833 52.0501L258.004 51.8704C258.135 51.7296 258.258 51.5709 258.377 51.4361C258.375 51.5543 258.366 51.6723 258.35 51.7895C258.32 51.9782 258.27 52.089 258.189 52.113C259.474 51.9453 260.908 51.6907 261.697 50.6964C261.729 50.6574 261.759 50.6155 261.789 50.5736C262.022 50.1953 262.215 49.7938 262.366 49.3756C262.476 49.0898 262.624 48.8199 262.805 48.5729C263.002 48.3153 263.259 48.1057 263.471 47.8601L263.507 47.8181C264.263 46.9196 264.305 45.6318 264.314 44.4577C264.329 41.6065 264.245 38.4677 262.342 36.3292C260.761 34.5502 258.24 33.8763 255.847 33.7985C253.454 33.7206 251.066 34.1519 248.676 34.1639C247.051 34.1639 245.091 34.1369 244.195 35.4847C243.756 36.1466 243.702 37.0121 243.224 37.6471C242.949 38.0125 242.528 38.3269 242.504 38.7822C242.501 38.9922 242.554 39.1992 242.659 39.3812V39.4021C243.239 40.5462 244.47 41.2591 245.754 41.4837C245.537 41.7457 245.338 42.0219 245.157 42.3103C244.372 43.5672 243.958 45.0207 243.962 46.5033C243.962 46.677 243.962 46.8478 243.98 47.0185C244.113 49.0322 245.009 50.9188 246.483 52.2927C246.459 52.4604 246.435 52.6281 246.409 52.7929L246.462 52.8408C246.632 52.9945 246.808 53.1403 246.991 53.2781L247.057 53.329C247.057 53.4338 247.057 53.5386 247.057 53.6285C247.057 53.8022 247.057 53.9789 247.039 54.1496C247.021 54.3203 247.039 54.4252 247.021 54.5629L246.982 54.53L244.063 52.086L239.37 47.7313C239.37 47.7313 227.634 39.1685 227.045 43.2388C226.974 43.9616 227.173 44.6852 227.604 45.2694C229.758 48.5639 237.165 51.3672 237.165 51.3672C237.165 51.3672 241.581 56.0485 244.535 61.0951C244.431 61.152 244.326 61.2059 244.216 61.2568C241.586 62.4817 237.75 61.9636 237.75 61.9636C233.32 62.6555 232.919 67.5224 232.943 69.4901C232.943 69.5829 232.943 69.6728 232.943 69.7537C232.943 69.8345 232.943 69.8525 232.943 69.8974L227.063 56.0574L227.045 56.0155C226.854 55.5649 226.552 55.1701 226.167 54.8675C225.783 54.565 225.329 54.3644 224.847 54.2844C220.915 53.6225 211.088 52.2418 211.91 55.1499ZM236.525 189.626C236.611 189.606 236.698 189.59 236.785 189.578L236.758 189.62L236.525 189.626Z" fill="url(#paint1_linear)"/>
    <path d="M265.904 186.797C265.904 186.797 271.473 193.814 272.76 193.67C274.048 193.527 277.045 196.39 275.333 197.264C273.621 198.139 263.764 198.696 258.9 194.973V189.364L265.904 186.797Z" fill="#ACA9C9"/>
    <path d="M237.762 187.225C237.762 187.225 234.475 193.095 232.193 193.814C229.91 194.532 227.908 197.108 230.908 197.824C233.908 198.54 244.621 196.964 245.619 195.245V187.653L237.762 187.225Z" fill="#ACA9C9"/>
    <path d="M233.636 129.555L236.474 149.855V159.293C236.466 160.724 236.638 162.151 236.988 163.54C237.914 167.113 237.153 179.578 236.722 185.493C236.582 187.422 236.474 188.656 236.474 188.656C238.33 187.796 246.187 190.516 246.187 190.516L246.982 187.805L247.615 185.649C249.33 184.361 247.914 161.308 247.615 155.998C247.421 152.371 249.035 140.613 250.068 133.565C250.367 131.574 250.609 129.971 250.756 129.007C250.848 128.408 250.899 128.076 250.899 128.076C251.214 128.333 251.476 128.649 251.67 129.007C251.916 129.43 252.126 129.873 252.3 130.331C255.174 137.612 256.483 158.427 256.483 160.281V179.856C256.477 181.788 256.741 183.71 257.269 185.568C257.622 186.923 257.881 188.301 258.042 189.692C258.246 191.246 258.341 192.498 258.341 192.498C258.485 191.639 267.34 187.772 267.34 187.772V155.127C267.34 155.127 267.767 142.248 269.055 129.495C269.608 123.694 269.051 117.841 267.412 112.25C267.056 111.031 266.701 109.998 266.393 109.18C265.87 107.787 265.497 107.018 265.497 107.018H236.325C235.835 107.11 235.429 108.099 235.061 109.599C234.822 110.606 234.613 111.84 234.431 113.193C233.89 117.18 233.579 122.142 233.43 125.012C233.355 126.529 233.424 128.051 233.636 129.555Z" fill="#618FD8"/>
    <g opacity="0.1">
        <path opacity="0.1" d="M266.827 187.865V155.219C266.827 155.219 267.254 142.341 268.542 129.588C269.829 116.835 264.956 107.107 264.956 107.107H265.527C265.527 107.107 270.382 116.844 269.112 129.588C267.842 142.332 267.397 155.219 267.397 155.219V187.865C267.397 187.865 258.542 191.732 258.398 192.591C258.398 192.591 258.398 192.399 258.354 192.07C260.284 190.725 266.827 187.865 266.827 187.865Z" fill="black"/>
        <path opacity="0.1" d="M237.333 188.566C237.063 188.572 236.797 188.627 236.547 188.728V188.584C236.808 188.558 237.071 188.552 237.333 188.566Z" fill="black"/>
        <path opacity="0.1" d="M247.117 185.721C248.831 184.433 247.415 161.38 247.117 156.07C246.818 150.76 250.403 128.15 250.403 128.15C250.591 128.296 250.757 128.467 250.896 128.66C250.37 132.038 247.43 151.245 247.69 156.07C247.989 161.368 249.405 184.421 247.69 185.721L246.262 190.588L245.742 190.414L247.117 185.721Z" fill="black"/>
    </g>
    <path d="M239.474 71.6736L236.487 82.2699C236.487 82.2699 233.344 85.265 230.774 82.2699C228.205 79.2749 226.621 71.2453 226.466 69.5261C226.311 67.807 224.037 58.9298 223.179 58.9298C222.322 58.9298 213.753 59.5018 212.752 55.9348C211.952 53.0655 221.518 54.4372 225.348 55.0812C225.82 55.1617 226.264 55.3604 226.638 55.6588C227.013 55.9573 227.306 56.3458 227.491 56.7883L233.364 70.8499C233.364 70.8499 236.475 67.2349 239.474 71.6736Z" fill="#F7C4A7"/>
    <path d="M258.757 47.0459C258.757 47.0459 255.043 57.4985 259.758 61.2213C264.472 64.9441 242.898 65.9474 242.898 65.9474L245.826 63.1561C245.826 63.1561 247.897 54.9228 246.469 48.0492L258.757 47.0459Z" fill="#F7C4A7"/>
    <path opacity="0.1" d="M254.186 61.2208C254.186 61.2208 257.971 60.2894 257.971 59.2891L261.327 61.2208H269.755C269.755 61.2208 275.897 64.6561 270.756 74.968C265.614 85.2798 267.899 110.609 267.899 110.609C267.899 110.609 249.618 107.314 234.476 112.328C234.476 112.328 236.762 101.016 235.904 94.5734C235.047 88.1311 237.333 79.1101 237.333 79.1101L238.617 73.6681C238.617 73.6681 238.546 68.5766 233.26 71.1613C233.26 71.1613 232.475 63.7876 237.903 62.928C237.903 62.928 244.177 63.7876 246.045 60.6368C246.045 60.6488 250.189 63.0837 254.186 61.2208Z" fill="black"/>
    <path d="M254.186 60.9367C254.186 60.9367 257.972 60.0052 257.972 59.0049L260.43 60.4215C261.018 60.759 261.683 60.9366 262.36 60.9367H268.255C268.871 60.9349 269.479 61.0801 270.028 61.3603C270.577 61.6404 271.052 62.0476 271.413 62.548C272.767 64.4558 273.98 68.2176 270.756 74.6838C265.614 84.9927 267.9 110.325 267.9 110.325C267.9 110.325 249.618 107.03 234.476 112.044C234.476 112.044 236.762 100.731 235.905 94.2892C235.047 87.8469 237.333 78.8469 237.333 78.8469L238.617 73.4049C238.617 73.4049 238.546 68.3134 233.26 70.8981C233.26 70.8981 232.496 63.728 237.679 62.7037C237.823 62.6716 237.971 62.6615 238.118 62.6738C239.227 62.7906 244.393 63.165 246.048 60.3586C246.045 60.3616 250.189 62.7966 254.186 60.9367Z" fill="#E14B5A"/>
    <path opacity="0.1" d="M268.613 73.9655C268.613 73.9655 264.041 76.8288 256.614 73.9655C256.614 73.9655 248.473 70.9705 245.9 65.0883C243.328 59.2061 258.897 66.0916 258.897 66.0916C258.897 66.0916 262.183 66.0916 263.181 65.3758C264.179 64.66 271.182 70.8148 268.613 73.9655Z" fill="black"/>
    <path d="M268.614 73.393C268.614 73.393 264.043 76.2563 256.615 73.393C256.615 73.393 248.474 70.398 245.902 64.5158C243.329 58.6336 237.333 52.1913 237.333 52.1913C237.333 52.1913 226.906 48.181 227.474 44.1736C228.041 40.1663 239.472 48.6123 239.472 48.6123L244.043 52.9071L258.898 65.5072C258.898 65.5072 262.184 65.5072 263.182 64.7913C264.18 64.0755 271.183 70.2423 268.614 73.393Z" fill="#F7C4A7"/>
    <path opacity="0.1" d="M246.332 48.4779L258.614 47.4746C257.983 49.3676 257.553 51.3222 257.333 53.3059C255.905 54.7902 253.953 55.6531 251.896 55.7092C249.84 55.7652 247.844 55.0097 246.338 53.6054C246.651 51.9105 246.649 50.1721 246.332 48.4779Z" fill="black"/>
    <path d="M251.831 55.2791C256.169 55.2791 259.686 51.7538 259.686 47.4051C259.686 43.0565 256.169 39.5312 251.831 39.5312C247.493 39.5312 243.977 43.0565 243.977 47.4051C243.977 51.7538 247.493 55.2791 251.831 55.2791Z" fill="#F7C4A7"/>
    <path opacity="0.1" d="M256.142 49.1153C255.682 48.3546 256.617 47.3632 256.309 46.5306C256.025 45.7639 254.896 45.6321 254.517 44.9163C254.218 44.3382 254.517 43.6284 254.397 42.9905C254.227 42.1668 253.342 41.6547 252.503 41.6128C251.663 41.5708 250.854 41.8853 250.056 42.1549C248.756 42.5951 247.388 42.9336 246.026 42.7778C244.663 42.6221 243.304 41.8793 242.697 40.6604C242.598 40.4828 242.546 40.2828 242.545 40.0793C242.569 39.6301 242.981 39.3216 243.247 38.9622C243.713 38.3362 243.767 37.4826 244.191 36.8297C245.058 35.4999 246.961 35.5329 248.544 35.5269C250.875 35.5269 253.193 35.0896 255.523 35.1675C257.854 35.2454 260.304 35.9073 261.848 37.6623C263.701 39.7738 263.784 42.8647 263.769 45.68C263.769 46.8391 263.722 48.1 262.984 48.9955C262.769 49.256 262.506 49.4717 262.299 49.7382C261.851 50.3373 261.732 51.104 261.311 51.712C260.564 52.7932 259.106 53.0567 257.806 53.2304C258.188 53.1795 257.872 50.6128 257.806 50.3762C257.555 49.1962 257.283 49.2201 256.142 49.1153Z" fill="black"/>
    <path d="M256.142 48.8301C255.682 48.0694 256.617 47.078 256.309 46.2454C256.025 45.4787 254.896 45.3469 254.517 44.6311C254.218 44.0531 254.517 43.3433 254.397 42.7053C254.227 41.8817 253.342 41.3695 252.503 41.3276C251.663 41.2857 250.854 41.6002 250.056 41.8697C248.756 42.31 247.388 42.6484 246.026 42.4927C244.663 42.3369 243.304 41.5942 242.697 40.3752C242.598 40.1976 242.546 39.9977 242.545 39.7942C242.569 39.3449 242.981 39.0364 243.247 38.677C243.713 38.0511 243.767 37.1975 244.191 36.5446C245.058 35.2148 246.961 35.2477 248.544 35.2417C250.875 35.2417 253.193 34.8045 255.523 34.8823C257.854 34.9602 260.304 35.6221 261.848 37.3772C263.701 39.4887 263.784 42.5795 263.769 45.3948C263.769 46.5539 263.722 47.8148 262.984 48.7103C262.769 48.9709 262.506 49.1865 262.299 49.4531C261.851 50.0521 261.732 50.8188 261.311 51.4268C260.564 52.508 259.106 52.7716 257.806 52.9453C258.188 52.8944 257.872 50.3276 257.806 50.091C257.555 48.896 257.283 48.932 256.142 48.8301Z" fill="#281C1C"/>
    <path opacity="0.1" d="M268.542 74.324C268.542 74.324 264.685 64.2997 261.685 64.0151C258.685 63.7306 267.398 64.0151 267.398 64.0151L270.254 69.1695L268.542 74.324Z" fill="black"/>
    <path d="M268.829 74.324C268.829 74.324 264.972 64.2997 261.972 64.0151C258.973 63.7306 267.685 64.0151 267.685 64.0151L270.541 69.1695L268.829 74.324Z" fill="#E14B5A"/>
    <path d="M258.031 189.716C258.234 191.271 258.33 192.523 258.33 192.523C258.473 191.663 267.329 187.797 267.329 187.797V185.47C267.103 185.461 266.877 185.472 266.654 185.502C264.936 185.733 263.343 186.569 261.873 187.461C260.632 188.278 259.349 189.031 258.031 189.716Z" fill="#618FD8"/>
    <path opacity="0.3" d="M258.031 189.716C258.234 191.271 258.33 192.523 258.33 192.523C258.473 191.663 267.329 187.797 267.329 187.797V185.47C267.103 185.461 266.877 185.472 266.654 185.502C264.936 185.733 263.343 186.569 261.873 187.461C260.632 188.278 259.349 189.031 258.031 189.716Z" fill="black"/>
    <path d="M236.475 188.655C238.33 187.796 246.188 190.515 246.188 190.515L246.982 187.805C245.611 187.526 244.249 187.179 242.91 186.765C242.285 186.584 241.674 186.358 241.082 186.089C240.686 185.877 240.279 185.687 239.863 185.52C238.838 185.166 237.771 185.316 236.72 185.493C236.582 187.421 236.475 188.655 236.475 188.655Z" fill="#618FD8"/>
    <path opacity="0.3" d="M236.475 188.655C238.33 187.796 246.188 190.515 246.188 190.515L246.982 187.805C245.611 187.526 244.249 187.179 242.91 186.765C242.285 186.584 241.674 186.358 241.082 186.089C240.686 185.877 240.279 185.687 239.863 185.52C238.838 185.166 237.771 185.316 236.72 185.493C236.582 187.421 236.475 188.655 236.475 188.655Z" fill="black"/>
    <path opacity="0.4" d="M275.255 196.818C275.374 196.766 275.48 196.688 275.565 196.59C275.65 196.491 275.711 196.374 275.745 196.249C275.798 196.446 275.777 196.656 275.687 196.84C275.597 197.023 275.443 197.168 275.255 197.246C273.54 198.105 263.686 198.677 258.822 194.955V194.526C263.686 198.249 273.54 197.677 275.255 196.818Z" fill="white"/>
    <path opacity="0.4" d="M230.834 197.389C233.821 198.105 244.547 196.53 245.545 194.811V195.239C244.544 196.958 233.833 198.533 230.834 197.818C229.609 197.518 229.217 196.919 229.34 196.263C229.435 196.748 229.884 197.15 230.834 197.389Z" fill="white"/>
    <path opacity="0.1" d="M248.259 93.0826C248.259 93.0826 245.116 92.0793 244.258 93.0826C243.401 94.086 236.072 96.4371 236.072 96.4371" fill="black"/>
    <path d="M212.697 53.7393H227.979V53.4158H212.697V53.7393Z" fill="#8ED16F"/>
    <path d="M212.697 54.0625H227.979V53.739H212.697V54.0625Z" fill="#8ED16F"/>
    <path opacity="0.1" d="M212.697 54.0625H227.979V53.739H212.697V54.0625Z" fill="black"/>
    <path d="M212.697 54.3867H227.979V54.0633H212.697V54.3867Z" fill="#8ED16F"/>
    <path d="M212.697 54.707H227.979V54.3836H212.697V54.707Z" fill="#8ED16F"/>
    <path opacity="0.1" d="M212.697 54.707H227.979V54.3836H212.697V54.707Z" fill="black"/>
    <path d="M212.697 55.0303H227.979V54.7068H212.697V55.0303Z" fill="#8ED16F"/>
    <path d="M212.697 55.3516H227.979V55.0281H212.697V55.3516Z" fill="#8ED16F"/>
    <path opacity="0.1" d="M212.697 55.3516H227.979V55.0281H212.697V55.3516Z" fill="black"/>
    <path d="M212.697 55.6738H227.979V55.3504H212.697V55.6738Z" fill="#8ED16F"/>
    <path d="M212.697 55.9951H227.979V55.6717H212.697V55.9951Z" fill="#8ED16F"/>
    <path opacity="0.1" d="M212.697 55.9951H227.979V55.6717H212.697V55.9951Z" fill="black"/>
    <path d="M212.697 51.1641H227.979V50.8406H212.697V51.1641Z" fill="#8ED16F"/>
    <path d="M223.505 43.5059L235.254 53.3018L235.46 53.0531L223.711 43.2572L223.505 43.5059Z" fill="#8ED16F"/>
    <path d="M212.794 38.3525L224.543 48.1484L224.749 47.8997L213 38.1039L212.794 38.3525Z" fill="#8ED16F"/>
    <path d="M212.697 51.4844H227.979V51.1609H212.697V51.4844Z" fill="#8ED16F"/>
    <path opacity="0.1" d="M212.697 51.4844H227.979V51.1609H212.697V51.4844Z" fill="black"/>
    <path d="M212.697 51.8105H227.979V51.4871H212.697V51.8105Z" fill="#8ED16F"/>
    <path d="M212.697 52.1309H227.979V51.8074H212.697V52.1309Z" fill="#8ED16F"/>
    <path opacity="0.1" d="M212.697 52.1309H227.979V51.8074H212.697V52.1309Z" fill="black"/>
    <path d="M212.697 52.4512H227.979V52.1277H212.697V52.4512Z" fill="#8ED16F"/>
    <path d="M212.697 52.7754H227.979V52.4519H212.697V52.7754Z" fill="#8ED16F"/>
    <path opacity="0.1" d="M212.697 52.7754H227.979V52.4519H212.697V52.7754Z" fill="black"/>
    <path d="M212.697 53.0957H227.979V52.7722H212.697V53.0957Z" fill="#8ED16F"/>
    <path d="M212.697 53.4199H227.979V53.0965H212.697V53.4199Z" fill="#8ED16F"/>
    <path opacity="0.1" d="M212.697 53.4199H227.979V53.0965H212.697V53.4199Z" fill="black"/>
    <path d="M210.759 65.9778L216.234 66.9971L218.216 56.2991L212.741 55.2798L210.759 65.9778Z" fill="#8ED16F"/>
    <path d="M215.685 61.3819C215.915 60.1378 215.6 59.0357 214.98 58.9203C214.36 58.805 213.671 59.72 213.441 60.9641C213.21 62.2083 213.526 63.3103 214.146 63.4257C214.765 63.541 215.454 62.626 215.685 61.3819Z" fill="#8ED16F"/>
    <path opacity="0.1" d="M215.685 61.3819C215.915 60.1378 215.6 59.0357 214.98 58.9203C214.36 58.805 213.671 59.72 213.441 60.9641C213.21 62.2083 213.526 63.3103 214.146 63.4257C214.765 63.541 215.454 62.626 215.685 61.3819Z" fill="black"/>
    <path d="M211.696 88.5588L217.172 89.5781L219.154 78.8801L213.678 77.8608L211.696 88.5588Z" fill="#8ED16F"/>
    <path d="M216.621 83.96C216.851 82.7159 216.535 81.6138 215.916 81.4984C215.296 81.3831 214.607 82.2981 214.376 83.5422C214.146 84.7864 214.461 85.8884 215.081 86.0038C215.701 86.1192 216.39 85.2041 216.621 83.96Z" fill="#8ED16F"/>
    <path opacity="0.1" d="M216.621 83.96C216.851 82.7159 216.535 81.6138 215.916 81.4984C215.296 81.3831 214.607 82.2981 214.376 83.5422C214.146 84.7864 214.461 85.8884 215.081 86.0038C215.701 86.1192 216.39 85.2041 216.621 83.96Z" fill="black"/>
    <path d="M191.893 33.0569L189.242 37.9668L198.788 43.1454L201.439 38.2355L191.893 33.0569Z" fill="#8ED16F"/>
    <path d="M198.281 39.4115C198.584 38.8554 197.929 37.9123 196.818 37.3049C195.707 36.6975 194.561 36.6559 194.259 37.2119C193.956 37.768 194.611 38.7111 195.722 39.3185C196.833 39.9259 197.979 39.9675 198.281 39.4115Z" fill="#8ED16F"/>
    <path opacity="0.1" d="M198.281 39.4115C198.584 38.8554 197.929 37.9123 196.818 37.3049C195.707 36.6975 194.561 36.6559 194.259 37.2119C193.956 37.768 194.611 38.7111 195.722 39.3185C196.833 39.9259 197.979 39.9675 198.281 39.4115Z" fill="black"/>
    <path d="M170.932 129.951L168.281 134.861L177.827 140.04L180.478 135.13L170.932 129.951Z" fill="#8ED16F"/>
    <path d="M176.358 136.152C176.658 135.597 176.002 134.658 174.891 134.056C173.781 133.453 172.638 133.416 172.338 133.971C172.038 134.527 172.695 135.466 173.805 136.068C174.915 136.67 176.058 136.708 176.358 136.152Z" fill="#8ED16F"/>
    <path opacity="0.1" d="M176.358 136.152C176.658 135.597 176.002 134.658 174.891 134.056C173.781 133.453 172.638 133.416 172.338 133.971C172.038 134.527 172.695 135.466 173.805 136.068C174.915 136.67 176.058 136.708 176.358 136.152Z" fill="black"/>
    <path d="M158.106 49.9905L155.455 54.9004L165.001 60.079L167.652 55.169L158.106 49.9905Z" fill="#8ED16F"/>
    <path d="M163.53 56.1864C163.83 55.6307 163.173 54.692 162.063 54.0897C160.953 53.4875 159.81 53.4498 159.51 54.0055C159.21 54.5612 159.867 55.4999 160.977 56.1022C162.087 56.7044 163.23 56.7421 163.53 56.1864Z" fill="#8ED16F"/>
    <path opacity="0.1" d="M163.53 56.1864C163.83 55.6307 163.173 54.692 162.063 54.0897C160.953 53.4875 159.81 53.4498 159.51 54.0055C159.21 54.5612 159.867 55.4999 160.977 56.1022C162.087 56.7044 163.23 56.7421 163.53 56.1864Z" fill="black"/>
    <path d="M174.18 33.055L171.529 37.9648L181.075 43.1434L183.726 38.2335L174.18 33.055Z" fill="#8ED16F"/>
    <path d="M179.604 39.2509C179.904 38.6951 179.248 37.7564 178.137 37.1542C177.027 36.552 175.884 36.5142 175.584 37.07C175.284 37.6257 175.941 38.5644 177.051 39.1666C178.161 39.7689 179.304 39.8066 179.604 39.2509Z" fill="#8ED16F"/>
    <path opacity="0.1" d="M179.604 39.2509C179.904 38.6951 179.248 37.7564 178.137 37.1542C177.027 36.552 175.884 36.5142 175.584 37.07C175.284 37.6257 175.941 38.5644 177.051 39.1666C178.161 39.7689 179.304 39.8066 179.604 39.2509Z" fill="black"/>
    <path d="M190.227 53.0377L184.691 53.6445L185.871 64.461L191.407 63.8542L190.227 53.0377Z" fill="#8ED16F"/>
    <path d="M188.225 61.0363C188.852 60.9677 189.248 59.8923 189.111 58.6344C188.974 57.3765 188.355 56.4124 187.728 56.4811C187.102 56.5498 186.705 57.6252 186.842 58.8831C186.979 60.141 187.599 61.105 188.225 61.0363Z" fill="#8ED16F"/>
    <path opacity="0.1" d="M188.225 61.0363C188.852 60.9677 189.248 59.8923 189.111 58.6344C188.974 57.3765 188.355 56.4124 187.728 56.4811C187.102 56.5498 186.705 57.6252 186.842 58.8831C186.979 60.141 187.599 61.105 188.225 61.0363Z" fill="black"/>
    <path d="M228.183 112.266L222.646 112.873L223.826 123.689L229.362 123.083L228.183 112.266Z" fill="#8ED16F"/>
    <path d="M226.182 120.265C226.809 120.196 227.206 119.121 227.068 117.863C226.931 116.605 226.312 115.641 225.685 115.71C225.059 115.778 224.662 116.854 224.799 118.112C224.936 119.37 225.556 120.334 226.182 120.265Z" fill="#8ED16F"/>
    <path opacity="0.1" d="M226.182 120.265C226.809 120.196 227.206 119.121 227.068 117.863C226.931 116.605 226.312 115.641 225.685 115.71C225.059 115.778 224.662 116.854 224.799 118.112C224.936 119.37 225.556 120.334 226.182 120.265Z" fill="black"/>
    <path d="M168.549 76.0149L165.898 80.9248L175.445 86.1034L178.095 81.1935L168.549 76.0149Z" fill="#8ED16F"/>
    <path d="M173.974 82.2147C174.274 81.659 173.617 80.7203 172.507 80.1181C171.396 79.5158 170.253 79.4781 169.953 80.0338C169.653 80.5895 170.31 81.5282 171.42 82.1305C172.53 82.7327 173.674 82.7704 173.974 82.2147Z" fill="#8ED16F"/>
    <path opacity="0.1" d="M173.974 82.2147C174.274 81.659 173.617 80.7203 172.507 80.1181C171.396 79.5158 170.253 79.4781 169.953 80.0338C169.653 80.5895 170.31 81.5282 171.42 82.1305C172.53 82.7327 173.674 82.7704 173.974 82.2147Z" fill="black"/>
    <path d="M144.461 69.1174L141.811 74.0273L151.357 79.2059L154.007 74.296L144.461 69.1174Z" fill="#8ED16F"/>
    <path d="M150.678 75.6439C150.98 75.0879 150.325 74.1447 149.214 73.5373C148.104 72.9299 146.958 72.8883 146.655 73.4444C146.353 74.0004 147.008 74.9436 148.119 75.5509C149.23 76.1583 150.375 76.2 150.678 75.6439Z" fill="#8ED16F"/>
    <path opacity="0.1" d="M150.678 75.6439C150.98 75.0879 150.325 74.1447 149.214 73.5373C148.104 72.9299 146.958 72.8883 146.655 73.4444C146.353 74.0004 147.008 74.9436 148.119 75.5509C149.23 76.1583 150.375 76.2 150.678 75.6439Z" fill="black"/>
    <path d="M136.746 185.237L134.096 190.146L143.642 195.325L146.292 190.415L136.746 185.237Z" fill="#8ED16F"/>
    <path d="M142.169 191.434C142.469 190.879 141.812 189.94 140.702 189.338C139.592 188.736 138.449 188.698 138.149 189.254C137.849 189.809 138.505 190.748 139.616 191.35C140.726 191.952 141.869 191.99 142.169 191.434Z" fill="#8ED16F"/>
    <path opacity="0.1" d="M142.169 191.434C142.469 190.879 141.812 189.94 140.702 189.338C139.592 188.736 138.449 188.698 138.149 189.254C137.849 189.809 138.505 190.748 139.616 191.35C140.726 191.952 141.869 191.99 142.169 191.434Z" fill="black"/>
    <path d="M129.801 187.129L128.785 192.618L139.457 194.603L140.473 189.114L129.801 187.129Z" fill="#8ED16F"/>
    <path opacity="0.05" d="M129.801 187.129L128.785 192.618L139.457 194.603L140.473 189.114L129.801 187.129Z" fill="black"/>
    <path d="M136.865 191.354C136.98 190.732 136.067 190.042 134.826 189.811C133.585 189.58 132.485 189.896 132.37 190.518C132.255 191.139 133.168 191.83 134.409 192.061C135.65 192.291 136.75 191.975 136.865 191.354Z" fill="#8ED16F"/>
    <path opacity="0.1" d="M136.865 191.354C136.98 190.732 136.067 190.042 134.826 189.811C133.585 189.58 132.485 189.896 132.37 190.518C132.255 191.139 133.168 191.83 134.409 192.061C135.65 192.291 136.75 191.975 136.865 191.354Z" fill="black"/>
    <path d="M130.799 190.421L129.783 195.91L140.455 197.895L141.471 192.406L130.799 190.421Z" fill="#8ED16F"/>
    <path d="M137.861 194.645C137.976 194.023 137.063 193.333 135.822 193.102C134.581 192.871 133.481 193.187 133.366 193.809C133.251 194.43 134.164 195.121 135.405 195.352C136.647 195.582 137.746 195.266 137.861 194.645Z" fill="#8ED16F"/>
    <path opacity="0.1" d="M137.861 194.645C137.976 194.023 137.063 193.333 135.822 193.102C134.581 192.871 133.481 193.187 133.366 193.809C133.251 194.43 134.164 195.121 135.405 195.352C136.647 195.582 137.746 195.266 137.861 194.645Z" fill="black"/>
    <path d="M148.006 199.348L145.355 204.258L154.902 209.436L157.552 204.526L148.006 199.348Z" fill="#8ED16F"/>
    <path d="M153.433 205.546C153.733 204.99 153.076 204.051 151.966 203.449C150.855 202.847 149.712 202.809 149.412 203.365C149.112 203.921 149.769 204.859 150.879 205.462C151.989 206.064 153.133 206.101 153.433 205.546Z" fill="#8ED16F"/>
    <path opacity="0.1" d="M153.433 205.546C153.733 204.99 153.076 204.051 151.966 203.449C150.855 202.847 149.712 202.809 149.412 203.365C149.112 203.921 149.769 204.859 150.879 205.462C151.989 206.064 153.133 206.101 153.433 205.546Z" fill="black"/>
    <path d="M141.063 201.237L140.047 206.727L150.719 208.711L151.735 203.222L141.063 201.237Z" fill="#8ED16F"/>
    <path opacity="0.05" d="M141.063 201.237L140.047 206.727L150.719 208.711L151.735 203.222L141.063 201.237Z" fill="black"/>
    <path d="M148.125 205.461C148.239 204.84 147.327 204.149 146.085 203.918C144.844 203.687 143.745 204.004 143.63 204.625C143.515 205.246 144.428 205.937 145.669 206.168C146.91 206.399 148.01 206.082 148.125 205.461Z" fill="#8ED16F"/>
    <path opacity="0.1" d="M148.125 205.461C148.239 204.84 147.327 204.149 146.085 203.918C144.844 203.687 143.745 204.004 143.63 204.625C143.515 205.246 144.428 205.937 145.669 206.168C146.91 206.399 148.01 206.082 148.125 205.461Z" fill="black"/>
    <path d="M142.063 204.532L141.047 210.021L151.719 212.006L152.735 206.517L142.063 204.532Z" fill="#8ED16F"/>
    <path d="M149.126 208.757C149.241 208.136 148.329 207.445 147.087 207.214C145.846 206.983 144.747 207.3 144.632 207.921C144.517 208.542 145.43 209.233 146.671 209.464C147.912 209.695 149.012 209.378 149.126 208.757Z" fill="#8ED16F"/>
    <path opacity="0.1" d="M149.126 208.757C149.241 208.136 148.329 207.445 147.087 207.214C145.846 206.983 144.747 207.3 144.632 207.921C144.517 208.542 145.43 209.233 146.671 209.464C147.912 209.695 149.012 209.378 149.126 208.757Z" fill="black"/>
    <path d="M164.9 190.254L162.25 195.164L171.796 200.343L174.447 195.433L164.9 190.254Z" fill="#8ED16F"/>
    <path d="M170.321 196.45C170.621 195.894 169.964 194.956 168.854 194.353C167.744 193.751 166.601 193.713 166.301 194.269C166.001 194.825 166.658 195.764 167.768 196.366C168.878 196.968 170.021 197.006 170.321 196.45Z" fill="#8ED16F"/>
    <path opacity="0.1" d="M170.321 196.45C170.621 195.894 169.964 194.956 168.854 194.353C167.744 193.751 166.601 193.713 166.301 194.269C166.001 194.825 166.658 195.764 167.768 196.366C168.878 196.968 170.021 197.006 170.321 196.45Z" fill="black"/>
    <path d="M157.955 192.145L156.939 197.634L167.612 199.619L168.627 194.13L157.955 192.145Z" fill="#8ED16F"/>
    <path opacity="0.05" d="M157.955 192.145L156.939 197.634L167.612 199.619L168.627 194.13L157.955 192.145Z" fill="black"/>
    <path d="M165.017 196.369C165.132 195.748 164.219 195.057 162.978 194.826C161.737 194.596 160.638 194.912 160.523 195.533C160.408 196.155 161.321 196.845 162.562 197.076C163.803 197.307 164.902 196.99 165.017 196.369Z" fill="#8ED16F"/>
    <path opacity="0.1" d="M165.017 196.369C165.132 195.748 164.219 195.057 162.978 194.826C161.737 194.596 160.638 194.912 160.523 195.533C160.408 196.155 161.321 196.845 162.562 197.076C163.803 197.307 164.902 196.99 165.017 196.369Z" fill="black"/>
    <path d="M158.955 195.44L157.939 200.929L168.612 202.913L169.627 197.424L158.955 195.44Z" fill="#8ED16F"/>
    <path d="M166.019 199.664C166.134 199.043 165.221 198.352 163.98 198.121C162.739 197.89 161.64 198.207 161.525 198.828C161.41 199.449 162.323 200.14 163.564 200.371C164.805 200.602 165.904 200.285 166.019 199.664Z" fill="#8ED16F"/>
    <path opacity="0.1" d="M166.019 199.664C166.134 199.043 165.221 198.352 163.98 198.121C162.739 197.89 161.64 198.207 161.525 198.828C161.41 199.449 162.323 200.14 163.564 200.371C164.805 200.602 165.904 200.285 166.019 199.664Z" fill="black"/>
</svg>
