<svg fill="none" height="195" viewBox="0 0 280 195" width="280" xmlns="http://www.w3.org/2000/svg">
    <path
        d="M95.7386 190.499C55.7386 192.499 35.2386 189 9.73859 176C-9.76141 130.499 4.23861 94.4995 15.2386 62.4995C26.2386 30.4995 111.239 48.4996 193.739 25.9995C268.032 5.73755 272.239 49.6148 272.239 67.9996C272.239 88.9995 245.647 106.814 267.239 142C280.739 164 287.239 180.5 267.239 190.499C251.139 198.549 208.239 190.499 199.739 190.499C191.239 190.499 135.739 188.499 95.7386 190.499Z"
        fill="#D6D9FA"/>
    <g clip-path="url(#clip0)">
        <path d="M274.738 168.488H11.1582V170.414H274.738V168.488Z" fill="#85848B"/>
        <path
            d="M219.981 134.477C219.981 135.959 211.345 140.278 201.086 140.278C190.827 140.278 182.834 135.959 182.834 134.477C182.834 132.995 191.149 133.472 201.418 133.472C211.686 133.472 219.981 132.993 219.981 134.477Z"
            fill="#504F60"/>
        <path d="M219.981 134.478C219.981 135.959 211.345 140.279 201.086 140.279C190.827 140.279 182.834 135.959 182.834 134.478"
              fill="black"
              opacity="0.2"/>
        <path
            d="M116.671 107.29C118.336 107.504 120.064 107.639 121.658 107.122C121.909 107.044 122.186 106.871 122.16 106.62C122.143 106.528 122.104 106.443 122.047 106.369C121.446 105.467 120.941 104.505 120.541 103.498C120.525 103.446 120.492 103.4 120.448 103.368C120.396 103.349 120.339 103.349 120.287 103.368C119.551 103.561 118.916 104.036 118.185 104.239C117.812 104.341 117.424 104.37 117.04 104.324C116.708 104.287 116.256 104.013 115.955 104.048C116.126 105.146 116.543 106.17 116.671 107.29Z"
            fill="#606CE6"/>
        <path
            d="M148.158 104.51C149.256 103.757 150.393 102.966 151.041 101.803C151.088 101.733 151.114 101.653 151.119 101.569C151.108 101.487 151.076 101.409 151.026 101.343C150.409 100.362 149.614 99.5046 148.683 98.8145C148.197 99.1577 147.758 99.5629 147.377 100.02C147.101 100.311 146.338 100.773 146.33 101.218C146.33 101.469 146.621 101.76 146.757 101.971C146.94 102.242 147.114 102.519 147.279 102.8C147.375 102.938 148.246 104.455 148.158 104.51Z"
            fill="#606CE6"/>
        <path
            d="M123.197 110.653C123.217 110.911 123.146 111.169 122.996 111.381C122.879 111.499 122.734 111.585 122.574 111.632C120.246 112.466 117.552 111.426 115.229 112.247C114.752 112.415 114.3 112.659 113.82 112.82C113.248 112.992 112.658 113.096 112.062 113.131C111.241 113.209 110.415 113.259 109.591 113.282C108.965 113.326 108.336 113.271 107.728 113.119C107.423 113.041 107.139 112.9 106.893 112.704C106.646 112.509 106.444 112.265 106.299 111.986C106.172 111.736 106.147 111.448 106.228 111.18C106.265 111.088 106.317 111.003 106.382 110.929C106.539 110.752 106.724 110.602 106.929 110.484L107.785 109.932C108.187 109.648 108.623 109.417 109.084 109.244C109.423 109.133 109.782 109.085 110.126 108.993C111.329 108.641 112.248 107.687 113.102 106.77L114.267 105.527C114.376 105.39 114.514 105.28 114.671 105.203C114.833 105.149 115.005 105.133 115.174 105.155C116.305 105.236 117.398 105.602 118.35 106.22C118.594 106.403 118.856 106.558 119.134 106.682C119.817 106.948 120.693 106.747 121.324 106.411C121.623 106.25 121.557 106.16 121.683 105.874C121.808 105.587 122.115 105.404 122.381 105.665C122.461 105.755 122.518 105.864 122.547 105.982C122.798 106.81 122.702 107.702 122.702 108.571C122.695 108.707 122.712 108.843 122.753 108.972C122.817 109.103 122.893 109.228 122.981 109.344C122.999 109.375 123.015 109.407 123.029 109.44C123.183 109.824 123.24 110.241 123.197 110.653Z"
            fill="#514E7F"/>
        <path
            d="M123.197 110.653C123.217 110.912 123.146 111.169 122.996 111.381C122.879 111.499 122.734 111.586 122.574 111.633C120.246 112.466 117.552 111.427 115.229 112.248C114.752 112.416 114.3 112.66 113.82 112.82C113.248 112.992 112.658 113.097 112.062 113.132C111.241 113.21 110.415 113.26 109.591 113.282C108.965 113.327 108.336 113.272 107.728 113.119C107.423 113.041 107.139 112.9 106.893 112.705C106.646 112.51 106.444 112.265 106.299 111.987C106.172 111.737 106.147 111.448 106.228 111.18C106.265 111.089 106.317 111.004 106.382 110.929C106.517 111.213 106.615 111.59 106.7 111.725C106.816 111.926 106.973 112.1 107.161 112.236C107.349 112.372 107.563 112.465 107.79 112.511C108.13 112.532 108.471 112.489 108.795 112.383C110.904 111.861 113.147 111.853 115.174 111.062C115.869 110.789 116.532 110.425 117.263 110.259C117.994 110.093 118.77 110.138 119.523 110.076C120.713 109.98 121.866 109.621 123.039 109.433C123.19 109.82 123.245 110.239 123.197 110.653Z"
            fill="#464353"/>
        <path
            d="M153.491 104.357C153.381 105.241 152.82 106.002 152.205 106.647C151.59 107.293 150.894 107.873 150.405 108.616C149.802 109.538 149.531 110.68 148.747 111.459C148.446 111.742 148.108 111.983 147.743 112.175C147.333 112.416 146.9 112.616 146.449 112.77C145.279 113.144 144.018 113.059 142.795 112.968C142.398 112.964 142.005 112.889 141.635 112.745C141.467 112.659 141.305 112.56 141.153 112.448C140.846 112.26 140.588 112.002 140.4 111.695C140.307 111.528 140.281 111.333 140.327 111.147C140.397 110.944 140.517 110.76 140.676 110.615C140.951 110.329 141.247 110.063 141.56 109.819C141.99 109.542 142.377 109.203 142.71 108.815C142.914 108.507 143.065 108.168 143.155 107.81C143.332 107.183 143.441 106.539 143.478 105.889C143.477 105.457 143.522 105.026 143.612 104.603C143.797 103.94 144.29 103.347 144.234 102.662C144.212 102.564 144.221 102.461 144.26 102.368C144.318 102.295 144.399 102.245 144.491 102.225C144.874 102.072 145.279 101.978 145.691 101.946C145.898 101.932 146.105 101.964 146.298 102.039C146.49 102.115 146.664 102.232 146.806 102.383C146.977 102.589 147.09 102.885 147.341 102.966C147.465 103 147.596 103.005 147.723 102.981C148.34 102.918 148.993 102.84 149.48 102.441C149.706 102.239 149.887 101.992 150.012 101.717C150.137 101.442 150.204 101.144 150.209 100.841C150.209 100.613 150.106 100.374 150.46 100.339C150.726 100.304 150.937 100.59 151.073 100.766C151.562 101.421 152.065 102.107 152.248 102.905C152.319 102.878 152.395 102.863 152.471 102.863C152.628 102.861 152.783 102.898 152.922 102.969C153.062 103.04 153.182 103.144 153.273 103.272C153.473 103.596 153.55 103.981 153.491 104.357Z"
            fill="#514E7F"/>
        <path
            d="M153.49 104.357C153.379 105.241 152.819 106.002 152.204 106.647C151.589 107.293 150.893 107.873 150.403 108.616C149.801 109.538 149.53 110.681 148.746 111.459C148.445 111.742 148.107 111.983 147.741 112.175C147.332 112.417 146.898 112.616 146.448 112.77C145.278 113.144 144.017 113.059 142.794 112.968C142.397 112.965 142.004 112.889 141.634 112.745C141.466 112.659 141.304 112.56 141.152 112.448C140.845 112.26 140.587 112.002 140.398 111.695C140.634 111.582 140.891 111.52 141.152 111.514C141.694 111.544 142.091 112.057 142.611 112.215C143.352 112.438 144.09 111.916 144.841 111.738C145.331 111.622 145.845 111.652 146.33 111.487C146.734 111.331 147.107 111.104 147.433 110.819C147.878 110.5 148.275 110.117 148.61 109.684C148.889 109.25 149.12 108.788 149.301 108.305C149.698 107.38 150.164 106.487 150.697 105.633C150.776 105.498 150.871 105.373 150.981 105.261C151.099 105.153 151.232 105.078 151.365 104.982C151.868 104.603 152.076 103.978 152.252 103.365C152.299 103.179 152.366 102.998 152.45 102.825C152.607 102.824 152.761 102.86 152.901 102.932C153.04 103.003 153.161 103.107 153.251 103.235C153.467 103.566 153.552 103.966 153.49 104.357Z"
            fill="#464353"/>
        <path
            d="M100.831 26.0599C101.456 26.5283 101.971 27.1284 102.338 27.8178C102.689 28.5059 104.716 33.8449 104.598 34.6209C105.258 33.9554 107.863 33.8474 108.531 33.1819C108.809 32.9032 110.314 31.5119 110.54 31.1879C110.766 30.864 112.443 30.1834 112.627 29.8419C113.312 28.6139 107.765 23.9605 108.475 22.7475C108.515 22.6918 108.535 22.6248 108.533 22.5566C108.517 22.4994 108.485 22.448 108.44 22.4085C107.986 21.9439 107.383 21.6551 106.836 21.311C106.288 20.967 105.761 20.4873 105.613 19.8545C105.091 20.0948 104.611 20.4189 104.194 20.8138C103.176 21.6861 102.175 22.5759 101.193 23.4833C100.808 23.8399 100.065 24.3145 99.8868 24.8243C99.6759 25.3718 100.464 25.761 100.831 26.0599Z"
            fill="#A1616A"/>
        <path
            d="M109.811 24.083C108.96 24.655 108.165 25.3057 107.436 26.0267C106.748 26.7073 106.095 27.4958 105.929 28.4476C105.859 28.8218 105.869 29.201 105.811 29.5802C105.56 31.2251 104.138 32.4305 103.511 33.97C103.329 34.4451 103.195 34.9372 103.111 35.4391C102.935 36.3903 102.838 37.3547 102.822 38.322C102.807 39.2587 103.727 39.9041 104.063 40.7781C104.4 41.652 104.49 42.551 104.661 43.4476C104.982 45.1402 105.572 46.7725 106.167 48.3948C107.406 51.8152 111.419 61.2702 112.657 64.6931C116.451 63.7413 126.552 61.554 129.912 59.5474C131.032 58.8794 122.139 51.3431 123.337 50.8232C123.406 50.8126 123.471 50.7861 123.527 50.746C123.584 50.7059 123.63 50.6532 123.663 50.5921C123.695 50.5309 123.713 50.463 123.715 50.3938C123.717 50.3245 123.703 50.2557 123.674 50.1929C122.476 44.9543 118.729 40.65 117.029 35.5496C116.439 33.7791 115.379 32.2673 114.575 30.5847C113.847 29.0604 113.458 27.3753 112.586 25.9263C112.422 25.6278 112.207 25.3601 111.951 25.1352C111.734 24.9686 111.499 24.8263 111.25 24.7108C110.753 24.4697 110.291 24.3266 109.811 24.083Z"
            fill="#514E7F"/>
        <path
            d="M101.033 25.4653C104.313 25.4653 106.972 22.8062 106.972 19.5261C106.972 16.246 104.313 13.5869 101.033 13.5869C97.7528 13.5869 95.0938 16.246 95.0938 19.5261C95.0938 22.8062 97.7528 25.4653 101.033 25.4653Z"
            fill="#A1616A"/>
        <path
            d="M107.074 22.3157C107.37 22.0427 107.742 21.8658 108.141 21.8084C108.539 21.751 108.946 21.8158 109.307 21.9942C109.709 22.2027 110.06 22.6246 109.97 23.0666L112.915 23.1118C113.384 23.0989 113.853 23.1419 114.312 23.2398C114.773 23.3403 115.186 23.5988 115.477 23.9706C115.512 24.0183 115.552 24.0761 115.613 24.0836C115.662 24.0844 115.709 24.0684 115.748 24.0384C116.201 23.8112 116.712 23.7237 117.215 23.7873C118.807 23.8903 120.279 24.6863 121.527 25.6808C121.752 25.8355 121.926 26.053 122.029 26.3061C122.132 26.6401 122.009 27.0595 122.28 27.2981C122.28 30.0605 123.229 32.6421 123.862 35.3342C123.975 35.8139 124.435 36.2383 124.754 36.615C125.148 37.0326 125.469 37.513 125.705 38.0364C126.243 39.4326 125.502 41.075 126.024 42.4763C126.245 43.069 126.672 43.5562 127.029 44.071C127.499 44.6654 127.796 45.3779 127.888 46.1302C127.91 46.4668 127.868 46.8058 127.888 47.1348C127.921 47.5872 128.006 48.0345 128.139 48.4683C128.353 49.2786 128.578 50.088 128.812 50.8967C129.194 52.2025 129.691 53.6114 130.861 54.307C128.036 54.7867 125.058 55.2563 122.365 54.2744C121.99 54.1463 121.633 53.968 121.306 53.7445C120.334 53.0513 119.864 51.866 119.445 50.746C118.978 49.4903 118.503 48.2121 118.408 46.8761C118.409 46.4512 118.349 46.0283 118.229 45.6204C117.956 44.8922 117.225 44.4527 116.562 44.0484C115.813 43.6382 115.135 43.1108 114.553 42.4864C114.264 42.1718 114.043 41.8014 113.903 41.398C113.763 40.9945 113.707 40.5666 113.739 40.1408C113.789 39.7265 113.953 39.3272 113.968 38.9103C113.983 38.4934 113.797 38.0163 113.398 37.9058C111.341 37.283 110.359 34.847 109.902 32.7476C109.705 31.6625 109.616 30.5604 109.638 29.4578L109.611 27.3157C109.327 27.0574 109.098 26.7442 108.94 26.3949C108.781 26.0456 108.695 25.6676 108.686 25.284C108.714 25.0602 108.71 24.8336 108.674 24.611C108.575 24.3388 108.413 24.0937 108.202 23.8953C107.748 23.4292 107.367 22.8966 107.074 22.3157Z"
            fill="#464353"/>
        <path
            d="M100.748 29.1062C100.68 29.7691 100.83 30.4497 100.682 31.1001C100.624 31.3512 100.524 31.6024 100.451 31.8359C100.229 32.7721 100.325 33.7558 100.725 34.631C101.124 35.4976 101.603 36.3256 102.154 37.1046C102.34 37.3705 102.494 37.6581 102.611 37.961C102.706 38.279 102.765 38.6067 102.787 38.9379C102.932 40.2677 103.165 41.5865 103.485 42.8856C103.766 44.0107 106.96 53.6289 107.704 54.5204C107.839 54.7178 108.043 54.8569 108.276 54.9097C108.444 54.916 108.612 54.8815 108.764 54.8092L110.27 54.2316C110.398 54.1924 110.517 54.1275 110.619 54.0408C110.761 53.8758 110.837 53.6652 110.835 53.4481C110.943 52.2226 107.741 42.5365 107.335 41.3788C106.104 37.8831 104.467 34.513 103.666 30.8942C103.442 29.8897 103.324 28.3427 102.588 27.5416C102.284 27.2101 102.387 27.3508 102.023 27.524C101.839 27.6039 101.661 27.6971 101.491 27.8028C101.278 27.951 101.1 28.1449 100.972 28.3704C100.843 28.5959 100.767 28.8473 100.748 29.1062Z"
            fill="#464353"/>
        <path
            d="M105.321 35.7387C105.725 37.8758 106.142 40.0079 106.557 42.145L112.453 40.6005C112.501 39.9827 112.172 39.4102 111.951 38.8426C111.413 37.4941 111.401 35.9923 110.966 34.6061C110.637 33.5513 110.065 32.582 109.756 31.5197C109.578 30.9019 109.487 30.2641 109.311 29.6387C109.123 29.0247 108.891 28.4247 108.618 27.8432C108.287 26.9999 107.856 26.1996 107.333 25.46C106.579 25.7412 105.776 26.0677 105.346 26.7483C105.126 27.1317 105 27.5622 104.979 28.0039C104.877 29.3273 105.356 30.6583 105.198 31.9742C105.035 33.2274 105.077 34.4988 105.321 35.7387Z"
            fill="#606CE6"/>
        <path
            d="M112.552 64.1657C112.883 65.4214 112.404 66.7423 112.012 67.9854C111.422 69.8578 111.02 71.7842 110.812 73.7362C110.786 74.233 110.686 74.7231 110.515 75.1903C110.329 75.6097 110.013 75.9637 109.797 76.363C109.204 77.4128 109.219 78.6935 109.347 79.8939C109.433 80.685 109.561 81.4735 109.719 82.252C109.913 83.2038 110.151 84.1983 109.872 85.1274C110.339 85.0245 110.656 85.6297 110.626 86.1043C110.596 86.579 110.442 87.1089 110.671 87.5182C111.249 87.7291 111.254 88.5227 111.236 89.138C111.246 90.2048 111.38 91.2668 111.638 92.3022C112.512 96.5044 113.439 100.695 114.42 104.874C116.542 105.532 119.021 106.217 121.045 105.306C121.422 105.137 121.798 104.869 121.884 104.462C121.906 104.243 121.878 104.021 121.803 103.814L120.844 100.323C120.611 99.4795 120.377 98.608 120.5 97.7417C120.593 97.0963 120.874 96.4006 120.558 95.8306C120.45 95.6347 120.279 95.4815 120.154 95.2957C119.651 94.5599 119.915 93.5754 119.955 92.6839C119.971 92.4838 119.957 92.2825 119.915 92.0862C119.846 91.8571 119.75 91.637 119.629 91.4308C118.836 89.8916 118.455 88.1734 118.524 86.4434C118.554 86.2226 118.523 85.9978 118.436 85.7929C118.375 85.7084 118.32 85.6194 118.273 85.5267C118.235 85.3655 118.254 85.1963 118.325 85.0471C118.038 84.8287 117.778 84.5757 117.552 84.2937C117.691 84.2071 117.809 84.09 117.896 83.9512C117.984 83.8124 118.038 83.6556 118.056 83.4926C118.074 83.3296 118.055 83.1646 118 83.0101C117.944 82.8557 117.855 82.7158 117.738 82.6011C117.84 82.5805 117.935 82.5318 118.011 82.4606C118.088 82.3894 118.143 82.2984 118.171 82.1977C118.199 82.097 118.198 81.9906 118.169 81.8902C118.14 81.7899 118.084 81.6995 118.006 81.6292C117.883 81.5438 117.72 81.5062 117.632 81.3781C117.497 81.1923 117.607 80.9336 117.718 80.7352L118.303 79.6779C118.74 78.8919 118.838 77.92 119.307 77.1667C119.98 76.0692 120.42 74.8462 120.854 73.6358L122.544 68.9723L123.682 69.9593C124.061 70.2487 124.378 70.6107 124.616 71.024C124.778 71.4326 124.88 71.8622 124.92 72.2998C125.337 74.8312 126.929 77.026 127.519 79.5197C127.65 80.0747 127.738 80.6573 128.057 81.132C128.171 81.2777 128.273 81.4322 128.363 81.5941C128.446 81.841 128.489 82.0995 128.491 82.36C128.544 82.8701 128.706 83.3628 128.966 83.8048C129.226 84.2468 129.578 84.6277 129.998 84.9215C130.558 85.3058 131.253 85.5694 131.557 86.1772C131.618 86.3654 131.702 86.5451 131.808 86.7121C132.08 87.0385 132.665 87.0762 132.78 87.4855C132.846 87.7141 132.725 87.9878 132.853 88.1887C132.926 88.2817 133.022 88.3536 133.132 88.3971L134.767 89.2133C136.595 90.1274 137.529 92.2269 138.878 93.7562C139.343 94.2544 139.756 94.7998 140.108 95.3835C140.691 96.4257 140.96 97.7341 141.944 98.3971C142.209 98.5343 142.449 98.7132 142.657 98.927C142.966 99.3338 142.853 99.9039 142.881 100.416C142.908 100.928 143.3 101.539 143.787 101.383C143.617 102.004 143.617 102.659 143.787 103.279C145.926 103.169 147.966 102.343 149.578 100.934C150.056 100.517 150.515 99.9842 150.52 99.3514C150.527 99.2422 150.503 99.1331 150.45 99.0375C150.353 98.9139 150.226 98.8177 150.081 98.7587C148.551 97.93 148.092 96.0089 147.318 94.4493C146.643 93.0732 145.643 91.8878 144.807 90.6096C142.989 87.8597 141.748 84.5323 138.998 82.7166C138.393 82.3173 137.69 81.9632 137.386 81.3028C137.218 80.9336 137.198 80.5117 137.065 80.13C136.931 79.7483 136.613 79.3766 136.206 79.3766C136.432 78.8241 136.387 78.1511 136.402 77.5534C136.417 77.2881 136.386 77.0222 136.311 76.7674C136.207 76.4932 136.071 76.232 135.907 75.9889C135.189 74.7741 134.831 73.381 134.872 71.9708C134.892 71.245 135.02 70.4967 134.802 69.8036C134.691 69.4545 134.498 69.1356 134.365 68.799C134.164 68.1893 134.059 67.5524 134.051 66.9106L133.9 64.4972C133.878 63.6935 133.773 62.8941 133.589 62.1115C133.087 60.2381 132.584 52.3903 130.864 51.5063C129.144 50.6223 126.188 56.662 124.252 56.78C123.395 56.8157 122.549 56.979 121.741 57.2647C120.452 57.7469 119.373 58.6459 118.32 59.5248L114.759 62.5158C114.006 63.1361 113.383 63.7287 112.552 64.1657Z"
            fill="#464353"/>
        <path
            d="M95.4597 12.931C96.2432 11.8612 97.5893 11.2936 98.9153 11.2459C100.241 11.1982 101.547 11.6151 102.735 12.2052C103.086 12.4046 103.46 12.5582 103.85 12.6623C104.478 12.7903 105.176 12.6196 105.743 12.9134C106.497 13.3127 106.642 14.3298 106.577 15.1736C106.512 16.0174 106.354 16.9541 106.803 17.6849C106.963 17.8933 107.108 18.1122 107.238 18.3403C107.431 18.7748 107.318 19.277 107.203 19.7366C106.909 19.4854 106.743 19.1062 106.482 18.8149C106.221 18.5236 105.766 18.3277 105.442 18.5462C105.118 18.7647 105.123 19.1615 105.106 19.5181C105.088 19.8747 104.998 20.3016 104.661 20.4171C104.521 20.4491 104.374 20.4382 104.239 20.3858C104.105 20.3335 103.989 20.242 103.908 20.1233C103.333 19.4202 103.564 18.2976 102.994 17.5894C102.67 17.1876 102.13 16.9917 101.831 16.5698C101.595 16.2384 101.535 15.8165 101.329 15.4598C101.123 15.1032 100.643 14.8421 100.324 15.0882C100.215 15.1922 100.124 15.3135 100.055 15.4473C99.8565 15.7322 99.5673 15.9416 99.2347 16.0419C98.902 16.1421 98.5453 16.1273 98.2221 15.9998C97.9752 15.8482 97.708 15.7323 97.4286 15.6557C97.2456 15.6466 97.0638 15.6888 96.9036 15.7775C96.7434 15.8663 96.6112 15.9981 96.522 16.158C96.3418 16.4775 96.2548 16.8412 96.2709 17.2077C96.2709 17.71 96.3613 18.2449 96.075 18.6467C95.9661 18.7979 95.8298 18.9274 95.6732 19.0284C95.2538 19.2971 94.6687 19.4779 94.2819 19.1715C94.1508 19.0494 94.0533 18.8957 93.9988 18.7251C93.9443 18.5544 93.9345 18.3726 93.9705 18.1972C94.0458 17.8476 94.1448 17.5036 94.2669 17.1675C94.4878 16.389 94.199 15.5126 94.4401 14.7793C94.6926 14.1189 95.0358 13.4968 95.4597 12.931Z"
            fill="#464353"/>
        <path
            d="M98.6419 30.6482C98.6041 30.8313 98.6234 31.0214 98.6971 31.1932C98.7717 31.3101 98.8734 31.4074 98.9934 31.477C99.8379 32.0031 100.798 32.3143 101.791 32.3835C101.926 32.3859 102.059 32.4203 102.178 32.484C102.414 32.6397 102.429 32.9862 102.341 33.2625C102.224 33.5231 102.163 33.8055 102.163 34.0912C102.236 34.6161 102.858 34.8446 103.383 34.9224C104.119 35.0154 104.925 34.9676 105.508 34.5081C105.902 34.1481 106.203 33.6973 106.384 33.1947C107.826 29.8823 108.33 26.2208 109.789 22.9185C109.9 22.7028 109.974 22.4703 110.008 22.2304C110.023 22.1103 110.006 21.9883 109.959 21.877C109.911 21.7657 109.834 21.6692 109.737 21.5975C109.466 21.4293 109.044 21.5247 108.86 21.261C108.77 21.1279 108.78 20.9471 108.7 20.8065C108.531 20.5076 108.089 20.5553 107.788 20.3821C107.552 20.2565 107.389 19.9978 107.125 19.9476C106.996 19.9403 106.866 19.9633 106.747 20.0147C106.628 20.0662 106.523 20.1446 106.439 20.2439C105.583 21.0425 105.134 22.1751 104.656 23.2449C103.928 24.8848 103.075 26.4665 102.105 27.9762C102.218 27.8004 101.562 26.4694 101.306 26.4117C100.857 26.3213 100.282 27.1098 100.038 27.4036C99.2737 28.3304 98.7894 29.4559 98.6419 30.6482Z"
            fill="#606CE6"/>
        <path d="M107.765 20.6152C107.585 20.6182 107.407 20.6618 107.246 20.7426C107.085 20.8235 106.944 20.9396 106.833 21.0823C106.565 21.4314 106.512 21.8935 106.444 22.338C106.215 23.7462 105.713 25.096 104.965 26.3108"
              fill="black"
              opacity="0.1"/>
        <path d="M109.045 21.6172C108.796 21.6227 108.553 21.693 108.339 21.8212C108.126 21.9493 107.949 22.1309 107.827 22.348C107.661 22.743 107.557 23.1616 107.521 23.5886C107.305 24.5352 106.89 25.4248 106.303 26.1978"
              fill="black"
              opacity="0.1"/>
        <path
            d="M168.728 70.7129V67.5939C168.728 65.2979 167.815 63.0961 166.191 61.4727C164.568 59.8494 162.366 58.9375 160.07 58.9375H36.8933C34.5972 58.9375 32.3952 59.8494 30.7714 61.4727C29.1476 63.0961 28.235 65.2979 28.2344 67.5939V73.3448L168.728 70.7129Z"
            fill="#434CA1"/>
        <path
            d="M71.1607 55.2818C71.1607 55.2818 70.8091 77.0949 74.6765 84.2722C78.5439 91.4494 80.2013 122.672 80.2013 122.672C80.2013 122.672 120.744 126.866 148.996 117.65C177.248 108.433 237.363 104.664 237.363 104.664L227.232 36.3844C227.232 36.3844 177.185 33.175 148.714 46.7535C120.244 60.332 71.1607 55.2818 71.1607 55.2818Z"
            fill="#8DD070"/>
        <path d="M71.1607 55.2818C71.1607 55.2818 70.8091 77.0949 74.6765 84.2722C78.5439 91.4494 80.2013 122.672 80.2013 122.672C80.2013 122.672 120.744 126.866 148.996 117.65C177.248 108.433 237.363 104.664 237.363 104.664L227.232 36.3844C227.232 36.3844 177.185 33.175 148.714 46.7535C120.244 60.332 71.1607 55.2818 71.1607 55.2818Z"
              fill="black"
              opacity="0.1"/>
        <path
            d="M80.1323 63.2493C80.1323 63.2493 78.8641 81.2478 82.0459 86.9986C85.2277 92.7495 85.3759 118.422 85.3759 118.422C85.3759 118.422 121.862 120.115 147.817 111.28C173.771 102.446 228.311 96.7148 228.311 96.7148L222.113 40.8763C222.113 40.8763 176.985 40.4117 150.647 52.8476C124.308 65.2835 80.1323 63.2493 80.1323 63.2493Z"
            fill="#8DD070"/>
        <path d="M150.246 101.057C155.438 100.41 158.522 90.8595 157.135 79.7251C155.748 68.5908 150.416 60.0888 145.224 60.7354C140.033 61.3821 136.948 70.9324 138.335 82.0668C139.722 93.2012 145.055 101.703 150.246 101.057Z"
              fill="black"
              opacity="0.1"/>
        <path d="M199.793 3.12207C199.793 3.12207 151.172 15.4274 128.244 37.0873C105.316 58.7471 57.0488 69.0033 57.0488 69.0033C57.0488 69.0033 63.4074 89.8696 69.2889 95.5149C75.1703 101.16 86.3254 130.372 86.3254 130.372C86.3254 130.372 126.197 121.919 150.255 104.47C174.314 87.0218 230.383 64.9852 230.383 64.9852L199.793 3.12207Z"
              fill="black"
              opacity="0.2"/>
        <path
            d="M56.3184 65.8787C56.3184 65.8787 62.6744 86.7475 68.5508 92.3929C74.4273 98.0383 85.5874 127.247 85.5874 127.247C85.5874 127.247 125.464 118.797 149.525 101.348C173.586 83.8997 229.65 61.8707 229.65 61.8707L199.06 0C199.06 0 150.441 12.3053 127.513 33.9652C104.585 55.6251 56.3184 65.8787 56.3184 65.8787Z"
            fill="#8DD070"/>
        <path d="M56.3184 65.8787C56.3184 65.8787 62.6744 86.7475 68.5508 92.3929C74.4273 98.0382 85.5874 127.247 85.5874 127.247C85.5874 127.247 125.464 118.797 149.525 101.348C173.586 83.8997 229.65 61.8707 229.65 61.8707L199.06 0C199.06 0 150.441 12.3053 127.513 33.9652C104.585 55.6251 56.3184 65.8787 56.3184 65.8787Z"
              fill="black"
              opacity="0.1"/>
        <path
            d="M67.2949 70.7113C67.2949 70.7113 71.6118 88.2326 76.4059 92.7278C81.1999 97.223 89.2135 121.608 89.2135 121.608C89.2135 121.608 124.457 112.02 146.448 95.6459C168.44 79.2723 218.595 57.1052 218.595 57.1052L195.564 5.84473C195.564 5.84473 152.473 19.2475 131.22 39.167C109.967 59.0866 67.2949 70.7113 67.2949 70.7113Z"
            fill="#8DD070"/>
        <path d="M145.636 85.1777C150.379 82.9692 150.384 72.9332 145.647 62.7616C140.911 52.5899 133.226 46.1345 128.484 48.343C123.741 50.5515 123.736 60.5875 128.473 70.7591C133.21 80.9308 140.894 87.3862 145.636 85.1777Z"
              fill="black"
              opacity="0.1"/>
        <path d="M172.054 73.7743V160.414C172.054 161.398 171.86 162.372 171.483 163.281C171.107 164.19 170.555 165.016 169.859 165.712C169.163 166.407 168.337 166.959 167.428 167.335C166.518 167.712 165.544 167.905 164.56 167.905H35.7309C33.7445 167.904 31.8397 167.115 30.4354 165.71C29.0311 164.305 28.2422 162.4 28.2422 160.414V65.04C31.9338 66.4112 31.9338 66.4112 35.7309 66.2957H164.56C166.545 66.2957 168.449 67.0831 169.854 68.4852C171.258 69.8873 172.05 71.7895 172.054 73.7743Z"
              fill="black"
              opacity="0.1"/>
        <path
            d="M172.054 74.8774V161.517C172.053 163.504 171.263 165.409 169.858 166.814C168.453 168.219 166.547 169.008 164.56 169.008H35.7309C33.7445 169.007 31.8397 168.218 30.4354 166.813C29.0311 165.408 28.2422 163.503 28.2422 161.517V66.1406C31.9338 67.5093 31.9338 67.5093 35.7309 67.3963H164.56C166.545 67.3963 168.449 68.184 169.854 69.5867C171.259 70.9893 172.05 72.8921 172.054 74.8774Z"
            fill="#606CE6"/>
        <path d="M171.687 106.908V134.615H144.817C141.175 134.566 137.699 133.085 135.141 130.492C132.583 127.9 131.148 124.404 131.148 120.762C131.148 117.12 132.583 113.624 135.141 111.031C137.699 108.438 141.175 106.957 144.817 106.908H171.687Z"
              fill="black"
              opacity="0.1"/>
        <path d="M172.055 106.17V133.882H145.184C141.542 133.833 138.066 132.352 135.508 129.759C132.95 127.166 131.516 123.671 131.516 120.028C131.516 116.386 132.95 112.891 135.508 110.298C138.066 107.705 141.542 106.224 145.184 106.175L172.055 106.17Z"
              fill="black"
              opacity="0.3"/>
        <path d="M146.472 126.165C149.455 126.165 151.874 123.746 151.874 120.763C151.874 117.78 149.455 115.361 146.472 115.361C143.489 115.361 141.07 117.78 141.07 120.763C141.07 123.746 143.489 126.165 146.472 126.165Z"
              fill="black"
              opacity="0.1"/>
        <path
            d="M146.837 125.431C149.821 125.431 152.239 123.013 152.239 120.03C152.239 117.046 149.821 114.628 146.837 114.628C143.854 114.628 141.436 117.046 141.436 120.03C141.436 123.013 143.854 125.431 146.837 125.431Z"
            fill="#606CE6"/>
        <path
            d="M218.696 105.932C218.91 108.245 217.159 110.49 217.669 112.755C217.78 113.24 217.988 113.697 218.064 114.186C218.274 115.532 217.473 116.806 216.707 117.931L210.128 127.584C209.864 128.008 209.549 128.398 209.189 128.744C207.933 129.864 206.045 129.749 204.392 130.083C203.23 130.319 202.134 130.804 201.178 131.504C201.138 131.538 201.112 131.587 201.107 131.639C201.101 131.691 201.116 131.744 201.148 131.785C201.421 132.157 201.782 132.455 202.2 132.651C202.618 132.847 203.078 132.935 203.538 132.908C203.712 133.137 203.538 133.471 203.287 133.634C202.933 133.885 202.448 133.945 202.378 134.543C202.353 134.751 202.395 134.963 202.499 135.146C202.764 135.552 203.176 135.839 203.649 135.947C205.926 136.642 208.388 135.419 210.093 133.754C211.798 132.089 213.021 129.987 214.693 128.292C215.62 127.356 216.672 126.552 217.627 125.643C219.53 123.83 221.009 121.625 222.438 119.417C222.868 118.752 223.3 118.069 223.48 117.298C223.661 116.527 223.576 115.748 223.779 115.003C224.045 114.023 224.761 113.245 225.356 112.423C226.524 110.816 227.303 108.85 227.149 106.871C226.996 104.892 225.768 102.936 223.9 102.263C223.321 102.03 222.682 101.991 222.079 102.152C221.313 102.388 220.748 103.021 220.226 103.626L218.97 105.07C218.657 105.387 218.41 105.763 218.242 106.175C218.161 106.383 218.142 106.609 218.187 106.826C218.231 107.044 218.338 107.244 218.493 107.403"
            fill="#FBBEBE"/>
        <path d="M218.696 105.932C218.91 108.245 217.159 110.49 217.669 112.755C217.78 113.24 217.988 113.697 218.064 114.186C218.274 115.532 217.473 116.806 216.707 117.931L210.128 127.584C209.864 128.008 209.549 128.398 209.189 128.744C207.933 129.864 206.045 129.749 204.392 130.083C203.23 130.319 202.134 130.804 201.178 131.504C201.138 131.538 201.112 131.587 201.107 131.639C201.101 131.691 201.116 131.744 201.148 131.785C201.421 132.157 201.782 132.455 202.2 132.651C202.618 132.847 203.078 132.935 203.538 132.908C203.712 133.137 203.538 133.471 203.287 133.634C202.933 133.885 202.448 133.945 202.378 134.543C202.353 134.751 202.395 134.963 202.499 135.146C202.764 135.552 203.176 135.839 203.649 135.947C205.926 136.642 208.388 135.419 210.093 133.754C211.798 132.089 213.021 129.987 214.693 128.292C215.62 127.356 216.672 126.552 217.627 125.643C219.53 123.83 221.009 121.625 222.438 119.417C222.868 118.752 223.3 118.069 223.48 117.298C223.661 116.527 223.576 115.748 223.779 115.003C224.045 114.023 224.761 113.245 225.356 112.423C226.524 110.816 227.303 108.85 227.149 106.871C226.996 104.892 225.768 102.936 223.9 102.263C223.321 102.03 222.682 101.991 222.079 102.152C221.313 102.388 220.748 103.021 220.226 103.626L218.97 105.07C218.657 105.387 218.41 105.763 218.242 106.175C218.161 106.383 218.142 106.609 218.187 106.826C218.231 107.044 218.338 107.244 218.493 107.403"
              fill="black"
              opacity="0.05"/>
        <path
            d="M223.676 165.475C222.24 166.351 220.449 166.404 218.779 166.2C218.511 166.168 218.192 166.148 218.026 166.356C217.775 166.657 218.071 167.109 218.378 167.343C219.363 168.083 220.52 168.559 221.74 168.727C222.83 168.881 223.929 168.954 225.03 168.945C228.043 168.998 231.057 169.048 234.023 168.616C234.199 168.603 234.37 168.553 234.525 168.471C234.716 168.336 234.849 168.134 234.897 167.906C235.1 167.132 234.708 166.303 234.116 165.766C233.523 165.229 232.762 164.93 232.019 164.641L229.407 163.624C228.794 163.385 227.812 162.752 227.147 162.803C225.896 162.893 224.714 164.867 223.676 165.475Z"
            fill="#3F3D56"/>
        <path d="M223.676 165.475C222.24 166.351 220.449 166.404 218.779 166.2C218.511 166.168 218.192 166.148 218.026 166.356C217.775 166.657 218.071 167.109 218.378 167.343C219.363 168.083 220.52 168.559 221.74 168.727C222.83 168.881 223.929 168.954 225.03 168.945C228.043 168.998 231.057 169.048 234.023 168.616C234.199 168.603 234.37 168.553 234.525 168.471C234.716 168.336 234.849 168.134 234.897 167.906C235.1 167.132 234.708 166.303 234.116 165.766C233.523 165.229 232.762 164.93 232.019 164.641L229.407 163.624C228.794 163.385 227.812 162.752 227.147 162.803C225.896 162.893 224.714 164.867 223.676 165.475Z"
              fill="black"
              opacity="0.05"/>
        <path
            d="M225.507 130.803C224.42 132.25 223.295 133.92 223.564 135.71C223.709 136.675 224.249 137.526 224.646 138.418C225.183 139.628 225.465 140.929 225.741 142.225C226.148 144.118 226.557 146.017 226.806 147.94C227.09 150.113 225.756 156.398 225.633 158.586C225.603 159.113 225.54 159.683 225.173 160.062C225.03 160.213 224.839 160.334 224.774 160.53C224.736 160.718 224.767 160.914 224.862 161.082C225.475 162.463 226.728 163.493 228.127 164.08C229.525 164.668 232.898 165.683 234.422 165.735C234.623 165.758 234.827 165.731 235.015 165.658C235.218 165.534 235.378 165.351 235.472 165.133C236.565 163.043 235.515 155.615 235.53 153.257C235.545 151.29 236.01 149.337 235.924 147.373C235.854 145.796 235.422 144.254 235.279 142.682C235.028 140.105 235.5 137.516 235.974 134.97C236.336 133.016 236.7 131.062 237.165 129.133C237.449 127.956 237.778 126.768 238.42 125.746C238.923 124.934 239.628 124.256 240.214 123.485C241.838 121.356 242.559 118.674 242.223 116.017C242.187 115.766 238.456 116.964 238.127 117.107C236.784 117.675 235.549 118.469 234.475 119.455C233.611 120.279 232.931 121.379 232.175 122.3C231.105 123.604 230.049 124.918 229.006 126.24C227.815 127.752 226.649 129.273 225.507 130.803Z"
            fill="#464353"/>
        <path d="M225.507 130.716C224.42 132.162 223.295 133.835 223.564 135.623C223.709 136.59 224.249 137.441 224.646 138.332C225.183 139.54 225.465 140.844 225.741 142.137C226.148 144.033 226.557 145.932 226.806 147.853C227.09 150.027 225.756 156.311 225.633 158.498C225.603 159.025 225.54 159.598 225.173 159.977C225.03 160.125 224.839 160.246 224.774 160.442C224.736 160.631 224.767 160.827 224.862 160.994C225.475 162.378 226.728 163.405 228.127 164.008C229.525 164.611 232.898 165.135 234.422 165.186C234.623 165.208 234.827 165.181 235.015 165.108C235.218 164.986 235.378 164.803 235.472 164.585C236.565 162.496 235.515 155.545 235.53 153.184C235.545 151.215 236.01 149.264 235.924 147.298C235.854 145.721 235.422 144.179 235.279 142.609C235.028 140.03 235.5 137.441 235.974 134.894C236.336 132.943 236.7 130.989 237.165 129.058C237.449 127.88 237.778 126.693 238.42 125.67C238.923 124.859 239.628 124.181 240.214 123.41C241.838 121.281 242.56 118.598 242.223 115.942C242.187 115.691 238.456 116.888 238.127 117.032C236.785 117.602 235.55 118.397 234.475 119.382C233.611 120.203 232.931 121.303 232.175 122.225C231.105 123.529 230.049 124.843 229.006 126.168C227.815 127.668 226.649 129.184 225.507 130.716Z"
              fill="black"
              opacity="0.05"/>
        <path
            d="M213.407 98.9447C216.774 98.9447 219.502 96.2159 219.502 92.8498C219.502 89.4837 216.774 86.7549 213.407 86.7549C210.041 86.7549 207.312 89.4837 207.312 92.8498C207.312 96.2159 210.041 98.9447 213.407 98.9447Z"
            fill="#FBBEBE"/>
        <path
            d="M218.897 92.5938C219.46 93.492 220.198 94.2675 221.068 94.8742C221.937 95.4808 222.92 95.9061 223.957 96.1246L223.497 97.7946C222.704 100.663 221.812 103.696 219.597 105.685C219.848 104.713 219.527 103.676 218.98 102.832C218.432 101.989 217.664 101.326 216.91 100.67L213.402 97.6314C213.301 97.549 213.216 97.4485 213.151 97.3351C213.064 97.1208 213.064 96.8813 213.151 96.6671C213.598 95.2758 214.874 94.4069 215.913 93.4677C216.435 92.982 216.901 92.4396 217.302 91.8504C218.003 90.8509 218.437 91.8554 218.897 92.5938Z"
            fill="#FBBEBE"/>
        <path
            d="M205.379 86.7226L205.241 85.5775C206.202 85.8286 207.117 85.0099 207.732 84.1636C208.347 83.3173 208.917 82.3203 209.854 81.9662C210.991 81.5393 212.197 82.2174 213.284 82.7899C214.502 83.4655 215.838 83.9003 217.219 84.0707C217.44 84.078 217.658 84.1135 217.87 84.1762C218.578 84.4273 218.915 85.3163 219.018 86.1224C219.12 86.9286 219.093 87.7849 219.442 88.5031C219.693 89.0481 220.16 89.4524 220.446 89.9898C221.2 91.4313 220.472 93.4027 221.258 94.8165L219.304 93.026C219.126 92.8627 218.874 92.692 218.676 92.8301C218.52 92.9406 218.508 93.1792 218.445 93.37C218.257 93.9275 217.558 94.0933 217.054 93.8723C216.549 93.6513 216.18 93.1716 215.798 92.7347C214.934 91.7151 213.905 90.8185 212.699 90.3841C212.171 90.1866 211.606 90.1037 211.044 90.1409C210.481 90.1781 209.932 90.3346 209.434 90.6001C208.523 91.1149 207.855 92.3153 206.737 92.358C205.205 92.4157 204.568 89.5629 203.859 88.4353C204.119 88.2403 204.301 87.9604 204.374 87.6445C204.448 87.3286 204.408 86.9969 204.261 86.7076C204.364 86.6649 205.356 86.5468 205.379 86.7226Z"
            fill="#464353"/>
        <path
            d="M129.992 51.0897C129.503 51.5252 129.05 52.0007 128.639 52.5111C128.225 53.0285 128.005 53.6742 128.016 54.3368C128.018 54.5289 128.08 54.7157 128.192 54.8717C128.249 54.9463 128.328 55.0012 128.418 55.0287C128.508 55.0561 128.605 55.0548 128.694 55.0249C128.795 54.9734 128.881 54.8974 128.945 54.8039C129.211 54.4849 129.492 54.1798 129.789 53.8898C129.897 53.7818 130.04 53.6688 130.186 53.7089C130.251 53.7321 130.31 53.7709 130.357 53.8219C130.526 53.968 130.649 54.1599 130.711 54.3744C130.799 54.7587 130.575 55.1429 130.321 55.4442C130.068 55.7456 129.769 56.0344 129.666 56.4136C129.627 56.5137 129.627 56.6249 129.666 56.725C129.715 56.7974 129.782 56.8549 129.862 56.8907C130.221 57.0887 130.62 57.2053 131.03 57.2322C131.44 57.2591 131.85 57.1957 132.233 57.0464C132.735 56.843 133.182 56.494 133.699 56.3131C133.923 56.2519 134.14 56.1677 134.347 56.062C134.495 55.9635 134.622 55.8367 134.721 55.6889C134.819 55.541 134.888 55.3751 134.922 55.2007C134.987 54.8521 135 54.4957 134.96 54.1434C134.897 52.7792 134.605 51.4352 134.096 50.168C134.066 50.0863 134.016 50.0136 133.95 49.9571C133.875 49.911 133.788 49.8875 133.699 49.8893C133.056 49.8215 132.001 49.4925 131.381 49.7311C131.164 49.85 130.977 50.0166 130.834 50.2183C130.718 50.3463 129.992 50.9214 129.992 51.0897Z"
            fill="#A1616A"/>
        <path
            d="M129.788 50.5224C129.788 49.9096 129.035 48.4305 130.233 48.3325C130.233 47.6771 129.306 47.2702 129.479 46.5746C129.535 46.3436 129.731 46.1552 129.753 45.9192C129.828 45.2486 128.618 44.8845 128.819 44.2416C128.894 43.9905 129.16 43.8448 129.218 43.5962C129.354 43.0161 128.317 42.7574 128.297 42.1623C128.297 41.9614 128.41 41.773 128.4 41.5721C128.4 41.321 128.181 41.1301 128.06 40.9117C127.747 40.3516 127.9 39.4852 127.327 39.1964C127.706 39.2291 127.829 38.6666 127.674 38.3225C127.518 37.9785 127.199 37.6796 127.197 37.2979C127.215 37.1596 127.215 37.0193 127.197 36.881C127.091 36.5144 126.491 36.4842 126.39 36.1276C126.377 35.9908 126.373 35.8532 126.378 35.7158C126.338 35.432 126.046 35.2512 125.773 35.1708C125.488 35.1226 125.215 35.0248 124.964 34.882C124.788 34.7489 124.585 34.528 124.397 34.6309C124.326 34.6736 124.291 34.754 124.238 34.8142C124.012 35.0779 123.58 34.9624 123.297 34.769C122.458 34.199 122.041 33.1769 121.863 32.1799C121.684 31.1829 121.689 30.1533 121.466 29.1663C121.398 28.8588 121.307 28.5566 121.195 28.2623C121.099 28.0112 120.793 27.6169 120.773 27.3632C120.728 26.7856 121.923 27.1799 122.377 27.2377C122.819 27.2808 123.255 27.3648 123.681 27.4888C124.135 27.6605 124.58 27.8558 125.014 28.0739C126.827 28.875 129.017 28.973 130.474 30.319C130.954 30.761 131.358 31.3411 131.981 31.542C132.266 31.5968 132.548 31.6698 132.824 31.7605C133.515 32.0845 133.623 33.0011 134 33.6641C134.118 33.8391 134.221 34.024 134.309 34.2165C134.381 34.4437 134.415 34.6814 134.409 34.9197L134.462 36.66C134.547 39.5756 134.633 42.4988 134.321 45.3968C134.221 46.3536 134.07 47.338 134.354 48.2572C134.429 48.5083 134.535 48.7444 134.605 48.998C134.667 49.2954 134.699 49.5983 134.7 49.9021L134.741 51.0296C134.754 51.1173 134.735 51.207 134.685 51.2808C134.643 51.3149 134.594 51.3391 134.542 51.3517C134.489 51.3643 134.434 51.3649 134.381 51.3536C132.812 51.213 131.225 50.329 129.743 50.8639"
            fill="#464353"/>
        <path
            d="M201.415 137.162C211.673 137.162 219.989 135.96 219.989 134.478C219.989 132.995 211.673 131.793 201.415 131.793C191.157 131.793 182.842 132.995 182.842 134.478C182.842 135.96 191.157 137.162 201.415 137.162Z"
            fill="#504F60"/>
        <path
            d="M217.395 134.608C217.069 133.209 216.865 131.981 216.865 131.981C216.865 131.981 216.941 130.459 216.258 129.316V128.935V126.122C216.452 125.611 216.69 125.118 216.968 124.648C217.471 123.764 216.968 120.524 216.968 120.524C216.968 120.524 215.092 115.956 215.547 113.058C216.001 110.16 211.695 100.191 211.695 100.191C211.721 99.229 211.857 98.2736 212.099 97.3427C212.145 97.147 212.163 96.9459 212.154 96.745C212.154 96.7199 212.154 96.6973 212.154 96.6722C212.154 96.6471 212.154 96.6873 212.154 96.6948C212.089 94.7837 210.577 91.2026 210.577 91.2026L210.78 84.3769C210.78 84.3769 211.745 80.3589 210.173 74.947C209.623 73.0611 209.271 71.5518 209.048 70.3865C209.023 70.2559 208.997 70.1354 208.977 70.0073C212.214 69.5051 214.688 69.1033 214.688 69.1033C214.688 69.1033 212.81 61.2454 211.541 59.8693C210.273 58.4931 209.259 54.1711 209.259 54.1711C209.259 54.1711 208.598 48.6237 209.665 47.0014C210.733 45.3791 210.883 42.5815 210.883 42.5815C210.883 42.5815 213.317 40.8236 213.623 40.0275C213.93 39.2315 214.434 37.4736 214.434 36.5419C214.434 35.6102 214.13 34.784 214.231 34.2817C214.331 33.7795 213.52 31.9236 213.927 31.0396C214.032 30.7681 214.087 30.4795 214.088 30.1883C214.089 30.18 214.089 30.1715 214.088 30.1632C214.092 29.3896 214.02 28.6176 213.874 27.8578C213.17 27.2634 212.349 26.8244 211.463 26.5695L211.411 26.3586L211.273 25.8061C211.196 25.7552 211.116 25.7082 211.034 25.6655V25.4646L211.011 24.666L211.393 22.8729C212.147 19.7539 207.98 19.2893 207.98 19.2893C207.728 18.8109 207.307 18.4425 206.8 18.2547C205.964 17.9608 206.662 22.9458 207.051 23.2772C207.345 23.5284 208.254 25.0803 208.694 25.8488L208.764 25.9744C208.695 26.0362 208.631 26.1034 208.573 26.1753L208.731 27.2576L208.756 27.4234C208.48 27.7663 208.256 28.1479 208.091 28.556C208.091 28.556 208.844 29.3897 208.701 30.3139C208.558 31.238 208.935 32.4108 208.952 32.4736C208.907 32.4208 208.372 31.8433 207.837 31.9839C207.302 32.1245 205.808 32.574 205.808 32.574C205.808 32.574 204.693 32.7699 204.804 33.016C204.914 33.2621 204.05 34.342 204.05 34.342L201.052 31.4992C201.022 31.4138 200.989 31.3284 200.964 31.2481C200.841 30.8382 200.757 30.4178 200.713 29.9924C201.039 29.9148 201.36 29.8132 201.672 29.6886C201.987 29.5804 202.271 29.3978 202.501 29.1562C202.805 28.7971 202.862 28.3099 202.985 27.8629C203.221 26.9889 203.739 26.2129 204.098 25.3817C204.706 23.9771 204.902 22.4285 204.663 20.9166C204.617 20.4507 204.459 20.0028 204.203 19.6108C203.714 18.9377 202.825 18.664 202.179 18.1266C201.534 17.5892 201.117 16.768 200.364 16.3687C199.683 16.0045 198.857 16.0472 198.088 16.1728C196.587 16.4203 195.146 16.9449 193.837 17.7198C193.4 17.9709 192.918 18.2798 192.415 18.1869C191.983 18.109 191.662 17.765 191.391 17.4335C191.394 17.4197 191.398 17.4063 191.403 17.3933C191.391 17.3811 191.38 17.3676 191.371 17.3531C191.053 18.0584 190.893 18.8247 190.904 19.5982C190.904 19.7187 190.904 19.8493 190.919 19.9573V20.0829C190.919 20.118 190.919 20.1532 190.919 20.1858C190.919 20.2394 190.911 20.2926 190.896 20.3441C190.833 20.4977 190.737 20.6356 190.615 20.7484C190.523 20.8531 190.439 20.9647 190.364 21.0824C190.364 21.0422 190.389 21.002 190.404 20.9593C190.212 21.239 190.104 21.5673 190.092 21.9061C190.078 22.1527 190.159 22.3953 190.318 22.5841C190.469 22.7301 190.633 22.8613 190.808 22.9759C190.748 23.3074 190.718 23.6436 190.718 23.9804C190.723 24.979 190.987 25.9593 191.482 26.8264C191.977 27.6935 192.688 28.4181 193.545 28.9302C193.581 29.013 193.613 29.0984 193.646 29.1813C194.03 30.1858 194.319 31.3661 194.191 32.446C194.191 32.5238 194.168 32.6042 194.156 32.682C194.143 32.7599 194.08 32.7649 194.048 32.8076C194.048 32.8076 189.093 32.8578 187.928 31.8031C186.762 30.7483 184.984 34.3822 184.984 34.3822C184.984 34.3822 183.209 34.7262 182.852 34.3822C182.496 34.0381 180.419 34.3344 180.419 34.3344C179.568 33.5777 178.461 33.1736 177.323 33.2044C176.633 32.6802 175.872 32.2574 175.062 31.9487L175.007 31.9286C174.65 31.7984 174.268 31.7504 173.89 31.788C173.89 31.788 171.454 29.779 170.743 28.6941C170.032 27.6092 166.65 23.6037 166.634 23.5861V23.3928L166.597 22.8101C166.496 22.8259 166.395 22.8343 166.293 22.8353C166.275 22.7775 166.25 22.7097 166.225 22.6318C166.03 22.0635 165.79 21.5118 165.507 20.9819C165.507 20.9819 165.507 20.2461 165.72 20.0603C165.934 19.8744 165.632 17.1748 165.632 17.1748C165.632 17.1748 163.438 12.0442 161.471 15.874C161.471 15.874 157.755 18.3526 160.874 21.2406C160.874 21.2406 162.129 21.8433 162.295 22.3204C162.41 22.6293 162.832 23.4957 163.116 24.0783L163.244 24.3295L163.209 24.3596L163.254 24.8418L163.274 25.0276C162.687 25.3616 162.287 25.6931 162.385 25.9417C162.558 26.3672 162.677 26.8126 162.739 27.2677C162.739 27.2677 167.054 32.672 167.611 34.9798C167.611 34.9798 179.181 41.8558 182.985 42.3455L182.312 45.7734C182.214 46.7035 182.164 47.6381 182.162 48.5735C182.212 49.3093 181.705 52.6493 181.705 52.6493C181.705 52.6493 181.044 57.5614 180.487 58.2495C179.929 58.9376 180.03 61.8833 180.03 61.8833C179.898 63.2935 179.646 64.6898 179.276 66.0571C178.719 67.923 179.123 70.2333 179.123 70.2333C179.123 70.2333 177.197 74.6532 181.813 71.6572C181.813 71.6572 184.073 71.5166 186.69 71.4262C186.69 71.5116 186.69 71.5995 186.69 71.6773C186.69 72.0138 186.69 72.378 186.672 72.7597C186.637 75.2911 186.622 78.7868 186.737 81.4186C186.941 86.0846 188.362 95.3186 188.362 95.3186V99.967C188.27 100.403 188.225 100.847 188.227 101.293C188.196 102.929 188.632 104.539 189.482 105.936L189.839 109.03C189.839 109.03 190.673 111.069 190.688 112.295C190.684 112.394 190.673 112.492 190.652 112.589C190.62 112.745 190.606 112.904 190.612 113.063C190.565 114.47 191.411 117.835 191.411 117.835C191.411 117.835 191.461 121.223 191.968 121.421C192.403 121.589 191.388 123.372 191.087 123.885C191.079 123.853 191.073 123.821 191.069 123.789L191.007 123.89C190.902 124.164 190.848 124.455 190.848 124.748C190.82 124.98 190.857 125.214 190.957 125.425C191.057 125.636 191.214 125.814 191.411 125.939C192.375 126.529 192.893 127.019 192.074 127.215C191.773 127.261 191.474 127.324 191.18 127.403C191.18 127.365 191.15 127.325 191.137 127.29C191.022 127.335 190.925 127.419 190.864 127.527C190.804 127.635 190.782 127.76 190.803 127.883C190.811 128.281 190.913 128.672 191.102 129.023C191.913 130.841 192.476 131.534 192.476 131.534L192.865 131.491C192.807 131.64 192.732 131.781 192.639 131.911C192.491 132.121 192.294 132.293 192.066 132.413C191.854 132.54 191.617 132.621 191.371 132.651C191.096 132.66 190.826 132.727 190.578 132.847C190.331 132.968 190.111 133.139 189.934 133.35C189.432 134.005 189.11 134.897 190.11 135.68L193.739 136.936C193.739 136.936 199.982 137.747 199.65 136.346C199.319 134.944 199.118 133.719 199.118 133.719C199.145 132.863 198.973 132.013 198.616 131.235C198.55 131.108 198.476 130.986 198.395 130.868L198.616 130.846C198.616 130.846 199.073 127.749 199.681 127.162C199.821 127.026 199.854 126.911 199.821 126.84C199.884 126.672 199.723 126.574 199.52 126.516L199.475 126.639C199.276 126.596 199.073 126.573 198.869 126.572C198.869 126.572 198.666 124.952 199.326 124.362C199.38 124.294 199.419 124.217 199.441 124.134C199.463 124.051 199.467 123.964 199.455 123.88C199.459 123.657 199.436 123.435 199.384 123.219C199.378 123.233 199.37 123.246 199.362 123.259C199.03 121.788 197.905 119.45 197.905 119.45C197.905 119.45 197.855 117.978 198.262 117.388C198.668 116.798 198.209 109.382 198.209 109.382C198.209 109.382 198.362 105.798 197.905 104.128C197.448 102.458 198.463 100.492 198.463 100.492C198.463 100.492 198.463 100.454 198.463 100.386V100.361L198.405 99.7962C198.403 99.8079 198.403 99.8197 198.405 99.8314C198.302 98.8821 198.108 97.1619 197.965 96.3683C197.762 95.2383 198.018 89.839 198.018 89.839L198.93 87.5286L200.554 91.509L202.28 96.8128C202.28 96.8128 203.134 97.9329 203.154 99.073C203.154 99.1282 203.154 99.1835 203.154 99.2387C203.14 99.3563 203.133 99.4745 203.134 99.5928C203.103 100.263 203.287 100.925 203.658 101.484C203.658 101.484 204.115 103.995 204.826 104.625C205.537 105.256 205.537 106.491 205.537 106.491C205.537 106.491 206.398 110.128 206.792 110.761C207.134 111.298 207.152 112.77 207.149 113.229C207.149 113.312 207.149 113.36 207.149 113.36C207.149 113.36 207.27 114.661 207.265 115.75C207.265 115.886 207.265 116.017 207.265 116.14C207.266 116.131 207.266 116.121 207.265 116.112C207.264 116.41 207.229 116.707 207.159 116.996L207.144 117.046C207.144 116.984 207.144 116.923 207.162 116.863C206.985 117.603 206.901 118.362 206.911 119.123C206.888 120.429 207.086 121.976 207.877 122.89C209.249 124.462 210.11 124.266 210.11 124.266C210.11 124.266 209.452 126.23 208.638 126.624C208.607 126.639 208.579 126.657 208.553 126.68C208.553 126.639 208.538 126.602 208.533 126.564C208.442 126.662 208.373 126.778 208.33 126.904C208.286 127.03 208.27 127.164 208.282 127.297C208.224 128.161 208.769 129.558 209.286 130.208C209.478 130.396 209.714 130.534 209.972 130.61C209.931 130.639 209.888 130.665 209.844 130.688C209.753 130.737 209.66 130.782 209.565 130.821C209.433 130.877 209.293 130.913 209.151 130.929C208.875 130.936 208.605 131.002 208.357 131.123C208.109 131.243 207.89 131.415 207.714 131.627C207.212 132.28 206.89 133.171 207.89 133.955L211.519 135.21C211.519 135.21 217.722 136.007 217.395 134.608Z"
            fill="url(#paint0_linear)"/>
        <path
            d="M193.56 136.929L190.044 135.673C189.075 134.89 189.383 133.998 189.873 133.343C190.042 133.134 190.253 132.963 190.493 132.843C190.733 132.722 190.996 132.655 191.264 132.645C191.502 132.614 191.731 132.533 191.935 132.406C192.158 132.285 192.349 132.113 192.492 131.904C192.749 131.497 192.887 131.026 192.892 130.545C192.892 130.545 196.749 129.415 197.804 130.545C197.992 130.75 198.149 130.981 198.271 131.231C198.621 132.011 198.793 132.86 198.773 133.714C198.773 133.714 198.969 134.94 199.288 136.341C199.607 137.743 193.56 136.929 193.56 136.929Z"
            fill="#2D293D"/>
        <path
            d="M210.747 135.196L207.231 133.94C206.262 133.157 206.571 132.265 207.061 131.612C207.228 131.402 207.439 131.231 207.678 131.111C207.918 130.99 208.181 130.923 208.449 130.914C208.588 130.9 208.724 130.863 208.851 130.806C208.944 130.767 209.035 130.722 209.122 130.673C210.104 130.133 210.079 128.807 210.079 128.807C210.079 128.807 213.934 127.677 214.991 128.807C215.133 128.96 215.257 129.128 215.36 129.309C216.021 130.452 215.948 131.976 215.948 131.976C215.948 131.976 216.144 133.204 216.45 134.603C216.757 136.002 210.747 135.196 210.747 135.196Z"
            fill="#2D293D"/>
        <path d="M197.807 130.543C197.995 130.748 198.153 130.978 198.274 131.229L192.498 131.899C192.755 131.492 192.893 131.022 192.897 130.54C192.897 130.54 196.752 129.413 197.807 130.543Z"
              fill="black"
              opacity="0.1"/>
        <path d="M215.367 129.314V130.396C214.468 131.876 210.121 131.552 208.857 130.811C208.95 130.772 209.041 130.727 209.129 130.678C210.111 130.138 210.085 128.812 210.085 128.812C210.085 128.812 213.94 127.682 214.998 128.812C215.139 128.965 215.263 129.133 215.367 129.314Z"
              fill="black"
              opacity="0.1"/>
        <path
            d="M216.052 124.648C215.783 125.12 215.554 125.613 215.366 126.122V130.002C214.382 131.622 209.276 131.082 208.586 130.198C207.895 129.314 207.174 127.014 207.95 126.614C208.726 126.215 209.374 124.256 209.374 124.256C209.374 124.256 208.538 124.452 207.212 122.88C205.886 121.308 206.28 117.822 206.526 116.989C206.773 116.155 206.526 113.355 206.526 113.355C206.526 113.355 206.577 111.388 206.185 110.751C205.793 110.113 204.957 106.481 204.957 106.481C204.957 106.481 204.957 105.253 204.269 104.615C203.581 103.978 203.139 101.471 203.139 101.471C202.736 100.845 202.563 100.099 202.649 99.3594C202.795 98.1313 201.813 96.8054 201.813 96.8054L200.143 91.499L198.571 87.5211L197.687 89.829C197.687 89.829 197.436 95.2308 197.639 96.3584C197.842 97.4859 198.141 100.484 198.141 100.484C198.141 100.484 197.159 102.448 197.601 104.118C198.043 105.788 197.883 109.377 197.883 109.377C197.883 109.377 198.325 116.79 197.93 117.38C197.536 117.971 197.586 119.445 197.586 119.445C197.586 119.445 199.595 123.764 198.962 124.354C198.33 124.944 198.52 126.564 198.52 126.564C198.52 126.564 199.894 126.564 199.307 127.154C198.719 127.744 198.274 130.838 198.274 130.838L192.335 131.534C192.335 131.534 191.793 130.848 191.007 129.023C190.221 127.197 191.152 127.403 191.943 127.205C192.734 127.006 192.235 126.519 191.301 125.929C190.366 125.339 190.909 124.013 190.909 124.013C190.909 124.013 192.333 121.607 191.84 121.411C191.348 121.215 191.301 117.825 191.301 117.825C191.301 117.825 190.319 113.807 190.565 112.717C190.811 111.627 189.779 109.035 189.779 109.035L189.435 105.941C188.384 104.186 188 102.11 188.355 100.095V95.3237C188.355 95.3237 186.979 86.0922 186.783 81.4262C186.657 78.4378 186.692 74.3595 186.732 71.8155C186.758 70.3891 186.783 69.4424 186.783 69.4424L207.998 67.2324C207.998 67.2324 207.978 68.2118 208.382 70.3841C208.601 71.5493 208.94 73.0586 209.472 74.9446C210.994 80.3464 210.062 84.372 210.062 84.372L209.864 91.2002C209.864 91.2002 211.73 95.7657 211.338 97.3378C211.101 98.2712 210.968 99.2279 210.941 100.191C210.941 100.191 215.115 110.16 214.673 113.058C214.231 115.956 216.047 120.524 216.047 120.524C216.047 120.524 216.544 123.764 216.052 124.648Z"
            fill="#464353"/>
        <path d="M203.922 99.0635L210.381 98.2021C210.381 98.2021 206.722 101.936 203.922 99.0635Z" fill="black"
              opacity="0.05"/>
        <path d="M209.447 91.8906C209.447 91.8906 209.668 94.1759 208.27 95.0348C208.27 95.0348 210.773 94.643 209.447 91.8906Z"
              fill="black"
              opacity="0.1"/>
        <path d="M209.051 84.623C209.051 84.623 203.652 89.068 201.688 88.6989C199.724 88.3297 209.051 84.623 209.051 84.623Z"
              fill="black"
              opacity="0.1"/>
        <path d="M195.916 101.147C195.916 101.147 191.815 102.079 191.692 103.727C191.569 105.374 195.916 101.147 195.916 101.147Z"
              fill="black"
              opacity="0.1"/>
        <path d="M196.818 121.63C196.818 121.63 191.024 122.71 192.669 123.446C194.314 124.181 197.016 124.772 197.016 124.772C197.016 124.772 198.887 124.869 196.818 121.63Z"
              fill="black"
              opacity="0.05"/>
        <g opacity="0.05">
            <path d="M191.499 124.616C191.354 124.525 191.23 124.402 191.139 124.257C191.047 124.112 190.989 123.948 190.969 123.777L190.909 123.88C190.909 123.88 190.369 125.206 191.303 125.794C191.409 125.862 191.512 125.93 191.605 125.995C191.778 125.962 191.964 125.937 192.142 125.892C192.933 125.696 192.433 125.206 191.499 124.616Z"
                  fill="black"
                  opacity="0.05"/>
            <path d="M198.963 124.221C199.123 124.076 199.118 123.699 199.02 123.217C198.769 123.596 198.696 124.189 198.691 124.638C198.752 124.482 198.845 124.34 198.963 124.221Z"
                  fill="black"
                  opacity="0.05"/>
            <path d="M198.071 99.7891C197.858 100.37 197.726 100.978 197.68 101.595C197.792 101.168 197.942 100.753 198.129 100.354L198.071 99.7891Z"
                  fill="black"
                  opacity="0.05"/>
            <path d="M211.342 97.2122C211.381 97.0358 211.399 96.8554 211.395 96.6748C211.322 97.0415 211.272 97.3805 211.234 97.6793C211.267 97.5261 211.302 97.3805 211.342 97.2122Z"
                  fill="black"
                  opacity="0.05"/>
            <path d="M197.933 117.251C198.013 117.13 198.059 116.723 198.079 116.158C197.897 116.595 197.801 117.063 197.795 117.537C197.829 117.436 197.876 117.34 197.933 117.251Z"
                  fill="black"
                  opacity="0.05"/>
            <path d="M199.14 126.512C198.835 127.497 198.61 128.504 198.464 129.525L192.525 130.211C192.525 130.211 191.983 129.525 191.197 127.7C191.133 127.559 191.077 127.414 191.028 127.268C190.672 127.431 190.526 127.8 190.998 128.877C191.784 130.696 192.329 131.389 192.329 131.389L198.269 130.701C198.269 130.701 198.711 127.607 199.298 127.016C199.6 126.733 199.414 126.585 199.14 126.512Z"
                  fill="black"
                  opacity="0.05"/>
            <path d="M191.304 117.692C191.304 117.692 191.352 121.079 191.844 121.275C192.095 120.715 192.258 120.183 192.037 120.095C191.535 119.899 191.497 116.509 191.497 116.509C191.497 116.509 190.515 112.491 190.762 111.401C191.008 110.311 189.975 107.719 189.975 107.719L189.631 104.625C188.581 102.87 188.197 100.794 188.552 98.7791V94.0077C188.552 94.0077 187.175 84.7762 186.98 80.1102C186.854 77.1218 186.889 73.0434 186.929 70.4995C186.929 70.0399 186.944 69.6331 186.952 69.2891L186.784 69.3066C186.784 69.3066 186.756 70.2509 186.733 71.6798C186.693 74.2237 186.656 78.3021 186.784 81.288C186.979 85.954 188.353 95.188 188.353 95.188V99.9594C188.001 101.974 188.385 104.048 189.436 105.803L189.777 108.897C189.777 108.897 190.809 111.499 190.563 112.581C190.317 113.664 191.304 117.692 191.304 117.692Z"
                  fill="black"
                  opacity="0.05"/>
            <path d="M208.787 128.888C208.305 128.189 207.983 127.392 207.845 126.555C207.24 127.102 207.936 129.227 208.599 130.07C209.284 130.954 214.392 131.494 215.379 129.872V128.938C214.041 130.251 209.435 129.724 208.787 128.888Z"
                  fill="black"
                  opacity="0.05"/>
            <path d="M216.251 123.337C215.981 123.809 215.751 124.302 215.562 124.811V125.507C215.676 125.256 215.834 124.919 216.065 124.523C216.22 124.136 216.294 123.721 216.281 123.305C216.281 123.305 216.258 123.327 216.251 123.337Z"
                  fill="black"
                  opacity="0.05"/>
            <path d="M209.088 124.113C209.275 123.735 209.437 123.345 209.573 122.945C209.573 122.945 208.737 123.141 207.411 121.569C206.447 120.427 206.391 118.267 206.529 116.855C206.278 117.692 205.889 121.177 207.215 122.749C208.081 123.777 208.737 124.048 209.088 124.113Z"
                  fill="black"
                  opacity="0.05"/>
            <path d="M206.528 113.222C206.614 114.19 206.647 115.161 206.625 116.133C206.65 115.979 206.684 115.827 206.726 115.678C206.977 114.842 206.726 112.044 206.726 112.044C206.726 112.044 206.776 110.078 206.382 109.44C205.988 108.802 205.166 105.166 205.166 105.166C205.166 105.166 205.166 103.938 204.478 103.3C203.79 102.662 203.348 100.156 203.348 100.156C202.942 99.5307 202.765 98.7846 202.846 98.0437C202.994 96.8157 202.012 95.4897 202.012 95.4897L200.342 90.1859L198.77 86.208L197.884 88.5184C197.884 88.5184 197.884 88.8097 197.854 89.2718L198.572 87.3958L200.144 91.3662L201.814 96.67C201.814 96.67 202.796 97.996 202.648 99.224C202.566 99.9649 202.744 100.711 203.15 101.336C203.15 101.336 203.592 103.847 204.28 104.48C204.968 105.113 204.965 106.346 204.965 106.346C204.965 106.346 205.802 109.98 206.194 110.615C206.585 111.251 206.528 113.222 206.528 113.222Z"
                  fill="black"
                  opacity="0.05"/>
        </g>
        <path
            d="M210.651 22.8662L210.282 24.6592L210.304 25.4578L210.319 26.0455L208.27 26.2564L208.042 25.832C207.617 25.0635 206.736 23.5015 206.452 23.2604C206.073 22.944 205.397 17.9566 206.201 18.2529C206.695 18.444 207.102 18.8118 207.341 19.2851C207.341 19.2851 211.377 19.7471 210.651 22.8662Z"
            fill="#FFCDD3"/>
        <path d="M210.319 26.0453L208.27 26.2562L208.041 25.8318C208.317 25.518 208.693 25.3095 209.105 25.2417C209.517 25.1739 209.94 25.2511 210.301 25.4601L210.319 26.0453Z"
              fill="black"
              opacity="0.1"/>
        <path
            d="M210.835 27.0166L208.133 27.642L208.075 27.2402L207.922 26.1578C207.922 26.1578 208.992 24.7314 210.539 25.8012L210.674 26.3512L210.835 27.0166Z"
            fill="#606CE6"/>
        <path
            d="M167.064 23.0611L164.178 24.6081L163.927 24.0656C163.653 23.4906 163.244 22.6242 163.131 22.3077C162.96 21.8306 161.757 21.2279 161.757 21.2279C158.744 18.3424 162.335 15.8613 162.335 15.8613C164.238 12.0315 166.353 17.1621 166.353 17.1621C166.353 17.1621 166.649 19.8668 166.441 20.0476C166.232 20.2284 166.232 20.9692 166.232 20.9692C166.507 21.5 166.74 22.0517 166.928 22.6191C167.016 22.8929 167.064 23.0611 167.064 23.0611Z"
            fill="#FFCDD3"/>
        <path d="M167.064 23.0614L164.179 24.6084L163.928 24.066C164.335 23.7244 165.779 22.5592 166.253 22.6069C166.48 22.6352 166.709 22.6411 166.936 22.6245C167.017 22.8932 167.064 23.0614 167.064 23.0614Z"
              fill="black"
              opacity="0.1"/>
        <path
            d="M167.358 23.9331L164.116 25.5303L164.051 24.8346L164.006 24.3525C164.006 24.3525 165.884 22.7427 166.439 22.8055C166.72 22.8462 167.005 22.8462 167.286 22.8055L167.323 23.3881L167.358 23.9331Z"
            fill="#606CE6"/>
        <path
            d="M202.791 34.7762C202.791 34.7762 188.658 36.3709 191.3 35.512C193.138 34.9118 193.869 33.7541 194.022 32.4483C194.148 31.3609 193.866 30.1881 193.497 29.1836C193.165 28.2924 192.744 27.4368 192.241 26.6296C192.241 26.6296 203.04 20.6879 200.883 26.0897C200.55 26.9067 200.344 27.7696 200.27 28.6487C200.205 29.5223 200.3 30.4005 200.549 31.2403C200.956 32.6031 201.732 33.8268 202.791 34.7762Z"
            fill="#FFCDD3"/>
        <path d="M200.876 26.0828C200.543 26.8999 200.337 27.7627 200.263 28.6418C199.246 29.4982 198.131 29.4404 196.697 29.4404C195.597 29.4404 194.377 29.7066 193.498 29.1767C193.166 28.2856 192.745 27.43 192.242 26.6228C192.242 26.6228 203.038 20.6811 200.876 26.0828Z"
              fill="black"
              opacity="0.1"/>
        <path
            d="M196.506 29.8165C199.733 29.8165 202.35 27.2001 202.35 23.9727C202.35 20.7453 199.733 18.1289 196.506 18.1289C193.278 18.1289 190.662 20.7453 190.662 23.9727C190.662 27.2001 193.278 29.8165 196.506 29.8165Z"
            fill="#FFCDD3"/>
        <path d="M202.791 34.7773C202.791 34.7773 188.658 36.3719 191.3 35.5131C193.138 34.9129 193.869 33.7552 194.022 32.4493C194.725 31.6959 196.139 31.1359 197.036 30.8446C197.864 30.5659 198.759 30.5509 199.597 30.8019C199.926 30.9011 200.24 31.0466 200.529 31.2338C200.941 32.6016 201.724 33.8283 202.791 34.7773Z"
              fill="black"
              opacity="0.1"/>
        <path d="M210.836 27.0171L208.134 27.6424L208.076 27.2406C208.365 26.8431 208.77 26.5446 209.235 26.3855C209.7 26.2264 210.203 26.2146 210.675 26.3516L210.836 27.0171Z"
              fill="black"
              opacity="0.1"/>
        <path d="M167.358 23.9332L164.116 25.5304L164.051 24.8348C165.101 24.2701 166.192 23.7857 167.315 23.3857L167.358 23.9332Z"
              fill="black"
              opacity="0.1"/>
        <path d="M208.382 70.389C202.905 71.2629 195.12 72.3779 193.885 72.0012C192.857 71.6898 189.583 71.7225 186.732 71.8204C186.758 70.394 186.783 69.4472 186.783 69.4472L207.998 67.2373C207.998 67.2373 207.978 68.2167 208.382 70.389Z"
              fill="black"
              opacity="0.1"/>
        <path
            d="M213.843 69.1038C213.843 69.1038 195.819 72.1977 193.886 71.6151C191.952 71.0324 182.02 71.6628 182.02 71.6628C177.55 74.6587 179.416 70.2389 179.416 70.2389C179.416 70.2389 179.024 67.931 179.564 66.0651C179.926 64.6952 180.174 63.2974 180.305 61.8863C180.305 61.8863 180.207 58.9381 180.747 58.25C181.286 57.5619 181.927 52.6523 181.927 52.6523C181.927 52.6523 182.417 49.3123 182.369 48.5765C182.321 47.8407 182.514 45.7764 182.514 45.7764L183.155 42.3384C179.471 41.8487 168.273 34.9728 168.273 34.9728C167.733 32.6649 163.559 27.2632 163.559 27.2632C163.498 26.8089 163.383 26.3637 163.215 25.9372C162.921 25.1512 167.341 23.5791 167.341 23.5791C167.341 23.5791 170.631 27.5972 171.319 28.6871C172.007 29.777 174.363 31.781 174.363 31.781C174.729 31.7433 175.099 31.7915 175.443 31.9216L175.5 31.9392C176.29 32.2491 177.03 32.6721 177.698 33.1948C178.805 33.1686 179.88 33.5738 180.694 34.3249C180.694 34.3249 182.703 34.0286 183.052 34.3726C183.401 34.7167 185.114 34.3726 185.114 34.3726C185.114 34.3726 186.831 30.7388 187.961 31.7935C189.092 32.8483 193.886 32.798 193.886 32.798C194.523 31.9492 196.078 31.3415 197.05 31.0401C197.879 30.7626 198.773 30.7477 199.611 30.9975C199.973 31.1053 200.313 31.2753 200.616 31.4997L203.531 34.3475C203.531 34.3475 204.365 33.2651 204.267 33.0216C204.169 32.778 205.249 32.5796 205.249 32.5796C205.249 32.5796 206.673 32.1376 207.213 31.9894C207.753 31.8412 208.248 32.4264 208.293 32.4791C208.275 32.4163 207.906 31.2235 208.042 30.3194C208.177 29.4153 207.452 28.5615 207.452 28.5615C209.169 24.3375 213.049 27.8734 213.049 27.8734C213.049 27.8734 213.491 30.1813 213.099 31.0653C212.708 31.9492 213.491 33.8151 213.393 34.3073C213.295 34.7995 213.592 35.6333 213.592 36.5675C213.592 37.5017 213.089 39.2671 212.806 40.0532C212.522 40.8392 210.154 42.6071 210.154 42.6071C210.154 42.6071 210.006 45.4072 208.973 47.027C207.941 48.6468 208.589 54.1867 208.589 54.1867C208.589 54.1867 209.571 58.5086 210.799 59.8848C212.027 61.261 213.843 69.1038 213.843 69.1038Z"
            fill="#3F3D56"/>
        <path d="M187.569 36.7881C187.569 36.7881 187.029 35.1683 186.537 35.0302C186.048 34.8505 185.573 34.6373 185.113 34.3923L185.43 33.7871C185.43 33.7871 187.273 34.2894 187.569 34.8343C187.866 35.3793 187.569 36.7881 187.569 36.7881Z"
              fill="black"
              opacity="0.1"/>
        <path d="M177.697 33.2042C177.599 33.7064 173.227 34.1359 173.227 34.1359L175.436 31.9209L175.492 31.941C176.284 32.2526 177.027 32.6781 177.697 33.2042Z"
              fill="black"
              opacity="0.1"/>
        <path
            d="M165.05 26.8558C165.266 26.8558 165.442 26.6804 165.442 26.464C165.442 26.2477 165.266 26.0723 165.05 26.0723C164.834 26.0723 164.658 26.2477 164.658 26.464C164.658 26.6804 164.834 26.8558 165.05 26.8558Z"
            fill="#575988"/>
        <path
            d="M165.552 27.6419C165.768 27.6419 165.944 27.4665 165.944 27.2502C165.944 27.0338 165.768 26.8584 165.552 26.8584C165.336 26.8584 165.16 27.0338 165.16 27.2502C165.16 27.4665 165.336 27.6419 165.552 27.6419Z"
            fill="#575988"/>
        <path
            d="M166.044 28.3685C166.26 28.3685 166.436 28.1931 166.436 27.9767C166.436 27.7604 166.26 27.585 166.044 27.585C165.828 27.585 165.652 27.7604 165.652 27.9767C165.652 28.1931 165.828 28.3685 166.044 28.3685Z"
            fill="#575988"/>
        <path
            d="M166.56 29.1517C166.776 29.1517 166.951 28.9763 166.951 28.7599C166.951 28.5436 166.776 28.3682 166.56 28.3682C166.343 28.3682 166.168 28.5436 166.168 28.7599C166.168 28.9763 166.343 29.1517 166.56 29.1517Z"
            fill="#575988"/>
        <path
            d="M212.852 29.0363C213.028 29.0363 213.171 28.8935 213.171 28.7174C213.171 28.5412 213.028 28.3984 212.852 28.3984C212.676 28.3984 212.533 28.5412 212.533 28.7174C212.533 28.8935 212.676 29.0363 212.852 29.0363Z"
            fill="#575988"/>
        <path
            d="M212.903 29.7619C213.079 29.7619 213.222 29.6191 213.222 29.443C213.222 29.2668 213.079 29.124 212.903 29.124C212.727 29.124 212.584 29.2668 212.584 29.443C212.584 29.6191 212.727 29.7619 212.903 29.7619Z"
            fill="#575988"/>
        <path
            d="M212.946 30.4845C213.122 30.4845 213.265 30.3418 213.265 30.1656C213.265 29.9895 213.122 29.8467 212.946 29.8467C212.77 29.8467 212.627 29.9895 212.627 30.1656C212.627 30.3418 212.77 30.4845 212.946 30.4845Z"
            fill="#575988"/>
        <path d="M187.586 50.0978C187.538 50.0401 198.611 64.0204 207.204 55.9416C207.212 55.9441 193.633 57.7849 187.586 50.0978Z"
              fill="black"
              opacity="0.1"/>
        <path d="M181.232 57.3662C181.232 57.3662 187.857 57.547 188.55 59.4531V61.437C188.362 61.5417 188.15 61.5966 187.934 61.5966C187.718 61.5966 187.506 61.5417 187.317 61.437C186.649 61.0754 182.644 59.0412 181.232 60.0206V57.3662Z"
              fill="black"
              opacity="0.1"/>
        <path
            d="M181.355 57.3662C181.355 57.3662 187.691 57.5395 188.354 59.3577V61.2461C188.174 61.3464 187.971 61.399 187.764 61.399C187.558 61.399 187.355 61.3464 187.174 61.2461C186.536 60.9046 182.707 58.9634 181.355 59.8976V57.3662Z"
            fill="#3F3D56"/>
        <path d="M184.85 42.9814C185.526 44.5481 186.389 46.0278 187.419 47.3888C188.539 48.8931 189.896 50.2052 191.437 51.2737C191.437 51.2737 184.96 43.8905 184.85 42.9814Z"
              fill="black"
              opacity="0.1"/>
        <path d="M182.682 35.2842C182.682 35.2842 183.787 40.0556 186.634 41.6754L182.682 35.2842Z" fill="black"
              opacity="0.1"/>
        <path d="M180.987 35.7661C180.96 35.6782 180.005 39.5331 184.659 41.6752C184.659 41.6752 182.682 41.0047 180.987 35.7661Z"
              fill="black"
              opacity="0.1"/>
        <path d="M209.914 32.5667C209.841 32.5667 212.209 34.0734 212.854 34.7766C212.854 34.7766 211.313 32.4662 209.914 32.5667Z"
              fill="black"
              opacity="0.1"/>
        <path
            d="M194.926 29.2691C194.927 29.3966 194.955 29.5225 195.007 29.6389C195.059 29.7553 195.134 29.8596 195.229 29.9453C195.323 30.031 195.434 30.0961 195.555 30.1367C195.676 30.1772 195.804 30.1922 195.931 30.1807C197.712 30.2912 199.567 30.3691 201.205 29.6785C201.512 29.5688 201.788 29.3861 202.008 29.1461C202.3 28.7869 202.357 28.2998 202.475 27.8527C202.706 26.9788 203.199 26.2028 203.553 25.3716C204.152 23.9672 204.353 22.425 204.133 20.9141C204.087 20.4509 203.934 20.0048 203.686 19.6107C203.214 18.9352 202.352 18.6614 201.727 18.124C201.102 17.5866 200.7 16.7654 199.969 16.3661C199.311 15.9995 198.505 16.0447 197.764 16.1702C196.307 16.4177 194.911 16.9419 193.651 17.7147C193.226 17.9658 192.762 18.2747 192.275 18.1818C191.848 18.1014 191.536 17.7423 191.27 17.4058C190.928 18.2094 190.784 19.0837 190.851 19.9547C190.869 20.0826 190.865 20.2126 190.838 20.339C190.777 20.4917 190.683 20.6296 190.564 20.7433C190.125 21.2455 189.851 22.0617 190.286 22.579C190.474 22.8025 190.765 22.9256 190.949 23.1541C191.278 23.5635 191.167 24.1586 191.16 24.681C191.141 24.8634 191.188 25.0464 191.29 25.1983C191.385 25.2869 191.501 25.3494 191.628 25.3797C191.754 25.4101 191.886 25.4073 192.011 25.3716C192.26 25.2967 192.521 25.2719 192.779 25.2988C193.052 25.3873 193.287 25.564 193.447 25.801C194.258 26.8583 194.58 28.0084 194.926 29.2691Z"
            fill="#2D293D"/>
        <g opacity="0.1">
            <path d="M202.217 28.7007C201.996 28.9408 201.72 29.1235 201.413 29.2331C199.766 29.9187 197.912 29.8409 196.139 29.7354C195.949 29.7373 195.761 29.6952 195.589 29.6123C195.318 29.4541 195.215 29.1226 195.132 28.8213C194.786 27.5656 194.467 26.413 193.643 25.3657C193.484 25.1242 193.249 24.9429 192.975 24.8509C192.717 24.8265 192.456 24.8513 192.207 24.9238C192.082 24.9598 191.95 24.963 191.824 24.9331C191.698 24.9031 191.581 24.8411 191.486 24.753C191.383 24.601 191.337 24.4181 191.355 24.2357C191.355 23.7083 191.473 23.1181 191.144 22.7088C190.961 22.4803 190.67 22.3572 190.481 22.1312C190.359 21.9646 190.283 21.7677 190.263 21.5617C190.243 21.3556 190.28 21.148 190.368 20.9609C190.054 21.4632 189.921 22.0935 190.286 22.5255C190.474 22.749 190.765 22.872 190.949 23.1006C191.277 23.5124 191.167 24.1051 191.159 24.6274C191.14 24.8095 191.186 24.9927 191.288 25.1447C191.383 25.2337 191.5 25.2965 191.626 25.3269C191.753 25.3572 191.886 25.3542 192.011 25.318C192.26 25.2431 192.521 25.2183 192.779 25.2452C193.052 25.3337 193.287 25.5105 193.447 25.7475C194.268 26.7947 194.59 27.9448 194.936 29.2055C194.977 29.5157 195.132 29.7996 195.371 30.0016C195.543 30.0845 195.732 30.1258 195.923 30.1221C197.704 30.2326 199.56 30.313 201.197 29.6199C201.505 29.511 201.781 29.3281 202.001 29.0875C202.111 28.946 202.196 28.7862 202.252 28.6153C202.254 28.648 202.237 28.6756 202.217 28.7007Z"
                  fill="black"
                  opacity="0.1"/>
            <path d="M190.85 20.1853C190.929 20.0996 190.99 19.9988 191.029 19.8889C191.051 19.7619 191.051 19.6318 191.029 19.5047C190.98 18.7887 191.073 18.0701 191.302 17.3902L191.27 17.3525C190.926 18.155 190.782 19.0287 190.85 19.899C190.858 19.9943 190.858 20.09 190.85 20.1853Z"
                  fill="black"
                  opacity="0.1"/>
        </g>
        <path d="M193.885 32.8107C193.885 32.8107 201.185 33.7801 201.841 32.6826L193.885 32.8107Z" fill="black"
              opacity="0.1"/>
        <path d="M208.076 29.7891C208.076 29.7891 212.134 29.7891 213.026 31.3159L208.076 29.7891Z" fill="black"
              opacity="0.1"/>
        <path
            d="M230.781 165.436C229.577 166.513 228.013 167.097 226.398 167.074C225.987 167.074 225.417 167.152 225.414 167.563C225.424 167.684 225.466 167.8 225.535 167.9C226.044 168.749 226.849 169.382 227.795 169.675C228.674 169.942 229.613 169.896 230.53 169.849L233.204 169.711C233.706 169.683 234.209 169.658 234.711 169.595C235.213 169.532 235.761 169.429 236.285 169.344C237.575 169.161 238.879 169.1 240.18 169.163C240.527 169.176 240.934 169.163 241.14 168.912C241.346 168.661 241.24 168.181 241.162 167.805C241.002 167.029 241.162 166.215 241.014 165.436C240.763 164.07 239.58 163.023 238.284 162.528C237.079 162.071 234.944 161.546 233.804 162.31C232.601 163.111 231.866 164.449 230.781 165.436Z"
            fill="#3F3D56"/>
        <path
            d="M233.437 119.666C233.673 120.788 234.76 121.647 234.79 122.792C234.818 123.711 234.162 124.482 233.69 125.268C233.245 126.082 232.87 126.932 232.568 127.81C231.679 130.094 230.576 132.288 229.273 134.364C228.645 135.369 227.942 136.441 228.085 137.609C228.185 138.155 228.378 138.68 228.655 139.161L230.539 142.903C230.951 143.65 231.274 144.443 231.501 145.266C231.664 145.976 231.679 146.712 231.774 147.435C232.071 149.731 233.148 152.041 232.51 154.266C232.455 154.457 232.259 154.688 232.106 154.555C232.729 155.718 233.228 156.888 233.181 158.206C233.155 158.897 232.945 159.618 233.198 160.261C233.306 160.529 233.494 160.78 233.492 161.069C233.492 161.26 233.404 161.438 233.384 161.624C233.331 162.154 233.818 162.596 234.323 162.764C234.828 162.933 235.378 162.92 235.888 163.073C236.867 163.367 237.568 164.211 238.399 164.796C239.252 165.383 240.257 165.711 241.292 165.738C241.44 165.753 241.589 165.724 241.719 165.652C241.793 165.588 241.852 165.508 241.893 165.419C241.933 165.33 241.955 165.233 241.955 165.135C242 164.666 241.93 164.193 241.749 163.758C241.569 163.322 241.284 162.938 240.92 162.639C240.761 162.539 240.629 162.401 240.536 162.237C240.489 162.092 240.477 161.938 240.501 161.787C240.653 159.729 240.616 157.661 240.39 155.61C240.289 154.959 240.256 154.3 240.293 153.643C240.345 153.096 240.511 152.553 240.451 152.008C240.39 151.463 240.112 150.966 239.948 150.441C239.657 149.507 239.738 148.503 239.697 147.526C239.647 145.828 239.258 144.161 238.871 142.503C238.718 141.853 238.55 141.172 238.09 140.69C237.698 140.281 237.066 139.889 237.214 139.344C237.296 139.143 237.418 138.961 237.573 138.809C237.755 138.581 237.888 138.318 237.965 138.036C238.042 137.755 238.06 137.461 238.02 137.172C238.185 137.214 238.36 137.197 238.514 137.125C238.668 137.053 238.793 136.929 238.866 136.775C241.925 135.331 244.391 132.443 245.491 129.241C245.556 129.003 245.656 128.776 245.787 128.568C246.071 128.171 246.563 128.001 247 127.782C248.371 127.091 249.318 125.798 250.187 124.532C250.689 123.799 251.192 123.041 251.418 122.177C251.536 121.618 251.593 121.048 251.586 120.477L251.664 117.526C251.681 117.332 251.662 117.136 251.608 116.948C251.534 116.773 251.426 116.614 251.289 116.481C250.454 115.598 249.357 115.006 248.16 114.794C247.357 114.65 246.536 114.678 245.722 114.61C244.145 114.48 242.588 113.99 241.011 114.108C238.532 114.291 236.325 116.009 235.157 118.204C234.748 118.977 234.316 119.65 233.437 119.666Z"
            fill="#464353"/>
        <path
            d="M219.676 100.479C219.71 100.935 219.648 101.392 219.496 101.823C219.302 102.235 218.817 102.556 218.393 102.388C218.521 102.099 218.182 101.77 217.866 101.805C217.71 101.841 217.565 101.914 217.444 102.018C217.323 102.122 217.229 102.254 217.17 102.403C216.96 102.825 216.89 103.302 216.969 103.767C217.07 104.344 217.404 104.899 217.316 105.479C217.245 105.961 216.891 106.441 217.08 106.888C217.202 107.092 217.355 107.276 217.534 107.433C217.782 107.739 217.904 108.128 217.873 108.52C217.843 108.913 217.663 109.279 217.371 109.543L222.122 109.638C221.949 110.432 222.306 111.243 222.712 111.948C223.852 113.888 225.425 115.538 227.309 116.768C229.193 117.998 231.337 118.775 233.571 119.038C233.45 119.108 233.347 119.205 233.268 119.32C233.189 119.436 233.137 119.567 233.115 119.706C233.093 119.844 233.102 119.985 233.141 120.119C233.181 120.254 233.25 120.377 233.343 120.482C233.73 120.866 234.385 120.818 234.87 120.57C235.354 120.321 235.734 119.909 236.176 119.59C236.956 119.037 237.908 118.781 238.86 118.867C239.455 118.925 240.033 119.118 240.631 119.148C242.388 119.241 243.895 117.975 245.588 117.458C246.821 117.079 248.22 117.079 249.254 116.308C249.701 115.976 250.068 115.432 249.937 114.894C249.829 114.585 249.658 114.302 249.435 114.063C248.84 113.292 248.488 112.365 248.061 111.489C247.216 109.754 246.051 108.193 244.629 106.888C243.555 105.95 242.417 105.087 241.223 104.307C240.935 104.094 240.627 103.908 240.304 103.752C239.887 103.568 239.425 103.48 239.048 103.249C238.491 102.898 238.169 102.277 237.74 101.778C236.798 100.678 235.352 100.173 234.192 99.309C233.413 98.7289 232.725 97.9655 231.796 97.6867C231.344 97.5486 230.864 97.5386 230.412 97.403C229.385 97.0916 228.637 96.18 227.63 95.8108C226.834 95.5195 225.955 95.5948 225.118 95.4919C224.176 95.3756 223.275 95.0327 222.494 94.4924C222.242 94.2874 221.96 94.123 221.658 94.0052C220.385 93.6185 220.282 95.9891 220.151 96.8103C219.983 98.0308 219.676 99.2438 219.676 100.479Z"
            fill="#E14B5A"/>
        <path
            d="M220.916 108.43C221.13 110.745 219.382 112.988 219.892 115.256C220 115.738 220.208 116.197 220.283 116.687C220.497 118.031 219.693 119.304 218.927 120.429L212.348 130.085C212.083 130.509 211.768 130.898 211.408 131.245C210.153 132.363 208.264 132.25 206.612 132.581C205.451 132.82 204.355 133.304 203.397 134.002C203.354 134.036 203.326 134.085 203.318 134.139C203.311 134.193 203.325 134.247 203.357 134.291C203.63 134.663 203.991 134.96 204.409 135.156C204.826 135.352 205.285 135.441 205.745 135.414C205.919 135.64 205.745 135.976 205.507 136.14C205.155 136.391 204.668 136.448 204.598 137.049C204.574 137.257 204.616 137.468 204.718 137.651C204.984 138.056 205.396 138.342 205.868 138.45C208.146 139.148 210.607 137.923 212.312 136.258C214.018 134.593 215.241 132.491 216.913 130.798C217.84 129.859 218.892 129.058 219.846 128.149C221.75 126.333 223.232 124.131 224.658 121.923C225.087 121.258 225.522 120.575 225.7 119.804C225.878 119.033 225.796 118.252 225.999 117.506C226.265 116.529 226.981 115.748 227.576 114.929C228.744 113.322 229.525 111.356 229.369 109.374C229.213 107.393 227.988 105.439 226.12 104.766C225.54 104.536 224.902 104.497 224.299 104.655C223.533 104.892 222.968 105.524 222.446 106.132L221.19 107.574C220.884 107.893 220.644 108.269 220.484 108.681C220.403 108.889 220.384 109.115 220.428 109.333C220.473 109.552 220.58 109.752 220.735 109.912"
            fill="#FBBEBE"/>
        <path
            d="M224.25 98.9328C223.387 98.983 222.435 99.0684 221.825 99.6862C221.569 99.9699 221.362 100.294 221.212 100.646C220.619 101.853 220.042 103.117 219.999 104.463C219.964 105.537 220.275 106.59 220.438 107.652C220.574 108.536 220.23 109.438 220.165 110.332C221.237 110.003 222.653 109.556 223.625 109.001C224.288 108.621 224.929 108.189 225.652 107.948C226.684 107.604 228.414 108.199 229.396 108.677C229.449 107.989 228.931 106.788 228.987 106.098C228.994 105.807 229.046 105.519 229.14 105.244C229.287 104.953 229.461 104.676 229.66 104.417C230.034 103.81 230.205 103.099 230.151 102.388C230.096 101.677 229.818 101.001 229.356 100.457C228.484 99.4778 227.121 99.1111 225.82 98.9504C225.001 98.8554 224.175 98.8269 223.351 98.865"
            fill="#E14B5A"/>
    </g>
    <defs>
        <linearGradient gradientUnits="userSpaceOnUse" id="paint0_linear" x1="188.51" x2="188.51" y1="137.162"
                        y2="14.445">
            <stop stop-color="#808080" stop-opacity="0.25"/>
            <stop offset="0.54" stop-color="#808080" stop-opacity="0.12"/>
            <stop offset="1" stop-color="#808080" stop-opacity="0.1"/>
        </linearGradient>
        <clipPath id="clip0">
            <rect fill="white" height="170.414" transform="translate(11.1582)" width="263.58"/>
        </clipPath>
    </defs>
</svg>
