<svg fill="none" height="214" viewBox="0 0 276 214" width="276" xmlns="http://www.w3.org/2000/svg">
    <path
        d="M88.2632 197.913C48.2514 200.198 27.7453 196.199 2.23772 181.347C-8.31701 153.218 21.7123 121.268 24.9962 98.5C27.7812 79.1913 2.69007 68.4523 7.73937 51.6755C18.7426 15.1162 103.768 35.681 186.292 9.97507C260.607 -13.1737 264.815 36.9551 264.815 57.9593C264.815 81.9512 238.216 102.303 259.814 142.503C273.318 167.637 277.712 183.407 259.814 197.913C237.496 216 198.996 215 181.496 211C163.996 207 128.275 195.628 88.2632 197.913Z"
        fill="#D6D9FA"/>
    <path d="M210.496 6H84.4961V175H210.496V6Z" fill="white" fill-opacity="0.8"/>
    <path d="M178.555 35.7188H113.854V36.4457H178.555V35.7188Z" fill="#3F3D56"/>
    <path d="M178.555 40.8066H113.854V41.5336H178.555V40.8066Z" fill="#3F3D56"/>
    <path d="M178.555 45.8955H113.854V46.6225H178.555V45.8955Z" fill="#3F3D56"/>
    <path d="M178.555 73.6162H113.854V74.3432H178.555V73.6162Z" fill="#606CE6"/>
    <path d="M178.555 78.7051H113.854V79.4321H178.555V78.7051Z" fill="#606CE6"/>
    <path d="M178.555 83.7949H113.854V84.5219H178.555V83.7949Z" fill="#3F3D56"/>
    <path d="M178.555 96.6582H113.854V97.3852H178.555V96.6582Z" fill="#3F3D56"/>
    <path d="M178.555 101.748H113.854V102.475H178.555V101.748Z" fill="#3F3D56"/>
    <path d="M178.555 106.836H113.854V107.563H178.555V106.836Z" fill="#3F3D56"/>
    <path d="M178.555 119.701H113.854V120.428H178.555V119.701Z" fill="#3F3D56"/>
    <path d="M178.555 124.791H113.854V125.518H178.555V124.791Z" fill="#606CE6"/>
    <path d="M178.555 129.879H113.854V130.606H178.555V129.879Z" fill="#3F3D56"/>
    <path d="M178.555 142.743H113.854V143.47H178.555V142.743Z" fill="#3F3D56"/>
    <path d="M178.555 147.832H113.854V148.559H178.555V147.832Z" fill="#3F3D56"/>
    <path d="M178.555 152.922H113.854V153.649H178.555V152.922Z" fill="#3F3D56"/>
    <path d="M219.789 181.003H83.6582V0H219.789V181.003ZM84.2646 180.397H219.183V0.606375H84.2646V180.397Z"
          fill="#3F3D56"/>
    <path
        d="M189.621 14.0977C189.622 13.4063 189.804 12.7272 190.15 12.1286C190.496 11.53 190.993 11.0331 191.592 10.6878C190.993 10.3405 190.313 10.1572 189.621 10.1563C188.928 10.1553 188.248 10.3368 187.648 10.6825C187.048 11.0282 186.549 11.5259 186.203 12.1254C185.856 12.725 185.674 13.4052 185.674 14.0977C185.674 14.7902 185.856 15.4704 186.203 16.0699C186.549 16.6695 187.048 17.1671 187.648 17.5128C188.248 17.8585 188.928 18.0401 189.621 18.0391C190.313 18.0382 190.993 17.8548 191.592 17.5075C190.993 17.1623 190.496 16.6654 190.15 16.0668C189.804 15.4682 189.622 14.7891 189.621 14.0977Z"
        fill="#434CA1"/>
    <path
        d="M194.776 14.0977C194.776 13.4063 194.958 12.7272 195.304 12.1286C195.65 11.53 196.147 11.0331 196.746 10.6878C196.147 10.3405 195.467 10.1572 194.775 10.1563C194.082 10.1553 193.402 10.3368 192.802 10.6825C192.202 11.0282 191.704 11.5259 191.357 12.1254C191.011 12.725 190.828 13.4052 190.828 14.0977C190.828 14.7902 191.011 15.4704 191.357 16.0699C191.704 16.6695 192.202 17.1671 192.802 17.5128C193.402 17.8585 194.082 18.0401 194.775 18.0391C195.467 18.0382 196.147 17.8548 196.746 17.5075C196.147 17.1623 195.65 16.6654 195.304 16.0668C194.958 15.4682 194.776 14.7891 194.776 14.0977Z"
        fill="#606CE6"/>
    <path
        d="M199.93 18.0391C202.107 18.0391 203.871 16.2745 203.871 14.0977C203.871 11.9209 202.107 10.1562 199.93 10.1562C197.753 10.1562 195.988 11.9209 195.988 14.0977C195.988 16.2745 197.753 18.0391 199.93 18.0391Z"
        fill="#434CA1"/>
    <path
        d="M196.233 181.321L195.908 181.199C195.836 181.172 188.72 178.445 185.386 172.263C182.052 166.08 183.685 158.636 183.701 158.562L183.778 158.223L184.104 158.345C184.175 158.372 191.291 161.098 194.625 167.281C197.959 173.463 196.327 180.908 196.31 180.982L196.233 181.321ZM185.92 171.975C188.738 177.202 194.362 179.882 195.787 180.494C196.058 178.966 196.908 172.791 194.092 167.568C191.276 162.347 185.65 159.663 184.224 159.05C183.953 160.578 183.104 166.753 185.92 171.975Z"
        fill="#3F3D56"/>
    <path
        d="M187.933 170.094C193.924 173.698 196.231 180.857 196.231 180.857C196.231 180.857 188.825 182.173 182.834 178.568C176.843 174.964 174.535 167.805 174.535 167.805C174.535 167.805 181.941 166.489 187.933 170.094Z"
        fill="#606CE6"/>
    <path
        d="M109.276 48.6622C109.274 54.5819 107.669 60.3906 104.631 65.4711C101.593 70.5517 97.2355 74.7143 92.0212 77.5166C91.6301 77.7288 91.2329 77.932 90.8297 78.126C86.355 80.2936 81.446 81.4154 76.4739 81.4064C71.5018 81.3975 66.5969 80.2581 62.13 78.0745C61.3599 77.6985 60.608 77.2922 59.8743 76.8556C59.1284 76.4191 58.4038 75.9491 57.7004 75.4519C53.0747 72.1996 49.3699 67.805 46.9467 62.6959C44.5235 57.5869 43.4644 51.9374 43.8725 46.2976C44.2807 40.6577 46.1422 35.2196 49.2757 30.5127C52.4093 25.8058 56.7083 21.9904 61.754 19.438C63.7471 18.4249 65.8403 17.6222 67.9997 17.0428C68.9517 16.7851 69.9199 16.5708 70.9042 16.4C72.7626 16.0778 74.6453 15.9165 76.5314 15.918C76.9195 15.918 77.3045 15.924 77.6896 15.9422C77.9715 15.9483 78.2535 15.9604 78.5355 15.9786C81.4831 16.1548 84.3931 16.7311 87.1854 17.6916C87.4249 17.7735 87.6644 17.8584 87.9009 17.9463C88.7256 18.2495 89.5321 18.587 90.3204 18.959C95.9833 21.5872 100.777 25.78 104.135 31.0428C107.494 36.3057 109.277 42.4191 109.276 48.6622Z"
        fill="#606CE6"/>
    <path
        d="M89.312 15.1784C86.3329 8.14927 78.7495 6.82175 78.7495 6.82175C78.7495 6.82175 71.4477 4.87381 65.3498 14.1508C59.6661 22.7977 52.3365 30.8991 61.6319 34.3505L64.0872 29.1939L64.3818 35.1284C65.7334 35.4098 67.0995 35.6172 68.4738 35.7493C78.7841 36.7968 88.5032 38.5383 88.6832 34.8123C88.9225 29.859 92.1785 21.9419 89.312 15.1784Z"
        fill="#2F2E41"/>
    <path
        d="M62.8341 72.4643L62.5916 74.4107L62.1307 78.0733C61.3606 77.6973 60.6087 77.291 59.875 76.8544C59.1292 76.4178 58.4046 75.9479 57.7012 75.4507L57.7739 73.5618L57.8558 71.4668L61.2212 72.1429L62.8341 72.4643Z"
        fill="#FFB8B8"/>
    <path
        d="M96.7098 74.4541C95.2376 75.6067 93.6694 76.6312 92.0225 77.5163L90.4338 72.0135L90.2246 71.2889L89.7031 69.4788L90.264 69.3909L96.0064 68.4844L96.1914 70.0458L96.7098 74.4541Z"
        fill="#FFB8B8"/>
    <path
        d="M78.7552 29.6715C83.7017 29.6715 87.7116 25.6616 87.7116 20.7152C87.7116 15.7687 83.7017 11.7588 78.7552 11.7588C73.8087 11.7588 69.7988 15.7687 69.7988 20.7152C69.7988 25.6616 73.8087 29.6715 78.7552 29.6715Z"
        fill="#FFB8B8"/>
    <path
        d="M72.6214 24.1982C72.6214 24.1982 73.2848 35.4766 71.2945 36.1401C69.3042 36.8035 81.5777 36.1401 81.5777 36.1401C81.5777 36.1401 79.9191 29.174 81.5777 27.1837C83.2363 25.1934 72.6214 24.1982 72.6214 24.1982Z"
        fill="#FFB8B8"/>
    <path
        d="M81.7421 34.3163C81.7421 34.3163 73.1175 33.6529 71.4589 34.3163C69.8003 34.9798 65.1562 38.297 65.1562 38.297L67.4783 59.1952L86.3862 63.1758L89.3716 58.8634L92.3571 52.5608L91.0302 44.5996L90.6985 39.9555L81.7421 34.3163Z"
        fill="#D0CDE1"/>
    <path
        d="M63.4979 39.623C63.4979 39.623 59.1856 40.6182 58.8539 43.9354C58.5222 47.2526 58.5222 55.5455 58.8539 56.8724C59.1856 58.1992 58.8539 58.8627 58.5222 59.1944C58.1905 59.5261 57.527 58.8627 58.1905 59.8578C58.8539 60.853 58.8539 60.853 58.5222 61.8481C58.1905 62.8433 57.1953 61.5164 57.8587 63.175C58.5222 64.8336 58.8539 65.1653 58.5222 65.497C58.1905 65.8287 57.1953 73.4582 57.1953 73.4582L62.8345 74.4534L68.4737 54.8821L63.4979 39.623Z"
        fill="#D0CDE1"/>
    <path
        d="M89.3709 39.623C90.0008 39.6582 90.6099 39.8613 91.1349 40.2113C91.6598 40.5613 92.0816 41.0454 92.3563 41.6134C93.3515 43.6037 96.0052 56.5406 95.6735 57.5358C95.3418 58.531 94.6783 57.2041 95.3418 59.1944C96.0052 61.1847 95.3418 60.853 95.6735 62.1798C96.0052 63.5067 94.3466 62.1798 95.6735 63.5067C97.0004 64.8336 97.6638 65.1653 97.0004 65.8287C96.3369 66.4922 95.3418 65.1653 96.3369 66.4922C97.3321 67.819 97.3321 69.8093 97.3321 69.8093L89.3709 71.4679L87.0488 52.8918L89.3709 39.623Z"
        fill="#D0CDE1"/>
    <path
        d="M90.4352 72.0132L90.8324 78.1255C86.3577 80.2931 81.4487 81.4148 76.4766 81.4059C71.5045 81.397 66.5996 80.2576 62.1327 78.0739C61.3626 77.698 60.6107 77.2917 59.877 76.8551C60.1316 75.9183 60.3893 74.9844 60.6531 74.0688C60.8411 73.417 61.0311 72.7752 61.2231 72.1436C62.7118 67.2714 64.3156 63.1268 65.8194 61.5169C65.8194 61.5169 65.8194 57.8695 66.4834 57.536C66.8026 57.2859 67.0461 56.9521 67.1868 56.5719C67.434 56.0241 67.6427 55.4598 67.8114 54.8831L66.7138 52.3303L61.8022 40.894C61.6624 40.5669 61.6526 40.1988 61.7749 39.8647C61.8971 39.5306 62.1422 39.2557 62.4601 39.0961L64.0882 38.2806C64.2532 38.1987 64.4327 38.1502 64.6164 38.1379C64.8002 38.1256 64.9845 38.1497 65.1589 38.2089C65.3333 38.268 65.4943 38.3611 65.6326 38.4826C65.7709 38.6042 65.8839 38.7519 65.965 38.9173L73.4507 54.2191L81.7428 59.5279L87.558 56.9418L87.7126 56.872C87.7126 56.872 92.027 50.2383 90.699 46.9214C90.132 45.5055 89.5075 43.6136 88.9708 41.9067C88.6585 40.9001 88.3796 39.9572 88.1613 39.2174C88.1269 39.0999 88.1295 38.9747 88.1688 38.8587C88.208 38.7427 88.2819 38.6416 88.3806 38.5691C88.4793 38.4966 88.5978 38.4562 88.7202 38.4534C88.8426 38.4506 88.9629 38.4855 89.0648 38.5534L90.1957 39.3084C90.452 39.4803 90.6548 39.7209 90.7809 40.0027C90.8332 40.1127 90.8719 40.2288 90.8961 40.3483L93.3519 52.2302L90.035 59.1944V65.8282L90.2654 69.3906L90.3867 71.2552L90.4352 72.0132Z"
        fill="#2F2E41"/>
    <path
        d="M87.6279 12.6244L80.0279 8.64355L69.5328 10.272L67.3613 19.8624L72.7666 19.6547L74.2767 16.1311V19.5965L76.7708 19.5007L78.2185 13.8911L79.1232 19.8624L87.9899 19.6817L87.6279 12.6244Z"
        fill="#2F2E41"/>
    <path
        d="M69.6338 22.4576C70.1834 22.4576 70.629 21.6779 70.629 20.7161C70.629 19.7543 70.1834 18.9746 69.6338 18.9746C69.0842 18.9746 68.6387 19.7543 68.6387 20.7161C68.6387 21.6779 69.0842 22.4576 69.6338 22.4576Z"
        fill="#FFB8B8"/>
    <path
        d="M268.023 102.951C268.023 117.484 258.206 129.783 244.678 133.899C242.681 134.511 240.63 134.933 238.554 135.16C237.286 135.302 236.011 135.373 234.735 135.373C234.26 135.373 233.789 135.364 233.32 135.34H233.314C228.555 135.155 223.889 133.964 219.623 131.846C216.626 130.357 213.871 128.426 211.449 126.118C208.294 123.139 205.78 119.549 204.06 115.565C202.341 111.582 201.452 107.29 201.447 102.951C201.447 89.2109 210.222 77.467 222.613 72.7478C224.095 72.181 225.617 71.7215 227.165 71.3729C232.871 70.0836 238.811 70.2748 244.422 71.9282C244.848 72.0483 245.27 72.1834 245.686 72.3275C245.689 72.3275 245.692 72.3305 245.695 72.3305C246.696 72.6671 247.68 73.0538 248.642 73.4893C248.972 73.6334 249.301 73.7865 249.625 73.9486C250.272 74.2608 250.907 74.5961 251.53 74.9543C251.77 75.0894 252.008 75.2275 252.242 75.3716C256.066 77.6727 259.384 80.724 261.997 84.3416C264.374 87.6307 266.1 91.3438 267.083 95.281C267.71 97.7894 268.025 100.366 268.023 102.951Z"
        fill="#606CE6"/>
    <path
        d="M270.648 50.3552L275.205 48.9714L275.598 45.0624C275.598 45.0624 264.515 40.9846 260.972 48.1975C259.72 50.7442 258.144 52.2737 256.627 53.1868C255.58 53.7923 254.412 54.1588 253.207 54.2599C252.002 54.361 250.789 54.1942 249.656 53.7715C241.975 51.0392 240.166 58.8094 240.166 58.8094C240.166 58.8094 240.83 59.9154 245.565 60.1874C247.921 60.3228 249.85 62.0499 251.192 63.7509C254.067 67.3935 259.972 66.3408 261.422 61.9689C261.445 61.8984 261.468 61.827 261.491 61.7548C263.756 54.5278 274.068 60.2819 274.068 60.2819L274.726 53.7361L270.648 50.3552Z"
        fill="#2F2E41"/>
    <path
        d="M239.601 68.045C242.683 68.045 245.182 65.6112 245.182 62.6089C245.182 59.6067 242.683 57.1729 239.601 57.1729C236.518 57.1729 234.02 59.6067 234.02 62.6089C234.02 65.6112 236.518 68.045 239.601 68.045Z"
        fill="#2F2E41"/>
    <path
        d="M236.809 91.6009C245.029 91.6009 251.693 85.1107 251.693 77.1046C251.693 69.0986 245.029 62.6084 236.809 62.6084C228.589 62.6084 221.926 69.0986 221.926 77.1046C221.926 85.1107 228.589 91.6009 236.809 91.6009Z"
        fill="#2F2E41"/>
    <path
        d="M236.344 92.3561C241.995 92.3561 246.576 87.8941 246.576 82.39C246.576 76.8858 241.995 72.4238 236.344 72.4238C230.693 72.4238 226.111 76.8858 226.111 82.39C226.111 87.8941 230.693 92.3561 236.344 92.3561Z"
        fill="#A0616A"/>
    <path
        d="M232.312 89.9404L234.173 99.6046L243.475 98.3966C243.475 98.3966 241.925 90.8465 242.855 88.7324L232.312 89.9404Z"
        fill="#A0616A"/>
    <path
        d="M250.607 68.8005C250.607 68.8005 243.166 63.3644 240.065 65.4784C236.964 67.5925 248.437 74.5386 249.677 73.9346C250.917 73.3306 250.607 68.8005 250.607 68.8005Z"
        fill="#A0616A"/>
    <path
        d="M257.74 109.872C257.74 109.922 257.738 109.972 257.733 110.022V110.025C257.542 114.342 249.384 127.554 244.677 133.9C242.68 134.512 240.629 134.934 238.553 135.161C237.285 135.303 236.01 135.374 234.734 135.374C234.259 135.374 233.788 135.365 233.319 135.341H233.313C228.98 133.978 223.832 132.189 220.078 130.778C218.309 130.109 216.848 129.526 215.93 129.112C215.588 128.972 215.259 128.8 214.949 128.599C213.399 127.389 216.811 126.482 218.361 126.182C219.912 125.879 217.742 122.558 217.742 122.558C212.16 116.819 218.981 111.988 218.981 111.988C218.981 111.988 221.77 106.248 221.77 104.738C221.778 104.626 221.82 104.519 221.89 104.432C223.059 102.823 232.314 99.9082 232.314 99.9082V95.075L233.273 94.9188L242.705 93.3878L243.475 93.2617L245.025 95.6783L251.849 96.585C251.849 96.585 257.74 104.438 257.74 109.872Z"
        fill="#D0CDE1"/>
    <path
        d="M228.282 109.871C228.282 109.871 224.195 120.906 220.463 129.849C220.333 130.162 220.204 130.471 220.077 130.777C219.923 131.137 219.772 131.495 219.621 131.846C216.625 130.357 213.869 128.427 211.447 126.118C213.124 120.807 215.784 112.369 216.81 108.967C217.941 105.218 220.558 104.53 221.89 104.431C222.16 104.406 222.431 104.408 222.7 104.437L228.282 109.871Z"
        fill="#D0CDE1"/>
    <path
        d="M250.919 97.4904L251.849 96.5844C251.849 96.5844 263.632 84.2022 263.322 81.1821C263.322 81.1821 257.12 73.632 249.369 75.746C249.369 75.746 245.958 67.5919 251.229 67.8939C256.5 68.1959 276.035 66.9879 275.725 75.746C275.414 84.5042 256.81 111.383 256.81 111.383L250.919 97.4904Z"
        fill="#D0CDE1"/>
    <path
        d="M238.553 135.16C237.285 135.302 236.011 135.374 234.735 135.373C234.26 135.373 233.788 135.364 233.32 135.34H233.314C228.554 135.155 223.888 133.964 219.623 131.846C218.266 131.173 216.957 130.407 215.705 129.555L215.93 129.111V129.108L216.192 128.598L220.464 129.85L238.553 135.16Z"
        fill="#2F2E41"/>
    <path
        d="M246.529 77.8003C247.6 74.4558 244.116 70.3514 238.748 68.6329C233.379 66.9143 228.16 68.2325 227.089 71.577C226.018 74.9215 229.502 79.0259 234.87 80.7445C240.239 82.463 245.458 81.1448 246.529 77.8003Z"
        fill="#2F2E41"/>
    <path
        d="M6.4961 171.756C6.4955 173.439 6.62321 175.119 6.87811 176.783C8.10349 184.642 12.1443 191.787 18.2476 196.887C18.4144 197.027 18.5842 197.166 18.757 197.303C19.1148 197.591 19.4786 197.871 19.8485 198.142C20.3821 198.537 20.9278 198.913 21.4857 199.273C25.8713 202.099 30.8678 203.838 36.0601 204.345C41.2525 204.852 46.491 204.113 51.3406 202.19C51.571 202.099 51.8014 202.005 52.0288 201.908C52.3926 201.753 52.7504 201.593 53.1081 201.423C54.0147 201.001 54.899 200.538 55.761 200.031C56.6494 199.513 57.5084 198.955 58.3381 198.358C58.7171 198.085 59.084 197.809 59.4508 197.521L59.4569 197.518C64.308 193.708 67.9877 188.609 70.0745 182.804V182.801C72.5686 175.818 72.6217 168.195 70.2253 161.178C67.8288 154.16 63.1243 148.162 56.8798 144.163C56.5918 143.981 56.3007 143.799 56.0066 143.629C55.7034 143.441 55.3942 143.265 55.0819 143.096C50.8791 140.763 46.2108 139.393 41.4142 139.084C40.6957 139.036 39.971 139.012 39.2404 139.012C39.204 139.012 39.1676 139.012 39.1312 139.015C38.1489 139.015 37.1787 139.06 36.2206 139.151C28.0938 139.904 20.5409 143.664 15.0424 149.696C9.54379 155.727 6.49592 163.594 6.4961 171.756Z"
        fill="#434CA1"/>
    <path
        d="M72.9902 183.001C72.9902 183.001 82.5535 173.119 85.1037 179.175C87.6539 185.232 75.5404 188.42 75.5404 188.42L72.9902 183.001Z"
        fill="#FFB8B8"/>
    <path
        d="M18.7578 197.303C19.1156 197.591 19.4794 197.871 19.8493 198.143C20.3829 198.537 20.9286 198.914 21.4865 199.273C25.8721 202.099 30.8686 203.838 36.0609 204.345C41.2533 204.852 46.4918 204.114 51.3414 202.19C51.5718 202.099 51.8022 202.005 52.0296 201.908C52.3934 201.754 52.7512 201.593 53.109 201.423L52.2691 200.216C51.6602 199.646 50.9781 199.16 50.2408 198.77C44.4954 195.65 33.6747 195.747 26.3527 196.26C25.3097 196.333 24.3395 196.414 23.4663 196.496C22.9206 196.545 22.4112 196.596 21.9474 196.645C21.7594 196.666 21.5805 196.684 21.4107 196.702C19.7765 196.884 18.7972 197.027 18.7972 197.027L18.7578 197.303Z"
        fill="#2F2E41"/>
    <path
        d="M46.858 153.1C51.9174 153.1 56.0188 148.998 56.0188 143.939C56.0188 138.88 51.9174 134.778 46.858 134.778C41.7987 134.778 37.6973 138.88 37.6973 143.939C37.6973 148.998 41.7987 153.1 46.858 153.1Z"
        fill="#FFB8B8"/>
    <path
        d="M40.7925 146.979L34.0982 153.992L32.1855 164.83L49.0807 167.699L47.8056 157.817C47.8056 157.817 48.1243 153.035 49.3994 152.079C50.6746 151.123 40.7925 146.979 40.7925 146.979Z"
        fill="#FFB8B8"/>
    <path
        d="M21.0273 197.985C21.5862 197.805 22.1539 197.654 22.7282 197.533C24.1735 197.219 25.6435 197.031 27.1214 196.972C30.6189 196.788 34.1083 197.463 37.2843 198.94C41.9291 201.168 47.441 201.775 51.2309 201.89C51.5068 201.899 51.7736 201.905 52.0283 201.908C52.3921 201.753 52.7499 201.593 53.1076 201.423C54.0141 201.001 54.8984 200.538 55.7605 200.031L55.7484 198.909L55.5483 176.716V176.713L55.4543 166.105L49.3996 159.092L47.8443 157.339L47.1045 158.003L42.7053 161.963L36.2928 156.024L34.0978 153.992L23.5681 189.438L22.2098 194.01L21.4094 196.702L21.2851 197.115V197.118L21.0273 197.985Z"
        fill="#575A89"/>
    <path
        d="M45.4913 167.09C45.5066 168.682 45.6403 170.272 45.8915 171.844C46.983 178.814 47.9198 190.402 50.2392 198.77C50.5424 199.874 50.8729 200.917 51.2306 201.89L51.3398 202.19C51.5702 202.099 51.8006 202.005 52.028 201.908C52.3918 201.754 52.7496 201.593 53.1073 201.423C54.0139 201.002 54.8982 200.538 55.7602 200.031C56.6486 199.513 57.5076 198.955 58.3373 198.358L58.2403 197.976V197.973L56.7304 191.927C56.7304 191.927 57.7006 186.867 58.4768 181.207V181.203C59.3682 174.724 60.0049 167.466 58.6436 166.105L47.9623 156.333L47.9592 156.336C47.6264 156.866 47.3404 157.424 47.1042 158.004C46.3766 159.729 45.4549 162.773 45.4913 167.09Z"
        fill="#D0CDE1"/>
    <path
        d="M12.2598 190.311C13.9474 192.765 15.962 194.978 18.2477 196.887C18.4145 197.027 18.5843 197.166 18.7571 197.303C19.1148 197.591 19.4787 197.871 19.8485 198.142C20.3822 198.537 20.9279 198.914 21.4858 199.273C21.8981 198.7 22.3135 198.118 22.7288 197.533C22.9744 197.19 23.22 196.845 23.4656 196.496C23.8537 195.944 24.2418 195.389 24.6238 194.832C24.6723 194.765 24.7177 194.698 24.7632 194.632C25.2483 193.931 25.7274 193.228 26.1943 192.527C29.6385 187.382 32.4945 182.443 32.8219 179.493C33.2161 175.961 34.0135 170.498 34.823 165.28C35.3445 161.89 35.872 158.604 36.2934 156.024C36.8028 152.889 37.1545 150.791 37.1545 150.791C37.1545 150.791 20.4489 149.12 18.1083 150.76H18.1052C18.038 150.799 17.9798 150.851 17.9343 150.914C17.8889 150.977 17.8572 151.048 17.8414 151.124C17.5868 152.901 18.9511 169.412 19.515 176.082V176.086C19.6606 177.796 19.7546 178.857 19.7546 178.857C19.7546 178.857 18.7995 180.133 17.3988 182.18C15.9708 184.269 14.0759 187.158 12.2598 190.311Z"
        fill="#D0CDE1"/>
    <path
        d="M57.6864 175.031L59.2803 187.464L73.3065 181.407L77.7693 190.651L54.8174 199.258C54.8174 199.258 50.6734 177.263 57.6864 175.031Z"
        fill="#D0CDE1"/>
    <path
        d="M56.0095 145.616C56.0095 145.616 57.2544 144.271 57.1284 142.588C57.0453 141.631 57.1066 140.667 57.31 139.728C57.31 139.728 56.9204 136.973 56.3451 135.377C55.7698 133.78 56.2548 133.224 53.7818 132.353C51.3088 131.481 52.8832 128.329 45.5921 130.841C45.3148 131.122 44.9607 131.313 44.5747 131.392C44.1886 131.471 43.7877 131.434 43.4228 131.285C42.0767 130.792 41.2655 132.642 41.2655 132.642C41.2655 132.642 40.4259 131.953 39.9547 132.669C39.4836 133.385 37.2049 131.753 36.3694 136.963C35.5338 142.173 38.4023 146.82 38.4023 146.82C38.4023 146.82 38.8048 138.482 43.5399 138.331C48.275 138.18 53.6298 136.386 54.294 139.897C54.6411 141.864 55.2168 143.783 56.0095 145.616Z"
        fill="#2F2E41"/>
    <path
        d="M18.2461 196.888C18.4128 197.027 18.5826 197.167 18.7555 197.303C19.1132 197.591 19.477 197.871 19.8469 198.143C20.3805 198.537 20.9263 198.914 21.4841 199.274C24.1704 201.012 27.0984 202.344 30.1735 203.228C30.9254 201.299 29.1245 198.901 27.1204 196.973C26.8657 196.727 26.605 196.488 26.3503 196.26C25.7439 195.724 25.1467 195.239 24.6221 194.832C24.5979 194.814 24.5767 194.799 24.5554 194.781C23.564 194.017 22.8455 193.547 22.8455 193.547L22.2088 194.011L18.2461 196.888Z"
        fill="#FFB8B8"/>
    <path
        d="M6.87891 176.784C8.10429 184.643 12.1451 191.788 18.2484 196.888C18.4152 197.028 18.585 197.167 18.7578 197.303C19.1156 197.591 19.4794 197.871 19.8493 198.143L21.2864 197.118V197.115L21.9473 196.646L24.5578 194.781L24.7639 194.632L26.768 193.201L26.195 192.528L23.5694 189.439L17.3995 182.18L15.9291 180.452L19.5158 176.086V176.083L23.2601 171.526L20.0736 151.125C19.4702 150.809 18.7855 150.682 18.109 150.761H18.1059C17.3844 150.885 16.6476 151.383 16.2474 152.717C15.5228 155.133 9.67126 169.816 6.87891 176.784Z"
        fill="#D0CDE1"/>
</svg>
