<svg width="28" height="28" viewBox="0 0 28 28" fill="none" xmlns="http://www.w3.org/2000/svg">
<g clip-path="url(#clip0)">
<path d="M0.442385 6.94141H27.5754C27.8187 6.94141 28.0178 7.14047 28.0178 7.38379V12.6629C28.0178 12.9062 27.8187 13.1053 27.5754 13.1053H0.442385C0.199067 13.1053 0 12.9062 0 12.6629V7.38379C0 7.14047 0.199067 6.94141 0.442385 6.94141Z" fill="#FF505D"/>
<path d="M3.52062 13.1052H24.4971C24.6593 13.1052 24.792 13.238 24.792 13.4002V26.3695C24.792 26.5316 24.6593 26.6644 24.4971 26.6644H3.52062C3.35841 26.6644 3.22571 26.5316 3.22571 26.3695V13.4002C3.22571 13.238 3.35841 13.1052 3.52062 13.1052Z" fill="#FF6174"/>
<path d="M6.39246 5.30813C6.39246 5.30813 3.17778 4.68876 2.53632 4.46758L3.67178 6.10071L1.62207 6.91545C1.62207 6.91545 6.41826 7.80391 11.5868 7.0371L9.09839 5.90901L6.39246 5.30813ZM8.70394 1.4188C7.07079 1.12757 6.29293 1.69529 6.29293 1.69529L5.84683 4.51549C5.84683 4.51549 7.00072 3.73026 8.36841 4.06942C10.149 4.5155 12.3757 7.03713 12.3757 7.03713V5.10904C12.3757 5.10904 10.9158 1.81325 8.70389 1.4188H8.70394ZM24.4787 6.10071L25.6178 4.46758C24.9764 4.68876 21.7617 5.3081 21.7617 5.3081L19.0558 5.90901L16.5673 7.04079C21.7359 7.80757 26.5321 6.91545 26.5321 6.91545L24.4787 6.10071ZM22.3036 4.51549L21.8613 1.69897C21.8613 1.69897 21.0834 1.13126 19.4502 1.42251C17.2383 1.81696 15.7784 5.11272 15.7784 5.11272V7.04081C15.7784 7.04081 18.0014 4.51918 19.782 4.07311C21.146 3.73028 22.3036 4.51549 22.3036 4.51549Z" fill="#FFCA3E"/>
<path d="M12.1656 4.83618H15.8522V26.6643H12.1656V4.83618Z" fill="#FFCA3E"/>
<path d="M12.1657 13.2085H15.8522V26.6645H12.1657V13.2085ZM9.5777 4.50094C7.97037 3.57189 6.06073 3.88529 5.8506 4.51934C5.61834 5.21613 6.75749 5.95711 8.40538 6.81977C9.48922 7.38749 12.3795 7.04095 12.3795 7.04095C12.3795 7.04095 11.185 5.42625 9.5777 4.50091V4.50094ZM22.3037 4.51566C22.0935 3.88158 20.1839 3.56823 18.5766 4.49723C16.9693 5.42623 15.7748 7.03726 15.7748 7.03726C15.7748 7.03726 18.6687 7.3838 19.7489 6.81608C21.3968 5.95711 22.5359 5.21242 22.3036 4.51566H22.3037Z" fill="#FFB82C"/>
</g>
<defs>
<clipPath id="clip0">
<rect width="28" height="28" fill="white"/>
</clipPath>
</defs>
</svg>
