<svg fill="none" height="22" viewBox="0 0 74 22" width="74" xmlns="http://www.w3.org/2000/svg">
    <path
        d="M3.88059 0.598401C2.36859 1.23118 0.705992 3.01676 0.181223 5.26264C-0.484568 8.1057 2.28345 9.30636 2.50965 8.91467C2.77573 8.45005 2.01203 8.29411 1.85608 6.81991C1.65546 4.91354 2.53943 2.78365 3.65495 1.84907C3.86303 1.67824 3.85293 1.91932 3.85293 2.36374C3.85293 3.16525 3.80823 10.3362 3.80823 11.8333C3.80823 13.8599 3.7252 14.498 3.57193 15.1282C3.42133 15.769 3.17756 16.2011 3.36117 16.3693C3.56925 16.555 4.45326 16.1127 4.96578 15.3975C5.57888 14.5406 5.79494 13.5108 5.83486 12.3931C5.88012 11.0472 5.87745 8.90721 5.88012 7.68899C5.88012 6.56868 5.89768 3.29349 5.86256 1.32167C5.85242 0.839491 4.51126 0.33444 3.88059 0.598401V0.598401ZM73.5906 11.2378C73.3746 11.2378 73.2719 11.4639 73.1889 11.8434C72.9025 13.167 72.6013 13.4656 72.2117 13.4656C71.7774 13.4656 71.3879 12.8104 71.2851 11.499C71.2075 10.4692 71.2197 8.57032 71.3203 6.68152C71.3405 6.29462 71.2346 5.91087 70.1946 5.53144C69.7455 5.3707 69.0946 5.12961 68.771 5.91303C67.854 8.12115 67.4974 9.87903 67.4117 10.59C67.4097 10.6273 67.3644 10.6326 67.3564 10.5475C67.3042 9.97694 67.1834 8.93966 67.1685 6.75924C67.1632 6.33773 67.0754 5.97314 66.6033 5.67673C66.2994 5.48617 65.375 5.14449 65.0407 5.549C64.7544 5.88054 64.4207 6.76985 64.0716 7.8247C63.7901 8.68368 63.5942 9.26645 63.5942 9.26645C63.5942 9.26645 63.5962 6.95027 63.6017 6.07109C63.6017 5.73952 63.3755 5.62935 63.3079 5.60911C62.9987 5.51866 62.3882 5.37069 62.1323 5.37069C61.8135 5.37069 61.7379 5.549 61.7379 5.80765C61.7379 5.8401 61.6852 8.854 61.6852 10.9615V11.2579C61.5117 12.2277 60.9396 13.5438 60.319 13.5438C59.6985 13.5438 59.4047 12.9935 59.4047 10.482C59.4047 9.01737 59.4499 8.3798 59.4702 7.31965C59.4824 6.70918 59.5074 6.23977 59.5053 6.13176C59.5 5.80765 58.9347 5.6416 58.6735 5.58145C58.41 5.51866 58.1811 5.49843 58.0007 5.50589C57.7495 5.5213 57.5712 5.68683 57.5712 5.91834V6.26959C57.2471 5.7576 56.7218 5.40051 56.3706 5.29777C55.4312 5.01892 54.4488 5.26743 53.708 6.30204C53.1204 7.12646 52.766 8.05781 52.6281 9.39685C52.5249 10.3766 52.5578 11.3687 52.7409 12.2074C52.5201 13.1542 52.1129 13.5438 51.6685 13.5438C51.0203 13.5438 50.5536 12.4884 50.6063 10.6624C50.6441 9.46231 50.8825 8.62089 51.1459 7.4C51.2593 6.88002 51.1661 6.60915 50.9378 6.34515C50.7292 6.10885 50.2821 5.98591 49.6419 6.13388C49.1869 6.24193 48.5317 6.35741 47.9362 6.44574C47.9362 6.44574 47.9713 6.30204 48.0016 6.04874C48.1549 4.71979 46.7105 4.82785 46.2507 5.25255C45.9745 5.50589 45.7861 5.80498 45.7158 6.34252C45.603 7.19671 46.2986 7.5985 46.2986 7.5985C46.0703 8.64325 45.5125 10.0094 44.9324 10.9967C44.6232 11.5267 44.3869 11.9163 44.0809 12.333C44.0781 12.1798 44.0781 12.0238 44.0781 11.8711C44.0728 9.67306 44.1004 7.94285 44.1132 7.31965C44.126 6.70918 44.151 6.25203 44.151 6.14398C44.1457 5.90768 44.0078 5.81507 43.7162 5.70439C43.4602 5.60432 43.1563 5.53144 42.8423 5.50589C42.4479 5.47607 42.2068 5.68683 42.2143 5.93538V6.26959C41.8881 5.7576 41.3628 5.40051 41.0163 5.29777C40.0743 5.01892 39.0924 5.26743 38.3516 6.30204C37.7661 7.12646 37.3792 8.27922 37.2685 9.38408C37.1685 10.4192 37.186 11.2931 37.3265 12.0318C37.1759 12.7699 36.7464 13.5438 36.2594 13.5438C35.6389 13.5438 35.2844 12.9935 35.2844 10.482C35.2844 9.01737 35.3297 8.3798 35.3525 7.31965C35.3648 6.70918 35.3877 6.23977 35.385 6.13176C35.3824 5.80765 34.8177 5.6416 34.5537 5.58145C34.2802 5.51651 34.0412 5.49631 33.8603 5.50589C33.6192 5.52609 33.451 5.73951 33.451 5.90289V6.26959C33.1247 5.7576 32.5994 5.40051 32.2503 5.29777C31.311 5.01892 30.3365 5.27278 29.5903 6.30204C29.1034 6.97318 28.709 7.7188 28.5057 9.37182C28.4503 9.84921 28.4227 10.2957 28.4254 10.713C28.2316 11.8982 27.3753 13.2649 26.6771 13.2649C26.2651 13.2649 25.8734 12.4709 25.8734 10.7758C25.8734 8.52031 26.0139 5.30523 26.0389 4.99389C26.0389 4.99389 26.9229 4.97845 27.0964 4.97633C27.536 4.97366 27.9378 4.98379 28.5233 4.95346C28.8197 4.93853 29.1034 3.88105 28.7968 3.74801C28.6611 3.68997 27.6866 3.63729 27.2997 3.62986C26.9735 3.6224 26.0714 3.55482 26.0714 3.55482C26.0714 3.55482 26.1523 1.42226 26.1699 1.19873C26.1847 1.00765 25.9437 0.912417 25.8032 0.854379C25.4636 0.709087 25.1597 0.640991 24.8031 0.568066C24.3034 0.465363 24.0799 0.56595 24.0373 0.984783C23.9718 1.62076 23.9367 3.48457 23.9367 3.48457C23.57 3.48457 22.3268 3.41113 21.9622 3.41113C21.6238 3.41113 21.2565 4.86828 21.7265 4.88584C22.2666 4.90608 23.2033 4.92632 23.826 4.94332C23.826 4.94332 23.7984 8.2116 23.7984 9.21855V9.52989C23.4545 11.3154 22.2512 12.2803 22.2512 12.2803C22.5099 11.0972 21.9824 10.2106 21.0282 9.46231C20.6764 9.18342 19.9835 8.65813 19.207 8.08814C19.207 8.08814 19.6567 7.64376 20.0559 6.75445C20.3374 6.12378 20.3502 5.39836 19.6567 5.23977C18.5114 4.97633 17.5694 5.81775 17.2857 6.71665C17.0696 7.4101 17.183 7.9274 17.612 8.46227L17.7099 8.58309C17.4539 9.08016 17.0973 9.75074 16.7982 10.2707C15.9621 11.7151 15.3315 12.8556 14.8567 12.8556C14.4751 12.8556 14.4799 11.6976 14.4799 10.6124C14.4799 9.67785 14.5502 8.26908 14.6055 6.81244C14.6231 6.33238 14.382 6.05616 13.9781 5.80765C13.7317 5.65701 13.209 5.3606 12.9051 5.3606C12.4533 5.3606 11.1419 5.42071 9.904 8.99981C9.74809 9.45217 9.44154 10.2734 9.44154 10.2734L9.4692 5.96835C9.4692 5.86776 9.41652 5.77252 9.29358 5.70439C9.08494 5.59155 8.52508 5.3606 8.03276 5.3606C7.79383 5.3606 7.67568 5.47128 7.67568 5.6895L7.63576 12.4208C7.63576 12.9334 7.64798 13.531 7.69855 13.7923C7.74857 14.0536 7.83159 14.2671 7.93218 14.3948C8.03276 14.5182 8.1504 14.6135 8.34147 14.6561C8.51973 14.6939 9.50165 14.8168 9.55223 14.4427C9.61501 13.993 9.61717 13.5087 10.1323 11.6928C10.936 8.86941 11.9812 7.49312 12.4735 7.00296C12.5613 6.91782 12.6593 6.91251 12.6539 7.05353C12.6316 7.67354 12.5587 9.21855 12.5087 10.532C12.3756 14.051 13.0132 14.7013 13.9302 14.7013C14.6284 14.7013 15.613 14.0057 16.6705 12.2479C17.331 11.1499 17.9691 10.0775 18.431 9.30157C18.7477 9.59746 19.1091 9.91679 19.4683 10.2585C20.3049 11.0494 20.5785 11.803 20.3954 12.5166C20.2571 13.0637 19.7323 13.6263 18.8004 13.0792C18.5289 12.9206 18.4135 12.7976 18.1399 12.6167C17.9941 12.5188 17.7679 12.4911 17.6348 12.5917C17.2831 12.8556 17.0846 13.1893 16.969 13.6039C16.861 14.0084 17.2655 14.2192 17.6849 14.4049C18.0441 14.5683 18.8179 14.7114 19.3124 14.729C21.239 14.7945 22.7813 13.7998 23.8537 11.2378C24.0474 13.4507 24.8633 14.704 26.2827 14.704C27.2343 14.704 28.1864 13.4757 28.6036 12.2676C28.7213 12.7598 28.8996 13.1867 29.1284 13.5513C30.2237 15.2841 32.3483 14.9126 33.4132 13.4405C33.7447 12.9834 33.7953 12.82 33.7953 12.82C33.9507 14.2096 35.071 14.6987 35.7118 14.6987C36.4324 14.6987 37.1711 14.3575 37.6905 13.1867C37.7533 13.315 37.8188 13.4357 37.8944 13.5513C38.987 15.2841 41.1115 14.9126 42.1792 13.4405C42.2271 13.3676 42.2723 13.3075 42.3096 13.2495L42.3426 14.1638C42.3426 14.1638 41.7321 14.7216 41.358 15.0654C39.7129 16.5752 38.4617 17.7205 38.3691 19.0516C38.2536 20.752 39.6299 21.3827 40.6746 21.4651C41.78 21.5535 42.7295 20.943 43.3117 20.0841C43.8242 19.3305 44.1611 17.7104 44.1361 16.108C44.126 15.465 44.1106 14.6513 44.0957 13.7748C44.6758 13.1068 45.3288 12.2574 45.927 11.2633C46.5821 10.1829 47.2804 8.72839 47.637 7.59586C47.637 7.59586 48.2474 7.60117 48.8956 7.56074C49.1043 7.54796 49.1644 7.59107 49.124 7.74167C49.0787 7.92477 48.3054 10.9115 49.0111 12.9009C49.496 14.2617 50.5833 14.7013 51.2315 14.7013C51.9872 14.7013 52.711 14.1287 53.0974 13.2798C53.1453 13.3729 53.1932 13.4656 53.2485 13.5513C54.3412 15.2841 56.4583 14.91 57.5334 13.4405C57.7771 13.1068 57.9128 12.82 57.9128 12.82C58.1438 14.2596 59.2641 14.704 59.9043 14.704C60.5749 14.704 61.2077 14.4304 61.7229 13.2144C61.7431 13.7498 61.7756 14.1867 61.8309 14.3245C61.8634 14.4102 62.0545 14.5156 62.1902 14.5683C62.8027 14.7945 63.426 14.6864 63.6543 14.6386C63.815 14.6061 63.9406 14.4805 63.956 14.1489C64.0007 13.2798 63.9731 11.8205 64.237 10.7332C64.6814 8.91467 65.0934 8.20896 65.2892 7.85982C65.3978 7.66344 65.5228 7.63099 65.5255 7.83695C65.533 8.25631 65.5558 9.4873 65.7288 11.1451C65.8523 12.3607 66.0205 13.0813 66.1508 13.3102C66.5175 13.9605 66.9747 13.9908 67.3441 13.9908C67.5804 13.9908 68.0726 13.9254 68.0295 13.5108C68.0072 13.3102 68.045 12.0616 68.4793 10.2686C68.7656 9.09561 69.2403 8.03813 69.4111 7.65119C69.4766 7.50805 69.5043 7.61874 69.5043 7.64109C69.4665 8.44738 69.3861 11.0871 69.7124 12.5289C70.1599 14.4858 71.4479 14.704 71.8976 14.704C72.8545 14.704 73.6411 13.9754 73.9046 12.0568C73.97 11.5943 73.8742 11.2378 73.5906 11.2378H73.5906ZM33.4308 10.0525C33.3781 11.0669 33.1796 11.9163 32.8634 12.5315C32.2855 13.6492 31.1481 14.0009 30.6479 12.391C30.2838 11.2282 30.4068 9.64057 30.56 8.78375C30.7809 7.51284 31.3413 6.61394 32.2152 6.69641C33.1093 6.78478 33.5462 7.93754 33.4308 10.0525V10.0525ZM42.1942 10.0674C42.1442 11.0243 41.8956 11.9887 41.6242 12.5315C41.0643 13.6566 39.8934 14.0084 39.4086 12.391C39.0776 11.283 39.1553 9.854 39.3208 8.95459C39.5347 7.78426 40.0494 6.69641 40.9765 6.69641C41.878 6.69641 42.3224 7.68631 42.1942 10.0674V10.0674ZM42.423 16.6077C42.4102 18.3587 42.1367 19.8909 41.5486 20.3379C40.7098 20.9707 39.5821 20.4934 39.8157 19.2177C40.0217 18.0872 40.9988 16.9345 42.4257 15.5252C42.4257 15.5252 42.4305 15.8466 42.4229 16.6077H42.423ZM57.5537 10.0775C57.5031 11.1302 57.2695 11.9514 56.981 12.5315C56.4206 13.6566 55.2604 14.0057 54.7654 12.391C54.4967 11.5092 54.4839 10.0371 54.6776 8.80929C54.8735 7.55806 55.4238 6.61394 56.3328 6.69641C57.2317 6.78211 57.6516 7.93754 57.5537 10.0775Z"
        fill="url(#paint0_linear)"/>
    <defs>
        <linearGradient gradientUnits="userSpaceOnUse" id="paint0_linear" x1="-2.66132" x2="6.19564" y1="13.9749"
                        y2="4.92792">
            <stop stop-color="#FFD521"/>
            <stop offset="0.05" stop-color="#FFD521"/>
            <stop offset="0.501119" stop-color="#F50000"/>
            <stop offset="0.95" stop-color="#B900B4"/>
            <stop offset="0.950079" stop-color="#B900B4"/>
            <stop offset="1" stop-color="#B900B4"/>
        </linearGradient>
    </defs>
</svg>
