<svg width="74" height="87" viewBox="0 0 74 87" fill="none" xmlns="http://www.w3.org/2000/svg">
<circle cx="37" cy="50" r="37" fill="white"/>
<path fill-rule="evenodd" clip-rule="evenodd" d="M37 0C57.4346 0 74 16.5654 74 37C74 57.4346 57.4346 74 37 74C16.5654 74 0 57.4346 0 37C0 16.5654 16.5654 0 37 0ZM27.9775 15.8421H46.0234C52.8001 15.8421 58.3419 21.3153 58.3419 28.0015V45.9988C58.3419 52.6865 52.8002 58.1579 46.0236 58.1579L27.9775 58.1577C21.2007 58.1577 15.6583 52.6863 15.6583 45.9985V28.0012C15.6583 21.3153 21.2007 15.8421 27.9775 15.8421ZM36.8852 25.5752C43.4704 25.5752 48.8141 30.9192 48.8141 37.5044C48.8141 44.0904 43.4704 49.4335 36.8852 49.4335C30.2981 49.4335 24.9552 44.0904 24.9552 37.5044C24.9552 30.9192 30.2983 25.5752 36.8852 25.5752ZM36.8852 29.6045C41.246 29.6045 44.7853 33.143 44.7853 37.5044C44.7853 41.866 41.246 45.4051 36.8852 45.4051C32.5229 45.4051 28.9843 41.8658 28.9843 37.5044C28.9843 33.143 32.5229 29.6045 36.8852 29.6045ZM48.4261 23.9218C49.4959 23.9218 50.3633 24.7891 50.3633 25.8578C50.3633 26.9277 49.4959 27.795 48.4261 27.795C47.3572 27.795 46.49 26.9277 46.49 25.8578C46.49 24.7889 47.3574 23.9218 48.4261 23.9218ZM29.4522 19.2986H44.5502C50.2194 19.2986 54.8559 23.9122 54.8559 29.5501V44.7238C54.8559 50.3615 50.2194 54.9744 44.5502 54.9744L29.4522 54.9746C23.783 54.9746 19.1457 50.3619 19.1457 44.724V29.5499C19.1457 23.9122 23.783 19.2986 29.4522 19.2986Z" fill="url(#paint0_radial)"/>
<defs>
<radialGradient id="paint0_radial" cx="0" cy="0" r="1" gradientUnits="userSpaceOnUse" gradientTransform="translate(19.6563 79.6996) rotate(-90) scale(73.3395)">
<stop stop-color="#FFDD55"/>
<stop offset="0.1" stop-color="#FFDD55"/>
<stop offset="0.5" stop-color="#FF543E"/>
<stop offset="1" stop-color="#C837AB"/>
</radialGradient>
</defs>
</svg>
