<svg width="64" height="22" viewBox="0 0 64 22" fill="none" xmlns="http://www.w3.org/2000/svg">
<path d="M13.8215 1.52658C13.4211 2.2297 13.0276 2.97419 12.641 3.76004C12.2682 4.54589 11.8609 5.35931 11.4191 6.20031C11.7366 5.97972 12.1439 5.65573 12.641 5.22834C13.138 4.80095 13.6075 4.33219 14.0493 3.82208C14.4911 3.29818 14.8432 2.77428 15.1055 2.25039C15.3679 1.7127 15.43 1.22327 15.2919 0.782089C15.2091 0.547713 15.1055 0.423631 14.9813 0.409844C14.857 0.396058 14.7258 0.444312 14.5878 0.554607C14.4497 0.664901 14.3116 0.816555 14.1736 1.00957C14.0355 1.1888 13.9181 1.36113 13.8215 1.52658ZM11.2948 6.44847C10.9911 7.02752 10.6873 7.59278 10.3835 8.14425C10.0798 8.68194 9.74152 9.21962 9.36874 9.75731C9.00976 10.295 8.60245 10.8396 8.14682 11.391C7.705 11.9425 7.18724 12.5147 6.59354 13.1075C7.21485 13.4384 7.82236 13.7831 8.41606 14.1415C9.00976 14.4862 9.57584 14.8033 10.1143 15.0928C10.6666 15.3685 11.1982 15.5891 11.709 15.7546C12.2199 15.9338 12.71 16.0096 13.1795 15.9821C13.6627 15.9683 14.1252 15.8304 14.5671 15.5684C15.0089 15.3065 15.4369 14.8791 15.8511 14.2863C15.8787 14.2587 15.9132 14.2587 15.9546 14.2863C15.9823 14.3276 15.9823 14.3621 15.9546 14.3897C15.4852 15.148 15.0296 15.7063 14.5878 16.0648C14.1597 16.437 13.7179 16.6576 13.2623 16.7265C12.8205 16.7955 12.3579 16.7403 11.8747 16.5611C11.4053 16.3819 10.8875 16.1268 10.3214 15.7959C9.76914 15.465 9.16163 15.0859 8.4989 14.6585C7.84997 14.2311 7.12511 13.8106 6.32431 13.397C6.15862 13.5625 5.93081 13.7486 5.64086 13.9554C5.35092 14.1484 5.03336 14.3345 4.68818 14.5138C4.34301 14.6792 3.99093 14.824 3.63195 14.948C3.27297 15.0583 2.94161 15.1204 2.63785 15.1342C2.34791 15.1617 2.03035 15.1411 1.68517 15.0721C1.35381 14.9894 1.05005 14.8653 0.773915 14.6999C0.497777 14.5344 0.283769 14.3276 0.131893 14.0795C-0.0199837 13.8313 -0.0406941 13.5487 0.0697614 13.2316C0.180217 12.8869 0.373514 12.625 0.649653 12.4457C0.939599 12.2527 1.26406 12.1217 1.62304 12.0528C1.99583 11.9701 2.38933 11.9425 2.80354 11.9701C3.23155 11.9977 3.63886 12.0528 4.02545 12.1355C4.42585 12.2045 4.79864 12.2941 5.14381 12.4044C5.48899 12.5147 5.76512 12.625 5.97223 12.7353C6.3174 12.363 6.63496 11.9839 6.92491 11.5978C7.22866 11.2118 7.52551 10.7982 7.81546 10.357C8.1054 9.91585 8.38844 9.4471 8.66458 8.95078C8.94072 8.44067 9.23067 7.8823 9.53442 7.27568C8.56793 7.64792 7.76023 7.82026 7.1113 7.79269C6.47618 7.76511 5.97223 7.59967 5.59944 7.29636C5.24046 6.97926 5.01265 6.55187 4.916 6.01419C4.81935 5.4765 4.83316 4.88367 4.95742 4.23569C5.08168 3.57392 5.30259 2.89147 5.62015 2.18834C5.95152 1.47143 6.35882 0.782089 6.84207 0.120321C6.92491 0.0100266 6.98704 -0.0244404 7.02846 0.0169204C7.06988 0.0444945 7.05607 0.106535 6.98704 0.203042C6.5038 0.919957 6.10339 1.63687 5.78584 2.35379C5.46828 3.05691 5.24736 3.72557 5.1231 4.35977C5.01265 4.98017 5.01265 5.53854 5.1231 6.03487C5.23356 6.53119 5.46137 6.91722 5.80655 7.19296C6.16553 7.45491 6.65567 7.59278 7.27699 7.60656C7.9121 7.60656 8.6922 7.42733 9.61726 7.06888C9.75533 6.79314 9.92792 6.43468 10.135 5.99351C10.3421 5.55233 10.5699 5.07668 10.8185 4.56657C11.0808 4.05646 11.3569 3.54635 11.6469 3.03623C11.9506 2.51233 12.2544 2.03669 12.5581 1.6093C12.8757 1.18191 13.2002 0.837236 13.5315 0.575287C13.8629 0.299551 14.1943 0.154789 14.5256 0.141001C14.7051 0.141001 14.8639 0.175468 15.002 0.244402C15.1538 0.313337 15.2712 0.444312 15.354 0.637328C15.5059 0.940637 15.5404 1.27841 15.4576 1.65066C15.3748 2.00912 15.216 2.38136 14.9813 2.76739C14.7603 3.15342 14.4773 3.53945 14.1321 3.92548C13.8008 4.29773 13.4556 4.64929 13.0966 4.98017C12.7514 5.31106 12.4132 5.60748 12.0818 5.86942C11.7642 6.11759 11.5019 6.3106 11.2948 6.44847ZM5.70299 13.0455C5.5097 12.949 5.25427 12.8387 4.93671 12.7146C4.63296 12.5905 4.29469 12.4871 3.9219 12.4044C3.54911 12.3079 3.16942 12.2389 2.78283 12.1976C2.39623 12.1424 2.03035 12.1424 1.68517 12.1976C1.34 12.2389 1.02934 12.3492 0.753205 12.5285C0.490873 12.6939 0.304479 12.9421 0.194024 13.2729C0.0835683 13.5625 0.104279 13.8175 0.256155 14.0381C0.408031 14.2587 0.601329 14.4448 0.836047 14.5965C1.20883 14.8171 1.61614 14.9136 2.05796 14.886C2.49978 14.8584 2.94161 14.7619 3.38343 14.5965C3.83906 14.4173 4.26707 14.1898 4.66747 13.914C5.06787 13.6245 5.41305 13.335 5.70299 13.0455Z" fill="black"/>
<path d="M17.4299 7.19296C17.5956 7.19296 17.7406 7.255 17.8649 7.37908C17.9891 7.48938 18.0513 7.62724 18.0513 7.79269C18.0513 7.95813 17.9891 8.10289 17.8649 8.22697C17.7406 8.35105 17.5956 8.41309 17.4299 8.41309C17.2643 8.41309 17.1193 8.35105 16.995 8.22697C16.8846 8.10289 16.8293 7.95813 16.8293 7.79269C16.8293 7.62724 16.8846 7.48938 16.995 7.37908C17.1193 7.255 17.2643 7.19296 17.4299 7.19296ZM18.9418 10.0261C18.9694 9.971 19.0039 9.96411 19.0454 10.0055C19.0868 10.0055 19.0937 10.033 19.0661 10.0882C18.8866 10.3226 18.645 10.6672 18.3412 11.1222C18.0513 11.5634 17.7268 11.9908 17.3678 12.4044C17.0226 12.818 16.6637 13.1695 16.2909 13.4591C15.9319 13.7348 15.5867 13.8244 15.2553 13.7279C15.0344 13.659 14.8964 13.5211 14.8411 13.3143C14.7721 13.1075 14.7652 12.8593 14.8204 12.5698C14.8618 12.2803 14.9447 11.9632 15.069 11.6185C15.1932 11.2739 15.3313 10.9361 15.4832 10.6052C15.635 10.2605 15.78 9.94343 15.9181 9.65391C16.07 9.3506 16.1873 9.10243 16.2702 8.90942C16.3116 8.84048 16.3599 8.81291 16.4151 8.8267C16.7327 8.90942 16.9674 8.99903 17.1193 9.09554C17.2712 9.19205 17.3195 9.39196 17.2643 9.69527C17.2643 9.72284 17.2574 9.74352 17.2435 9.75731C17.1469 9.99168 16.9812 10.3019 16.7465 10.6879C16.5256 11.0739 16.3116 11.46 16.1045 11.846C15.8974 12.232 15.7317 12.5767 15.6074 12.88C15.497 13.1695 15.497 13.3419 15.6074 13.397C15.8007 13.4935 16.0423 13.4246 16.3323 13.1902C16.636 12.9558 16.9467 12.6525 17.2643 12.2803C17.5818 11.908 17.8925 11.5151 18.1962 11.1015C18.5 10.6741 18.7485 10.3157 18.9418 10.0261Z" fill="black"/>
<path d="M25.5353 1.23705C25.9633 1.30599 26.1635 1.51968 26.1359 1.87814C26.1083 2.2366 25.9426 2.67088 25.6389 3.18099C25.3489 3.67732 24.9623 4.21501 24.4791 4.79405C24.0096 5.3731 23.5402 5.91768 23.0708 6.42779C22.6151 6.9379 22.2009 7.37219 21.8282 7.73064C21.4692 8.0891 21.2483 8.2959 21.1654 8.35105C21.0826 8.51649 20.9583 8.79912 20.7926 9.19894C20.6269 9.58497 20.4337 10.0468 20.2127 10.5845C20.0056 11.1222 19.7709 11.715 19.5086 12.363C19.2601 13.011 19.0115 13.6728 18.763 14.3483C18.5145 15.0239 18.2798 15.6925 18.0589 16.3543C17.8241 17.0299 17.6239 17.6503 17.4583 18.2155C17.2926 18.7946 17.1683 19.3047 17.0855 19.7459C16.9888 20.187 16.9543 20.5179 16.9819 20.7385C16.9957 20.8902 17.0371 21.028 17.1062 21.1521C17.1614 21.2762 17.2373 21.3658 17.334 21.421C17.4168 21.4899 17.5135 21.5175 17.6239 21.5037C17.7344 21.4899 17.8518 21.4141 17.976 21.2762C18.2245 20.9867 18.4455 20.58 18.6387 20.0561C18.832 19.5322 18.9977 18.9531 19.1358 18.3189C19.2739 17.6847 19.3843 17.023 19.4672 16.3336C19.55 15.6581 19.6121 15.0239 19.6536 14.431C19.695 13.8244 19.7157 13.2936 19.7157 12.8387C19.7295 12.3837 19.7295 12.0666 19.7157 11.8874C19.7157 11.8598 19.7295 11.8322 19.7571 11.8046C19.7847 11.7633 19.8123 11.7564 19.84 11.784C20.0056 11.8943 20.2127 11.9632 20.4613 11.9908C20.7236 12.0183 20.9928 12.0183 21.269 11.9908C21.5589 11.9632 21.8489 11.908 22.1388 11.8253C22.4426 11.7288 22.7256 11.6185 22.9879 11.4944C23.3055 11.3428 23.5471 11.1911 23.7128 11.0395C23.8785 10.8878 24.058 10.6741 24.2513 10.3984C24.2651 10.3846 24.2927 10.3777 24.3341 10.3777C24.3617 10.4053 24.3686 10.4398 24.3548 10.4811C24.1477 10.7569 23.9544 10.9774 23.7749 11.1429C23.6092 11.2945 23.3607 11.4462 23.0294 11.5978C22.767 11.7219 22.4909 11.8322 22.2009 11.9287C21.911 12.0115 21.621 12.0735 21.3311 12.1149C21.055 12.1562 20.7857 12.17 20.5234 12.1562C20.2611 12.1286 20.0402 12.0666 19.8607 11.9701C19.8607 12.301 19.8469 12.7766 19.8192 13.397C19.8054 14.0174 19.764 14.693 19.695 15.4237C19.6259 16.1544 19.5293 16.8989 19.405 17.6572C19.2946 18.4154 19.1427 19.1048 18.9494 19.7252C18.7561 20.3594 18.5283 20.8764 18.266 21.2762C18.0174 21.676 17.7206 21.8828 17.3754 21.8966C16.9336 21.9104 16.6091 21.7243 16.402 21.3382C16.1949 20.9522 16.0914 20.4214 16.0914 19.7459C16.0776 19.0703 16.1604 18.2776 16.3399 17.3676C16.5056 16.4715 16.7403 15.5202 17.044 14.5138C17.3478 13.4935 17.7068 12.4526 18.121 11.391C18.5352 10.3157 18.977 9.27477 19.4465 8.26833C19.9297 7.26189 20.4337 6.3175 20.9583 5.43514C21.4968 4.55278 22.0284 3.78761 22.553 3.13963C23.0777 2.49165 23.5954 1.99533 24.1063 1.65066C24.6172 1.30599 25.0935 1.16812 25.5353 1.23705ZM21.2897 8.02017C21.621 7.73064 21.9869 7.37908 22.3873 6.96548C22.8015 6.55187 23.2088 6.11759 23.6092 5.66262C24.0096 5.19387 24.3824 4.73201 24.7276 4.27705C25.0866 3.80829 25.3765 3.3809 25.5974 2.99487C25.8184 2.59506 25.9495 2.26417 25.9909 2.00222C26.0324 1.72649 25.9495 1.55415 25.7424 1.48522C25.5905 1.43007 25.3834 1.52658 25.1211 1.77474C24.8726 2.00912 24.5964 2.33311 24.2927 2.74671C23.9889 3.16031 23.6783 3.62217 23.3607 4.13229C23.0432 4.6424 22.7463 5.15251 22.4702 5.66262C22.194 6.15895 21.9455 6.62081 21.7246 7.0482C21.5175 7.47559 21.3725 7.79958 21.2897 8.02017Z" fill="black"/>
<path d="M26.6788 11.6599C26.8582 11.6875 27.0377 11.6599 27.2172 11.5772C27.3967 11.4944 27.5693 11.3773 27.735 11.2256C27.9007 11.0739 28.0525 10.9016 28.1906 10.7086C28.3287 10.5156 28.4529 10.3226 28.5634 10.1296C28.591 10.0882 28.6186 10.0813 28.6462 10.1089C28.6739 10.1227 28.6877 10.1433 28.6877 10.1709C28.5358 10.4053 28.3839 10.6259 28.232 10.8327C28.094 11.0257 27.9421 11.198 27.7764 11.3497C27.6107 11.5013 27.4312 11.6185 27.2379 11.7012C27.0446 11.784 26.8375 11.8115 26.6166 11.784C26.5062 12.0183 26.3681 12.2458 26.2024 12.4664C26.0505 12.687 25.8711 12.8869 25.6639 13.0661C25.4568 13.2454 25.2359 13.3901 25.0012 13.5004C24.7803 13.5969 24.5525 13.6383 24.3178 13.6245C23.8621 13.6107 23.5308 13.4453 23.3237 13.1282C23.1304 12.7973 23.0475 12.4182 23.0751 11.9908C23.089 11.5634 23.2132 11.1291 23.4479 10.6879C23.6827 10.233 24.0002 9.8676 24.4006 9.59186C24.5387 9.49536 24.7113 9.42642 24.9184 9.38506C25.1255 9.32992 25.3326 9.30234 25.5397 9.30234C25.8434 9.06797 26.1196 8.95767 26.3681 8.97146C26.6166 8.97146 26.7961 9.08175 26.9066 9.30234C27.0308 9.52293 27.0792 9.83313 27.0515 10.233C27.0239 10.6328 26.8997 11.1084 26.6788 11.6599ZM24.3799 13.2523C24.5456 13.3212 24.7251 13.3212 24.9184 13.2523C25.1255 13.1833 25.3257 13.073 25.519 12.9214C25.7123 12.7697 25.8918 12.5905 26.0574 12.3837C26.2231 12.1631 26.3612 11.9494 26.4717 11.7426C26.306 11.7012 26.1334 11.6392 25.9539 11.5565C25.7882 11.4738 25.6363 11.3773 25.4983 11.267C25.374 11.1429 25.2774 10.9981 25.2083 10.8327C25.1393 10.6672 25.1186 10.4742 25.1462 10.2536C24.9253 10.5156 24.732 10.8051 24.5663 11.1222C24.4006 11.4393 24.2763 11.7426 24.1935 12.0321C24.1107 12.3217 24.0761 12.5836 24.09 12.818C24.1176 13.0386 24.2142 13.1833 24.3799 13.2523ZM26.5338 11.6185C26.7271 11.1636 26.8444 10.75 26.8859 10.3777C26.9411 10.0055 26.9273 9.70905 26.8444 9.48846C26.7754 9.26787 26.658 9.14379 26.4924 9.11622C26.3267 9.07486 26.1334 9.15758 25.9125 9.36438C26.2162 9.43332 26.4095 9.59876 26.4924 9.86071C26.4924 9.90207 26.4786 9.92275 26.4509 9.92275C26.4233 9.93653 26.3957 9.92964 26.3681 9.90207C26.3267 9.77799 26.2438 9.70905 26.1196 9.69527C26.0091 9.66769 25.878 9.68837 25.7261 9.75731C25.6018 10.033 25.5535 10.2743 25.5811 10.4811C25.6087 10.6879 25.6709 10.874 25.7675 11.0395C25.878 11.1911 26.0022 11.3152 26.1403 11.4117C26.2922 11.5082 26.4233 11.5772 26.5338 11.6185Z" fill="black"/>
<path d="M33.3859 16.7886C33.3168 15.8373 33.4411 15.0032 33.7586 14.2863C34.09 13.5694 34.5456 12.8869 35.1255 12.2389C35.0151 11.4117 35.0841 10.5845 35.3326 9.75731C35.5812 8.91631 36.0575 8.1925 36.7617 7.58588L37.383 7.11024C37.3968 7.09645 37.4244 7.10334 37.4658 7.13092C37.4934 7.18607 37.4865 7.22053 37.4451 7.23432L36.8445 7.68928C36.168 8.26833 35.7054 8.95078 35.4569 9.73663C35.2222 10.5225 35.1531 11.3083 35.2498 12.0942C35.3464 11.9839 35.45 11.8805 35.5605 11.784C35.6709 11.6737 35.7814 11.5703 35.8918 11.4738C36.6098 10.7706 37.307 10.1709 37.9836 9.67459C38.6739 9.17826 39.3643 8.7233 40.0546 8.30969C40.7588 7.8823 41.4767 7.4618 42.2085 7.0482C42.9541 6.63459 43.748 6.16584 44.5902 5.64194C44.7145 4.62172 44.9285 3.76693 45.2322 3.07759C45.5498 2.37447 45.9018 1.8161 46.2884 1.4025C46.675 0.975105 47.0685 0.678688 47.4689 0.513246C47.8831 0.334017 48.249 0.258189 48.5666 0.285764C48.898 0.313337 49.1534 0.430525 49.3329 0.637328C49.5262 0.84413 49.5952 1.11987 49.54 1.46454C49.4986 1.79542 49.3053 2.18834 48.9601 2.64331C48.6149 3.08449 48.0764 3.56013 47.3447 4.07024C47.11 4.2219 46.8683 4.37355 46.6198 4.52521C46.3851 4.67686 46.1504 4.82852 45.9157 4.98017C45.8052 5.53165 45.674 6.21409 45.5222 7.02752C45.3703 7.84094 45.177 8.68883 44.9423 9.57118C44.7075 10.4398 44.4107 11.3014 44.0517 12.1562C43.6927 12.9972 43.2578 13.7417 42.747 14.3897C42.2361 15.0239 41.6286 15.5064 40.9244 15.8373C40.2341 16.182 39.4264 16.2785 38.5013 16.1268C37.6177 15.9889 36.879 15.5753 36.2853 14.886C35.6916 14.1967 35.3119 13.3695 35.1462 12.4044C34.6078 13.0248 34.1798 13.6865 33.8622 14.3897C33.5584 15.079 33.4411 15.8787 33.5101 16.7886C33.5101 16.8299 33.4894 16.8506 33.448 16.8506C33.4066 16.8506 33.3859 16.8299 33.3859 16.7886ZM45.9571 4.81473C46.178 4.66308 46.3989 4.51832 46.6198 4.38045C46.8407 4.24258 47.0547 4.09782 47.2618 3.94616C48.1041 3.36712 48.6909 2.82943 49.0222 2.33311C49.3536 1.83678 49.5055 1.43696 49.4778 1.13365C49.4502 0.816556 49.2915 0.623541 49.0015 0.554607C48.7116 0.485673 48.3733 0.58218 47.9867 0.84413C47.6139 1.09229 47.2342 1.54036 46.8476 2.18834C46.461 2.82254 46.1642 3.698 45.9571 4.81473ZM35.2912 12.2803C35.3603 12.7628 35.4845 13.2178 35.664 13.6452C35.8435 14.0588 36.0713 14.431 36.3474 14.7619C36.6374 15.0928 36.9619 15.3616 37.3208 15.5684C37.6936 15.789 38.094 15.9338 38.522 16.0027C39.1295 16.0992 39.6818 15.9889 40.1789 15.6719C40.6897 15.3548 41.1454 14.9136 41.5458 14.3483C41.96 13.7693 42.3258 13.1006 42.6434 12.3423C42.9748 11.5841 43.2578 10.812 43.4925 10.0261C43.7411 9.2403 43.9482 8.48203 44.1138 7.75132C44.2933 7.00684 44.4383 6.36575 44.5488 5.82806C43.7204 6.33818 42.9403 6.80003 42.2085 7.21364C41.4767 7.61346 40.7657 8.02017 40.0753 8.43377C39.3988 8.84738 38.7222 9.30234 38.0457 9.79867C37.383 10.295 36.6926 10.8809 35.9747 11.5565C35.8504 11.6806 35.733 11.8046 35.6226 11.9287C35.5121 12.039 35.4017 12.1562 35.2912 12.2803Z" fill="black"/>
<path d="M53.8133 1.27841C54.1308 1.33356 54.3034 1.47143 54.331 1.69202C54.3725 1.89882 54.3103 2.16766 54.1446 2.49855C53.9928 2.82943 53.7581 3.20167 53.4405 3.61528C53.1229 4.0151 52.7709 4.4287 52.3843 4.85609C51.9977 5.2697 51.5973 5.67641 51.1831 6.07623C50.7827 6.47604 50.403 6.84139 50.044 7.17228C49.685 7.50316 49.3813 7.7789 49.1327 7.99949C48.8842 8.20629 48.7254 8.33037 48.6564 8.37173C48.5459 8.56475 48.4148 8.80602 48.2629 9.09554C48.1248 9.37128 47.9798 9.67459 47.828 10.0055C47.6761 10.3364 47.5242 10.681 47.3723 11.0395C47.2343 11.3979 47.1031 11.7426 46.9788 12.0735C47.1445 11.7978 47.3309 11.5082 47.538 11.2049C47.7589 10.9016 47.9868 10.619 48.2215 10.357C48.4562 10.0813 48.6909 9.84692 48.9256 9.65391C49.1741 9.46089 49.4158 9.3437 49.6505 9.30234C50.1199 9.21962 50.4444 9.26098 50.6239 9.42642C50.8034 9.59187 50.8862 9.83313 50.8724 10.1502C50.8586 10.4673 50.7688 10.8327 50.6032 11.2463C50.4513 11.6461 50.2787 12.0459 50.0854 12.4457C49.9059 12.8456 49.7333 13.2109 49.5676 13.5418C49.402 13.8727 49.3053 14.1139 49.2777 14.2656C49.2087 14.6103 49.2708 14.7412 49.4641 14.6585C49.6298 14.5896 49.8231 14.4448 50.044 14.2242C50.2787 14.0036 50.5203 13.7486 50.7689 13.4591C51.0174 13.1558 51.259 12.8318 51.4937 12.4871C51.7422 12.1424 51.977 11.8115 52.1979 11.4944C52.4188 11.1773 52.6121 10.8947 52.7778 10.6466C52.9434 10.3984 53.0746 10.2123 53.1713 10.0882C53.1989 10.0468 53.2265 10.0399 53.2541 10.0675C53.2955 10.0951 53.3024 10.1227 53.2748 10.1502C53.1367 10.357 52.9642 10.619 52.757 10.9361C52.5499 11.2532 52.3152 11.5978 52.0529 11.9701C51.8044 12.3285 51.5351 12.6939 51.2452 13.0661C50.969 13.4384 50.686 13.7762 50.3961 14.0795C50.1199 14.3828 49.8438 14.6378 49.5676 14.8446C49.3053 15.0377 49.0706 15.148 48.8635 15.1755C48.5874 15.1893 48.3872 15.1066 48.2629 14.9274C48.0972 14.7068 48.0489 14.3966 48.1179 13.9968C48.2008 13.5969 48.3319 13.1695 48.5114 12.7146C48.6909 12.2596 48.8911 11.8115 49.112 11.3704C49.3329 10.9292 49.5055 10.55 49.6298 10.233C49.7678 9.91585 49.8162 9.69527 49.7747 9.57118C49.7471 9.43332 49.5745 9.454 49.257 9.63323C49.0361 9.75731 48.8083 9.94343 48.5735 10.1916C48.3526 10.426 48.1317 10.6948 47.9108 10.9981C47.6899 11.3014 47.4828 11.6116 47.2895 11.9287C47.0962 12.2458 46.9167 12.5354 46.751 12.7973L46.6889 13.0455C46.6199 13.3074 46.5439 13.4453 46.4611 13.4591C46.3782 13.4729 46.2816 13.4315 46.1711 13.335C45.9778 13.1695 45.8812 12.9214 45.8812 12.5905C45.8812 12.2458 45.9364 11.8667 46.0469 11.4531C46.1435 11.0257 46.2816 10.5845 46.4611 10.1296C46.6406 9.67459 46.827 9.2403 47.0203 8.8267C47.2136 8.41309 47.3931 8.04774 47.5587 7.73064C47.7244 7.39976 47.8487 7.15849 47.9315 7.00684C48.3043 6.26235 48.7116 5.52475 49.1534 4.79405C49.6091 4.06335 50.0854 3.42226 50.5825 2.87079C51.0795 2.31932 51.5973 1.89193 52.1357 1.58862C52.688 1.28531 53.2472 1.18191 53.8133 1.27841ZM48.8014 8.06153C49.1603 7.77201 49.5676 7.42044 50.0233 7.00684C50.4789 6.59323 50.9345 6.15895 51.3902 5.70398C51.8458 5.23523 52.2738 4.77337 52.6742 4.31841C53.0746 3.84966 53.406 3.42226 53.6683 3.03623C53.9444 2.6502 54.117 2.31932 54.1861 2.04358C54.2689 1.76785 54.2068 1.59551 53.9997 1.52658C53.765 1.44386 53.4888 1.51968 53.1713 1.75406C52.8675 1.97465 52.5361 2.29175 52.1772 2.70535C51.832 3.10517 51.4799 3.56703 51.1209 4.09093C50.7758 4.61482 50.4513 5.13872 50.1475 5.66262C49.8438 6.17273 49.5676 6.64838 49.3191 7.08956C49.0844 7.51695 48.9118 7.84094 48.8014 8.06153Z" fill="black"/>
<path d="M55.9241 11.6599C56.1036 11.6875 56.2831 11.6599 56.4626 11.5772C56.6421 11.4944 56.8147 11.3773 56.9804 11.2256C57.146 11.0739 57.2979 10.9016 57.436 10.7086C57.5741 10.5156 57.6983 10.3226 57.8088 10.1296C57.8364 10.0882 57.864 10.0813 57.8916 10.1089C57.9192 10.1227 57.933 10.1433 57.933 10.1709C57.7812 10.4053 57.6293 10.6259 57.4774 10.8327C57.3393 11.0257 57.1875 11.198 57.0218 11.3497C56.8561 11.5013 56.6766 11.6185 56.4833 11.7012C56.29 11.784 56.0829 11.8115 55.862 11.784C55.7515 12.0183 55.6135 12.2458 55.4478 12.4664C55.2959 12.687 55.1164 12.8869 54.9093 13.0661C54.7022 13.2454 54.4813 13.3901 54.2466 13.5004C54.0257 13.5969 53.7979 13.6383 53.5631 13.6245C53.1075 13.6107 52.7761 13.4453 52.569 13.1282C52.3757 12.7973 52.2929 12.4182 52.3205 11.9908C52.3343 11.5634 52.4586 11.1291 52.6933 10.6879C52.928 10.233 53.2456 9.8676 53.646 9.59186C53.784 9.49536 53.9566 9.42642 54.1637 9.38506C54.3708 9.32992 54.5779 9.30234 54.7851 9.30234C55.0888 9.06797 55.3649 8.95767 55.6135 8.97146C55.862 8.97146 56.0415 9.08175 56.1519 9.30234C56.2762 9.52293 56.3245 9.83313 56.2969 10.233C56.2693 10.6328 56.145 11.1084 55.9241 11.6599ZM53.6253 13.2523C53.791 13.3212 53.9704 13.3212 54.1637 13.2523C54.3708 13.1833 54.571 13.073 54.7643 12.9214C54.9576 12.7697 55.1371 12.5905 55.3028 12.3837C55.4685 12.1631 55.6066 11.9494 55.717 11.7426C55.5513 11.7012 55.3787 11.6392 55.1993 11.5565C55.0336 11.4738 54.8817 11.3773 54.7436 11.267C54.6194 11.1429 54.5227 10.9981 54.4537 10.8327C54.3847 10.6672 54.3639 10.4742 54.3916 10.2536C54.1706 10.5156 53.9773 10.8051 53.8117 11.1222C53.646 11.4393 53.5217 11.7426 53.4389 12.0321C53.356 12.3217 53.3215 12.5836 53.3353 12.818C53.3629 13.0386 53.4596 13.1833 53.6253 13.2523ZM55.7792 11.6185C55.9724 11.1636 56.0898 10.75 56.1312 10.3777C56.1865 10.0055 56.1726 9.70905 56.0898 9.48846C56.0208 9.26787 55.9034 9.14379 55.7377 9.11622C55.572 9.07486 55.3788 9.15758 55.1578 9.36438C55.4616 9.43332 55.6549 9.59876 55.7377 9.86071C55.7377 9.90207 55.7239 9.92275 55.6963 9.92275C55.6687 9.93653 55.6411 9.92964 55.6135 9.90207C55.572 9.77799 55.4892 9.70905 55.3649 9.69527C55.2545 9.66769 55.1233 9.68837 54.9714 9.75731C54.8472 10.033 54.7989 10.2743 54.8265 10.4811C54.8541 10.6879 54.9162 10.874 55.0129 11.0395C55.1233 11.1911 55.2476 11.3152 55.3857 11.4117C55.5375 11.5082 55.6687 11.5772 55.7792 11.6185Z" fill="black"/>
<path d="M63.6824 10.7913C63.6962 10.7775 63.7239 10.7431 63.7653 10.6879C63.8067 10.619 63.8274 10.5776 63.8274 10.5638L63.8895 10.5018C63.9033 10.488 63.931 10.4811 63.9724 10.4811C64 10.5087 64.0069 10.5432 63.9931 10.5845L63.8895 10.7293L63.7239 10.9154C63.4891 11.1773 63.2199 11.3428 62.9162 11.4117C62.6124 11.4807 62.3294 11.5841 62.067 11.7219C61.9704 12.108 61.8116 12.4802 61.5907 12.8387C61.3698 13.1971 61.1212 13.528 60.8451 13.8313C60.5828 14.1346 60.2997 14.3966 59.996 14.6172C59.706 14.8377 59.4299 15.0032 59.1676 15.1135C58.919 15.21 58.6981 15.2376 58.5048 15.1962C58.3253 15.1686 58.208 15.0514 58.1528 14.8446C58.0699 14.5275 58.1182 14.2173 58.2977 13.914C58.4772 13.5969 58.7119 13.3074 59.0019 13.0455C59.3056 12.7835 59.6163 12.556 59.9339 12.363C60.2652 12.1562 60.5345 12.0046 60.7416 11.9081C60.783 11.7702 60.8313 11.5634 60.8865 11.2876C60.9556 10.9981 60.997 10.7224 61.0108 10.4604C61.0246 10.1985 60.997 9.9779 60.928 9.79867C60.8727 9.60565 60.7485 9.52982 60.5552 9.57118C60.2652 9.62633 59.9546 9.80556 59.6232 10.1089C59.3056 10.4122 59.0088 10.75 58.7327 11.1222L58.2356 11.9701C57.8628 12.7697 57.4762 13.5831 57.0758 14.4104C56.6616 15.2376 56.2612 16.0717 55.8746 16.9127C55.488 17.7537 55.129 18.5947 54.7977 19.4357C54.4663 20.2904 54.1902 21.1383 53.9693 21.9793C53.9693 21.9931 53.914 22 53.8036 22C53.6793 22 53.562 21.9586 53.4515 21.8759C53.3272 21.7932 53.2375 21.6622 53.1823 21.483C53.1132 21.3038 53.1201 21.0418 53.203 20.6971C53.341 20.1732 53.5481 19.5528 53.8243 18.8359C54.1004 18.119 54.4111 17.3607 54.7563 16.5611C55.1014 15.7753 55.4673 14.9756 55.8539 14.1622C56.2405 13.335 56.6064 12.556 56.9516 11.8253C57.2967 11.0808 57.6074 10.4053 57.8835 9.79867C58.1597 9.19205 58.3668 8.70261 58.5048 8.33037C58.5463 8.20629 58.5808 8.0891 58.6084 7.97881C58.6498 7.86851 58.6774 7.76511 58.6912 7.6686C58.6912 7.59967 58.7327 7.5721 58.8155 7.58588C59.1469 7.68239 59.3885 7.7789 59.5404 7.87541C59.706 7.97191 59.7751 8.17872 59.7475 8.49581V8.51649C59.706 8.613 59.6439 8.75087 59.5611 8.9301C59.492 9.09554 59.4023 9.28856 59.2918 9.50914C59.1952 9.71595 59.0916 9.92964 58.9812 10.1502C58.8845 10.3708 58.7879 10.5845 58.6912 10.7913C59.0226 10.3639 59.4023 10.0055 59.8303 9.71595C60.2583 9.41264 60.6725 9.28855 61.0729 9.3437C61.28 9.37128 61.4526 9.454 61.5907 9.59186C61.7426 9.72973 61.8599 9.90207 61.9428 10.1089C62.0394 10.3157 62.1015 10.55 62.1292 10.812C62.1568 11.0602 62.143 11.3083 62.0877 11.5565C62.1982 11.5013 62.3294 11.4531 62.4812 11.4117C62.6331 11.3704 62.785 11.329 62.9369 11.2876C63.0887 11.2325 63.2268 11.1705 63.3511 11.1015C63.4891 11.0188 63.5996 10.9154 63.6824 10.7913ZM60.7208 12.0735C60.5276 12.1562 60.2721 12.301 59.9546 12.5078C59.6508 12.7008 59.3609 12.9283 59.0847 13.1902C58.8086 13.4384 58.5877 13.7072 58.422 13.9968C58.2563 14.2725 58.2218 14.5413 58.3184 14.8033C58.4013 15.0377 58.5394 15.1204 58.7327 15.0514C58.9398 14.9825 59.1607 14.8102 59.3954 14.5344C59.6301 14.2587 59.8648 13.9071 60.0995 13.4797C60.3481 13.0386 60.5552 12.5698 60.7208 12.0735Z" fill="black"/>
</svg>
