<svg width="18" height="19" viewBox="0 0 18 19" fill="none" xmlns="http://www.w3.org/2000/svg">
<g clip-path="url(#clip0)">
<path d="M7.53338 14.0217L7.53339 14.0217C7.58476 13.9724 7.6458 13.9336 7.71283 13.9076C7.77987 13.8815 7.8516 13.8686 7.92381 13.8697C7.99601 13.8707 8.06732 13.8857 8.13351 13.9137C8.19959 13.9417 8.25931 13.9821 8.30907 14.0328C8.30915 14.0328 8.30923 14.0329 8.30932 14.033L8.27363 14.068C8.37225 14.1657 8.42741 14.2964 8.42741 14.4324C8.42741 14.5684 8.37225 14.6991 8.27363 14.7968L7.53338 14.0217ZM7.53338 14.0217L7.53234 14.0227L6.46374 15.1102L6.46322 15.1107L6.10039 15.4693C6.10038 15.4693 6.10038 15.4693 6.10037 15.4693C5.96576 15.6012 5.80498 15.706 5.62739 15.7777C5.44979 15.8493 5.25902 15.8863 5.06626 15.8863C4.8735 15.8863 4.68273 15.8493 4.50513 15.7777C4.32753 15.706 4.16674 15.6011 4.03213 15.4692L4.03163 15.4688L2.51406 14.0221C2.23243 13.7359 2.07586 13.3576 2.07586 12.9647C2.07586 12.5716 2.23259 12.193 2.51449 11.9068C2.51453 11.9067 2.51456 11.9067 2.5146 11.9067L7.2395 7.18594C7.23955 7.18589 7.2396 7.18584 7.23965 7.18579C7.37424 7.05396 7.53497 6.94912 7.7125 6.87751C7.8901 6.80586 8.08087 6.76893 8.27363 6.76893C8.46639 6.76893 8.65716 6.80586 8.83476 6.87751C9.01227 6.94912 9.17299 7.05394 9.30757 7.18575C9.30763 7.18581 9.3077 7.18588 9.30776 7.18594L10.0344 7.91427L10.0346 7.91452L10.3978 8.27344C10.3979 8.27349 10.3979 8.27355 10.398 8.2736C10.4496 8.32552 10.5116 8.36674 10.5801 8.39487C10.6486 8.42303 10.7223 8.43753 10.7968 8.43753C10.8712 8.43753 10.9449 8.42303 11.0135 8.39487C11.082 8.36671 11.144 8.32543 11.1957 8.27344L11.1961 8.27306C11.3012 8.16508 11.36 8.02241 11.36 7.87382C11.36 7.72523 11.3012 7.58257 11.1961 7.47458L11.1959 7.47439L10.8327 7.1052L10.8324 7.10489L10.1378 6.38673L10.1376 6.38656C9.89983 6.14302 9.61266 5.94901 9.29392 5.81642C8.97518 5.68384 8.63157 5.61545 8.28432 5.61545C7.93707 5.61545 7.59346 5.68384 7.27472 5.81642C6.95606 5.94898 6.66896 6.14292 6.43123 6.38637C6.43116 6.38643 6.4311 6.3865 6.43103 6.38656L1.71656 11.1178L1.71631 11.1181C1.22467 11.6186 0.950488 12.281 0.950488 12.9698C0.950488 13.6586 1.22467 14.321 1.7163 14.8215L1.71658 14.8218L3.17021 16.2789C3.17027 16.279 3.17034 16.279 3.17041 16.2791C3.40814 16.5225 3.69524 16.7165 4.01389 16.849C4.33263 16.9816 4.67624 17.05 5.02349 17.05C5.37074 17.05 5.71435 16.9816 6.03309 16.849C6.3517 16.7165 6.63875 16.5226 6.87647 16.2792C6.87657 16.2791 6.87667 16.279 6.87678 16.2789L7.23965 15.9203L7.24017 15.9198L8.30881 14.8323C8.30889 14.8322 8.30897 14.8321 8.30905 14.832L7.53338 14.0217ZM16.2527 3.06083L16.2524 3.06049L14.8946 1.71593L14.8946 1.71592C14.6497 1.47346 14.3566 1.2808 14.0329 1.14928C13.7091 1.01775 13.3613 0.95 13.0098 0.95C12.6584 0.95 12.3106 1.01775 11.9868 1.14928C11.6631 1.2808 11.37 1.47346 11.1251 1.71592L11.1246 1.71642L10.7718 2.07565L10.7718 2.07566L9.70266 3.16361L9.70249 3.16378C9.59741 3.27177 9.53862 3.41443 9.53862 3.56302C9.53862 3.71161 9.59741 3.85428 9.70249 3.96226L9.70287 3.96264C9.75456 4.01463 9.81658 4.05591 9.88513 4.08407C9.95368 4.11223 10.0274 4.12673 10.1018 4.12673C10.1763 4.12673 10.25 4.11223 10.3185 4.08407C10.3871 4.05591 10.4491 4.01463 10.5008 3.96264L10.501 3.96243L11.5696 2.87497L11.5701 2.87447L11.922 2.52641C11.9221 2.52635 11.9221 2.52629 11.9222 2.52622C12.0645 2.38876 12.2338 2.27955 12.4204 2.20498C12.6072 2.13038 12.8075 2.09195 13.0098 2.09195C13.2122 2.09195 13.4125 2.13038 13.5992 2.20498C13.7859 2.27954 13.9551 2.38872 14.0974 2.52615C14.0975 2.52623 14.0976 2.52632 14.0977 2.52641L15.4329 3.85951C15.7125 4.15918 15.8669 4.54701 15.8669 4.94864C15.8669 5.35036 15.7125 5.73829 15.4327 6.03799C15.4325 6.03812 15.4324 6.03826 15.4323 6.03839L12.2368 9.31133L12.2364 9.31175L10.9651 10.5835C10.965 10.5835 10.9649 10.5836 10.9648 10.5837C10.6599 10.8786 10.2507 11.0536 9.8176 11.0739C9.38537 11.0942 8.96111 10.9589 8.62779 10.695L8.03497 10.0959V10.0549V10.034L8.02011 10.0193L7.65692 9.6604C7.65688 9.66035 7.65684 9.66031 7.65679 9.66027C7.60513 9.60833 7.54315 9.5671 7.47466 9.53896C7.40611 9.5108 7.3324 9.49631 7.25796 9.49631C7.18352 9.49631 7.10981 9.5108 7.04127 9.53896C6.97272 9.56713 6.91069 9.6084 6.859 9.66039L6.85863 9.66078C6.75354 9.76876 6.69475 9.91142 6.69475 10.06C6.69475 10.2086 6.75354 10.3513 6.85862 10.4593L6.85894 10.4596L7.27588 10.8804L7.2759 10.8804L7.88413 11.495L7.93651 11.5554L7.93605 11.5558L7.94206 11.5608C7.97314 11.587 8.00751 11.6093 8.04433 11.6271C8.55649 12.0156 9.19377 12.2197 9.84586 12.2045C10.4997 12.1892 11.1275 11.9544 11.6201 11.5404L11.6205 11.5409L11.626 11.5345L11.7206 11.4235L11.7829 11.3637L11.7829 11.3637L11.7836 11.3629L16.3274 6.81607L16.3275 6.8161L16.3289 6.8145C16.8066 6.29306 17.0641 5.61845 17.0499 4.92341C17.0358 4.22836 16.7512 3.56394 16.2527 3.06083Z" fill="black" stroke="black" stroke-width="0.1"/>
</g>
<defs>
<clipPath id="clip0">
<rect width="18" height="18" fill="white" transform="translate(0 0.5)"/>
</clipPath>
</defs>
</svg>
