<svg width="51" height="51" viewBox="0 0 51 51" fill="none" xmlns="http://www.w3.org/2000/svg">
<g clip-path="url(#clip0)">
<path d="M12.8492 12.7508C13.437 12.7508 14.0261 12.1618 14.0261 11.5728C14.0261 10.9863 13.437 10.2009 12.8492 10.2009C12.2602 10.2009 11.4761 10.7886 11.4761 11.3777C11.6724 12.1618 12.0651 12.7508 12.8492 12.7508ZM15.6529 3.9139C16.0405 4.26325 16.2343 4.61259 16.2343 5.13789C16.2343 5.66063 16.0405 6.00998 16.0405 6.534C16.0405 7.05802 16.0405 7.40737 16.6219 7.58204C17.0095 7.75671 17.3971 7.58204 17.7847 7.23269L18.9475 6.18465C19.3351 5.83531 19.7227 5.66191 20.1103 5.83531C20.6917 5.83531 21.2731 6.00998 21.8545 6.00998C22.2421 6.00998 22.6297 5.83531 22.8235 5.48723C23.0173 5.13661 23.0173 4.78727 22.6297 4.43792C22.2421 4.08857 21.8545 3.91517 21.4656 3.56455C21.0793 3.21393 20.6917 2.86458 20.8855 2.34056C20.8855 1.99122 21.0793 1.46719 21.0793 1.11912C21.0793 0.593827 21.0793 0.24448 20.4992 0.069807C19.9165 -0.104866 19.5289 0.0698069 19.3351 0.419154C18.9475 0.768501 18.7537 1.11912 18.3661 1.29252C17.9785 1.81527 17.5909 1.99122 16.8157 1.81527C16.2343 1.46719 15.6529 1.46719 15.2653 1.46719C14.6839 1.46719 14.2964 1.64187 14.1013 1.99122C13.91 2.34056 14.1013 2.68991 14.4902 3.03926C14.8777 3.3886 15.2653 3.56455 15.6542 3.9139H15.6529ZM12.7919 16.7913C13.2062 17.7858 13.6206 18.6145 14.0363 19.609C14.4506 20.272 15.0715 20.6022 15.6937 20.272C15.8476 20.231 15.9917 20.1594 16.1173 20.0615C16.2429 19.9636 16.3475 19.8413 16.4249 19.7021C16.5022 19.5629 16.5507 19.4095 16.5675 19.2511C16.5843 19.0927 16.569 18.9326 16.5225 18.7803C16.1081 17.7858 15.6937 16.957 15.2781 15.9625C15.0728 15.4678 14.6572 15.3008 14.035 15.3008C13.2062 15.4666 12.584 16.1296 12.7906 16.7926H12.7919V16.7913ZM50.914 30.9947C50.8214 30.8167 50.6808 30.6682 50.5083 30.566C50.3357 30.4637 50.138 30.4117 49.9374 30.4158H48.3755C47.7903 30.4158 47.4002 30.2246 47.0087 29.8382C46.8149 29.4519 46.4222 29.0656 46.2284 28.6806C45.837 28.2955 45.4469 27.9092 45.0555 28.1017C44.4702 28.2955 44.4702 28.6806 44.4702 29.2594V30.6109C44.4702 31.1885 44.2752 31.5748 43.885 31.9598C43.4949 32.1536 43.1034 32.5387 42.7133 32.7312C42.3232 33.1175 41.933 33.5026 42.1268 34.0827C42.3232 34.6603 42.7133 34.6603 43.2998 34.6603H44.6666C45.2518 34.6603 45.6419 34.854 46.0334 35.2404C46.4235 35.6254 46.6186 36.0117 47.0087 36.5919C47.2038 36.9756 47.5952 36.9756 48.1805 36.9756C48.5706 36.7831 48.9607 36.5906 48.9607 36.0117V34.2727C48.9607 33.6951 49.1571 33.5013 49.5472 33.1162C49.9374 32.7299 50.5226 32.5387 50.914 32.1523C50.914 31.766 51.1091 31.3797 50.914 30.9947ZM17.8523 39.5256L18.3789 33.1507L22.951 37.631L17.851 39.5243V39.5256H17.8523ZM15.746 40.6004L12.7511 42.0756L13.7494 27.1442V26.7757L16.576 29.9096L15.746 40.6004ZM8.42758 44.4165L5.10113 45.9006L8.9261 35.7006L8.42885 44.4165H8.42758ZM13.9802 22.2406C13.6079 21.8645 12.862 21.6758 12.3035 21.6758C11.6958 21.8771 11.1718 22.2738 10.8131 22.8041L0.194978 48.3613C-0.177319 49.1135 0.00755425 49.8658 0.567274 50.4293C1.12572 50.9929 1.87159 51.1816 2.61618 50.8054L28.1376 40.093C28.6974 39.9056 29.0684 39.3407 29.2558 38.5898C29.4419 38.0262 29.2558 37.274 28.6974 36.8991L13.9802 22.2406ZM35.0302 34.6552C34.6923 34.4486 34.1887 34.2408 33.8534 34.0342C33.1815 33.8264 32.6766 33.412 32.0059 33.2055C31.3328 32.9964 30.8291 33.412 30.6608 34.0342C30.4938 34.863 30.6608 35.4852 31.3328 35.6917L34.357 36.9348C35.0289 37.1427 35.7009 36.5205 35.7009 35.8995C35.7009 35.2786 35.5326 34.863 35.0289 34.6552H35.0302ZM41.2547 28.1476C34.9767 25.4536 30.7297 26.9937 26.1129 30.4566C25.3735 30.8417 25.3735 31.8043 25.7432 32.5731C26.113 32.9581 26.4827 33.1507 26.8524 33.1507C27.2222 33.1507 27.4058 33.1507 27.5894 32.9594C31.6528 29.879 34.7918 28.7252 39.9632 31.0342C40.7014 31.4192 41.6245 31.0342 41.8093 30.2654C42.3627 29.3027 41.9942 28.3401 41.256 28.1476H41.2547ZM39.6227 36.9756C39.0362 36.9756 38.2508 37.5634 38.2508 38.1537C38.2508 38.7402 38.8399 39.3293 39.4277 39.5256C40.0167 39.5256 40.8008 38.9378 40.8008 38.3488C40.8008 37.5634 40.2118 36.9756 39.624 36.9756H39.6227ZM43.5395 17.8508C42.7031 17.8508 42.0758 18.4883 42.0758 19.1258C42.0758 19.9762 42.7031 20.4008 43.3304 20.4008C44.1668 20.4008 44.7941 19.7633 44.585 18.9129C44.7941 18.4883 44.1668 17.8508 43.5395 17.8508ZM20.86 9.06995C20.0746 9.4397 19.6806 10.1792 20.0746 10.9161C22.2357 16.0862 21.254 19.224 18.1086 23.2861C17.7159 24.0243 17.7159 24.7625 18.5025 25.3159C18.6989 25.5007 19.0916 25.5007 19.2879 25.5007C19.6806 25.5007 20.2697 25.3159 20.4673 24.9474C24.0041 20.3319 25.5762 16.0862 22.8248 9.80945C22.6284 9.06995 21.6454 8.7002 20.8613 9.06995H20.86ZM36.6316 11.7691C37.0039 11.9553 37.5611 11.9553 37.9334 12.1414C38.4918 12.3263 38.6767 12.5137 38.8628 13.0721C39.049 13.628 39.049 14.0003 39.2351 14.5588C39.4213 14.9298 39.6062 15.3021 40.1646 15.3021C40.5369 15.3021 40.9079 14.9298 41.0953 14.5588C41.2802 14.0003 41.4664 13.628 41.4664 13.0709C41.6525 12.5137 41.8387 12.3263 42.3958 12.1401C42.9543 11.9553 43.5114 11.7691 43.8837 11.5842C44.256 11.3968 44.4409 11.0258 44.6271 10.6535C44.6271 10.0963 44.256 9.91017 43.8837 9.72402C43.5114 9.72402 42.9543 9.53787 42.5833 9.353C42.0248 9.16685 41.6525 8.97943 41.6525 8.42226C41.4664 8.04996 41.4664 7.49152 41.2802 7.12049C41.0953 6.56332 40.9079 6.37718 40.3495 6.37718C39.7936 6.37718 39.6062 6.74947 39.4213 7.12049C39.2351 7.49279 39.2351 7.86381 39.049 8.42353C38.6767 8.97943 38.3057 9.353 37.7485 9.353C37.3762 9.53787 37.0039 9.53787 36.6316 9.72402C36.0744 9.91017 35.7021 10.0963 35.7021 10.6548C35.7021 11.3968 36.0744 11.583 36.6316 11.7691ZM39.2925 20.5334C37.7816 21.023 36.4404 21.6758 35.0978 22.3273C34.7625 22.4905 34.4272 22.8182 34.4272 23.3078C34.4272 23.9593 35.0978 24.4501 35.7697 24.1237C37.2793 23.6329 38.6219 22.9801 40.1302 22.3273C40.8021 22.0009 40.9704 21.5113 40.6338 21.023C40.4668 20.5334 39.9632 20.207 39.2925 20.5334ZM27.7131 16.5758C28.2103 16.5758 28.5444 16.3769 28.7101 15.9778C29.3756 14.1839 30.0399 12.39 30.5384 10.5961C30.7042 9.99687 30.5384 9.3989 30.0412 9.0011C29.5414 8.80093 28.8759 9.0011 28.7101 9.5978C28.0458 11.393 27.3803 13.1869 26.8818 14.9808C26.549 15.7777 27.0475 16.5758 27.7131 16.5758ZM23.0619 26.0834C22.7011 26.9772 23.2442 27.8722 24.328 28.0507C24.8698 28.0507 25.2307 27.8722 25.4117 27.6937C26.8575 26.2606 28.3021 24.8301 29.5682 23.3983L36.434 16.6013C36.7961 16.2443 36.9759 16.0645 36.9759 15.5278C36.9759 14.8112 36.6138 14.2745 35.8921 14.096C35.1692 13.9175 34.8071 14.096 34.4463 14.453C29.2061 19.6422 28.6642 20.3574 23.424 25.5454C23.2442 25.7239 23.0632 25.9049 23.0632 26.0834H23.0619ZM31.779 7.65089C32.5618 7.65089 33.1509 7.06439 33.1509 6.27773C33.1509 5.68996 32.5618 5.10091 31.9728 5.10091C31.19 5.10091 30.6009 5.68741 30.6009 6.47535C30.6009 7.06185 30.9936 7.65089 31.779 7.65089Z" fill="#F2994A"/>
</g>
<defs>
<clipPath id="clip0">
<rect width="51" height="51" fill="white"/>
</clipPath>
</defs>
</svg>
