<svg width="85" height="85" viewBox="0 0 85 85" fill="none" xmlns="http://www.w3.org/2000/svg">
<circle cx="42.5" cy="42.5" r="42.5" fill="#EAEFF4"/>
<path d="M22.8125 39.6875H62.1875V59.375C62.1875 60.8668 61.5949 62.2976 60.54 63.3525C59.4851 64.4074 58.0543 65 56.5625 65H28.4375C26.9457 65 25.5149 64.4074 24.46 63.3525C23.4051 62.2976 22.8125 60.8668 22.8125 59.375V39.6875Z" fill="#EC5942"/>
<path d="M42.4494 32.2794L42.9444 34.0625H41.0937C30.9547 34.0625 25.625 32.24 25.625 27.8469C25.625 22.5566 27.9791 20 32.4875 20C36.0594 20 38.5344 22.5566 40.3541 26.3534C41.0684 27.8497 41.7659 29.8213 42.4494 32.2794ZM37.8172 27.5656C36.425 24.6575 34.6362 22.8125 32.4875 22.8125C29.585 22.8125 28.4375 24.0584 28.4375 27.8469C28.4375 29.7144 31.8884 31.0363 39.2066 31.2275C38.8283 29.9763 38.3641 28.7528 37.8172 27.5656Z" fill="#FFB400"/>
<path d="M42.4494 32.2794L42.9444 34.0625H41.0937C30.9547 34.0625 25.625 32.24 25.625 27.8469C25.625 22.5566 27.9791 20 32.4875 20C36.0594 20 38.5344 22.5566 40.3541 26.3534C41.0684 27.8497 41.7659 29.8213 42.4494 32.2794ZM37.8172 28.7919C36.425 26.8484 34.6362 25.625 32.4875 25.625C29.585 25.625 28.4375 26.4547 28.4375 28.9775C28.4375 30.2206 31.8884 31.0981 39.2066 31.2275C38.8171 30.3749 38.3521 29.5588 37.8172 28.7891V28.7919Z" fill="#FED546"/>
<path d="M42.995 32.2794L42.5 34.0625H44.3506C54.4897 34.0625 59.8194 32.24 59.8194 27.8469C59.8194 22.5538 57.4653 20 52.9569 20C49.385 20 46.91 22.5566 45.0903 26.3534C44.3759 27.8497 43.6784 29.8213 42.995 32.2794ZM47.6272 28.7919C49.0194 26.8484 50.8081 25.625 52.9569 25.625C55.8594 25.625 57.0069 26.4547 57.0069 28.9775C57.0069 30.2206 53.5559 31.0981 46.2378 31.2275C46.7047 30.2431 47.1659 29.4275 47.6272 28.7891V28.7919Z" fill="#FED546"/>
<path d="M25.625 31.25H59.375C63.125 31.25 65 33.125 65 36.875C65 40.625 63.125 42.5 59.375 42.5H25.625C21.875 42.5 20 40.625 20 36.875C20 33.125 21.875 31.25 25.625 31.25Z" fill="#FF634A"/>
<path d="M36.875 42.5H48.125V65H36.875V42.5Z" fill="#FFB81E"/>
<path d="M36.875 31.25C37.7131 29.0872 39.5891 28.0072 42.5 28.0072C45.4109 28.0072 47.2869 29.0872 48.125 31.25V42.5H36.875V31.25Z" fill="#FED546"/>
</svg>
