<svg width="24" height="24" viewBox="0 0 24 24" fill="none" xmlns="http://www.w3.org/2000/svg">
<rect width="24" height="24" rx="4" fill="#F89E2D"/>
<path d="M12.3831 11.0222C10.1532 10.4977 9.43615 9.95553 9.43615 9.11108C9.43615 8.14219 10.4283 7.46664 12.0884 7.46664C13.8369 7.46664 14.4853 8.22219 14.5442 9.3333H16.7151C16.6464 7.80441 15.6149 6.39997 13.5619 5.94664V3.99997H10.6149V5.91997C8.70923 6.2933 7.17682 7.4133 7.17682 9.12886C7.17682 11.1822 9.05304 12.2044 11.7937 12.8C14.2495 13.3333 14.7407 14.1155 14.7407 14.9422C14.7407 15.5555 14.2593 16.5333 12.0884 16.5333C10.0648 16.5333 9.26916 15.7155 9.1611 14.6666H7C7.11788 16.6133 8.72888 17.7066 10.6149 18.0711V20H13.5619V18.0889C15.4774 17.76 17 16.7555 17 14.9333C17 12.4089 14.613 11.5466 12.3831 11.0222Z" fill="white"/>
</svg>
