<svg fill="none" height="16" viewBox="0 0 16 16" width="16" xmlns="http://www.w3.org/2000/svg">
    <path
        d="M8.66602 2C5.35268 2 2.66602 4.68667 2.66602 8H0.666016L3.25935 10.5933L3.30602 10.6867L5.99935 8H3.99935C3.99935 5.42 6.08602 3.33333 8.66602 3.33333C11.246 3.33333 13.3327 5.42 13.3327 8C13.3327 10.58 11.246 12.6667 8.66602 12.6667C7.37935 12.6667 6.21268 12.14 5.37268 11.2933L4.42602 12.24C5.51268 13.3267 7.00602 14 8.66602 14C11.9793 14 14.666 11.3133 14.666 8C14.666 4.68667 11.9793 2 8.66602 2ZM7.99935 5.33333V8.66667L10.8527 10.36L11.3327 9.55333L8.99935 8.16667V5.33333H7.99935Z"
        fill="#8695A5"/>
</svg>
