<svg width="15" height="13" viewBox="0 0 15 13" fill="none" xmlns="http://www.w3.org/2000/svg">
<path d="M1.12533 0.125H13.8753C14.0632 0.125 14.2434 0.199628 14.3762 0.332466C14.509 0.465304 14.5837 0.645472 14.5837 0.833333V12.1667C14.5837 12.3545 14.509 12.5347 14.3762 12.6675C14.2434 12.8004 14.0632 12.875 13.8753 12.875H1.12533C0.937464 12.875 0.757296 12.8004 0.624458 12.6675C0.49162 12.5347 0.416992 12.3545 0.416992 12.1667V0.833333C0.416992 0.645472 0.49162 0.465304 0.624458 0.332466C0.757296 0.199628 0.937464 0.125 1.12533 0.125ZM5.02116 7.91667V9.33333H6.79199V10.75H8.20866V9.33333H8.91699C9.38665 9.33333 9.83707 9.14676 10.1692 8.81467C10.5013 8.48257 10.6878 8.03215 10.6878 7.5625C10.6878 7.09285 10.5013 6.64243 10.1692 6.31033C9.83707 5.97824 9.38665 5.79167 8.91699 5.79167H6.08366C5.98973 5.79167 5.89964 5.75435 5.83323 5.68793C5.76681 5.62151 5.72949 5.53143 5.72949 5.4375C5.72949 5.34357 5.76681 5.25349 5.83323 5.18707C5.89964 5.12065 5.98973 5.08333 6.08366 5.08333H9.97949V3.66667H8.20866V2.25H6.79199V3.66667H6.08366C5.61401 3.66667 5.16359 3.85324 4.83149 4.18533C4.4994 4.51743 4.31283 4.96785 4.31283 5.4375C4.31283 5.90715 4.4994 6.35757 4.83149 6.68967C5.16359 7.02176 5.61401 7.20833 6.08366 7.20833H8.91699C9.01092 7.20833 9.10101 7.24565 9.16743 7.31207C9.23385 7.37849 9.27116 7.46857 9.27116 7.5625C9.27116 7.65643 9.23385 7.74651 9.16743 7.81293C9.10101 7.87935 9.01092 7.91667 8.91699 7.91667H5.02116Z" fill="#FFCC31"/>
</svg>
