<svg fill="none" height="139" viewBox="0 0 146 139" width="146" xmlns="http://www.w3.org/2000/svg">
    <g clip-path="url(#clip0)">
        <path d="M88.2503 7.78796L12.2871 24.0869L34.807 129.043L110.77 112.744L88.2503 7.78796Z" fill="#E0E0E0"/>
        <g opacity="0.5">
            <path d="M87.349 9.83784L13.9531 25.5859L35.7118 126.995L109.108 111.247L87.349 9.83784Z" fill="url(#paint0_linear)"
                  opacity="0.5"/>
        </g>
        <path d="M86.5741 10.7847L15.0469 26.1318L36.3248 125.3L107.852 109.953L86.5741 10.7847Z" fill="#FAFAFA"/>
        <path d="M67.724 10.3327L32.2402 17.9463L34.0845 26.5417L69.5683 18.9282L67.724 10.3327Z"
              fill="url(#paint1_linear)"/>
        <path
            d="M48.1793 5.74432C45.4397 6.33276 43.7064 9.08297 44.3091 11.8865C44.9118 14.6901 47.6193 16.4892 50.3535 15.9007C53.0877 15.3123 54.8264 12.5621 54.2237 9.75853C53.621 6.95498 50.9188 5.15588 48.1793 5.74432ZM49.8984 13.7621C49.3194 13.9001 48.7124 13.8627 48.1548 13.6545C47.5971 13.4463 47.1141 13.0768 46.7672 12.5931C46.4204 12.1094 46.2254 11.5333 46.2072 10.9384C46.1889 10.3434 46.3482 9.75653 46.6648 9.25246C46.9813 8.74839 47.4408 8.34998 47.9846 8.10801C48.5285 7.86605 49.132 7.79148 49.7184 7.89382C50.3048 7.99616 50.8474 8.27077 51.2771 8.68264C51.7068 9.09452 52.0042 9.62502 52.1313 10.2065C52.2191 10.5866 52.2309 10.9804 52.1661 11.3651C52.1013 11.7498 51.9612 12.1179 51.7537 12.4483C51.5462 12.7787 51.2755 13.0648 50.9571 13.2903C50.6387 13.5157 50.2789 13.6761 49.8984 13.7621Z"
            fill="url(#paint2_linear)"/>
        <path d="M67.2715 10.0439L32.5352 17.4971L34.2981 25.7136L69.0345 18.2604L67.2715 10.0439Z" fill="#606CE6"/>
        <path
            d="M48.1792 5.74435C47.219 5.95044 46.3415 6.4366 45.6577 7.14138C44.9738 7.84615 44.5143 8.73788 44.3372 9.7038C44.1602 10.6697 44.2735 11.6665 44.6629 12.568C45.0523 13.4695 45.7003 14.2353 46.5249 14.7686C47.3495 15.3018 48.3138 15.5786 49.2957 15.5638C50.2776 15.5491 51.2331 15.2435 52.0413 14.6858C52.8496 14.128 53.4743 13.3431 53.8365 12.4303C54.1986 11.5175 54.282 10.5178 54.076 9.55767C53.9393 8.92007 53.6782 8.31566 53.3079 7.77895C52.9375 7.24224 52.465 6.78374 51.9174 6.42963C51.3698 6.07553 50.7579 5.83275 50.1165 5.71517C49.4751 5.59759 48.8168 5.60751 48.1792 5.74435ZM49.8218 13.4065C49.2676 13.5255 48.6906 13.4774 48.1637 13.2683C47.6369 13.0593 47.1838 12.6987 46.8619 12.2322C46.54 11.7656 46.3636 11.2141 46.3552 10.6474C46.3467 10.0806 46.5065 9.52408 46.8143 9.04814C47.1222 8.5722 47.5642 8.19824 48.0846 7.97356C48.605 7.74887 49.1803 7.68355 49.7378 7.78585C50.2954 7.88816 50.81 8.15349 51.2167 8.5483C51.6234 8.94311 51.9039 9.44966 52.0227 10.0039C52.182 10.747 52.0396 11.5229 51.6269 12.161C51.2142 12.7991 50.5649 13.2471 49.8218 13.4065Z"
            fill="#606CE6"/>
        <path d="M123.54 20.7842H45.8477V128.129H123.54V20.7842Z" fill="#E0E0E0"/>
        <g opacity="0.5">
            <path d="M122.226 22.5986H47.1602V126.315H122.226V22.5986Z" fill="url(#paint3_linear)" opacity="0.5"/>
        </g>
        <path d="M121.27 23.3633H48.1152V124.789H121.27V23.3633Z" fill="white"/>
        <path d="M102.934 18.9648H66.6426V27.7559H102.934V18.9648Z" fill="url(#paint4_linear)"/>
        <path
            d="M84.7886 10.3838C81.9868 10.3838 79.7148 12.7091 79.7148 15.5784C79.7148 18.4478 81.9868 20.7731 84.7886 20.7731C87.5904 20.7731 89.8624 18.4478 89.8624 15.5784C89.8624 12.7091 87.5904 10.3838 84.7886 10.3838ZM84.7886 18.5758C84.193 18.5899 83.6066 18.4262 83.1044 18.1055C82.6023 17.7849 82.2071 17.3219 81.9693 16.7756C81.7315 16.2293 81.6619 15.6245 81.7694 15.0385C81.8769 14.4525 82.1566 13.9118 82.5728 13.4854C82.989 13.0591 83.5228 12.7665 84.1061 12.645C84.6894 12.5234 85.2956 12.5785 85.8475 12.8031C86.3993 13.0277 86.8717 13.4117 87.2043 13.9061C87.5369 14.4004 87.7146 14.9826 87.7148 15.5784C87.7205 16.3615 87.4158 17.115 86.8675 17.674C86.3191 18.233 85.5716 18.5521 84.7886 18.5615V18.5758Z"
            fill="url(#paint5_linear)"/>
        <path d="M102.552 18.5879H67.0254V26.9914H102.552V18.5879Z" fill="#606CE6"/>
        <path
            d="M84.7895 10.3838C83.8075 10.3838 82.8475 10.675 82.0309 11.2206C81.2144 11.7662 80.578 12.5417 80.2022 13.449C79.8264 14.3562 79.728 15.3546 79.9196 16.3178C80.1112 17.281 80.5841 18.1657 81.2785 18.8601C81.9729 19.5545 82.8577 20.0274 83.8208 20.219C84.784 20.4106 85.7824 20.3123 86.6897 19.9364C87.597 19.5606 88.3724 18.9242 88.918 18.1077C89.4636 17.2911 89.7548 16.3311 89.7548 15.3491C89.7548 14.0322 89.2317 12.7693 88.3005 11.8381C87.3694 10.9069 86.1064 10.3838 84.7895 10.3838ZM84.7895 18.2149C84.2232 18.2142 83.6698 18.0457 83.1991 17.7307C82.7285 17.4156 82.3617 16.9683 82.1451 16.445C81.9286 15.9217 81.8719 15.3459 81.9823 14.7904C82.0927 14.235 82.3652 13.7247 82.7654 13.324C83.1657 12.9232 83.6756 12.6501 84.231 12.539C84.7863 12.4279 85.3621 12.4839 85.8857 12.6998C86.4092 12.9157 86.8571 13.2819 87.1727 13.7522C87.4883 14.2224 87.6574 14.7756 87.6589 15.342C87.6586 15.7185 87.5842 16.0912 87.4399 16.4389C87.2955 16.7867 87.0841 17.1025 86.8176 17.3685C86.5511 17.6345 86.2349 17.8453 85.8869 17.989C85.5389 18.1327 85.166 18.2064 84.7895 18.206V18.2149Z"
            fill="#606CE6"/>
        <g opacity="0.5">
            <path d="M3.38328 131.03H2.71484V134.822H3.38328V131.03Z" fill="#47E6B1" opacity="0.5"/>
            <path d="M4.94531 133.261V132.593H1.15334V133.261H4.94531Z" fill="#47E6B1" opacity="0.5"/>
        </g>
        <g opacity="0.5">
            <path d="M80.9321 0H80.2637V3.79198H80.9321V0Z" fill="#47E6B1" opacity="0.5"/>
            <path d="M82.4941 2.22898V1.56055L78.7022 1.56055V2.22898H82.4941Z" fill="#47E6B1" opacity="0.5"/>
        </g>
        <path d="M137.081 137.343C136.897 137.263 136.748 137.118 136.664 136.935C136.58 136.753 136.566 136.546 136.624 136.353C136.634 136.324 136.64 136.293 136.642 136.263C136.647 136.174 136.624 136.087 136.576 136.013C136.528 135.939 136.457 135.883 136.374 135.852C136.291 135.822 136.201 135.819 136.116 135.844C136.032 135.869 135.957 135.92 135.904 135.991C135.886 136.015 135.87 136.042 135.858 136.071C135.778 136.255 135.633 136.403 135.45 136.488C135.267 136.572 135.06 136.586 134.868 136.527C134.838 136.518 134.808 136.512 134.777 136.51C134.689 136.504 134.602 136.528 134.528 136.576C134.454 136.624 134.398 136.695 134.367 136.777C134.337 136.86 134.334 136.951 134.358 137.035C134.383 137.12 134.435 137.194 134.505 137.247C134.53 137.266 134.557 137.281 134.585 137.294C134.77 137.374 134.918 137.519 135.002 137.702C135.086 137.884 135.101 138.091 135.042 138.284C135.033 138.313 135.027 138.344 135.024 138.375C135.019 138.463 135.042 138.55 135.09 138.624C135.139 138.698 135.209 138.754 135.292 138.785C135.375 138.815 135.465 138.818 135.55 138.793C135.635 138.768 135.709 138.717 135.762 138.646C135.781 138.622 135.796 138.595 135.808 138.567C135.889 138.382 136.034 138.234 136.216 138.149C136.399 138.065 136.606 138.051 136.798 138.11C136.828 138.119 136.858 138.125 136.889 138.127C136.977 138.133 137.065 138.11 137.138 138.061C137.212 138.013 137.269 137.942 137.299 137.86C137.33 137.777 137.333 137.686 137.308 137.602C137.283 137.517 137.232 137.443 137.161 137.39C137.136 137.371 137.11 137.356 137.081 137.343Z"
              fill="#4D8AF0"
              opacity="0.5"/>
        <path d="M24.296 100.888C24.1116 100.808 23.9632 100.663 23.8789 100.48C23.7947 100.298 23.7805 100.09 23.8391 99.8981C23.8486 99.8687 23.8545 99.8383 23.8569 99.8074C23.8622 99.7194 23.839 99.632 23.7908 99.5581C23.7425 99.4843 23.6718 99.4279 23.589 99.3974C23.5063 99.3669 23.4159 99.3639 23.3312 99.3887C23.2466 99.4136 23.1722 99.465 23.1191 99.5354C23.1006 99.5602 23.0851 99.5871 23.0729 99.6154C22.9926 99.7998 22.8474 99.9482 22.6648 100.032C22.4822 100.117 22.275 100.131 22.0827 100.072C22.0533 100.063 22.0228 100.057 21.992 100.055C21.904 100.049 21.8165 100.072 21.7427 100.121C21.6689 100.169 21.6125 100.24 21.582 100.322C21.5515 100.405 21.5484 100.496 21.5733 100.58C21.5981 100.665 21.6496 100.739 21.72 100.792C21.7448 100.811 21.7716 100.826 21.8 100.839C21.9844 100.919 22.1328 101.064 22.2171 101.247C22.3013 101.429 22.3155 101.636 22.2569 101.829C22.2474 101.858 22.2415 101.889 22.2391 101.919C22.2338 102.007 22.257 102.095 22.3052 102.169C22.3535 102.243 22.4242 102.299 22.507 102.329C22.5897 102.36 22.6801 102.363 22.7648 102.338C22.8494 102.313 22.9238 102.262 22.9769 102.191C22.9954 102.167 23.0109 102.14 23.0231 102.111C23.1034 101.927 23.2486 101.779 23.4312 101.694C23.6138 101.61 23.821 101.596 24.0133 101.655C24.0427 101.664 24.0732 101.67 24.104 101.672C24.192 101.678 24.2795 101.654 24.3533 101.606C24.4271 101.558 24.4835 101.487 24.514 101.404C24.5445 101.322 24.5476 101.231 24.5227 101.147C24.4979 101.062 24.4464 100.988 24.376 100.935C24.3512 100.916 24.3244 100.901 24.296 100.888Z"
              fill="#FDD835"
              opacity="0.5"/>
        <path d="M118.235 12.1207C118.051 12.0405 117.903 11.8952 117.818 11.7127C117.734 11.5301 117.72 11.3229 117.779 11.1305C117.788 11.1011 117.794 11.0707 117.796 11.0399C117.802 10.9518 117.778 10.8644 117.73 10.7905C117.682 10.7167 117.611 10.6604 117.528 10.6298C117.446 10.5993 117.355 10.5963 117.271 10.6211C117.186 10.646 117.112 10.6974 117.059 10.7679C117.04 10.7926 117.025 10.8195 117.012 10.8479C116.932 11.0322 116.787 11.1807 116.604 11.2649C116.422 11.3491 116.214 11.3633 116.022 11.3047C115.993 11.2953 115.962 11.2893 115.931 11.287C115.843 11.2817 115.756 11.3048 115.682 11.3531C115.608 11.4013 115.552 11.4721 115.521 11.5548C115.491 11.6376 115.488 11.728 115.513 11.8126C115.538 11.8972 115.589 11.9716 115.659 12.0247C115.684 12.0432 115.711 12.0587 115.739 12.071C115.924 12.1512 116.072 12.2965 116.157 12.479C116.241 12.6616 116.255 12.8688 116.196 13.0612C116.187 13.0906 116.181 13.121 116.179 13.1518C116.173 13.2399 116.196 13.3273 116.245 13.4011C116.293 13.475 116.364 13.5313 116.446 13.5619C116.529 13.5924 116.62 13.5954 116.704 13.5706C116.789 13.5457 116.863 13.4943 116.916 13.4238C116.935 13.3991 116.95 13.3722 116.963 13.3438C117.043 13.1595 117.188 13.011 117.371 12.9268C117.553 12.8425 117.76 12.8284 117.953 12.887C117.982 12.8964 118.013 12.9024 118.043 12.9047C118.131 12.91 118.219 12.8869 118.293 12.8386C118.367 12.7904 118.423 12.7196 118.453 12.6369C118.484 12.5541 118.487 12.4637 118.462 12.3791C118.437 12.2945 118.386 12.2201 118.315 12.167C118.291 12.1485 118.264 12.133 118.235 12.1207Z"
              fill="#FDD835"
              opacity="0.5"/>
        <path d="M144.47 57.2437C145.209 57.2437 145.808 56.6444 145.808 55.9051C145.808 55.1657 145.209 54.5664 144.47 54.5664C143.73 54.5664 143.131 55.1657 143.131 55.9051C143.131 56.6444 143.73 57.2437 144.47 57.2437Z"
              fill="#F55F44"
              opacity="0.5"/>
        <path d="M41.0183 134.076C41.7577 134.076 42.357 133.476 42.357 132.737C42.357 131.998 41.7577 131.398 41.0183 131.398C40.279 131.398 39.6797 131.998 39.6797 132.737C39.6797 133.476 40.279 134.076 41.0183 134.076Z"
              fill="#F55F44"
              opacity="0.5"/>
        <path d="M130.721 86.1793C131.461 86.1793 132.06 85.5799 132.06 84.8406C132.06 84.1013 131.461 83.502 130.721 83.502C129.982 83.502 129.383 84.1013 129.383 84.8406C129.383 85.5799 129.982 86.1793 130.721 86.1793Z"
              fill="#F55F44"
              opacity="0.5"/>
        <path d="M15.491 18.4674C16.2303 18.4674 16.8297 17.868 16.8297 17.1287C16.8297 16.3894 16.2303 15.79 15.491 15.79C14.7517 15.79 14.1523 16.3894 14.1523 17.1287C14.1523 17.868 14.7517 18.4674 15.491 18.4674Z"
              fill="#4D8AF0"
              opacity="0.5"/>
        <path d="M1.33866 54.9849C2.07798 54.9849 2.67732 54.3856 2.67732 53.6463C2.67732 52.907 2.07798 52.3076 1.33866 52.3076C0.599339 52.3076 0 52.907 0 53.6463C0 54.3856 0.599339 54.9849 1.33866 54.9849Z"
              fill="#47E6B1"
              opacity="0.5"/>
    </g>
    <defs>
        <linearGradient gradientUnits="userSpaceOnUse" id="paint0_linear" x1="72.4088" x2="50.6502" y1="119.121"
                        y2="17.7121">
            <stop stop-color="#808080" stop-opacity="0.25"/>
            <stop offset="0.54" stop-color="#808080" stop-opacity="0.12"/>
            <stop offset="1" stop-color="#808080" stop-opacity="0.1"/>
        </linearGradient>
        <linearGradient gradientUnits="userSpaceOnUse" id="paint1_linear" x1="19521" x2="19429.8" y1="-2542.01"
                        y2="-2967.06">
            <stop stop-color="#808080" stop-opacity="0.25"/>
            <stop offset="0.54" stop-color="#808080" stop-opacity="0.12"/>
            <stop offset="1" stop-color="#808080" stop-opacity="0.1"/>
        </linearGradient>
        <linearGradient gradientUnits="userSpaceOnUse" id="paint2_linear" x1="5700.19" x2="5572.96" y1="289.949"
                        y2="-303.024">
            <stop stop-color="#808080" stop-opacity="0.25"/>
            <stop offset="0.54" stop-color="#808080" stop-opacity="0.12"/>
            <stop offset="1" stop-color="#808080" stop-opacity="0.1"/>
        </linearGradient>
        <linearGradient gradientUnits="userSpaceOnUse" id="paint3_linear" x1="35808.7" x2="35808.7" y1="73716.5"
                        y2="13207.1">
            <stop stop-color="#808080" stop-opacity="0.25"/>
            <stop offset="0.54" stop-color="#808080" stop-opacity="0.12"/>
            <stop offset="1" stop-color="#808080" stop-opacity="0.1"/>
        </linearGradient>
        <linearGradient gradientUnits="userSpaceOnUse" id="paint4_linear" x1="17375.5" x2="17375.5" y1="1391.51"
                        y2="956.796">
            <stop stop-color="#808080" stop-opacity="0.25"/>
            <stop offset="0.54" stop-color="#808080" stop-opacity="0.12"/>
            <stop offset="1" stop-color="#808080" stop-opacity="0.1"/>
        </linearGradient>
        <linearGradient gradientUnits="userSpaceOnUse" id="paint5_linear" x1="6846.68" x2="6846.68" y1="1842.95"
                        y2="1235.8">
            <stop stop-color="#808080" stop-opacity="0.25"/>
            <stop offset="0.54" stop-color="#808080" stop-opacity="0.12"/>
            <stop offset="1" stop-color="#808080" stop-opacity="0.1"/>
        </linearGradient>
        <clipPath id="clip0">
            <rect fill="white" height="138.81" width="145.806"/>
        </clipPath>
    </defs>
</svg>
