<svg width="70" height="17" viewBox="0 0 70 17" fill="none" xmlns="http://www.w3.org/2000/svg">
<path d="M25.887 3.78125H22.0559C21.929 3.78117 21.8064 3.82639 21.7099 3.90876C21.6135 3.99113 21.5496 4.10524 21.5299 4.23052L19.9804 14.0545C19.9733 14.1 19.9761 14.1466 19.9887 14.191C20.0013 14.2354 20.0234 14.2765 20.0534 14.3116C20.0835 14.3466 20.1207 14.3747 20.1627 14.3939C20.2046 14.4132 20.2502 14.4231 20.2963 14.4231H22.1253C22.2522 14.4231 22.375 14.3778 22.4715 14.2953C22.5679 14.2128 22.6317 14.0986 22.6513 13.9732L23.0692 11.3236C23.0889 11.1983 23.1526 11.0841 23.2489 11.0016C23.3453 10.9192 23.4679 10.8738 23.5947 10.8737H24.8075C27.3311 10.8737 28.7876 9.65253 29.168 7.23254C29.3394 6.17379 29.1752 5.34192 28.6795 4.75933C28.135 4.1196 27.1692 3.78125 25.887 3.78125ZM26.3289 7.36923C26.1194 8.74392 25.0691 8.74392 24.0535 8.74392H23.4754L23.8809 6.17659C23.8928 6.10148 23.9311 6.03308 23.9889 5.98368C24.0467 5.93429 24.1203 5.90715 24.1963 5.90715H24.4613C25.1531 5.90715 25.8057 5.90715 26.143 6.30152C26.3441 6.53679 26.4057 6.88635 26.3289 7.36923ZM37.3388 7.32497H35.5042C35.4281 7.32497 35.3546 7.35211 35.2968 7.40151C35.239 7.4509 35.2007 7.51931 35.1888 7.59442L35.1076 8.10755L34.9793 7.92157C34.5821 7.34514 33.6965 7.15243 32.8125 7.15243C30.7852 7.15243 29.0537 8.6879 28.7164 10.8418C28.5411 11.9162 28.7904 12.9436 29.3999 13.6601C29.9589 14.3189 30.7589 14.5934 31.7106 14.5934C33.3441 14.5934 34.2499 13.543 34.2499 13.543L34.1681 14.0528C34.1609 14.0983 34.1635 14.145 34.176 14.1894C34.1885 14.2338 34.2104 14.2751 34.2403 14.3102C34.2703 14.3453 34.3074 14.3736 34.3493 14.393C34.3912 14.4124 34.4368 14.4224 34.483 14.4225H36.1355C36.2624 14.4226 36.3852 14.3773 36.4816 14.2948C36.5781 14.2123 36.6419 14.0981 36.6615 13.9727L37.653 7.69357C37.6603 7.6481 37.6577 7.60158 37.6452 7.55723C37.6328 7.51289 37.6109 7.47177 37.581 7.43672C37.5511 7.40167 37.514 7.37353 37.4722 7.35424C37.4304 7.33494 37.3848 7.32496 37.3388 7.32497ZM34.7815 10.8956C34.6045 11.9437 33.7727 12.6473 32.7117 12.6473C32.1789 12.6473 31.7532 12.4764 31.4798 12.1526C31.2087 11.8311 31.1056 11.3734 31.1919 10.8636C31.3571 9.82451 32.203 9.09795 33.2478 9.09795C33.7687 9.09795 34.1922 9.27105 34.4712 9.59764C34.7507 9.92758 34.8617 10.3881 34.7815 10.8956ZM47.1095 7.32497H45.2659C45.179 7.32511 45.0934 7.34646 45.0166 7.38716C44.9397 7.42787 44.874 7.48671 44.8251 7.55857L42.2824 11.304L41.2046 7.70478C41.1715 7.595 41.104 7.49879 41.012 7.43039C40.92 7.36199 40.8084 7.32503 40.6937 7.32497H38.8821C38.8312 7.32484 38.7811 7.33685 38.7358 7.36001C38.6905 7.38317 38.6515 7.41681 38.6218 7.45813C38.5922 7.49945 38.5728 7.54725 38.5654 7.59756C38.5579 7.64786 38.5626 7.69922 38.579 7.74735L40.6097 13.7066L38.7006 16.4016C38.6667 16.4494 38.6465 16.5056 38.6424 16.5641C38.6383 16.6225 38.6504 16.681 38.6773 16.7331C38.7042 16.7851 38.7449 16.8288 38.7949 16.8592C38.845 16.8897 38.9025 16.9058 38.9611 16.9058H40.8024C40.8884 16.9059 40.9731 16.8852 41.0493 16.8454C41.1255 16.8056 41.1909 16.7479 41.2399 16.6772L47.3717 7.82633C47.4049 7.77845 47.4244 7.72238 47.428 7.66421C47.4317 7.60603 47.4193 7.54797 47.3923 7.49632C47.3653 7.44466 47.3247 7.40139 47.2748 7.37118C47.2249 7.34098 47.1678 7.325 47.1095 7.32497Z" fill="#253B80"/>
<path d="M53.2132 3.78083H49.3816C49.2548 3.78089 49.1323 3.82617 49.036 3.90852C48.9396 3.99088 48.8759 4.10491 48.8561 4.2301L47.3067 14.054C47.2995 14.0995 47.3022 14.1461 47.3147 14.1904C47.3272 14.2347 47.3492 14.2759 47.3791 14.3109C47.409 14.3459 47.4462 14.3741 47.488 14.3933C47.5299 14.4126 47.5754 14.4226 47.6215 14.4226H49.5877C49.6764 14.4225 49.7622 14.3907 49.8295 14.333C49.8969 14.2753 49.9415 14.1954 49.9552 14.1078L50.395 11.3231C50.4146 11.1978 50.4783 11.0837 50.5746 11.0012C50.671 10.9187 50.7936 10.8734 50.9204 10.8733H52.1326C54.6568 10.8733 56.1128 9.65211 56.4937 7.23212C56.6657 6.17337 56.5004 5.3415 56.0046 4.75891C55.4607 4.11918 54.4955 3.78083 53.2132 3.78083ZM53.6552 7.3688C53.4463 8.74349 52.3959 8.74349 51.3798 8.74349H50.8022L51.2083 6.17617C51.22 6.10106 51.2581 6.0326 51.3159 5.98318C51.3736 5.93375 51.4472 5.90663 51.5232 5.90673H51.7881C52.4794 5.90673 53.1326 5.90673 53.4698 6.3011C53.6709 6.53637 53.732 6.88593 53.6552 7.3688ZM64.6645 7.32455H62.8311C62.755 7.32434 62.6814 7.35142 62.6236 7.40086C62.5659 7.45031 62.5278 7.51884 62.5162 7.594L62.435 8.10712L62.3062 7.92114C61.909 7.34472 61.0239 7.15201 60.1399 7.15201C58.1126 7.15201 56.3816 8.68747 56.0444 10.8414C55.8696 11.9158 56.1178 12.9432 56.7273 13.6597C57.2875 14.3184 58.0863 14.5929 59.038 14.5929C60.6715 14.5929 61.5774 13.5426 61.5774 13.5426L61.4956 14.0523C61.4883 14.098 61.491 14.1447 61.5035 14.1892C61.516 14.2338 61.5381 14.275 61.5681 14.3102C61.5982 14.3454 61.6355 14.3736 61.6775 14.3929C61.7195 14.4122 61.7653 14.4222 61.8115 14.4221H63.4635C63.5903 14.422 63.7129 14.3766 63.8093 14.2942C63.9056 14.2117 63.9693 14.0975 63.989 13.9722L64.981 7.69315C64.9881 7.64753 64.9852 7.60093 64.9725 7.55655C64.9598 7.51217 64.9377 7.47105 64.9076 7.43604C64.8775 7.40102 64.8402 7.37292 64.7983 7.35368C64.7563 7.33443 64.7107 7.3245 64.6645 7.32455ZM62.1073 10.8952C61.9314 11.9433 61.0984 12.6468 60.0374 12.6468C59.5058 12.6468 59.0789 12.476 58.8056 12.1522C58.5344 11.8307 58.4325 11.373 58.5176 10.8632C58.684 9.82408 59.5288 9.09753 60.5735 9.09753C61.0945 9.09753 61.518 9.27062 61.797 9.59721C62.0776 9.92716 62.1885 10.3876 62.1073 10.8952ZM66.8274 4.05028L65.255 14.054C65.2478 14.0995 65.2505 14.1461 65.263 14.1904C65.2755 14.2347 65.2975 14.2759 65.3274 14.3109C65.3573 14.3459 65.3945 14.3741 65.4364 14.3933C65.4782 14.4126 65.5237 14.4226 65.5698 14.4226H67.1506C67.4134 14.4226 67.6363 14.2322 67.6766 13.9728L69.2272 4.14943C69.2344 4.1039 69.2317 4.05734 69.2192 4.01297C69.2067 3.9686 69.1847 3.92746 69.1548 3.89238C69.1249 3.85731 69.0877 3.82912 69.0459 3.80977C69.0041 3.79042 68.9585 3.78036 68.9124 3.78027H67.1422C67.0662 3.78054 66.9928 3.80786 66.9351 3.85734C66.8774 3.90681 66.8393 3.97521 66.8274 4.05028Z" fill="#179BD7"/>
<path d="M4.06969 16.3322L4.36267 14.4712L3.71006 14.4561H0.59375L2.75942 0.72435C2.76587 0.682393 2.78718 0.644151 2.81947 0.616593C2.85176 0.589035 2.89287 0.573997 2.93532 0.574221H8.18985C9.93426 0.574221 11.1381 0.937219 11.7666 1.65369C12.0613 1.9898 12.2489 2.34104 12.3397 2.72756C12.4349 3.13313 12.4366 3.61769 12.3436 4.20869L12.3369 4.25182V4.6305L12.6316 4.79744C12.8565 4.9114 13.0587 5.06556 13.2281 5.25231C13.4802 5.53968 13.6432 5.90492 13.7121 6.33794C13.7833 6.78328 13.7598 7.31322 13.6432 7.91317C13.5088 8.60332 13.2914 9.20439 12.9979 9.69623C12.7389 10.1368 12.3907 10.5185 11.9756 10.8166C11.5857 11.0933 11.1224 11.3034 10.5986 11.4378C10.0911 11.57 9.51245 11.6367 8.87776 11.6367H8.46882C8.17641 11.6367 7.89239 11.742 7.66944 11.9308C7.4468 12.1216 7.29911 12.3852 7.25266 12.6747L7.22185 12.8422L6.70424 16.1221L6.68071 16.2425C6.67455 16.2806 6.66391 16.2997 6.64822 16.3125C6.63303 16.325 6.61407 16.3319 6.59444 16.3322H4.06969Z" fill="#253B80"/>
<path d="M12.9113 4.29492C12.8956 4.39519 12.8777 4.49771 12.8575 4.60302C12.1646 8.16075 9.79387 9.38979 6.76608 9.38979H5.22445C4.85417 9.38979 4.54215 9.65868 4.48445 10.0239L3.69515 15.0297L3.47164 16.4487C3.46274 16.505 3.46614 16.5625 3.4816 16.6173C3.49707 16.6722 3.52424 16.723 3.56125 16.7664C3.59825 16.8097 3.6442 16.8445 3.69594 16.8684C3.74768 16.8923 3.80398 16.9046 3.86097 16.9047H6.59522C6.91901 16.9047 7.19406 16.6694 7.24504 16.3501L7.27193 16.2112L7.78673 12.9442L7.81978 12.7649C7.8702 12.4445 8.14581 12.2092 8.4696 12.2092H8.87853C11.5276 12.2092 13.6014 11.1336 14.2076 8.02126C14.4608 6.72108 14.3297 5.63544 13.6597 4.87191C13.4473 4.63572 13.1937 4.44019 12.9113 4.29492Z" fill="#179BD7"/>
<path d="M12.1863 4.00576C11.9651 3.94175 11.74 3.89179 11.5124 3.85619C11.0628 3.78708 10.6083 3.75393 10.1534 3.75704H6.03496C5.87823 3.75691 5.72662 3.81287 5.60754 3.91479C5.48847 4.01671 5.40978 4.15786 5.38571 4.31274L4.50958 9.86191L4.48438 10.0238C4.51167 9.84715 4.60129 9.6861 4.73702 9.56978C4.87275 9.45347 5.04563 9.38958 5.22438 9.38967H6.766C9.79379 9.38967 12.1645 8.16007 12.8574 4.60291C12.8782 4.4976 12.8955 4.39508 12.9112 4.29481C12.7284 4.19892 12.5378 4.11854 12.3415 4.05449C12.29 4.03742 12.2383 4.02117 12.1863 4.00576Z" fill="#222D65"/>
<path d="M5.38555 4.31285C5.40941 4.15793 5.48806 4.01671 5.60719 3.91484C5.72633 3.81297 5.87805 3.75722 6.0348 3.75771H10.1533C10.6412 3.75771 11.0966 3.78964 11.5123 3.85686C11.7935 3.90106 12.0709 3.96718 12.3419 4.0546C12.5464 4.12238 12.7363 4.20249 12.9116 4.29492C13.1178 2.98017 12.9099 2.085 12.1991 1.27442C11.4154 0.382045 10.0009 0 8.19094 0H2.93643C2.56671 0 2.25132 0.268888 2.19419 0.634687L0.00555125 14.5076C-0.00464304 14.572 -0.000764462 14.6379 0.0169202 14.7006C0.0346049 14.7634 0.0656759 14.8216 0.107996 14.8712C0.150316 14.9208 0.202881 14.9607 0.262075 14.988C0.321268 15.0154 0.385686 15.0296 0.450897 15.0297H3.69492L4.50942 9.86202L5.38555 4.31285Z" fill="#253B80"/>
</svg>
