<svg fill="none" height="60" viewBox="0 0 90 60" width="90" xmlns="http://www.w3.org/2000/svg">
    <path
        d="M36.2717 25.3281H32.4406C32.3138 25.328 32.1911 25.3733 32.0947 25.4556C31.9982 25.538 31.9344 25.6521 31.9146 25.7774L30.3652 35.6013C30.358 35.6469 30.3609 35.6935 30.3735 35.7379C30.3861 35.7823 30.4082 35.8234 30.4382 35.8584C30.4682 35.8935 30.5055 35.9216 30.5474 35.9408C30.5894 35.9601 30.635 35.97 30.6811 35.9699H32.5101C32.637 35.97 32.7598 35.9247 32.8562 35.8422C32.9527 35.7597 33.0165 35.6455 33.0361 35.5201L33.454 32.8704C33.4736 32.7451 33.5373 32.631 33.6337 32.5485C33.73 32.466 33.8526 32.4207 33.9795 32.4206H35.1923C37.7159 32.4206 39.1724 31.1994 39.5527 28.7794C39.7241 27.7207 39.56 26.8888 39.0642 26.3062C38.5197 25.6665 37.554 25.3281 36.2717 25.3281V25.3281ZM36.7137 28.9161C36.5042 30.2908 35.4539 30.2908 34.4382 30.2908H33.8601L34.2657 27.7235C34.2776 27.6484 34.3159 27.58 34.3737 27.5306C34.4315 27.4812 34.5051 27.454 34.5811 27.454H34.8461C35.5379 27.454 36.1905 27.454 36.5277 27.8484C36.7288 28.0837 36.7905 28.4332 36.7137 28.9161V28.9161ZM47.7235 28.8718H45.8889C45.8129 28.8718 45.7394 28.899 45.6815 28.9484C45.6237 28.9978 45.5854 29.0662 45.5736 29.1413L45.4923 29.6544L45.3641 29.4684C44.9669 28.892 44.0812 28.6993 43.1973 28.6993C41.17 28.6993 39.4384 30.2348 39.1012 32.3887C38.9259 33.4631 39.1752 34.4905 39.7846 35.207C40.3437 35.8657 41.1436 36.1402 42.0954 36.1402C43.7289 36.1402 44.6347 35.0899 44.6347 35.0899L44.5529 35.5996C44.5456 35.6452 44.5483 35.6918 44.5608 35.7363C44.5732 35.7807 44.5952 35.8219 44.6251 35.8571C44.655 35.8922 44.6922 35.9205 44.7341 35.9398C44.776 35.9592 44.8216 35.9693 44.8677 35.9694H46.5203C46.6472 35.9694 46.7699 35.9241 46.8664 35.8416C46.9628 35.7592 47.0266 35.6449 47.0463 35.5195L48.0378 29.2404C48.0451 29.195 48.0424 29.1485 48.03 29.1041C48.0176 29.0598 47.9957 29.0186 47.9658 28.9836C47.9359 28.9485 47.8988 28.9204 47.8569 28.9011C47.8151 28.8818 47.7696 28.8718 47.7235 28.8718V28.8718ZM45.1663 32.4425C44.9893 33.4906 44.1574 34.1941 43.0964 34.1941C42.5637 34.1941 42.138 34.0233 41.8646 33.6995C41.5935 33.378 41.4904 32.9203 41.5767 32.4105C41.7419 31.3714 42.5878 30.6448 43.6325 30.6448C44.1535 30.6448 44.577 30.8179 44.856 31.1445C45.1355 31.4745 45.2464 31.9349 45.1663 32.4425V32.4425ZM57.4943 28.8718H55.6507C55.5638 28.872 55.4782 28.8933 55.4013 28.934C55.3245 28.9747 55.2588 29.0336 55.2098 29.1054L52.6672 32.8508L51.5894 29.2517C51.5563 29.1419 51.4887 29.0457 51.3967 28.9773C51.3047 28.9089 51.1931 28.8719 51.0785 28.8718H49.2668C49.216 28.8717 49.1658 28.8837 49.1206 28.9069C49.0753 28.93 49.0362 28.9637 49.0066 29.005C48.9769 29.0463 48.9576 29.0941 48.9501 29.1444C48.9427 29.1947 48.9474 29.2461 48.9638 29.2942L50.9945 35.2535L49.0854 37.9485C49.0514 37.9963 49.0313 38.0525 49.0272 38.1109C49.0231 38.1694 49.0351 38.2279 49.062 38.2799C49.0889 38.332 49.1296 38.3756 49.1797 38.4061C49.2298 38.4366 49.2872 38.4527 49.3458 38.4527H51.1872C51.2731 38.4528 51.3578 38.432 51.434 38.3922C51.5102 38.3524 51.5756 38.2947 51.6247 38.2241L57.7564 29.3732C57.7897 29.3253 57.8092 29.2693 57.8128 29.2111C57.8164 29.1529 57.8041 29.0948 57.7771 29.0432C57.7501 28.9915 57.7094 28.9483 57.6596 28.9181C57.6097 28.8879 57.5525 28.8719 57.4943 28.8718V28.8718Z"
        fill="#253B80"/>
    <path
        d="M63.598 25.3277H59.7663C59.6396 25.3278 59.5171 25.373 59.4207 25.4554C59.3244 25.5378 59.2606 25.6518 59.2409 25.777L57.6914 35.6009C57.6842 35.6464 57.687 35.6929 57.6995 35.7373C57.712 35.7816 57.7339 35.8227 57.7639 35.8578C57.7938 35.8928 57.831 35.9209 57.8728 35.9402C57.9146 35.9595 57.9602 35.9695 58.0062 35.9695H59.9725C60.0612 35.9694 60.1469 35.9376 60.2143 35.8799C60.2817 35.8222 60.3262 35.7423 60.34 35.6547L60.7797 32.87C60.7993 32.7447 60.8631 32.6306 60.9594 32.5481C61.0557 32.4656 61.1784 32.4203 61.3052 32.4202H62.5174C65.0416 32.4202 66.4975 31.199 66.8785 28.779C67.0504 27.7202 66.8852 26.8884 66.3894 26.3058C65.8455 25.6661 64.8803 25.3277 63.598 25.3277V25.3277ZM64.04 28.9157C63.831 30.2904 62.7807 30.2904 61.7645 30.2904H61.187L61.5931 27.723C61.6048 27.6479 61.6429 27.5795 61.7006 27.5301C61.7584 27.4806 61.8319 27.4535 61.9079 27.4536H62.1729C62.8642 27.4536 63.5173 27.4536 63.8546 27.848C64.0557 28.0832 64.1167 28.4328 64.04 28.9157V28.9157ZM75.0493 28.8714H73.2158C73.1398 28.8712 73.0662 28.8983 73.0084 28.9477C72.9506 28.9972 72.9125 29.0657 72.901 29.1409L72.8198 29.654L72.6909 29.468C72.2938 28.8916 71.4087 28.6989 70.5247 28.6989C68.4974 28.6989 66.7664 30.2343 66.4292 32.3883C66.2544 33.4627 66.5026 34.4901 67.112 35.2065C67.6722 35.8653 68.4711 36.1398 69.4228 36.1398C71.0563 36.1398 71.9621 35.0895 71.9621 35.0895L71.8803 35.5992C71.873 35.6449 71.8757 35.6916 71.8883 35.7361C71.9008 35.7806 71.9228 35.8219 71.9529 35.8571C71.9829 35.8922 72.0203 35.9204 72.0623 35.9398C72.1043 35.9591 72.15 35.969 72.1963 35.9689H73.8483C73.9751 35.9689 74.0977 35.9235 74.194 35.841C74.2904 35.7586 74.3541 35.6444 74.3737 35.5191L75.3658 29.24C75.3728 29.1944 75.3699 29.1478 75.3572 29.1034C75.3446 29.059 75.3224 29.0179 75.2924 28.9829C75.2623 28.9479 75.225 28.9198 75.183 28.9006C75.1411 28.8813 75.0955 28.8714 75.0493 28.8714V28.8714ZM72.4921 32.442C72.3162 33.4901 71.4832 34.1937 70.4222 34.1937C69.8906 34.1937 69.4637 34.0229 69.1903 33.6991C68.9192 33.3775 68.8172 32.9199 68.9024 32.4101C69.0688 31.371 69.9135 30.6444 70.9583 30.6444C71.4792 30.6444 71.9027 30.8175 72.1817 31.1441C72.4624 31.474 72.5733 31.9345 72.4921 32.442V32.442ZM77.2122 25.5972L75.6397 35.6009C75.6325 35.6464 75.6353 35.6929 75.6478 35.7373C75.6603 35.7816 75.6823 35.8227 75.7122 35.8578C75.7421 35.8928 75.7793 35.9209 75.8211 35.9402C75.863 35.9595 75.9085 35.9695 75.9546 35.9695H77.5354C77.7981 35.9695 78.0211 35.779 78.0614 35.5197L79.612 25.6963C79.6192 25.6508 79.6165 25.6042 79.604 25.5598C79.5915 25.5155 79.5695 25.4743 79.5396 25.4393C79.5097 25.4042 79.4725 25.376 79.4307 25.3566C79.3888 25.3373 79.3433 25.3272 79.2972 25.3271H77.527C77.451 25.3274 77.3776 25.3547 77.3199 25.4042C77.2622 25.4537 77.224 25.5221 77.2122 25.5972V25.5972Z"
        fill="#179BD7"/>
    <path
        d="M14.4545 37.879L14.7474 36.0181L14.0948 36.003H10.9785L13.1442 22.2712C13.1506 22.2293 13.1719 22.191 13.2042 22.1635C13.2365 22.1359 13.2776 22.1209 13.3201 22.1211H18.5746C20.319 22.1211 21.5229 22.4841 22.1514 23.2006C22.446 23.5367 22.6337 23.8879 22.7245 24.2744C22.8197 24.68 22.8214 25.1646 22.7284 25.7556L22.7217 25.7987V26.1774L23.0163 26.3443C23.2413 26.4583 23.4435 26.6124 23.6129 26.7992C23.865 27.0866 24.028 27.4518 24.0969 27.8848C24.1681 28.3302 24.1445 28.8601 24.028 29.46C23.8936 30.1502 23.6762 30.7513 23.3827 31.2431C23.1237 31.6837 22.7755 32.0653 22.3603 32.3635C21.9705 32.6402 21.5072 32.8503 20.9834 32.9847C20.4759 33.1169 19.8972 33.1836 19.2625 33.1836H18.8536C18.5612 33.1836 18.2772 33.2889 18.0542 33.4777C17.8316 33.6685 17.6839 33.9321 17.6374 34.2216L17.6066 34.3891L17.089 37.669L17.0655 37.7894C17.0593 37.8275 17.0487 37.8465 17.033 37.8594C17.0178 37.8718 16.9988 37.8788 16.9792 37.879H14.4545Z"
        fill="#253B80"/>
    <path
        d="M23.2961 25.8418C23.2804 25.9421 23.2624 26.0446 23.2423 26.1499C22.5493 29.7076 20.1786 30.9367 17.1508 30.9367H15.6092C15.2389 30.9367 14.9269 31.2056 14.8692 31.5708L14.0799 36.5766L13.8564 37.9955C13.8475 38.0518 13.8509 38.1094 13.8664 38.1642C13.8818 38.2191 13.909 38.2699 13.946 38.3132C13.983 38.3566 14.029 38.3914 14.0807 38.4153C14.1324 38.4391 14.1887 38.4515 14.2457 38.4515H16.98C17.3038 38.4515 17.5788 38.2163 17.6298 37.897L17.6567 37.758L18.1715 34.491L18.2046 34.3118C18.255 33.9914 18.5306 33.7561 18.8544 33.7561H19.2633C21.9124 33.7561 23.9862 32.6805 24.5923 29.5681C24.8455 28.268 24.7144 27.1823 24.0445 26.4188C23.8321 26.1826 23.5785 25.9871 23.2961 25.8418V25.8418Z"
        fill="#179BD7"/>
    <path
        d="M22.5711 25.5526C22.3498 25.4886 22.1248 25.4387 21.8972 25.4031C21.4476 25.334 20.9931 25.3008 20.5382 25.3039H16.4197C16.263 25.3038 16.1114 25.3597 15.9923 25.4617C15.8732 25.5636 15.7945 25.7047 15.7705 25.8596L14.8943 31.4088L14.8691 31.5707C14.8964 31.394 14.9861 31.233 15.1218 31.1167C15.2575 31.0003 15.4304 30.9365 15.6091 30.9365H17.1508C20.1786 30.9365 22.5493 29.7069 23.2422 26.1498C23.2629 26.0445 23.2803 25.942 23.296 25.8417C23.1131 25.7458 22.9226 25.6654 22.7263 25.6014C22.6748 25.5843 22.6231 25.568 22.5711 25.5526V25.5526Z"
        fill="#222D65"/>
    <path
        d="M15.7703 25.8597C15.7942 25.7048 15.8728 25.5636 15.992 25.4617C16.1111 25.3598 16.2628 25.3041 16.4196 25.3046H20.538C21.026 25.3046 21.4814 25.3365 21.897 25.4037C22.1783 25.4479 22.4557 25.5141 22.7267 25.6015C22.9311 25.6693 23.121 25.7494 23.2964 25.8418C23.5025 24.527 23.2947 23.6319 22.5838 22.8213C21.8001 21.9289 20.3857 21.5469 18.5757 21.5469H13.3212C12.9515 21.5469 12.6361 21.8158 12.579 22.1816L10.3903 36.0545C10.3801 36.1189 10.384 36.1847 10.4017 36.2475C10.4194 36.3103 10.4504 36.3685 10.4928 36.4181C10.5351 36.4677 10.5876 36.5076 10.6468 36.5349C10.706 36.5623 10.7705 36.5765 10.8357 36.5766H14.0797L14.8942 31.4089L15.7703 25.8597Z"
        fill="#253B80"/>
</svg>
