<svg width="24" height="24" viewBox="0 0 24 24" fill="none" xmlns="http://www.w3.org/2000/svg">
<path d="M0.825684 9.26704L11.0738 1.13867C11.5274 0.843126 12.1128 0.814658 12.5665 1.10969L23.1412 9.26512C23.6712 9.67394 23.9813 10.3058 23.9804 10.9752L23.9674 20.2347H0L0.00954887 10.9538C0.0102251 10.2966 0.31072 9.67549 0.825684 9.26704Z" fill="#1E3B9F"/>
<path d="M4.09473 2.24122C4.09473 1.04905 5.06117 0.0826111 6.25334 0.0826111H17.8417C19.0338 0.0826111 20.0003 1.04905 20.0003 2.24122V15.5337C20.0003 16.7259 19.0338 17.6923 17.8417 17.6923H6.25334C5.06117 17.6923 4.09473 16.7259 4.09473 15.5337V2.24122Z" fill="url(#paint0_linear)"/>
<path d="M15.9328 14.3062C15.4657 14.1396 14.7957 14.0817 14.3684 13.9875C14.1221 13.9332 13.7636 13.7956 13.6441 13.6543C13.5246 13.5095 13.597 12.1732 13.597 12.1732C13.597 12.1732 13.8179 11.8255 13.9374 11.5214C14.0569 11.2172 14.1873 10.3842 14.1873 10.3842C14.1873 10.3842 14.4336 10.3842 14.5205 9.95331C14.6146 9.48252 14.7595 9.28699 14.7414 8.93569C14.7233 8.60978 14.5531 8.59167 14.535 8.59167C14.535 8.59167 14.7124 8.09917 14.7378 7.05621C14.7667 5.82133 13.8216 4.60455 12.0471 4.60455C10.2726 4.60455 9.33108 5.81772 9.35643 7.0526C9.37816 8.09193 9.55922 8.58804 9.55922 8.58804C9.54112 8.58804 9.37091 8.60616 9.35281 8.93208C9.33469 9.28336 9.48318 9.47166 9.57371 9.94243C9.66062 10.3734 9.90687 10.377 9.90687 10.377C9.90687 10.377 10.0372 11.2135 10.1567 11.5177C10.2762 11.8255 10.4971 12.1696 10.4971 12.1696C10.4971 12.1696 10.5696 13.5059 10.4501 13.6507C10.3306 13.7955 9.97206 13.9296 9.72581 13.9839C9.29487 14.078 8.62854 14.1396 8.16138 14.3062C7.69423 14.4728 6.25293 15.0341 6.25293 16.1929V19.7148H17.8413V16.1929C17.8413 15.0341 16.4 14.4728 15.9328 14.3062Z" fill="url(#paint1_linear)"/>
<path d="M12.6449 19.3549C12.4495 19.4201 12.2419 19.4404 12.0376 19.4141C11.8333 19.3878 11.6376 19.3157 11.4651 19.2032L1.64187 11.473C0.976347 10.9493 0 11.4233 0 12.2702V22.844C0 23.1804 0.331263 23.4532 0.685818 23.4532H23.3571C23.7122 23.4532 24 23.1804 24 22.844V12.3206C24 11.465 23.0059 10.9936 22.3434 11.5352L13.0515 19.1313C12.9301 19.2288 12.7927 19.3046 12.6452 19.3549H12.6449Z" fill="url(#paint2_linear)"/>
<defs>
<linearGradient id="paint0_linear" x1="12.0002" y1="2.67044e-07" x2="11.3567" y2="17.977" gradientUnits="userSpaceOnUse">
<stop stop-color="#B4CBFF"/>
<stop offset="1" stop-color="#738EF0"/>
</linearGradient>
<linearGradient id="paint1_linear" x1="12.0471" y1="4.60455" x2="12.0471" y2="19.7148" gradientUnits="userSpaceOnUse">
<stop stop-color="white"/>
<stop offset="1" stop-color="#BFD3FF"/>
</linearGradient>
<linearGradient id="paint2_linear" x1="6.94415e-08" y1="19.9999" x2="24" y2="19.4999" gradientUnits="userSpaceOnUse">
<stop stop-color="#85A4ED"/>
<stop offset="1" stop-color="#455FC0"/>
</linearGradient>
</defs>
</svg>
