<svg width="54" height="54" viewBox="0 0 54 54" fill="none" xmlns="http://www.w3.org/2000/svg">
<path d="M27 49.5C14.5733 49.5 4.5 39.4268 4.5 27C4.5 14.5733 14.5733 4.5 27 4.5C39.4268 4.5 49.5 14.5733 49.5 27C49.5 39.4268 39.4268 49.5 27 49.5ZM27 45C31.7739 45 36.3523 43.1036 39.7279 39.7279C43.1036 36.3523 45 31.7739 45 27C45 22.2261 43.1036 17.6477 39.7279 14.2721C36.3523 10.8964 31.7739 9 27 9C22.2261 9 17.6477 10.8964 14.2721 14.2721C10.8964 17.6477 9 22.2261 9 27C9 31.7739 10.8964 36.3523 14.2721 39.7279C17.6477 43.1036 22.2261 45 27 45ZM15.75 38.25C15.75 35.2663 16.9353 32.4048 19.045 30.295C21.1548 28.1853 24.0163 27 27 27C29.9837 27 32.8452 28.1853 34.955 30.295C37.0647 32.4048 38.25 35.2663 38.25 38.25H33.75C33.75 36.4598 33.0388 34.7429 31.773 33.477C30.5071 32.2112 28.7902 31.5 27 31.5C25.2098 31.5 23.4929 32.2112 22.227 33.477C20.9612 34.7429 20.25 36.4598 20.25 38.25H15.75ZM18 24.75C17.1049 24.75 16.2464 24.3944 15.6135 23.7615C14.9806 23.1286 14.625 22.2701 14.625 21.375C14.625 20.4799 14.9806 19.6214 15.6135 18.9885C16.2464 18.3556 17.1049 18 18 18C18.8951 18 19.7536 18.3556 20.3865 18.9885C21.0194 19.6214 21.375 20.4799 21.375 21.375C21.375 22.2701 21.0194 23.1286 20.3865 23.7615C19.7536 24.3944 18.8951 24.75 18 24.75ZM36 24.75C35.1049 24.75 34.2464 24.3944 33.6135 23.7615C32.9806 23.1286 32.625 22.2701 32.625 21.375C32.625 20.4799 32.9806 19.6214 33.6135 18.9885C34.2464 18.3556 35.1049 18 36 18C36.8951 18 37.7535 18.3556 38.3865 18.9885C39.0194 19.6214 39.375 20.4799 39.375 21.375C39.375 22.2701 39.0194 23.1286 38.3865 23.7615C37.7535 24.3944 36.8951 24.75 36 24.75Z" fill="#F2994A"/>
</svg>
