<svg fill="none" height="179" viewBox="0 0 234 179" width="234" xmlns="http://www.w3.org/2000/svg">
    <g clip-path="url(#clip0)">
        <path
            d="M229.245 48.3621C226.932 42.9908 223.805 38.0079 219.975 33.5889L91.3252 32.3209L197.246 17.4459C190.403 14.7221 183.118 13.2774 175.754 13.1839C165.622 5.08551 153.145 0.474014 140.181 0.0354351C127.217 -0.403144 114.457 3.35463 103.801 10.7497C95.2831 6.37003 85.8404 4.09366 76.2626 4.1111C47.6778 4.1111 23.8601 23.9075 18.5176 50.1567L229.245 48.3621Z"
            fill="#606CE6"
            opacity="0.1"/>
        <path
            d="M233.769 70.3786C233.775 63.2596 232.415 56.2056 229.761 49.5996L6.79653 73.0008C4.50544 77.1589 2.75259 81.5915 1.58018 86.1918L70.6299 96.4817L0 103.986C2.12461 133.702 27.6022 157.168 58.7255 157.168C74.3922 157.168 88.6293 151.222 99.1771 141.525C109.758 151.405 124.132 157.482 139.967 157.482C163.464 157.482 183.743 144.105 193.187 124.765C212.133 118.752 226.85 103.656 231.888 84.7689L144.571 71.2283H233.76C233.764 70.9451 233.769 70.6618 233.769 70.3786Z"
            fill="#606CE6"
            opacity="0.1"/>
        <path
            d="M6.22212 164.273C9.37804 164.273 11.9364 163.922 11.9364 163.488C11.9364 163.054 9.37804 162.702 6.22212 162.702C3.06619 162.702 0.507812 163.054 0.507812 163.488C0.507812 163.922 3.06619 164.273 6.22212 164.273Z"
            fill="#606CE6"
            opacity="0.1"/>
        <path
            d="M28.1108 166.493C31.2667 166.493 33.8251 166.141 33.8251 165.707C33.8251 165.274 31.2667 164.922 28.1108 164.922C24.9549 164.922 22.3965 165.274 22.3965 165.707C22.3965 166.141 24.9549 166.493 28.1108 166.493Z"
            fill="#606CE6"
            opacity="0.1"/>
        <path
            d="M53.8959 163.487C57.0519 163.487 59.6103 163.135 59.6103 162.702C59.6103 162.268 57.0519 161.916 53.8959 161.916C50.74 161.916 48.1816 162.268 48.1816 162.702C48.1816 163.135 50.74 163.487 53.8959 163.487Z"
            fill="#606CE6"
            opacity="0.1"/>
        <path
            d="M19.3504 172.585C21.5945 172.585 23.4137 172.335 23.4137 172.027C23.4137 171.719 21.5945 171.47 19.3504 171.47C17.1063 171.47 15.2871 171.719 15.2871 172.027C15.2871 172.335 17.1063 172.585 19.3504 172.585Z"
            fill="#606CE6"
            opacity="0.1"/>
        <path
            d="M42.0711 172.027C44.3152 172.027 46.1344 171.778 46.1344 171.47C46.1344 171.162 44.3152 170.912 42.0711 170.912C39.827 170.912 38.0078 171.162 38.0078 171.47C38.0078 171.778 39.827 172.027 42.0711 172.027Z"
            fill="#606CE6"
            opacity="0.1"/>
        <path
            d="M28.2342 165.53C28.2342 165.53 20.2183 139.259 29.4869 128.737C36.4228 120.863 44.2927 121.806 47.8182 122.78C48.7305 123.023 49.579 123.461 50.305 124.064C51.0311 124.668 51.6173 125.422 52.0232 126.274C53.2559 128.929 53.0324 133.247 44.3326 138.283C29.7657 146.716 28.8606 158.283 28.8606 158.283L28.2342 165.53Z"
            fill="#606CE6"/>
        <path d="M46.5644 126.506C46.5644 126.506 22.937 133.892 28.2352 165.53" stroke="#565987"
              stroke-miterlimit="10"/>
        <path d="M32.7656 129.155C32.7656 129.155 36.0189 131.346 34.9788 134.641" stroke="#565987"
              stroke-miterlimit="10"/>
        <path d="M44.1937 131.102C44.1937 131.102 42.2019 129.08 39.7852 130.195" stroke="#565987"
              stroke-miterlimit="10"/>
        <path d="M34.8543 141.282C34.8543 141.282 31.3619 139.511 30.459 141.724" stroke="#565987"
              stroke-miterlimit="10"/>
        <path d="M26.2129 144.973C26.2129 144.973 28.8355 144.765 28.8841 146.02" stroke="#565987"
              stroke-miterlimit="10"/>
        <path
            d="M27.916 165.741C27.916 165.741 37.3041 146.646 39.8824 147.064C41.1063 147.264 41.6706 148.467 41.9274 149.678C42.2455 151.247 42.0668 152.876 41.4161 154.338C40.0882 157.381 36.4985 163.19 27.916 165.741Z"
            fill="#606CE6"/>
        <path d="M39.805 150.688C39.805 150.688 29.9521 164.975 28.0488 165.601" stroke="#565987"
              stroke-miterlimit="10"/>
        <path d="M40.7135 152.917H38.4141" stroke="#565987" stroke-miterlimit="10"/>
        <path d="M37.9585 158.144L34.3555 158.298" stroke="#565987" stroke-miterlimit="10"/>
        <path d="M35.7637 153.964L36.1554 155.84" stroke="#565987" stroke-miterlimit="10"/>
        <path d="M31.9316 159.678L32.0025 161.384" stroke="#565987" stroke-miterlimit="10"/>
        <path
            d="M28.1885 165.741C28.1885 165.741 18.8004 146.646 16.2221 147.064C14.9982 147.264 14.4339 148.467 14.1771 149.678C13.8615 151.243 14.0409 152.867 14.6906 154.325C16.0207 157.381 19.5993 163.19 28.1885 165.741Z"
            fill="#606CE6"/>
        <path d="M16.293 150.688C16.293 150.688 26.1458 164.975 28.0491 165.601" stroke="#565987"
              stroke-miterlimit="10"/>
        <path d="M15.3867 152.917H17.6862" stroke="#565987" stroke-miterlimit="10"/>
        <path d="M18.1406 158.144L21.7458 158.298" stroke="#565987" stroke-miterlimit="10"/>
        <path d="M20.3351 153.964L19.9434 155.84" stroke="#565987" stroke-miterlimit="10"/>
        <path d="M24.1704 159.678L24.0996 161.384" stroke="#565987" stroke-miterlimit="10"/>
        <path
            d="M44.307 170.199C44.563 169.991 44.7498 169.71 44.8426 169.394C44.8837 169.235 44.869 169.067 44.8009 168.917C44.7328 168.768 44.6155 168.646 44.4686 168.573C44.1255 168.44 43.7582 168.679 43.4815 168.918C43.2049 169.157 42.884 169.434 42.521 169.383C42.7063 169.212 42.8444 168.997 42.9219 168.757C42.9995 168.518 43.0138 168.262 42.9636 168.015C42.9484 167.913 42.9056 167.817 42.8397 167.737C42.6494 167.533 42.3041 167.621 42.0762 167.781C41.3503 168.29 41.1489 169.274 41.1444 170.162C41.1046 169.837 41.1001 169.508 41.1312 169.182C41.1312 168.854 41.0382 168.489 40.7616 168.314C40.5904 168.22 40.3969 168.174 40.2017 168.181C39.8741 168.181 39.5134 168.201 39.2898 168.44C39.0132 168.737 39.084 169.232 39.3253 169.56C39.5944 169.863 39.9132 170.118 40.268 170.315C40.5341 170.477 40.7609 170.696 40.932 170.956C40.9518 170.993 40.9681 171.032 40.9807 171.071H43.0234C43.4893 170.841 43.9212 170.548 44.307 170.199Z"
            fill="#606CE6"/>
        <path
            d="M8.53701 162.51C8.7932 162.302 8.98001 162.021 9.07258 161.704C9.11341 161.545 9.09858 161.376 9.03056 161.227C8.96254 161.077 8.8454 160.955 8.69857 160.881C8.35553 160.75 7.99036 160.989 7.71151 161.228C7.43265 161.467 7.11618 161.742 6.75101 161.691C6.93681 161.521 7.07527 161.305 7.15286 161.066C7.23044 160.826 7.24449 160.57 7.19364 160.323C7.17705 160.222 7.13349 160.126 7.06749 160.047C6.87716 159.843 6.53191 159.929 6.30396 160.091C5.57805 160.6 5.37665 161.585 5.37223 162.472C5.33236 162.146 5.32791 161.817 5.35895 161.49C5.35895 161.162 5.26821 160.799 4.99157 160.624C4.81956 160.53 4.62535 160.484 4.42943 160.492C4.1041 160.478 3.74115 160.511 3.51762 160.75C3.24098 161.047 3.31402 161.543 3.55303 161.857C3.82178 162.162 4.14155 162.418 4.49804 162.614C4.76478 162.775 4.99172 162.994 5.16198 163.255C5.182 163.292 5.19902 163.331 5.21288 163.371H7.2556C7.7198 163.143 8.15088 162.853 8.53701 162.51Z"
            fill="#606CE6"/>
        <path
            d="M20.4574 170.199C20.7134 169.991 20.9002 169.71 20.993 169.394C21.0341 169.235 21.0194 169.067 20.9513 168.917C20.8832 168.768 20.7659 168.646 20.619 168.573C20.2759 168.44 19.9085 168.679 19.6319 168.918C19.3553 169.157 19.0344 169.434 18.6714 169.383C18.8567 169.212 18.9948 168.997 19.0723 168.757C19.1499 168.518 19.1642 168.262 19.114 168.015C19.0988 167.913 19.0559 167.817 18.9901 167.737C18.7998 167.533 18.4545 167.621 18.2266 167.781C17.5007 168.29 17.2993 169.274 17.2948 170.162C17.255 169.837 17.2505 169.508 17.2816 169.182C17.2816 168.854 17.1908 168.489 16.9142 168.314C16.7421 168.22 16.5479 168.174 16.352 168.181C16.0267 168.181 15.6638 168.201 15.4402 168.44C15.1636 168.737 15.2344 169.232 15.4756 169.56C15.7447 169.863 16.0636 170.118 16.4184 170.315C16.6845 170.477 16.9113 170.696 17.0824 170.956C17.1022 170.993 17.1185 171.032 17.1311 171.071H19.1738C19.6396 170.841 20.0716 170.548 20.4574 170.199Z"
            fill="#606CE6"/>
        <path
            d="M54.2687 154.653C54.2687 154.653 55.0345 155.656 53.9146 157.167C52.7948 158.679 51.8741 159.955 52.2459 160.898C52.2459 160.898 53.9345 158.09 55.3089 158.05C56.6832 158.01 55.7803 156.342 54.2687 154.653Z"
            fill="#606CE6"/>
        <path
            d="M54.2677 154.653C54.3344 154.75 54.3873 154.856 54.4248 154.968C55.766 156.543 56.4786 158.012 55.1906 158.05C53.9889 158.086 52.5503 160.232 52.2051 160.774C52.2161 160.816 52.2294 160.856 52.2449 160.898C52.2449 160.898 53.9335 158.09 55.3079 158.05C56.6822 158.01 55.7793 156.342 54.2677 154.653Z"
            fill="black"
            opacity="0.1"/>
        <path
            d="M55.6907 155.93C55.6907 156.282 55.6509 156.567 55.6022 156.567C55.5535 156.567 55.5137 156.282 55.5137 155.93C55.5137 155.578 55.5646 155.744 55.6133 155.744C55.662 155.744 55.6907 155.578 55.6907 155.93Z"
            fill="#FFD037"/>
        <path
            d="M56.1796 156.351C55.8698 156.519 55.5998 156.621 55.5776 156.573C55.5555 156.524 55.7857 156.351 56.0955 156.19C56.4053 156.028 56.2814 156.143 56.3058 156.19C56.3301 156.236 56.4894 156.183 56.1796 156.351Z"
            fill="#FFD037"/>
        <path
            d="M50.2237 154.653C50.2237 154.653 49.458 155.656 50.5778 157.167C51.6977 158.679 52.6205 159.955 52.2465 160.898C52.2465 160.898 50.5579 158.09 49.1835 158.05C47.8092 158.01 48.721 156.342 50.2237 154.653Z"
            fill="#606CE6"/>
        <path
            d="M50.2237 154.653C50.1573 154.75 50.1052 154.856 50.0688 154.968C48.7276 156.543 48.0128 158.012 49.3008 158.05C50.5026 158.086 51.9433 160.232 52.2886 160.774C52.2753 160.816 52.262 160.856 52.2465 160.898C52.2465 160.898 50.5579 158.09 49.1836 158.05C47.8092 158.01 48.721 156.342 50.2237 154.653Z"
            fill="black"
            opacity="0.1"/>
        <path
            d="M48.7988 155.93C48.7988 156.282 48.8387 156.567 48.8874 156.567C48.9361 156.567 48.9759 156.282 48.9759 155.93C48.9759 155.578 48.9272 155.744 48.8785 155.744C48.8298 155.744 48.7988 155.578 48.7988 155.93Z"
            fill="#FFD037"/>
        <path
            d="M48.3105 156.351C48.6204 156.519 48.8904 156.621 48.9147 156.573C48.9391 156.524 48.7045 156.351 48.3969 156.19C48.0892 156.028 48.2087 156.143 48.1755 156.19C48.1424 156.236 48.0029 156.183 48.3105 156.351Z"
            fill="#FFD037"/>
        <path
            d="M49.043 160.766C49.043 160.766 51.1853 160.702 51.8293 160.242C52.4733 159.781 55.1225 159.233 55.284 159.97C55.4456 160.706 58.4997 163.634 56.0829 163.654C53.6662 163.674 50.4682 163.278 49.8242 162.886C49.1802 162.494 49.043 160.766 49.043 160.766Z"
            fill="#A8A8A8"/>
        <path
            d="M56.1272 163.397C53.7105 163.417 50.5103 163.021 49.8663 162.629C49.3749 162.33 49.1802 161.259 49.116 160.764H49.043C49.043 160.764 49.1802 162.492 49.8242 162.884C50.4682 163.275 53.6662 163.671 56.0829 163.651C56.7823 163.651 57.0213 163.397 57.008 163.03C56.9084 163.255 56.6451 163.393 56.1272 163.397Z"
            fill="black"
            opacity="0.2"/>
        <path
            d="M135.53 179C175.794 179 208.435 177.52 208.435 175.694C208.435 173.868 175.794 172.388 135.53 172.388C95.2657 172.388 62.625 173.868 62.625 175.694C62.625 177.52 95.2657 179 135.53 179Z"
            fill="#606CE6"
            opacity="0.1"/>
        <path
            d="M128.103 76.851C128.103 76.851 132.75 85.6428 133.111 86.8975C133.205 87.2458 133.408 87.5551 133.689 87.7803C133.971 88.0056 134.318 88.1351 134.678 88.15C134.678 88.15 139.308 89.2564 140.414 89.4047C141.521 89.5529 151.113 90.3628 151.113 90.3628C151.113 90.3628 153.547 90.4381 153.842 89.5529C154.112 88.743 158.814 84.4876 161.537 88.2009C161.788 88.5443 161.954 88.9421 162.023 89.362C162.091 89.7818 162.059 90.2119 161.931 90.6173C161.43 92.2106 160.404 94.7399 159.301 93.1666C157.752 90.9537 155.951 91.5755 155.951 92.755C155.951 93.9344 153.472 93.4963 152.662 93.6622C152.219 93.753 150.697 94.1579 149.38 94.512C147.851 94.9251 146.286 95.1852 144.706 95.2887C142.092 95.4591 138.239 95.6007 136.873 95.0851C135.225 94.4589 132.35 94.315 131.119 94.2819C130.712 94.272 130.318 94.1307 129.997 93.8791C128.289 92.5423 126.845 90.8998 125.737 89.0351C123.818 85.7158 119.872 78.8426 120.138 76.851C120.403 74.8594 128.103 76.851 128.103 76.851Z"
            fill="#EFB7B9"/>
        <path
            d="M128.103 76.851C128.103 76.851 132.75 85.6428 133.111 86.8975C133.205 87.2458 133.408 87.5551 133.689 87.7803C133.971 88.0056 134.318 88.1351 134.678 88.15C134.678 88.15 139.308 89.2564 140.414 89.4047C141.521 89.5529 151.113 90.3628 151.113 90.3628C151.113 90.3628 153.547 90.4381 153.842 89.5529C154.112 88.743 158.814 84.4876 161.537 88.2009C161.788 88.5443 161.954 88.9421 162.023 89.362C162.091 89.7818 162.059 90.2119 161.931 90.6173C161.43 92.2106 160.404 94.7399 159.301 93.1666C157.752 90.9537 155.951 91.5755 155.951 92.755C155.951 93.9344 153.472 93.4963 152.662 93.6622C152.219 93.753 150.697 94.1579 149.38 94.512C147.851 94.9251 146.286 95.1852 144.706 95.2887C142.092 95.4591 138.239 95.6007 136.873 95.0851C135.225 94.4589 132.35 94.315 131.119 94.2819C130.712 94.272 130.318 94.1307 129.997 93.8791C128.289 92.5423 126.845 90.8998 125.737 89.0351C123.818 85.7158 119.872 78.8426 120.138 76.851C120.403 74.8594 128.103 76.851 128.103 76.851Z"
            fill="black"
            opacity="0.05"/>
        <path
            d="M199.524 159.205C199.516 163.907 197.694 168.425 194.437 171.817C191.18 175.209 186.74 177.214 182.042 177.413C177.343 177.613 172.749 175.992 169.216 172.889C165.683 169.786 163.484 165.439 163.076 160.754C163.05 160.458 163.03 160.161 163.021 159.869V159.854C163.012 159.634 163.008 159.413 163.008 159.19C163.008 154.348 164.931 149.704 168.356 146.281C171.78 142.857 176.424 140.934 181.266 140.934C186.109 140.934 190.753 142.857 194.177 146.281C197.601 149.704 199.524 154.348 199.524 159.19V159.205Z"
            fill="#65617D"/>
        <path
            d="M181.266 169.153C186.766 169.153 191.225 164.695 191.225 159.195C191.225 153.696 186.766 149.237 181.266 149.237C175.765 149.237 171.307 153.696 171.307 159.195C171.307 164.695 175.765 169.153 181.266 169.153Z"
            fill="#DCE0ED"/>
        <path
            d="M181.266 165.17C184.567 165.17 187.242 162.495 187.242 159.195C187.242 155.896 184.567 153.221 181.266 153.221C177.966 153.221 175.291 155.896 175.291 159.195C175.291 162.495 177.966 165.17 181.266 165.17Z"
            fill="#65617D"/>
        <path
            d="M133.318 124.526L89.3516 125.411V118.932C89.7455 113.716 95.1057 111.886 99.9746 111.313C103.781 110.881 107.635 111.17 111.335 112.165C120.663 114.634 126.605 115.112 129.533 115.159C130.176 115.168 130.796 115.4 131.288 115.813C131.779 116.227 132.114 116.798 132.233 117.429C132.373 118.17 132.51 118.978 132.638 119.775C132.736 120.399 132.829 121.014 132.913 121.587C133.156 123.238 133.318 124.526 133.318 124.526Z"
            fill="#65617D"/>
        <path
            d="M168.393 160.374H77.0592C76.354 160.381 75.6623 160.181 75.0701 159.798C74.4779 159.415 74.0113 158.867 73.7284 158.221C73.0401 156.577 74.0028 155.528 75.0297 154.913C77.1313 153.667 78.7243 151.718 79.5268 149.411C80.5006 146.535 81.4522 142.034 81.8262 135.001C82.2113 127.727 84.845 124.131 87.691 122.388C91.3671 120.139 95.3972 120.982 95.3972 120.982L132.429 121.279C133.089 121.578 133.698 121.976 134.238 122.458C137.537 125.53 132.726 129.54 132.726 129.54C122.397 140.456 130.216 151.52 130.216 151.52H149.165C152.706 151.538 156.168 150.479 159.091 148.482C161.652 146.712 162.632 145.001 163.026 143.965C163.318 143.173 163.615 142.383 163.969 141.618C168.94 130.839 162.944 113.304 160.357 106.747C159.715 105.116 159.284 104.165 159.284 104.165L165.226 103.722L168.988 103.437H169.026C177.307 117.718 180.386 132.394 181.419 143.268C181.517 144.293 181.596 145.287 181.661 146.24C181.778 148.054 181.522 149.872 180.908 151.582C180.294 153.292 179.335 154.858 178.091 156.183C176.848 157.508 175.345 158.564 173.677 159.285C172.009 160.005 170.21 160.376 168.393 160.374Z"
            fill="#606CE6"/>
        <path d="M132.915 121.587H89.3516V119.774H132.64C132.738 120.387 132.831 121.003 132.915 121.587Z" fill="black"
              opacity="0.1"/>
        <path
            d="M134.24 122.472H88.043C87.9229 122.472 87.8039 122.448 87.6934 122.401C91.3694 120.153 95.3995 120.996 95.3995 120.996L132.432 121.292C133.091 121.591 133.701 121.989 134.24 122.472Z"
            fill="black"
            opacity="0.1"/>
        <path
            d="M134.625 120.206H71.8778C71.3779 120.206 70.9727 120.611 70.9727 121.111V121.113C70.9727 121.613 71.3779 122.018 71.8778 122.018H134.625C135.124 122.018 135.53 121.613 135.53 121.113V121.111C135.53 120.611 135.124 120.206 134.625 120.206Z"
            fill="#DCE0ED"/>
        <path
            d="M181.418 143.273C179.314 145.561 177.764 146.462 177.838 144.048C178.059 136.745 165.223 103.729 165.223 103.729L169.018 103.441C177.302 117.712 180.383 132.388 181.418 143.273Z"
            fill="black"
            opacity="0.1"/>
        <path
            d="M199.414 157.194C197.234 157.717 194.545 158.248 191.225 158.743C189.99 158.925 188.663 159.099 187.242 159.266C183.849 159.668 179.925 160.02 175.393 160.29C174.109 160.367 172.776 160.437 171.394 160.5C168.804 160.618 166.033 160.708 163.079 160.77L163.023 159.885V159.87C167.151 158.203 173.646 153.758 174.691 142.178C177.3 141.173 180.104 140.78 182.888 141.029C185.673 141.278 188.363 142.163 190.751 143.615C193.14 145.068 195.163 147.049 196.665 149.406C198.168 151.763 199.109 154.434 199.416 157.212L199.414 157.194Z"
            fill="black"
            opacity="0.1"/>
        <path
            d="M159.58 160.374C159.58 160.374 180.538 158.1 173.319 126.17C173.319 126.17 183.674 135.663 190.117 140.939C196.559 146.214 208.043 153.488 208.043 153.488C208.043 153.488 201.187 159.894 159.58 160.374Z"
            fill="#606CE6"/>
        <path
            d="M159.58 160.374C159.58 160.374 180.538 158.1 173.319 126.17C173.319 126.17 183.674 135.663 190.117 140.939C196.559 146.214 208.043 153.488 208.043 153.488C208.043 153.488 201.187 159.894 159.58 160.374Z"
            fill="white"
            opacity="0.1"/>
        <path
            d="M103.588 177.451C113.672 177.451 121.847 169.277 121.847 159.195C121.847 149.112 113.672 140.938 103.588 140.938C93.5046 140.938 85.3301 149.112 85.3301 159.195C85.3301 169.277 93.5046 177.451 103.588 177.451Z"
            fill="#65617D"/>
        <path
            d="M103.588 169.153C109.088 169.153 113.547 164.695 113.547 159.195C113.547 153.696 109.088 149.237 103.588 149.237C98.0877 149.237 93.6289 153.696 93.6289 159.195C93.6289 164.695 98.0877 169.153 103.588 169.153Z"
            fill="#DCE0ED"/>
        <path
            d="M103.589 165.17C106.889 165.17 109.564 162.495 109.564 159.195C109.564 155.896 106.889 153.221 103.589 153.221C100.289 153.221 97.6133 155.896 97.6133 159.195C97.6133 162.495 100.289 165.17 103.589 165.17Z"
            fill="#65617D"/>
        <path
            d="M124.059 153.712C124.059 141.924 114.695 132.366 103.145 132.366C91.5942 132.366 82.2305 141.924 82.2305 153.712C82.2305 154.21 82.2474 154.704 82.2814 155.192H124.008C124.042 154.704 124.059 154.21 124.059 153.712Z"
            fill="black"
            opacity="0.1"/>
        <path
            d="M123.285 153.345C123.285 141.992 114.269 132.789 103.145 132.789C92.0222 132.789 83.0059 141.992 83.0059 153.345C83.0059 153.825 83.0236 154.298 83.0545 154.77H123.236C123.267 154.298 123.285 153.825 123.285 153.345Z"
            fill="#606CE6"/>
        <path
            d="M123.285 153.345C123.285 153.674 123.285 154.008 123.261 154.327C123.261 154.475 123.245 154.621 123.236 154.77H83.0545C83.0545 154.621 83.0368 154.475 83.0302 154.327C83.0147 154.002 83.0059 153.663 83.0059 153.345C83.0059 141.992 92.0222 132.789 103.145 132.789C114.269 132.789 123.285 141.992 123.285 153.345Z"
            fill="white"
            opacity="0.1"/>
        <path
            d="M123.26 154.338C123.26 154.486 123.244 154.632 123.235 154.78H83.0536C83.0536 154.632 83.0359 154.486 83.0293 154.338H123.26Z"
            fill="black"
            opacity="0.1"/>
        <path
            d="M125.941 155.211H76.5567C75.2526 155.211 74.1953 156.268 74.1953 157.571C74.1953 158.874 75.2526 159.931 76.5567 159.931H125.941C127.245 159.931 128.302 158.874 128.302 157.571C128.302 156.268 127.245 155.211 125.941 155.211Z"
            fill="black"
            opacity="0.1"/>
        <path
            d="M125.941 154.77H76.5567C75.2526 154.77 74.1953 155.826 74.1953 157.13C74.1953 158.433 75.2526 159.49 76.5567 159.49H125.941C127.245 159.49 128.302 158.433 128.302 157.13C128.302 155.826 127.245 154.77 125.941 154.77Z"
            fill="#DCE0ED"/>
        <path
            d="M177.818 123.985C179.152 123.381 179.003 120.17 177.484 116.811C175.965 113.452 173.652 111.219 172.318 111.822C170.984 112.425 171.134 115.637 172.652 118.995C174.171 122.354 176.484 124.588 177.818 123.985Z"
            fill="black"
            opacity="0.1"/>
        <path
            d="M178.037 123.762C179.371 123.159 179.222 119.947 177.703 116.588C176.184 113.23 173.871 110.996 172.537 111.599C171.203 112.202 171.352 115.414 172.871 118.773C174.39 122.131 176.703 124.365 178.037 123.762Z"
            fill="#DCE0ED"/>
        <path
            d="M168.985 103.441V106.909H162.235C161.607 106.91 160.979 106.859 160.359 106.759C159.717 105.128 159.285 104.176 159.285 104.176L165.227 103.734L168.985 103.441Z"
            fill="black"
            opacity="0.1"/>
        <path
            d="M168.986 106.458H162.236C156.307 106.458 151.502 102.032 151.502 96.5507V95.6324C151.502 90.1621 156.307 85.7275 162.236 85.7275L168.986 86.3405V106.458Z"
            fill="#606CE6"/>
        <path
            d="M157.865 91.5904C157.865 91.5904 161.904 93.748 159.58 97.3992C159.58 97.3992 156.73 102.073 152.248 101.63L150.617 91.5904C150.617 91.5904 155.984 91.0925 157.865 91.5904Z"
            fill="#606CE6"/>
        <path
            d="M156.313 91.3966C156.955 91.4209 157.584 91.589 158.152 91.8885C158.721 92.188 159.214 92.6113 159.598 93.127C160.317 94.1228 160.746 95.5745 159.584 97.4001C159.584 97.4001 156.734 102.074 152.252 101.631L150.621 91.5913C150.621 91.5913 153.978 91.2704 156.313 91.3966Z"
            fill="black"
            opacity="0.1"/>
        <path
            d="M168.766 86.3398H170.067C171.16 86.3398 172.208 86.7739 172.981 87.5467C173.754 88.3194 174.188 89.3674 174.188 90.4602V102.339C174.188 103.432 173.754 104.48 172.981 105.253C172.208 106.025 171.16 106.459 170.067 106.459H168.766V86.3398Z"
            fill="black"
            opacity="0.1"/>
        <path
            d="M168.986 86.3398H170.288C171.381 86.3398 172.429 86.7739 173.202 87.5467C173.974 88.3194 174.408 89.3674 174.408 90.4602V102.339C174.408 103.432 173.974 104.48 173.202 105.253C172.429 106.025 171.381 106.459 170.288 106.459H168.986V86.3398Z"
            fill="#DCE0ED"/>
        <path
            d="M121.062 112.178C121.062 112.178 122.105 112.559 123.497 113.09C125.71 113.942 128.831 115.185 129.915 115.867C130.999 116.549 135.043 117.668 138.07 118.456C140.315 119.037 142.626 119.322 144.944 119.304C147.299 119.282 150.152 119.259 150.94 119.259C151.078 119.258 151.215 119.269 151.351 119.29C152.179 119.428 152.146 119.983 152.126 120.116V120.145C147.257 123.094 141.355 136.299 140.987 138.511C140.711 140.171 138.278 144.772 137.079 146.971C136.676 147.708 136.415 148.175 136.415 148.175L137.891 149.87L142.169 151.789L146.226 153.559C146.226 153.559 150.506 153.78 150.579 153.559C150.652 153.338 150.652 151.052 150.652 151.052C150.131 150.716 149.637 150.34 149.174 149.928C148.192 149.073 147.28 148.141 146.447 147.142C144.088 144.338 148.809 138.954 148.809 138.954L157.882 127.153C157.882 127.153 158.619 125.825 162.16 120.514C165.701 115.203 162.16 112.326 162.16 112.326L155.928 109.74C145.119 105.694 132.082 102.453 132.082 102.453L131.896 102.428L129.132 102.083L121.062 112.178Z"
            fill="#EFB7B9"/>
        <path
            d="M148.911 151.788C148.911 151.788 149.685 152.702 149.106 152.784C148.526 152.866 147.003 152.536 147.003 152.536L137.347 147.446C137.347 147.446 136.296 146.699 136.048 148.166C135.8 149.633 135.632 149.493 135.632 149.493C135.632 149.493 134.359 152.231 135.632 152.797C136.905 153.364 144.549 155.605 144.549 155.605C144.549 155.605 155.643 158.124 156.694 155.218C157.746 152.313 154.813 152.813 154.813 152.813C154.813 152.813 151.162 151.928 149.916 150.157C149.907 150.157 148.11 150.655 148.911 151.788Z"
            fill="#444053"/>
        <path
            d="M162.151 112.326L155.919 109.74C145.11 105.694 132.073 102.453 132.073 102.453L131.887 102.428L129.123 102.083L121.062 112.178C121.062 112.178 122.105 112.559 123.497 113.09C125.71 113.942 128.831 115.185 129.915 115.867C130.999 116.549 135.043 117.668 138.07 118.456C140.315 119.037 142.626 119.322 144.944 119.304C147.299 119.282 150.152 119.259 150.94 119.259C151.078 119.258 151.215 119.269 151.351 119.29C152.179 119.428 152.146 119.983 152.126 120.116V120.145C147.257 123.094 141.355 136.299 140.987 138.511C140.711 140.171 138.278 144.772 137.079 146.971L136.917 147.268C136.596 147.215 136.196 147.33 136.054 148.166C135.804 149.631 135.638 149.494 135.638 149.494C135.638 149.494 134.366 152.231 135.638 152.798C136.911 153.364 144.548 155.606 144.548 155.606C144.548 155.606 155.643 158.124 156.694 155.219C157.745 152.313 154.813 152.813 154.813 152.813C154.813 152.813 151.161 151.928 149.915 150.158C149.805 150.19 149.697 150.23 149.592 150.277C149.461 150.171 149.322 150.056 149.174 149.928C148.192 149.073 147.28 148.141 146.447 147.142C144.088 144.338 148.809 138.954 148.809 138.954L157.882 127.153C157.882 127.153 158.619 125.825 162.16 120.514C165.701 115.203 162.151 112.326 162.151 112.326Z"
            fill="black"
            opacity="0.05"/>
        <path
            d="M113.631 62.8255L113.967 63.2503L114.155 63.4871L115.328 64.9631C115.328 64.9631 118.128 65.8615 120.582 66.4435C123.138 67.0477 125.318 67.311 123.586 65.866C122.51 64.9698 122.439 63.4694 122.831 61.8607C123.161 60.6227 123.633 59.4271 124.238 58.2979C124.325 58.1297 124.412 57.966 124.497 57.8067C125.047 56.79 125.656 55.8066 126.321 54.8613C124.747 53.7718 123.115 52.7693 121.432 51.8584C119.405 50.8095 117.741 50.3515 118.796 52.4271C119.474 53.7549 119.252 55.2464 118.619 56.6737C118.571 56.7865 118.517 56.895 118.462 57.0122C117.894 58.1183 117.192 59.1505 116.373 60.0859C115.533 61.0708 114.616 61.9869 113.631 62.8255Z"
            fill="#EFB7B9"/>
        <path d="M127.648 96.5352L129.148 97.9049L130.598 103.481H128.179L125.508 100.007L127.648 96.5352Z"
              fill="#444053"/>
        <path
            d="M125.508 100.007L127.123 102.107L128.179 103.481H130.598L130.35 102.528L129.294 98.4648L129.148 97.9049L127.648 96.5352L125.599 99.8589L125.508 100.007Z"
            fill="black"
            opacity="0.1"/>
        <path
            d="M125.508 100.007L127.123 102.107L128.179 103.481H130.598L130.35 102.528L129.294 98.4648L129.148 97.9049L127.648 96.5352L125.599 99.8589L125.508 100.007Z"
            fill="black"
            opacity="0.1"/>
        <path
            d="M117.469 114.68C117.469 114.68 118.511 115.061 119.903 115.592C122.116 116.444 125.237 117.687 126.321 118.369C127.406 119.05 131.449 120.17 134.477 120.958C136.721 121.54 139.032 121.826 141.351 121.808C143.705 121.786 146.558 121.763 147.346 121.763C147.484 121.762 147.622 121.773 147.758 121.794C148.585 121.932 148.552 122.487 148.532 122.62V122.649C143.663 125.598 137.761 138.803 137.394 141.016C137.117 142.675 134.685 147.276 133.485 149.475C133.082 150.212 132.821 150.679 132.821 150.679L134.297 152.374L138.573 154.291L142.63 156.061C142.63 156.061 146.91 156.282 146.983 156.061C147.056 155.84 147.056 153.554 147.056 153.554C146.535 153.217 146.041 152.842 145.578 152.43C144.596 151.575 143.684 150.643 142.851 149.644C140.492 146.84 145.213 141.456 145.213 141.456L154.286 129.655C154.286 129.655 155.023 128.327 158.564 123.016C162.105 117.705 158.564 114.828 158.564 114.828L152.886 111.582C144.033 106.198 131.564 103.1 131.564 103.1L131.378 103.076L128.614 102.73L117.469 114.68Z"
            fill="#EFB7B9"/>
        <path
            d="M132.818 150.677L134.295 152.372L138.573 154.291L142.629 156.061C142.629 156.061 146.909 156.282 146.982 156.061C147.055 155.84 147.055 153.554 147.055 153.554C146.535 153.217 146.04 152.842 145.577 152.43C145.119 152.675 144.599 153.135 145.101 153.848C145.101 153.848 145.876 154.76 145.296 154.844C144.716 154.928 143.194 154.596 143.194 154.596L133.538 149.506L133.482 149.469C133.075 150.21 132.818 150.677 132.818 150.677Z"
            fill="black"
            opacity="0.1"/>
        <path
            d="M145.317 154.291C145.317 154.291 146.092 155.202 145.51 155.286C144.927 155.37 143.407 155.036 143.407 155.036L133.753 149.947C133.753 149.947 132.702 149.201 132.452 150.666C132.202 152.131 132.038 151.994 132.038 151.994C132.038 151.994 130.766 154.733 132.038 155.3C133.311 155.866 140.946 158.099 140.946 158.099C140.946 158.099 152.038 160.615 153.09 157.712C154.141 154.808 151.208 155.304 151.208 155.304C151.208 155.304 147.557 154.419 146.313 152.649C146.32 152.657 144.514 153.155 145.317 154.291Z"
            fill="#444053"/>
        <path
            d="M118.057 56.1124C119.336 56.9976 121.288 58.3983 122.954 58.3983C123.384 58.3982 123.813 58.3642 124.238 58.2965C124.854 57.1056 125.55 55.9575 126.32 54.8599C126.32 54.8599 116.583 48.073 118.796 52.4258C119.526 53.873 118.807 54.5833 118.057 56.1124Z"
            fill="black"
            opacity="0.1"/>
        <path
            d="M114.988 49.9891C114.987 51.3176 115.319 52.6253 115.953 53.7927C116.588 54.9601 117.505 55.95 118.62 56.6719C118.87 56.8352 119.131 56.9831 119.399 57.1145C120.95 57.8881 122.711 58.1349 124.414 57.8176C126.118 57.5003 127.672 56.6362 128.84 55.3563C130.009 54.0763 130.728 52.4504 130.889 50.725C131.049 48.9996 130.643 47.2689 129.731 45.7952C128.82 44.3214 127.452 43.1851 125.836 42.5586C124.221 41.932 122.445 41.8493 120.778 42.323C119.11 42.7967 117.643 43.801 116.599 45.1836C115.554 46.5662 114.989 48.2518 114.988 49.9846V49.9891Z"
            fill="#EFB7B9"/>
        <path
            d="M117.469 114.68C117.469 114.68 118.511 115.061 119.903 115.592C120.777 114.822 121.674 114.078 122.048 113.943C122.86 113.647 125.516 112.098 125.443 111.655C125.37 111.212 126.549 109.517 127.581 109.221C128.612 108.924 128.023 107.378 128.023 107.378C128.023 107.378 130.015 106.641 130.511 105.607C131.006 104.574 132.525 103.246 132.007 103.321C131.782 103.285 131.568 103.201 131.378 103.076L128.614 102.73L117.469 114.68Z"
            fill="black"
            opacity="0.1"/>
        <path
            d="M111.419 112.024C111.419 112.024 114.814 114.828 114.971 116.081C115.128 117.333 117.394 117.262 117.394 117.262C117.394 117.262 120.789 114.016 121.599 113.722C122.409 113.427 125.067 111.876 124.994 111.434C124.921 110.991 126.101 109.296 127.132 108.999C128.163 108.703 127.574 107.156 127.574 107.156C127.574 107.156 129.566 106.419 130.062 105.386C130.558 104.352 132.076 103.025 131.558 103.1C131.412 103.12 130.945 102.879 130.352 102.527C129.624 102.084 128.701 101.485 127.948 100.978C127.152 100.438 126.543 100.009 126.543 100.009C126.543 100.009 126.196 99.9466 125.6 99.8603C122.389 99.3955 111.93 98.2094 109.502 102.073C109.178 102.584 108.936 103.141 108.783 103.726C107.696 107.842 111.419 112.024 111.419 112.024Z"
            fill="#444053"/>
        <path
            d="M114.969 103.08C114.969 103.08 111.503 105.036 110.21 105.036C108.918 105.036 114.969 103.08 114.969 103.08Z"
            fill="black"
            opacity="0.1"/>
        <path
            d="M117.283 104.574C117.283 104.574 112.122 106.309 112.122 107.672C112.122 109.035 111.639 104.021 117.283 104.574Z"
            fill="black"
            opacity="0.1"/>
        <path d="M129.638 96.7607L129.564 96.8603C129.598 96.8347 129.623 96.8002 129.638 96.7607Z" fill="black"
              opacity="0.1"/>
        <path
            d="M113.631 62.8257L113.967 63.2506L114.155 63.4874L115.328 64.9634C115.328 64.9634 118.128 65.8618 120.582 66.4438C123.138 67.0479 125.318 67.3113 123.586 65.8662C122.51 64.97 122.439 63.4697 122.831 61.8609L122.753 61.7613C122.753 61.7613 122.831 63.2528 121.948 63.2816C120.757 63.3192 120.742 62.9187 119.644 62.4562C118.23 61.8587 116.78 60.8607 116.373 60.084C115.534 61.0696 114.617 61.9864 113.631 62.8257Z"
            fill="black"
            opacity="0.1"/>
        <path
            d="M108.781 103.72C109.385 103.978 110.065 103.994 110.68 103.765C112.966 103.026 116.583 101.246 118.278 102.025C119.637 102.649 125.11 102.632 127.13 102.107C127.633 101.977 127.92 101.815 127.876 101.625C127.848 101.406 127.874 101.183 127.954 100.976C128.188 100.226 128.826 99.184 129.301 98.4648L129.155 97.9049L127.655 96.5352L125.605 99.8545C122.394 99.3898 111.935 98.2037 109.507 102.067C109.181 102.578 108.936 103.135 108.781 103.72Z"
            fill="black"
            opacity="0.1"/>
        <path
            d="M107.289 101.994C107.289 101.994 108.174 104.059 110.46 103.322C112.746 102.585 116.362 100.804 118.058 101.583C119.753 102.361 127.871 102.14 127.649 101.182C127.428 100.224 129.641 97.1988 129.641 97.1988C129.641 97.1988 128.433 96.9775 127.685 93.032C127.574 92.4566 127.475 91.8016 127.39 91.0581C127.208 89.5353 127.165 87.9991 127.262 86.4685C127.561 82.1977 129.057 80.4539 129.057 80.4539C129.057 80.4539 131.122 78.095 129.351 74.8487C128.424 73.147 124.682 68.4313 124.631 66.3291C124.584 64.4216 122.761 62.2043 122.761 62.2043C122.761 62.2043 122.838 63.6958 121.955 63.7245C120.764 63.7622 120.749 63.3616 119.651 62.8991C118.038 62.2176 116.38 61.016 116.272 60.2127C116.272 60.2127 109.508 59.8741 108.032 66.7341C106.556 73.594 107.074 77.3559 107.295 78.168C107.516 78.9802 109.433 89.4537 107.884 93.8795C106.335 98.3053 107.289 101.994 107.289 101.994Z"
            fill="#A36468"/>
        <path
            d="M118.315 89.9427C119.535 92.0003 121.167 93.7836 123.109 95.1806C124.404 95.1913 125.697 95.2778 126.982 95.4395C126.871 94.8642 126.761 94.2091 126.688 93.4656C126.505 91.9429 126.462 90.4066 126.559 88.8761C126.347 88.7695 126.16 88.6189 126.01 88.4342C125.86 88.2495 125.752 88.035 125.692 87.8051C125.322 86.5504 122.031 80.5756 122.031 80.5756C122.031 80.5756 114.332 78.584 114.064 80.5756C113.796 82.5672 116.397 86.6234 118.315 89.9427Z"
            fill="black"
            opacity="0.1"/>
        <path
            d="M120.869 76.851C120.869 76.851 125.516 85.6428 125.877 86.8975C125.971 87.2458 126.174 87.5551 126.455 87.7803C126.737 88.0056 127.083 88.1351 127.444 88.15C127.444 88.15 132.074 89.2564 133.18 89.4047C134.287 89.5529 143.885 90.3628 143.885 90.3628C143.885 90.3628 146.32 90.4381 146.614 89.5529C146.884 88.743 151.587 84.4876 154.309 88.2009C154.56 88.5443 154.727 88.9421 154.795 89.362C154.863 89.7818 154.832 90.2119 154.703 90.6173C154.203 92.2106 153.176 94.7399 152.074 93.1666C150.525 90.9537 148.723 91.5755 148.723 92.755C148.723 93.9344 146.244 93.4963 145.434 93.6622C144.992 93.753 143.469 94.1579 142.152 94.512C140.62 94.9258 139.051 95.186 137.467 95.2887C134.853 95.4591 131 95.6007 129.635 95.0851C127.988 94.4589 125.113 94.315 123.881 94.2819C123.473 94.272 123.08 94.1307 122.759 93.8791C121.052 92.5421 119.608 90.8996 118.501 89.0351C116.582 85.7158 112.636 78.8426 112.901 76.851C113.167 74.8594 120.869 76.851 120.869 76.851Z"
            fill="#EFB7B9"/>
        <path
            d="M119.319 64.6691C119.319 64.6691 121.809 68.8005 122.962 71.7503C124.115 74.7001 125.516 79.8649 125.516 79.8649L118.58 79.0528L117.991 78.0946C117.991 78.0946 113.038 81.1927 113.629 82.5204C114.22 83.8481 112.301 80.5288 112.45 76.7669C112.598 73.005 111.916 66.2911 112.45 64.6691C112.983 63.047 117.688 63.4144 119.319 64.6691Z"
            fill="black"
            opacity="0.1"/>
        <path
            d="M112.457 76.3247C112.309 80.0866 114.227 83.4059 113.636 82.0782C113.046 80.7505 117.998 77.6524 117.998 77.6524L118.581 78.6106L125.514 79.4227C125.514 79.4227 124.113 74.2579 122.96 71.3081C122.268 69.6393 121.475 68.0136 120.588 66.4398C119.877 65.1497 119.318 64.2269 119.318 64.2269C118.364 63.49 116.339 63.0585 114.723 63.1603C114.471 63.1746 114.221 63.2049 113.973 63.251C113.309 63.3816 112.773 63.6338 112.536 64.0322C112.5 64.0938 112.471 64.1591 112.448 64.2269C111.917 65.8489 112.598 72.5628 112.457 76.3247Z"
            fill="#A36468"/>
        <path
            d="M109.359 86.623C109.359 86.623 112.292 90.6615 113.177 90.7722C113.17 90.781 109.408 89.9424 109.359 86.623Z"
            fill="black"
            opacity="0.1"/>
        <path
            d="M109.359 92.377C109.359 92.377 114.892 97.9645 116.663 98.0198C118.433 98.0751 109.359 92.377 109.359 92.377Z"
            fill="black"
            opacity="0.1"/>
        <path
            d="M109.36 94.709C109.36 94.709 112.901 98.8581 113.122 98.8581C113.344 98.8581 109.298 97.4198 109.36 94.709Z"
            fill="black"
            opacity="0.1"/>
        <path
            d="M112.531 64.0325C113.1 63.9477 113.65 63.7634 114.156 63.4881C114.346 63.3886 114.534 63.2779 114.718 63.1606C115.443 62.675 116.12 62.1191 116.736 61.501C117.754 60.5118 118.77 59.4319 119.191 58.0754C119.285 57.7628 119.355 57.4431 119.399 57.1195C119.651 55.4178 119.438 53.539 120.656 52.3817C120.884 52.1658 121.147 51.9887 121.432 51.8572C123.159 51.0363 125.662 51.5673 126.95 50.0869C127.769 49.1487 127.749 47.8453 128.377 46.8251C128.652 46.3826 129.156 45.9997 129.603 45.5926C128.952 44.6016 128.088 43.7684 127.074 43.1538C126.06 42.5391 124.921 42.1586 123.742 42.04C122.562 41.9213 121.37 42.0675 120.254 42.4679C119.138 42.8683 118.125 43.5127 117.29 44.3543C116.454 45.1958 115.817 46.2132 115.425 47.3322C115.033 48.4512 114.896 49.6436 115.023 50.8224C115.151 52.0013 115.54 53.1368 116.162 54.1462C116.784 55.1556 117.624 56.0134 118.62 56.657C118.571 56.7698 118.518 56.8783 118.462 56.9955C116.942 60.0936 113.631 62.811 113.631 62.811L113.968 63.2359C113.297 63.3886 112.768 63.6342 112.531 64.0325Z"
            fill="black"
            opacity="0.1"/>
        <path
            d="M126.506 49.8694C125.008 51.5866 121.859 50.5864 120.21 52.1598C118.762 53.5384 119.338 55.9438 118.747 57.8535C118.326 59.21 117.311 60.2877 116.293 61.2791C114.81 62.7219 112.913 64.1868 110.886 63.773C109.684 63.5273 108.507 62.6289 107.345 63.0427C106.767 63.2507 106.353 63.7508 105.922 64.1912C104.456 65.6849 102.55 66.6705 100.484 67.0038C100.076 67.0959 99.6496 67.076 99.2514 66.9462C98.6317 66.694 98.2975 66.0168 97.7332 65.6561C96.6266 64.948 95.2058 65.6738 94.0572 66.3067C90.8449 68.0458 87.299 69.0809 83.6555 69.343C80.012 69.6051 76.3544 69.0883 72.9262 67.827L74.7166 66.9418C74.336 66.1651 73.3069 65.9947 72.6518 65.426C71.3018 64.2554 72.0963 61.9142 73.5237 60.8409C74.9512 59.7677 76.7992 59.3937 78.2776 58.3912C78.5785 58.1877 78.884 57.9177 78.9127 57.557C78.9079 57.2921 78.8239 57.0347 78.6715 56.8179C77.8836 55.4304 77.0116 53.9411 77.1887 52.3545C77.4587 49.9203 80.1167 48.4244 82.5578 48.254C84.9988 48.0836 87.4156 48.8183 89.8611 48.8604C90.7463 48.8759 91.6736 48.7895 92.4328 48.3315C93.4928 47.6942 94.0262 46.4793 94.6702 45.4238C95.8197 43.5496 97.467 42.0313 99.4285 41.0378C101.642 39.9203 104.147 39.5286 106.449 38.6037C108.799 37.661 110.937 36.1695 113.396 35.5698C116.965 34.6846 120.79 35.842 123.873 37.8424C125.358 38.805 130.1 41.8942 130.069 43.8703C130.045 45.0431 128.52 45.6782 127.942 46.5988C127.305 47.6278 127.325 48.9312 126.506 49.8694Z"
            fill="#965D7B"/>
        <g opacity="0.1">
            <path
                d="M78.4542 55.7095C78.6055 55.9268 78.6894 56.1839 78.6954 56.4486C78.6866 56.5419 78.6604 56.6327 78.618 56.7164C77.9673 55.5701 77.2901 54.3552 77.1816 53.0762C77.4694 53.9901 77.9762 54.8686 78.4542 55.7095Z"
                fill="black"
                opacity="0.1"/>
            <path
                d="M72.4347 64.3171C73.0876 64.8858 74.1167 65.0562 74.4996 65.8329L73.8666 66.1471C73.4401 65.9466 73.0346 65.7042 72.656 65.4235C72.416 65.2096 72.2288 64.9431 72.109 64.6448C71.9892 64.3465 71.9401 64.0245 71.9655 63.7041C72.0783 63.9384 72.238 64.147 72.4347 64.3171Z"
                fill="black"
                opacity="0.1"/>
            <path
                d="M93.8394 65.2007C94.988 64.5678 96.411 63.842 97.5154 64.5501C98.0775 64.9108 98.4139 65.5879 99.0336 65.8402C99.4311 65.97 99.8562 65.9899 100.264 65.8977C102.331 65.5644 104.237 64.5789 105.704 63.0851C106.133 62.6426 106.547 62.1447 107.127 61.9367C108.282 61.5229 109.46 62.4213 110.668 62.6669C112.695 63.0807 114.59 61.6158 116.075 60.173C117.093 59.1838 118.106 58.1039 118.527 56.7475C119.12 54.8377 118.545 52.4323 119.992 51.0537C121.645 49.4804 124.788 50.4806 126.288 48.7634C127.105 47.8251 127.087 46.5217 127.716 45.5016C128.247 44.6408 129.624 44.03 129.818 42.9922C129.97 43.2631 130.055 43.5668 130.064 43.8773C130.04 45.0502 128.515 45.6853 127.937 46.6058C127.309 47.626 127.326 48.9293 126.51 49.8676C125.009 51.5848 121.862 50.5846 120.213 52.1579C118.766 53.5366 119.341 55.942 118.748 57.8517C118.328 59.2082 117.314 60.2858 116.296 61.2772C114.811 62.72 112.917 64.1849 110.889 63.7711C109.685 63.5255 108.508 62.6271 107.348 63.0409C106.768 63.2489 106.355 63.749 105.925 64.1894C104.458 65.6831 102.552 66.6687 100.485 67.0019C100.078 67.0941 99.6524 67.0742 99.2549 66.9444C98.6352 66.6921 98.2988 66.015 97.7367 65.6543C96.6301 64.9462 95.2093 65.672 94.0607 66.3049C90.8484 68.044 87.3025 69.079 83.659 69.3412C80.0155 69.6033 76.3579 69.0865 72.9297 67.8251L74.1668 67.2122C77.4169 68.1884 80.8278 68.5133 84.2037 68.1681C87.5797 67.8229 90.8542 66.8145 93.8394 65.2007Z"
                fill="black"
                opacity="0.1"/>
        </g>
        <path
            d="M148.532 122.618L150.394 121.717V121.366C150.394 121.231 148.909 121.529 147.758 121.784C148.586 121.93 148.552 122.485 148.532 122.618Z"
            fill="black"
            opacity="0.1"/>
        <path
            d="M150.15 102.268C152.626 102.268 154.634 99.8257 154.634 96.8131C154.634 93.8006 152.626 91.3584 150.15 91.3584C147.673 91.3584 145.666 93.8006 145.666 96.8131C145.666 99.8257 147.673 102.268 150.15 102.268Z"
            fill="#606CE6"/>
        <path d="M106.994 89.7148L99.7858 96.8226L76.0898 96.4088L82.6053 89.7148H106.994Z" fill="#DDA2A6"/>
        <path d="M106.993 114.03V89.7148L99.7852 96.8226V120.616L106.993 114.03Z" fill="#B77B7F"/>
        <path d="M76.0898 96.4092V120.616H99.7858V96.823L76.0898 96.4092Z" fill="#DDA2A6"/>
        <path d="M76.0898 96.4092V120.616H99.7858V96.823L76.0898 96.4092Z" fill="white" opacity="0.3"/>
        <path d="M97.8618 103.485L80.2386 100.46L77.9414 112.029L96.0847 115.362L97.8618 103.485Z" fill="#DCE0ED"/>
        <path d="M94.3798 106.187L82.5329 104.326L82.2363 105.871L94.0832 107.88L94.3798 106.187Z" fill="#606CE6"/>
        <path d="M91.1215 109.491L84.3825 108.513L84.0859 110.228L91.1215 111.215V109.491Z" fill="#606CE6"/>
        <path d="M104.078 102.476L103.757 92.9033L101.904 94.7312L102.227 104.326L104.078 102.476Z" fill="#65617D"/>
        <path
            d="M80.2222 92.1641L102.993 92.4717L103.759 92.9032L101.907 94.731L101.267 94.3548L78.7129 93.7153L80.2222 92.1641Z"
            fill="#65617D"/>
    </g>
    <defs>
        <clipPath id="clip0">
            <rect fill="white" height="179" width="233.771"/>
        </clipPath>
    </defs>
</svg>
