<svg width="12" height="12" viewBox="0 0 13 12" fill="none" xmlns="http://www.w3.org/2000/svg">
    <path
        d="M5.70054 0.340889C5.92375 -0.113629 6.56867 -0.11363 6.79188 0.340888L8.25065 3.31139C8.33929 3.49188 8.51063 3.61698 8.70882 3.64592L11.9707 4.12226C12.4699 4.19515 12.6691 4.81155 12.308 5.16535L9.94764 7.47756C9.80422 7.61805 9.73878 7.82046 9.77263 8.01884L10.3298 11.2837C10.4151 11.7833 9.89334 12.1643 9.44692 11.9284L6.52937 10.3869C6.3521 10.2933 6.14032 10.2933 5.96304 10.3869L3.04549 11.9284C2.59907 12.1643 2.07732 11.7833 2.16258 11.2837L2.71978 8.01884C2.75364 7.82046 2.68819 7.61805 2.54478 7.47756L0.184427 5.16535C-0.176732 4.81155 0.0225594 4.19515 0.521669 4.12226L3.78359 3.64592C3.98179 3.61698 4.15312 3.49188 4.24176 3.31139L5.70054 0.340889Z"
        fill="#FCB500"/>
</svg>
