<svg width="12" height="13" viewBox="0 0 12 13" fill="none" xmlns="http://www.w3.org/2000/svg">
<g clip-path="url(#clip0)">
<path d="M11.637 6.12073L9.14718 8.63891L5.68844 12.1365C5.58211 12.2501 5.45359 12.3407 5.31083 12.4026C5.16808 12.4645 5.01412 12.4965 4.85851 12.4965C4.7029 12.4965 4.54895 12.4645 4.40619 12.4026C4.26343 12.3407 4.13491 12.2501 4.02859 12.1365L3.47537 11.5771C3.20114 11.2983 3.00985 11.0071 3.16531 10.6559C3.2297 10.5228 3.26235 10.3766 3.2607 10.2287C3.25905 10.0808 3.22315 9.93534 3.15582 9.80368C3.08848 9.67202 2.99155 9.55776 2.87262 9.46987C2.75369 9.38198 2.61601 9.32285 2.47039 9.29713C2.43755 9.28839 2.40356 9.28481 2.36963 9.28654C2.27731 9.28184 2.18482 9.29136 2.0954 9.31478C2.02687 9.33173 1.95964 9.35355 1.89422 9.38007C1.53741 9.53713 1.25083 9.33596 0.985596 9.0589C0.747896 8.82773 0.5319 8.60009 0.294023 8.35833C-0.181378 7.87834 -0.0432049 7.31012 0.432373 6.82131L6.24184 0.944968C6.72641 0.454391 7.27858 0.314982 7.76333 0.80556L8.45491 1.50437C8.72913 1.78318 8.79602 1.95259 8.73161 2.34435C8.60261 3.14198 8.95642 3.57079 9.64006 3.81079C9.77594 3.82102 9.91129 3.78495 10.024 3.70844C10.3717 3.55138 10.6794 3.74549 10.9447 4.02255L11.6362 4.72312C12.1215 5.21193 12.1215 5.64074 11.637 6.12073ZM6.58824 4.37195C6.56102 4.34468 6.52868 4.32304 6.49309 4.30828C6.45749 4.29352 6.41934 4.28592 6.3808 4.28592C6.34227 4.28592 6.30411 4.29352 6.26852 4.30828C6.23292 4.32304 6.20059 4.34468 6.17337 4.37195L3.9603 6.61131C3.90519 6.66696 3.87427 6.74211 3.87427 6.82042C3.87427 6.89874 3.90519 6.97389 3.9603 7.02954C3.9873 7.05719 4.01957 7.07917 4.05519 7.09417C4.09081 7.10918 4.12908 7.11691 4.16773 7.11691C4.20639 7.11691 4.24465 7.10918 4.28028 7.09417C4.3159 7.07917 4.34816 7.05719 4.37517 7.02954L6.58824 4.79194C6.64321 4.73586 6.67399 4.66047 6.67399 4.58194C6.67399 4.50342 6.64321 4.42803 6.58824 4.37195ZM8.10974 5.91074C8.08251 5.88347 8.05018 5.86183 8.01458 5.84707C7.97899 5.83231 7.94083 5.82471 7.9023 5.82471C7.86377 5.82471 7.82561 5.83231 7.79002 5.84707C7.75442 5.86183 7.72209 5.88347 7.69486 5.91074L5.48179 8.1501C5.42668 8.20575 5.39577 8.2809 5.39577 8.35921C5.39577 8.43753 5.42668 8.51268 5.48179 8.56833C5.5088 8.59598 5.54106 8.61796 5.57669 8.63296C5.61231 8.64797 5.65058 8.6557 5.68923 8.6557C5.72788 8.6557 5.76615 8.64797 5.80177 8.63296C5.8374 8.61796 5.86966 8.59598 5.89667 8.56833L8.10974 6.33073C8.1647 6.27465 8.19549 6.19926 8.19549 6.12073C8.19549 6.04221 8.1647 5.96682 8.10974 5.91074Z" fill="#5FCEBF"/>
</g>
<defs>
<clipPath id="clip0">
<rect width="12" height="12" fill="white" transform="translate(0 0.5)"/>
</clipPath>
</defs>
</svg>
