<svg width="70" height="18" viewBox="0 0 70 18" fill="none" xmlns="http://www.w3.org/2000/svg">
<path d="M5.96968 7.27895V6.64731C5.75041 6.61257 5.52893 6.59353 5.30695 6.59034C3.15792 6.5858 1.25526 7.97842 0.609924 10.0283C-0.035395 12.0782 0.726338 14.3096 2.49043 15.537C1.16899 14.1228 0.802055 12.064 1.55355 10.2803C2.30505 8.49665 4.03463 7.32117 5.96968 7.27895Z" fill="#25F4EE"/>
<path d="M6.08945 14.4341C7.29104 14.4325 8.27871 13.4859 8.33132 12.2854V1.57327H10.2884C10.2484 1.34944 10.2294 1.12238 10.2314 0.89502L7.55469 0.89502V11.5968C7.51018 12.8034 6.52018 13.7591 5.31284 13.761C4.95205 13.758 4.59714 13.6692 4.27734 13.5022C4.48459 13.7893 4.75678 14.0234 5.07169 14.1853C5.38661 14.3473 5.73535 14.4325 6.08947 14.4341H6.08945ZM13.9437 5.20786V4.61244C13.2234 4.61268 12.5192 4.40014 11.9193 4.00149C12.4452 4.61281 13.1558 5.03628 13.9437 5.20786H13.9437Z" fill="#25F4EE"/>
<path d="M11.9176 4.00177C11.3267 3.32887 11.001 2.46388 11.0012 1.56836H10.2867C10.379 2.06349 10.5712 2.53461 10.8516 2.95299C11.132 3.37137 11.4947 3.72822 11.9176 4.00177ZM5.30602 9.26726C4.2749 9.27255 3.37971 9.97896 3.13482 10.9806C2.88992 11.9822 3.35816 13.022 4.27052 13.5024C3.77617 12.8199 3.70633 11.9178 4.08974 11.1674C4.47319 10.4169 5.24507 9.94489 6.08781 9.94552C6.31253 9.94832 6.53569 9.98319 6.75054 10.0491V7.32569C6.53113 7.29282 6.30967 7.27552 6.08781 7.27393H5.96872V9.3449C5.75275 9.287 5.5295 9.26083 5.306 9.26724L5.30602 9.26726Z" fill="#FE2C55"/>
<path d="M13.9447 5.20801V7.27898C12.6114 7.2764 11.3127 6.85436 10.2325 6.07263V11.5142C10.2268 14.2294 8.02402 16.4276 5.30874 16.4276C4.30035 16.4294 3.31625 16.1182 2.49219 15.537C3.86744 17.0161 6.00772 17.503 7.88748 16.7644C9.76723 16.0258 11.0035 14.2121 11.0039 12.1924V6.76641C12.0877 7.54302 13.3881 7.95957 14.7214 7.95723V5.29084C14.4603 5.29001 14.2001 5.26226 13.9447 5.20801H13.9447Z" fill="#FE2C55"/>
<path d="M10.2321 11.5143V6.07276C11.3155 6.85 12.6161 7.26661 13.9495 7.26358V5.19259C13.1617 5.02624 12.4494 4.6083 11.9199 4.00177C11.497 3.72822 11.1343 3.37137 10.8539 2.95299C10.5735 2.53461 10.3813 2.06348 10.289 1.56836H8.33196V12.2857C8.2928 13.2419 7.65236 14.0683 6.73626 14.3449C5.82013 14.6215 4.82934 14.2875 4.26763 13.5128C3.35529 13.0323 2.88704 11.9925 3.13193 10.9909C3.37683 9.9893 4.272 9.2829 5.30312 9.27761C5.52788 9.27963 5.75116 9.31449 5.96585 9.38117V7.31018C4.01992 7.34313 2.27727 8.52273 1.52367 10.3171C0.770041 12.1114 1.1478 14.1816 2.48659 15.5941C3.31878 16.1561 4.30431 16.4473 5.30831 16.4277C8.02359 16.4277 10.2264 14.2295 10.2321 11.5143Z" fill="black"/>
<path d="M23.2066 16.434H20.3768V7.23557H17.5523L17.5469 4.71411H26.2692L25.4684 7.23557H23.2066V16.434ZM46.219 16.434H43.3946V7.23557H40.5593L40.5539 4.71411H49.4764L48.6756 7.23557H46.219V16.434ZM26.7995 8.44219H29.5969V16.434H26.8211L26.7995 8.44219ZM34.326 12.5436L33.4981 13.3444V16.434H30.7061V4.68164H33.4981V10.1412L36.2685 7.43577H39.6016L36.1007 10.8338L40.0236 16.434H36.9448L34.326 12.5436ZM63.9234 12.5436L63.1226 13.3444V16.434H60.3252L60.2981 4.68164H63.1226V10.1412L65.8875 7.43577H69.2206L65.7198 10.8338L69.6156 16.434H66.5368L63.9234 12.5436Z" fill="black"/>
<path d="M28.1998 7.52751C28.9768 7.52751 29.6066 6.89765 29.6066 6.12069C29.6066 5.34372 28.9768 4.71387 28.1998 4.71387C27.4228 4.71387 26.793 5.34372 26.793 6.12069C26.793 6.89765 27.4228 7.52751 28.1998 7.52751Z" fill="black"/>
<path d="M49.1208 11.6508C49.1217 9.1545 51.0421 7.07863 53.5307 6.88379H53.1141C50.5849 7.03132 48.6094 9.12538 48.6094 11.6589C48.6094 14.1924 50.5849 16.2864 53.1141 16.434H53.5307C51.0358 16.2386 49.1132 14.1533 49.1208 11.6508Z" fill="#25F4EE"/>
<path d="M54.6174 6.86791H54.1953C56.6759 7.0728 58.5848 9.14585 58.5848 11.6349C58.5848 14.1239 56.6759 16.197 54.1953 16.4018H54.6174C57.2591 16.4018 59.4006 14.2603 59.4006 11.6186C59.4006 8.97696 57.2591 6.83545 54.6174 6.83545V6.86791Z" fill="#FE2C55"/>
<path d="M53.8574 13.9775C52.5724 13.9775 51.5308 12.9359 51.5308 11.6509C51.5308 10.3659 52.5724 9.32421 53.8574 9.32421C55.1424 9.32421 56.1841 10.3659 56.1841 11.6509C56.1811 12.9346 55.1412 13.9746 53.8574 13.9775ZM53.8574 6.86768C51.2157 6.86768 49.0742 9.00919 49.0742 11.6509C49.0742 14.2926 51.2157 16.4341 53.8574 16.4341C56.4991 16.4341 58.6406 14.2926 58.6406 11.6509C58.6406 10.3823 58.1367 9.16567 57.2397 8.26865C56.3426 7.37162 55.126 6.86768 53.8574 6.86768Z" fill="black"/>
</svg>
