<svg width="14" height="9" viewBox="0 0 14 9" fill="none" xmlns="http://www.w3.org/2000/svg">
<path d="M12.1631 8.72622L13.5219 8.72622C13.6396 8.72622 13.7047 8.59087 13.6326 8.49946L7.44336 0.575245C7.391 0.507917 7.32395 0.453439 7.24734 0.415964C7.17072 0.378489 7.08656 0.359009 7.00127 0.359008C6.91598 0.359008 6.83181 0.378489 6.7552 0.415964C6.67858 0.453439 6.61154 0.507917 6.55918 0.575245L0.369918 8.49946C0.297847 8.59263 0.362886 8.72622 0.48066 8.72622L1.83945 8.72622C1.92558 8.72622 2.0082 8.68579 2.06093 8.619L7.00039 2.29087L11.9416 8.619C11.9943 8.68579 12.0769 8.72622 12.1631 8.72622Z" fill="#808080"/>
</svg>
