<svg width="14" height="9" viewBox="0 0 14 9" fill="none" xmlns="http://www.w3.org/2000/svg">
<path d="M1.83661 0.273412L0.477824 0.273412C0.36005 0.273412 0.295011 0.408764 0.367081 0.50017L6.55634 8.42439C6.6087 8.49172 6.67574 8.54619 6.75236 8.58367C6.82898 8.62114 6.91314 8.64063 6.99843 8.64063C7.08372 8.64063 7.16788 8.62114 7.2445 8.58367C7.32112 8.54619 7.38816 8.49172 7.44052 8.42439L13.6298 0.50017C13.7018 0.407006 13.6368 0.273412 13.519 0.273412L12.1602 0.273412C12.0741 0.273412 11.9915 0.313841 11.9388 0.380638L6.99931 6.70876L2.0581 0.380638C2.00536 0.313841 1.92275 0.273412 1.83661 0.273412Z" fill="black"/>
</svg>
