<svg width="14" height="9" viewBox="0 0 14 9" fill="none" xmlns="http://www.w3.org/2000/svg">
<path d="M12.1634 8.72659L13.5222 8.72659C13.6399 8.72659 13.705 8.59124 13.6329 8.49983L7.44366 0.575611C7.3913 0.508284 7.32426 0.453805 7.24764 0.41633C7.17102 0.378855 7.08686 0.359375 7.00157 0.359375C6.91628 0.359375 6.83212 0.378855 6.7555 0.41633C6.67888 0.453805 6.61184 0.508284 6.55948 0.575611L0.370223 8.49983C0.298153 8.59299 0.363191 8.72659 0.480965 8.72659L1.83975 8.72659C1.92589 8.72659 2.0085 8.68616 2.06124 8.61936L7.00069 2.29124L11.9419 8.61936C11.9946 8.68616 12.0773 8.72659 12.1634 8.72659Z" fill="black"/>
</svg>
