<svg fill="none" height="223" viewBox="0 0 293 223" width="293" xmlns="http://www.w3.org/2000/svg">
    <g clip-path="url(#clip0)">
        <path
            d="M69.602 186.099C67.135 185.849 64.5577 185.581 62.2214 186.236C59.885 186.89 57.9492 188.801 58.6428 190.628C60.1927 194.7 69.2885 191.864 73.4824 194.648C74.98 195.643 75.5633 197.208 76.7329 198.43C78.6253 200.413 81.8787 201.338 85.0191 201.847C103.884 204.905 125.39 197.036 141.925 204.614C147.279 207.069 151.502 210.976 157.374 212.613C165.152 214.783 173.67 212.465 181.718 210.978C191.755 209.14 201.987 208.602 212.161 209.379C219.686 209.96 229.696 210.155 232.105 204.678C233.655 201.155 230.376 197.234 226.022 195.567C221.669 193.9 216.572 193.953 211.711 194.113C202.328 194.45 192.942 195.131 183.558 194.799C165.413 194.153 148.272 186.945 130.603 186.707C110.025 186.457 90.2751 188.187 69.602 186.099Z"
            fill="#6C63FF"
            opacity="0.1"/>
        <path
            d="M50.5266 94.9195C47.6243 97.8604 47.4473 102.369 47.4473 102.369C47.4473 102.369 51.9429 102.113 54.8336 99.1693C57.7244 96.2256 57.9159 91.7197 57.9159 91.7197C57.9159 91.7197 53.4173 91.9844 50.5266 94.9195Z"
            fill="#6C63FF"
            opacity="0.1"/>
        <path
            d="M62.2081 22.267C63.2326 26.2667 66.9911 28.7538 66.9911 28.7538C66.9911 28.7538 69.0895 24.7599 68.065 20.7602C67.0405 16.7605 63.282 14.2764 63.282 14.2764C63.282 14.2764 61.172 18.2703 62.2081 22.267Z"
            fill="#6C63FF"
            opacity="0.1"/>
        <path
            d="M231.947 33.2681C229.045 36.209 228.865 40.7177 228.865 40.7177C228.865 40.7177 233.364 40.4617 236.255 37.518C239.145 34.5742 239.334 30.0654 239.334 30.0654C239.334 30.0654 234.838 30.3418 231.947 33.2681Z"
            fill="#6C63FF"
            opacity="0.1"/>
        <path
            d="M143.488 74.4817C143.151 78.5948 145.888 82.1786 145.888 82.1786C145.888 82.1786 149.176 79.0923 149.513 74.9762C149.85 70.8602 147.113 67.2852 147.113 67.2852C147.113 67.2852 143.824 70.3656 143.488 74.4817Z"
            fill="#6C63FF"
            opacity="0.1"/>
        <path
            d="M238.701 132.167C238.364 136.28 241.101 139.864 241.101 139.864C241.101 139.864 244.389 136.778 244.726 132.665C245.062 128.552 242.326 124.968 242.326 124.968C242.326 124.968 239.037 128.054 238.701 132.167Z"
            fill="#6C63FF"
            opacity="0.1"/>
        <path
            d="M170.234 28.0347C151.451 27.4675 133.561 22.217 116.478 16.4574C99.3947 10.6979 82.4742 4.33033 64.1403 1.28183C52.3482 -0.67875 38.8612 -0.955092 29.3619 4.52813C20.2167 9.80192 17.2622 18.9096 15.6746 27.3599C14.4789 33.7158 13.7765 40.4062 17.0503 46.3577C19.3257 50.4912 23.3599 53.9644 26.152 57.9205C35.866 71.694 28.9991 88.676 18.4754 102.135C13.5414 108.445 7.80936 114.46 3.99863 121.177C0.18789 127.893 -1.57381 135.584 1.76094 142.432C5.06377 149.221 12.9377 154.321 21.4676 157.907C38.7915 165.179 59.1977 167.277 79.1105 168.458C123.176 171.076 167.474 169.941 211.656 168.807C228.008 168.388 244.429 167.963 260.514 165.77C269.447 164.554 278.668 162.622 285.154 157.957C293.385 152.034 295.426 142.007 289.908 134.581C280.656 122.128 255.081 119.033 248.605 105.667C245.047 98.3102 248.701 90.1159 253.876 83.2917C264.975 68.6542 283.575 55.8116 284.554 39.0768C285.227 27.5868 276.285 16.0793 262.458 10.6426C247.967 4.94119 227.868 5.65968 217.182 15.0932C206.168 24.7942 186.821 28.5322 170.234 28.0347Z"
            fill="#6C63FF"
            opacity="0.1"/>
        <path
            d="M232.502 82.7947C232.102 82.8972 231.732 83.0933 231.422 83.3669C231.112 83.6404 230.872 83.9837 230.72 84.3684L230.43 84.3219L229.347 84.1474C229.347 84.1474 223.612 83.6732 222.541 83.7459C221.47 83.8187 220.8 82.7598 220.8 82.7598L216.536 79.1441L216.205 78.8532C216.667 78.6787 216.954 78.5885 216.954 78.5885C216.954 78.5885 205.513 64.335 203.046 64.0587C200.579 63.7824 196.502 60.4546 196.461 60.4226L196.417 60.1957C196.328 59.7158 196.261 59.23 196.211 58.7413L196.818 59.1136C196.818 58.9449 196.818 58.7762 196.835 58.6075C196.926 56.8484 197.518 55.1523 198.542 53.7206C199.735 52.0625 201.499 50.7593 202.205 48.8482C202.486 48.0263 202.613 47.1595 202.579 46.2913C202.597 44.7274 202.185 43.1887 201.389 41.8436C200.983 41.1713 200.44 40.5929 199.794 40.1466C199.149 39.7003 198.416 39.3963 197.645 39.2547C197.239 39.1907 196.824 39.182 196.423 39.0889C194.041 38.5275 193.164 35.3248 190.848 34.5394C189.768 34.1729 188.567 34.4144 187.525 34.8682C186.483 35.3219 185.54 35.9735 184.521 36.4768C183.502 36.98 182.347 37.3494 181.421 38.0621C181.325 38.1348 181.224 38.2221 181.131 38.3123L180.948 38.4897C180.566 38.8784 180.234 39.3132 179.958 39.7841L179.915 39.8569C179.886 39.9063 179.86 39.9587 179.834 40.011C179.808 40.0634 179.79 40.0925 179.773 40.1332C179.755 40.1739 179.726 40.2263 179.706 40.2728L179.645 40.4125L179.593 40.5463C179.575 40.5957 179.555 40.6452 179.541 40.6975C179.526 40.7499 179.512 40.7819 179.5 40.8255L179.456 40.9797L179.43 41.1048C179.43 41.1571 179.41 41.2124 179.401 41.2648C179.393 41.3171 179.401 41.3433 179.401 41.3811C179.401 41.4189 179.401 41.4917 179.401 41.5469C179.401 41.6022 179.401 41.6196 179.401 41.6546C179.401 41.6895 179.401 41.7709 179.401 41.832C179.401 41.8931 179.401 41.8902 179.401 41.9193C179.412 42.0048 179.43 42.0894 179.453 42.1723C179.61 42.7076 180.15 43.2544 180.562 43.7315C180.516 43.7751 180.469 43.8158 180.423 43.8624C179.443 44.8086 178.664 45.9432 178.132 47.1982C177.6 48.4533 177.326 49.8029 177.326 51.1666C177.327 51.7725 177.382 52.3771 177.492 52.973C176.964 52.5736 176.397 52.2296 175.799 51.9462C173.834 51.0017 171.684 50.505 169.504 50.4917C165.949 50.451 160.954 49.1129 160.954 49.1129C161.082 49.3571 161.179 49.616 161.244 49.8838C161.027 49.7587 160.792 49.6249 160.533 49.4852C158.451 48.3647 156.194 47.6073 153.858 47.2454C153.858 47.2454 152.378 47.4519 152.18 44.3365C152.113 43.3631 151.937 42.4002 151.658 41.4655C150.808 38.6162 150.22 35.6953 149.899 32.7389L149.403 28.1661C149.403 28.1661 151.638 16.2397 150.294 11.155C150.726 9.56096 150.483 8.10071 149.058 7.0506C143.436 2.90255 137.765 19.0468 137.765 19.0468L135.658 21.0976C135.117 20.7445 134.508 20.5114 133.87 20.414C133.87 20.414 132.735 21.5775 131.946 24.754C131.528 26.4382 128.672 29.2511 126.089 31.5171C124.254 33.1257 122.484 34.7983 120.716 36.4768C119.41 37.7218 116.499 39.502 110.149 40.5085C109.154 40.6655 108.248 40.8139 107.421 40.9506C107.632 40.199 107.74 39.4219 107.74 38.641C107.73 36.6754 107.054 34.7717 105.822 33.2424C104.59 31.7132 102.875 30.6493 100.96 30.2256C100.989 30.022 100.989 29.8154 100.96 29.6118C100.853 29.1738 100.632 28.7722 100.319 28.4483C98.9811 26.7902 97.5299 25.0856 95.5389 24.3002C94.7179 23.9802 93.8385 23.8384 92.9588 23.8843H92.5176C92.4277 23.8843 92.3406 23.8843 92.2506 23.8843C91.3119 23.9363 90.395 24.1885 89.5612 24.6239C88.7274 25.0593 87.9959 25.6679 87.4154 26.4091C86.7014 27.3662 86.2719 28.5006 85.6566 29.5216C84.5131 31.4124 82.7543 32.8698 80.8474 34.0217C79.701 34.7169 78.4966 35.3161 77.414 36.1044C73.4872 38.9638 71.6761 44.2493 72.6629 48.9733C73.0983 51.0473 74.0183 53.0893 73.7716 55.1924C73.5771 56.8243 72.7006 58.2904 71.8067 59.675C70.9128 61.0596 69.9667 62.4675 69.6126 64.0703C69.2585 65.6731 69.63 67.561 70.9709 68.5325C71.4643 68.8874 72.0621 69.1143 72.483 69.5448C72.7629 69.8765 72.9972 70.2444 73.1795 70.6386C73.8915 71.9277 74.8572 73.0585 76.0181 73.9626C77.179 74.8666 78.5109 75.525 79.9332 75.8978C80.3843 76.0133 80.8494 76.0642 81.3147 76.0491H81.364H81.454C82.5192 76.116 83.6104 75.8309 83.9674 74.8855C84.0216 74.6706 84.1025 74.4635 84.2083 74.2688C84.3085 74.1237 84.4582 74.0203 84.6291 73.978C84.9725 74.0566 85.3035 74.1818 85.613 74.3503C87.0998 75.1232 88.7263 75.5891 90.396 75.7204C90.6751 75.7427 90.9552 75.7475 91.2348 75.7349C91.8159 75.7894 92.4016 75.7057 92.9443 75.4906C93.4662 75.225 93.917 74.838 94.259 74.3619C94.3345 74.2659 94.4041 74.1641 94.4767 74.071C94.0932 76.3942 93.3716 78.6484 92.3348 80.7614C92.3348 80.7614 90.5934 83.6703 90.7182 86.6025C90.6512 87.6707 90.877 88.737 91.3712 89.6859C91.3712 89.6859 91.4206 89.5579 91.5221 89.3572C92.0213 90.1949 93.6582 92.874 94.7321 93.8136C94.7843 96.5799 94.7727 100.044 94.4273 100.757C93.8469 101.976 92.0126 110.647 99.9011 116.561L101.721 120.555L94.23 121.087C93.4725 120.982 83.6772 119.662 83.6278 121.585C83.5785 123.583 85.108 143.043 90.1871 141.726C94.9207 140.498 93.3593 134.823 93.1242 134.061L93.2926 134.014L93.1068 133.962L96.8943 130.364C96.9657 129.925 96.8614 129.477 96.6041 129.116L96.6418 129.095L105.79 129.505L107.941 134.189C107.941 134.189 111.589 139.75 108.631 144.431C105.674 149.111 102.615 156.43 102.121 160.869C101.718 164.499 99.0362 168.065 98.0756 169.241C96.3603 169.822 89.7807 172.411 92.4073 176.33C95.4141 180.815 105.178 189.353 109.125 189.059C113.072 188.765 111.49 185.888 111.49 185.888L108.19 182.683C108.19 182.683 107.61 175.853 107.845 173.854C107.972 172.816 107.209 172.068 106.394 171.751C106.704 169.526 107.491 165.308 109.18 162.978C111.545 159.708 119.141 145.321 119.141 145.321C119.141 145.321 121.555 143.174 121.013 136.786C120.795 134.209 120.673 131.946 120.603 130.157L129.2 130.544C129.2 130.544 138.421 129.616 132.157 119.714C125.894 109.812 112.581 100.108 112.581 100.108L112.462 93.9794C113.066 94.1306 113.42 94.2062 113.42 94.2062C113.42 94.2062 113.368 93.9852 113.281 93.5896L113.42 93.6216C113.42 93.6216 111.496 85.276 110.904 78.6409L111.447 78.891C117.167 85.5262 121.024 79.9179 121.024 79.9179C121.024 79.9179 133.106 62.8951 131.922 63.6747C131.8 63.7356 131.666 63.7714 131.53 63.7799C131.393 63.7883 131.256 63.7694 131.127 63.7242L131.998 60.9433C131.998 60.9433 135.565 55.4804 130.387 52.4087C126.161 49.9012 126.272 57.761 126.454 60.7309L126.245 60.5535C126.245 60.5535 122.202 66.6621 120.032 70.0655C117.861 73.4689 116.038 71.2291 116.038 71.2291L113.295 68.1311C113.746 66.89 113.967 65.5771 113.948 64.2565C114.008 63.3352 113.874 62.4115 113.554 61.5455C113.235 60.6795 112.737 59.8906 112.094 59.23C110.001 57.0919 109.389 55.0208 109.325 53.4268C109.346 52.6009 109.532 51.7876 109.873 51.0357L124.127 43.4726C124.127 43.4726 127.134 43.5191 131.176 37.2767C133.797 33.2842 136.68 29.4719 139.808 25.8652C139.808 25.8652 139.724 25.743 139.579 25.5423C139.724 25.3707 139.808 25.2776 139.808 25.2776C139.808 25.2776 139.642 25.0362 139.361 24.6638L141.558 22.1244C141.489 23.2721 141.48 24.4227 141.532 25.5714L142.67 29.4257L143.308 50.8844C143.308 50.8844 142.617 52.9206 147.058 54.983C150.813 56.7283 156.763 59.6372 158.499 60.4953C158.435 60.6524 158.397 60.7368 158.397 60.7368L158.914 60.7019L158.989 60.7368C167.664 59.9572 167.368 68.6373 167.368 68.6373C167.368 68.6373 167.949 86.2941 165.299 92.4406C162.649 98.587 163.029 106.194 163.029 106.194C163.029 106.194 163.293 104.896 164.771 106.592C164.742 106.741 164.71 106.901 164.675 107.066C163.827 111.322 162.063 120.374 161.735 124.045C161.374 127.391 160.73 130.699 159.811 133.936L158.94 150.176L164.486 150.446L164.425 151.028C164.395 151.323 164.294 151.606 164.13 151.853C163.966 152.1 163.745 152.303 163.485 152.445C161.587 153.477 157.1 157.099 157.46 168.275L157.268 170.073C156.961 173.117 156.04 176.067 154.56 178.744C154.433 178.971 154.319 179.189 154.224 179.398C154.238 179.281 154.291 179.171 154.375 179.087C154.375 179.087 151.493 179.686 152.085 187.491C152.677 195.295 153.565 196.66 154.749 196.756C155.933 196.852 161.715 198.268 161.404 195.391C161.093 192.515 160.824 186.124 161.207 185.149C161.59 184.175 163.163 181.545 161.671 180.911C162.104 179.121 162.313 177.284 162.295 175.442C162.295 175.442 165.197 170.858 167.272 169.15C169.348 167.443 170.465 164.543 171.217 160.811C171.269 160.566 177.332 156.517 176.441 153.155C176.284 152.573 176.171 152.058 176.084 151.592C176.046 151.386 176.014 151.191 175.985 151.011H176.093L177.326 143.596V150.816L178.057 150.912L178.031 151.494L177.721 158.417C177.665 159.765 177.37 161.093 176.85 162.338C175.544 165.436 173.135 172.333 173.791 179.791L173.721 186.441C173.512 186.482 170.5 187.194 171.072 194.731C171.652 202.533 172.549 203.9 173.733 203.996C174.917 204.092 180.699 205.508 180.391 202.632C180.083 199.755 179.81 193.364 180.194 192.389C180.577 191.415 181.267 188.838 179.776 188.204C179.783 187.33 179.996 186.47 180.397 185.693C181.047 184.585 183.218 179.317 184.852 175.265C186.522 171.164 187.451 166.797 187.594 162.37C187.594 162.32 187.594 162.271 187.594 162.222C187.638 160.728 187.958 159.255 188.538 157.879C189.206 156.338 189.734 154.741 190.117 153.105C190.157 152.91 190.189 152.721 190.218 152.523L191.634 152.712L196.47 131.739C196.47 131.739 197.793 120.372 197.146 115.237C197.12 115.025 197.091 114.83 197.056 114.641L197.346 114.667C197.346 114.667 198.333 112.134 198.037 101.304C197.741 90.4742 200.011 87.0504 200.011 87.0504C201.235 83.1584 202.588 81.8552 203.377 81.4188C203.58 81.289 203.813 81.213 204.053 81.1978L207.713 85.3953L208.387 86.169C208.388 86.1536 208.388 86.138 208.387 86.1225L208.677 86.4628C208.655 86.2902 208.647 86.1161 208.654 85.9421C210.607 87.0795 215.12 89.7382 217.813 91.6464C221.325 94.1335 222.289 93.8426 225.359 93.5838C227.223 93.4296 229.742 92.3824 231.431 91.5854L231.585 91.5126C232.039 91.7558 232.518 91.9508 233.013 92.0944C233.013 92.0944 237.97 96.3036 238.449 88.6212C238.928 80.9389 232.502 82.7947 232.502 82.7947ZM103.93 172.26C103.425 172.109 102.938 171.904 102.478 171.646L103.93 172.26ZM96.1687 89.1012L96.1862 90.192L96.1107 90.2269C96.1339 89.8429 96.1513 89.4648 96.1687 89.1012ZM173.701 186.467V186.892C173.647 186.834 173.618 186.758 173.618 186.679C173.618 186.601 173.647 186.525 173.701 186.467Z"
            fill="url(#paint0_linear)"/>
        <path d="M189.524 58.6514H181.107V67.5234H189.524V58.6514Z" fill="#FF7590"/>
        <path
            d="M170.879 161.093C170.138 164.802 169.041 167.685 167.01 169.384C164.978 171.082 162.125 175.638 162.125 175.638C162.076 181.697 160.48 183.538 160.48 183.538L158.834 183.974H154.771C154.771 183.974 154.045 181.938 153.9 180.728C153.851 180.324 154.138 179.646 154.539 178.919C155.991 176.253 156.894 173.322 157.194 170.3L157.383 168.511C157.04 157.408 161.446 153.804 163.295 152.777C163.55 152.634 163.767 152.431 163.927 152.186C164.088 151.941 164.186 151.661 164.215 151.369L164.543 148.195L175.473 148.733C175.473 148.733 175.241 149.699 175.656 151.933C175.74 152.396 175.853 152.911 176.004 153.484C176.875 156.826 170.925 160.849 170.879 161.093Z"
            fill="#8E5362"/>
        <path
            d="M189.413 153.426C189.038 155.05 188.521 156.637 187.866 158.17C187.297 159.54 186.982 161.003 186.938 162.487C186.938 162.536 186.938 162.586 186.938 162.635C186.796 167.032 185.886 171.37 184.247 175.452C182.642 179.477 180.515 184.716 179.876 185.819C178.814 187.66 179.441 190.764 179.441 190.764L173.288 190.328L173.395 179.952C172.754 172.543 175.117 165.698 176.396 162.606C176.914 161.369 177.208 160.051 177.267 158.711L177.557 151.829L177.647 149.792C177.647 149.792 188.525 148.242 189.442 150.715C189.695 151.369 189.634 152.344 189.413 153.426Z"
            fill="#8E5362"/>
        <path
            d="M175.658 151.933L164.205 151.369L164.533 148.195L175.475 148.733C175.475 148.733 175.234 149.696 175.658 151.933Z"
            fill="black"
            opacity="0.1"/>
        <path
            d="M189.413 153.426L177.555 151.829L177.645 149.792C177.645 149.792 188.522 148.242 189.44 150.715C189.695 151.369 189.634 152.344 189.413 153.426Z"
            fill="black"
            opacity="0.1"/>
        <path
            d="M195.645 132.197L190.905 153.045L176.879 151.154V143.978L175.665 151.352L158.832 150.526L159.703 134.381C160.605 131.16 161.236 127.868 161.589 124.541C161.917 120.893 163.641 111.896 164.474 107.669C164.764 106.276 164.927 105.397 164.927 105.397C164.927 105.397 193.758 111.407 195.645 113.589C195.967 113.961 196.179 114.752 196.31 115.802C196.942 120.899 195.645 132.197 195.645 132.197Z"
            fill="#BDD2E8"/>
        <path d="M161.979 133.555C161.979 133.555 173.327 127.592 176.092 128.851L161.979 133.555Z" fill="black"
              opacity="0.1"/>
        <path d="M168.168 114.065C168.168 114.065 177.601 121.242 177.891 123.179L168.168 114.065Z" fill="black"
              opacity="0.1"/>
        <path d="M165.605 138.792C165.605 138.792 172.426 138.501 174.603 140.246L165.605 138.792Z" fill="black"
              opacity="0.1"/>
        <path
            d="M177.891 131.117C177.891 131.117 181.133 141.752 179.728 144.661C178.323 147.57 176.875 143.98 176.875 143.98L177.891 131.117Z"
            fill="black"
            opacity="0.1"/>
        <path
            d="M173.339 186.549C173.339 186.549 170.146 187.035 170.727 194.79C171.307 202.545 172.178 203.906 173.339 204.002C174.5 204.098 180.159 205.506 179.869 202.644C179.579 199.781 179.289 193.434 179.675 192.463C180.061 191.491 180.728 188.934 179.265 188.303L178.949 189.798C178.949 189.798 175.852 186.936 174.015 189.021C173.936 188.513 173.809 188.013 173.635 187.529C173.452 187.075 173.052 186.84 173.339 186.549Z"
            fill="#494457"/>
        <path
            d="M231.763 91.377C231.763 91.377 231.032 91.7871 229.958 92.2991C228.301 93.0903 225.831 94.1317 224.003 94.2858C220.99 94.5418 220.047 94.8327 216.602 92.3602C213.958 90.4636 209.532 87.8194 207.605 86.6908L206.766 86.1934L206.682 86.1439V86.109L208.281 81.705L213.94 78.6885L215.345 79.8957L219.527 83.4881C219.527 83.4881 220.18 84.5411 221.234 84.4684C222.287 84.3957 227.909 84.8669 227.909 84.8669L228.971 85.0414L231.209 85.4138L231.763 91.377Z"
            fill="#8E5362"/>
        <path
            d="M231.764 91.3766C231.764 91.3766 231.032 91.7868 229.958 92.2987C228.824 91.7169 227.413 90.6261 227.956 88.8313C228.446 87.2169 228.58 85.9574 228.983 85.0498L231.221 85.4221L231.764 91.3766Z"
            fill="black"
            opacity="0.1"/>
        <path
            d="M231.003 83.5222C231.003 83.5222 237.315 81.7041 236.845 89.3399C236.375 96.9757 231.511 92.7957 231.511 92.7957C231.511 92.7957 227.375 91.7048 228.245 88.8309C229.116 85.9569 228.864 84.2145 231.003 83.5222Z"
            fill="#8E5362"/>
        <path
            d="M165.556 58.7969L158.979 61.5662L158.878 61.6098L158.805 61.5749L158.396 61.3684C156.695 60.519 150.85 57.613 147.173 55.8881C142.819 53.8519 143.495 51.8157 143.495 51.8157L142.869 30.4849L141.754 26.6539C141.754 26.6539 140.968 13.6687 147.268 10.4137C153.569 7.15864 149.495 29.2224 149.495 29.2224L149.982 33.8068C150.297 36.7395 150.875 39.6378 151.709 42.4665C151.981 43.3965 152.153 44.3533 152.22 45.3201C152.414 48.421 153.865 48.2145 153.865 48.2145C156.157 48.5752 158.37 49.329 160.407 50.4427C161.164 50.8429 161.888 51.302 162.572 51.8157L165.556 58.7969Z"
            fill="#8E5362"/>
        <path
            d="M188.97 68.9785L183.357 68.3967C183.357 68.3967 185.012 65.93 185.74 63.5302C185.843 63.2012 185.926 62.866 185.987 62.5266C186.155 61.5754 186.112 60.694 185.679 60.057C184.037 57.6339 195.451 54.2393 195.451 54.2393C195.313 55.5803 195.271 56.9297 195.327 58.2768C195.359 59.2142 195.456 60.1482 195.617 61.0722C195.962 62.9542 196.65 64.7257 197.962 65.6333C201.546 68.1058 188.97 68.9785 188.97 68.9785Z"
            fill="#8E5362"/>
        <path
            d="M188.97 68.9776L183.357 68.3958C183.357 68.3958 185.012 65.9291 185.74 63.5293C186.387 64.4514 186.611 64.431 187.519 64.6143C187.519 64.6143 193.185 65.455 195.623 61.0713C195.968 62.9533 196.656 64.7248 197.968 65.6324C201.546 68.1049 188.97 68.9776 188.97 68.9776Z"
            fill="black"
            opacity="0.1"/>
        <path
            d="M207.617 86.6908C207.611 86.8637 207.618 87.0369 207.641 87.2085L206.77 86.1934L206.697 86.109L208.296 81.705L213.956 78.6885L215.361 79.8957C213.349 80.6665 207.707 83.1129 207.617 86.6908Z"
            fill="black"
            opacity="0.1"/>
        <path
            d="M165.557 58.7976L158.981 61.5668H158.807L158.299 61.6017C158.299 61.6017 158.337 61.5174 158.397 61.3603C158.946 60.0251 161.491 53.5063 160.391 50.4346C161.148 50.8348 161.872 51.2939 162.557 51.8076L165.557 58.7976Z"
            fill="black"
            opacity="0.1"/>
        <path
            d="M196.31 115.794C193.75 115.564 168.14 113.19 165.752 109.412C165.374 108.796 164.947 108.212 164.475 107.666C164.765 106.273 164.927 105.395 164.927 105.395C164.927 105.395 193.759 111.404 195.645 113.586C195.968 113.952 196.179 114.741 196.31 115.794Z"
            fill="black"
            opacity="0.1"/>
        <path
            d="M187.518 64.9056C187.518 64.9056 193.244 65.755 195.665 61.2957C195.665 61.2957 199.708 64.6234 202.125 64.9085C204.543 65.1935 215.766 79.3539 215.766 79.3539C215.766 79.3539 206.769 82.2628 207.349 86.917L203.092 81.9719C203.092 81.9719 200.964 81.873 199.127 87.7897C199.127 87.7897 196.901 91.1814 197.191 101.944C197.482 112.707 196.515 115.229 196.515 115.229C196.515 115.229 168.264 112.806 165.751 108.83C163.237 104.853 162.848 106.793 162.848 106.793C162.848 106.793 162.459 99.2303 165.071 93.1216C167.684 87.013 167.103 69.4638 167.103 69.4638C167.103 69.4638 167.393 60.8331 158.881 61.6098C158.881 61.6098 162.459 53.2701 160.817 50.0703C160.817 50.0703 165.713 51.4026 169.201 51.4433C171.343 51.46 173.453 51.9569 175.378 52.8977C176.425 53.4126 177.392 54.0613 177.94 54.835C179.583 57.1621 182.294 56.0975 182.294 56.0975C182.977 58.227 183.821 60.3012 184.819 62.3021C184.932 62.5145 185.045 62.7239 185.161 62.9246C185.33 63.2155 185.504 63.5064 185.678 63.7449C186.374 64.7427 186.572 64.7165 187.518 64.9056Z"
            fill="#FF7590"/>
        <path
            d="M195.326 58.268C195.017 58.7072 194.673 59.1206 194.298 59.5043C193.354 60.475 192.226 61.2465 190.98 61.773C189.734 62.2996 188.395 62.5707 187.042 62.5702C186.693 62.5704 186.343 62.5529 185.995 62.5178C186.163 61.5666 186.12 60.6852 185.687 60.0482C184.044 57.6251 195.459 54.2305 195.459 54.2305C195.318 55.5713 195.273 56.9207 195.326 58.268Z"
            fill="black"
            opacity="0.1"/>
        <path
            d="M197.191 52.1069C197.191 54.1205 196.595 56.0889 195.479 57.7632C194.363 59.4374 192.777 60.7424 190.92 61.513C189.064 62.2835 187.022 62.4852 185.051 62.0923C183.081 61.6995 181.271 60.7298 179.85 59.306C178.43 57.8821 177.462 56.0681 177.07 54.0931C176.678 52.1182 176.879 50.0711 177.648 48.2108C178.417 46.3504 179.719 44.7604 181.39 43.6417C183.06 42.523 185.024 41.9259 187.033 41.9259C188.368 41.9209 189.692 42.1808 190.926 42.6907C192.161 43.2005 193.283 43.9503 194.227 44.8967C195.171 45.8431 195.919 46.9674 196.428 48.2049C196.937 49.4424 197.196 50.7685 197.191 52.1069Z"
            fill="#8E5362"/>
        <path
            d="M202.225 75.3778L202.434 82.1904C202.434 82.1904 205.466 79.7412 205.562 77.4141C205.658 75.087 202.225 75.3778 202.225 75.3778Z"
            fill="black"
            opacity="0.1"/>
        <path
            d="M177.746 82.1904C177.746 82.1904 185.727 93.1714 190.371 94.2855C195.015 95.3996 179.487 85.7509 177.746 82.1904Z"
            fill="black"
            opacity="0.1"/>
        <path d="M186.213 83.333C186.213 83.333 190.662 88.3712 193.855 88.9995L186.213 83.333Z" fill="black"
              opacity="0.1"/>
        <path d="M170.541 96.0303C170.541 96.0303 178.667 104.03 183.311 104.515L170.541 96.0303Z" fill="black"
              opacity="0.1"/>
        <path
            d="M197.192 52.1061C197.194 54.7676 196.151 57.323 194.29 59.2212L193.176 58.526C192.744 58.3011 192.372 57.9771 192.09 57.5806C191.721 56.964 191.829 56.1902 191.858 55.4717C191.919 53.9504 191.501 52.3039 190.314 51.3527C188.39 49.8081 185.304 50.6633 183.348 49.1478C182.877 48.7469 182.462 48.2841 182.115 47.7719L180.281 45.3081C180.17 45.1627 180.037 45.0172 179.895 44.8456C181.323 43.4381 183.134 42.4851 185.101 42.1065C187.068 41.7279 189.103 41.9406 190.949 42.7178C192.796 43.4949 194.372 44.8019 195.48 46.4744C196.588 48.1469 197.177 50.1103 197.175 52.1178L197.192 52.1061Z"
            fill="black"
            opacity="0.1"/>
        <path
            d="M180.914 39.0692C181.822 38.374 182.931 38.0074 183.952 37.4955C184.974 36.9835 185.876 36.3319 186.898 35.8956C187.92 35.4593 189.101 35.2033 190.16 35.5669C192.433 36.3494 193.292 39.5317 195.628 40.0902C196.023 40.1833 196.429 40.192 196.827 40.2531C197.586 40.3973 198.306 40.7013 198.938 41.1451C199.571 41.5889 200.103 42.1623 200.498 42.8274C201.278 44.1696 201.679 45.6989 201.659 47.2518C201.692 48.1137 201.567 48.9743 201.291 49.7913C200.6 51.6908 198.867 52.991 197.698 54.6346C196.59 56.2073 196.003 58.0883 196.017 60.0131L193.184 58.2474C192.753 58.0234 192.381 57.6992 192.099 57.302C191.73 56.6853 191.838 55.9115 191.867 55.1931C191.928 53.6717 191.51 52.0253 190.326 51.0741C188.399 49.5295 185.313 50.3847 183.36 48.8692C182.889 48.4683 182.474 48.0054 182.127 47.4933L180.292 45.0295C179.895 44.4942 179.132 43.8281 178.957 43.1765C178.571 41.7744 179.892 39.8575 180.914 39.0692Z"
            fill="#362133"/>
        <path
            d="M193.5 57.9187C193.069 57.6947 192.696 57.3706 192.415 56.9733C192.046 56.3566 192.154 55.5829 192.183 54.8644C192.244 53.3431 191.826 51.6966 190.639 50.7454C188.714 49.2008 185.629 50.056 183.673 48.5405C183.202 48.1396 182.787 47.6768 182.44 47.1646L180.605 44.7008C180.205 44.1656 179.444 43.4994 179.27 42.8478C178.954 41.725 179.755 40.2619 180.611 39.3252C179.651 40.2153 178.597 41.9054 178.954 43.1649C179.14 43.8165 179.891 44.4826 180.289 45.0179L182.123 47.4817C182.471 47.9938 182.886 48.4567 183.357 48.8576C185.304 50.3731 188.389 49.5179 190.322 51.0625C191.506 52.0137 191.924 53.6601 191.863 55.1815C191.834 55.9 191.727 56.6737 192.096 57.2904C192.377 57.6876 192.749 58.0118 193.181 58.2358L196.014 60.0015C196.014 59.8327 196.014 59.664 196.031 59.4982L193.5 57.9187Z"
            fill="black"
            opacity="0.1"/>
        <path
            d="M154.356 179.26C154.356 179.26 151.529 179.842 152.11 187.611C152.69 195.381 153.561 196.728 154.722 196.824C155.883 196.92 161.542 198.327 161.252 195.465C160.962 192.603 160.672 186.256 161.058 185.284C161.444 184.312 162.976 181.703 161.513 181.072L160.332 182.62C160.332 182.62 157.235 179.757 155.398 181.843C155.398 181.843 153.68 179.938 154.356 179.26Z"
            fill="#494457"/>
        <path
            d="M156.145 184.077C156.757 184.368 157.329 184.723 157.938 185.014C158.538 185.329 159.208 185.487 159.886 185.473C160.173 185.468 160.452 185.371 160.681 185.197"
            fill="black"
            opacity="0.1"/>
        <path
            d="M174.748 191.675C175.111 192.009 175.392 192.437 175.802 192.713C176.382 193.103 177.125 193.126 177.833 193.135C177.951 193.146 178.07 193.131 178.181 193.091C178.308 193.022 178.415 192.922 178.492 192.801L178.872 192.309"
            fill="black"
            opacity="0.1"/>
        <path
            d="M127.055 62.6746C127.055 62.6746 125.749 50.2653 130.828 53.3196C135.907 56.374 132.41 61.8019 132.41 61.8019L131.217 65.6329L127.055 62.6746Z"
            fill="#FFC1C7"/>
        <path
            d="M135.182 23.0184L138.084 20.1619C138.084 20.1619 143.648 4.11367 149.162 8.23554C154.676 12.3574 142.173 22.7799 142.173 22.7799L138.859 26.6574L135.182 23.0184Z"
            fill="#FFC1C7"/>
        <path
            d="M92.7096 86.484L92.5645 89.7798C92.5645 89.7798 95.2259 94.434 96.3375 94.7743C97.4491 95.1146 97.3533 84.9307 97.3533 84.9307L92.7096 86.484Z"
            fill="#FF5374"/>
        <path
            d="M92.7096 86.484L92.5645 89.7798C92.5645 89.7798 95.2259 94.434 96.3375 94.7743C97.4491 95.1146 97.3533 84.9307 97.3533 84.9307L92.7096 86.484Z"
            fill="black"
            opacity="0.1"/>
        <path d="M97.1582 82.8652L97.3556 95.0127H110.848L109.833 87.9354L97.1582 82.8652Z" fill="#FFC1C7"/>
        <path
            d="M100.304 113.193L100.934 117.071L108.82 134.623C108.82 134.623 112.398 140.15 109.496 144.804C106.594 149.458 103.595 156.73 103.111 161.14C102.626 165.55 98.8066 169.867 98.8066 169.867L107.128 173.407C107.128 173.407 107.708 166.475 110.03 163.226C112.352 159.977 119.799 145.677 119.799 145.677C119.799 145.677 122.17 143.542 121.639 137.192C121.108 130.841 121.154 126.379 121.154 126.379L120.333 116.248L100.304 113.193Z"
            fill="#575988"/>
        <path
            d="M100.304 113.193L100.934 117.071L108.82 134.623C108.82 134.623 112.398 140.15 109.496 144.804C106.594 149.458 103.595 156.73 103.111 161.14C102.626 165.55 98.8066 169.867 98.8066 169.867L107.128 173.407C107.128 173.407 107.708 166.475 110.03 163.226C112.352 159.977 119.799 145.677 119.799 145.677C119.799 145.677 122.17 143.542 121.639 137.192C121.108 130.841 121.154 126.379 121.154 126.379L120.333 116.248L100.304 113.193Z"
            fill="black"
            opacity="0.1"/>
        <path
            d="M99.5281 169.334C99.5281 169.334 90.6267 172.048 93.5783 176.51C96.53 180.972 106.108 189.455 109.976 189.164C113.845 188.873 112.298 186.011 112.298 186.011L109.056 182.811C109.056 182.811 108.476 176.024 108.72 174.038C108.963 172.051 105.962 171.129 105.574 172.292C105.185 173.456 99.5281 169.334 99.5281 169.334Z"
            fill="#C4747B"/>
        <path
            d="M105.14 89.8525L98.0843 90.635C97.4539 90.7048 96.8726 91.0093 96.4555 91.4882C96.0384 91.9671 95.8159 92.5855 95.8321 93.221C95.9076 96.0484 95.9569 100.546 95.5622 101.366C94.9817 102.579 93.1939 111.209 100.931 117.074L111.429 120.419L94.5957 121.632L95.1297 130.99L97.7418 129.535L129.667 130.99C129.667 130.99 138.714 130.068 132.57 120.227C126.425 110.386 113.368 100.738 113.368 100.738L113.223 93.0756L112.253 90.8474L105.14 89.8525Z"
            fill="#575988"/>
        <path
            d="M113.896 120.27C115.041 119.769 116.276 119.511 117.524 119.511C118.773 119.511 120.008 119.769 121.152 120.27H113.896Z"
            fill="black"
            opacity="0.1"/>
        <path
            d="M95.4202 121.579C95.4202 121.579 85.0212 120.078 84.9719 122.064C84.9225 124.051 86.423 143.395 91.4063 142.086C96.3896 140.777 94.2593 134.378 94.2593 134.378L97.9858 130.791C97.9858 130.791 98.3719 128.804 95.9049 128.996L95.4202 121.579Z"
            fill="#C4747B"/>
        <path
            d="M112.639 67.3288L116.749 72.0324C116.749 72.0324 118.539 74.2635 120.667 70.8689C122.794 67.4742 126.762 61.415 126.762 61.415C126.762 61.415 131.164 65.2926 132.325 64.5188C133.486 63.745 121.636 80.666 121.636 80.666C121.636 80.666 117.863 86.2393 112.25 79.6478L110.607 78.8712L112.639 67.3288Z"
            fill="#FF5374"/>
        <path
            d="M112.639 67.3288L116.749 72.0324C116.749 72.0324 118.539 74.2635 120.667 70.8689C122.794 67.4742 126.762 61.415 126.762 61.415C126.762 61.415 131.164 65.2926 132.325 64.5188C133.486 63.745 121.636 80.666 121.636 80.666C121.636 80.666 117.863 86.2393 112.25 79.6478L110.607 78.8712L112.639 67.3288Z"
            fill="black"
            opacity="0.1"/>
        <path
            d="M100.066 48.2141C104.794 48.2141 108.628 44.3722 108.628 39.6329C108.628 34.8937 104.794 31.0518 100.066 31.0518C95.3372 31.0518 91.5039 34.8937 91.5039 39.6329C91.5039 44.3722 95.3372 48.2141 100.066 48.2141Z"
            fill="#FFC1C7"/>
        <path
            d="M100.063 44.2526C100.063 44.2526 92.7057 47.7432 93.5764 53.8519C94.4471 59.9605 94.5922 67.669 94.5922 67.669C94.5922 67.669 97.9328 72.6141 93.5038 82.0679C93.5038 82.0679 90.6741 86.8676 92.5606 90.3582C92.5606 90.3582 94.6532 84.8314 100.063 88.9038C105.473 92.9762 114.183 94.867 114.183 94.867C114.183 94.867 109.684 75.0866 112.441 72.3232C112.441 72.3232 117.23 65.1965 112.877 60.6877C108.523 56.179 110.7 51.9611 110.7 51.9611L124.68 44.4475C124.68 44.4475 127.629 44.494 131.597 38.2894C134.165 34.3243 136.993 30.5345 140.063 26.9448C140.063 26.9448 137.062 22.436 134.258 22.0957C134.258 22.0957 133.144 23.2593 132.372 26.4125C131.959 28.0851 129.159 30.8805 126.625 33.1349C124.826 34.7348 123.09 36.3957 121.357 38.08C120.075 39.3162 117.219 41.0848 110.99 42.0855C100.739 43.7232 100.063 44.2526 100.063 44.2526Z"
            fill="black"
            opacity="0.1"/>
        <path
            d="M100.063 43.6706C100.063 43.6706 92.7057 47.1612 93.5764 53.2698C94.4471 59.3785 94.5922 67.087 94.5922 67.087C94.5922 67.087 97.9328 72.0321 93.5038 81.4859C93.5038 81.4859 90.6741 86.2855 92.5606 89.7762C92.5606 89.7762 94.6532 84.2493 100.063 88.3218C105.473 92.3942 114.183 94.2849 114.183 94.2849C114.183 94.2849 109.684 74.5046 112.441 71.7412C112.441 71.7412 117.23 64.6144 112.877 60.1057C108.523 55.5969 110.7 51.3791 110.7 51.3791L124.68 43.8655C124.68 43.8655 127.629 43.912 131.597 37.7074C134.165 33.7423 136.993 29.9524 140.063 26.3628C140.063 26.3628 137.062 21.854 134.258 21.5137C134.258 21.5137 133.144 22.6772 132.372 25.8304C131.959 27.503 129.159 30.2985 126.625 32.5528C124.826 34.1527 123.09 35.8137 121.357 37.4979C120.075 38.7342 117.219 40.5028 110.99 41.5034C100.739 43.1411 100.063 43.6706 100.063 43.6706Z"
            fill="#FF5374"/>
        <path
            d="M106.398 80.2266C106.398 80.2266 112.104 88.6623 112.249 90.1167C112.252 90.1167 111.382 81.0498 106.398 80.2266Z"
            fill="black"
            opacity="0.1"/>
        <path
            d="M98.9023 51.8154C98.9023 51.8154 102.881 56.6151 108.631 52.5921C107.042 53.1329 105.359 53.3429 103.687 53.2094C102.014 53.0758 100.386 52.6015 98.9023 51.8154Z"
            fill="black"
            opacity="0.1"/>
        <path
            d="M101.988 30.6593C101.884 30.2233 101.668 29.8222 101.361 29.4957C100.049 27.8464 98.6242 26.1534 96.671 25.3709C95.3744 24.8854 93.9569 24.8285 92.6258 25.2085C91.2946 25.5885 90.1197 26.3855 89.273 27.4828C88.5706 28.4311 88.1527 29.5597 87.5461 30.5749C86.4258 32.454 84.6931 33.9027 82.8298 35.0487C81.7066 35.7382 80.5225 36.3345 79.4631 37.117C75.6118 39.9589 73.8327 45.2124 74.802 49.916C75.2287 51.9755 76.1313 54.0059 75.8875 56.0974C75.6989 57.7205 74.8369 59.1749 73.9633 60.5537C73.0897 61.9326 72.158 63.3288 71.8097 64.9171C71.4615 66.5053 71.8272 68.3874 73.1419 69.3502C73.6266 69.7051 74.21 69.932 74.625 70.3567C74.8997 70.6872 75.129 71.0531 75.307 71.4446C75.9984 72.7229 76.9425 73.8465 78.0818 74.7468C79.221 75.647 80.5315 76.305 81.933 76.6805C83.181 77.0092 84.8557 76.89 85.3113 75.6799C85.3636 75.4662 85.4426 75.26 85.5464 75.0661C85.9585 74.4843 86.867 74.8101 87.5055 75.1447C88.959 75.9062 90.5516 76.3644 92.1869 76.4915C92.8355 76.5772 93.4952 76.4982 94.1053 76.2617C94.6205 75.9995 95.0639 75.615 95.3969 75.1418C96.9235 73.1492 97.3617 70.5457 97.6229 68.047C97.7942 66.421 97.9132 64.7658 97.6026 63.1601C97.1092 60.5828 95.5449 58.1743 95.7771 55.5621C96.0238 52.7696 98.2847 50.4861 98.63 47.7082C98.8056 46.2537 98.4432 44.7852 97.6113 43.5805C97.3044 43.2085 97.0441 42.8001 96.8364 42.3646C96.7373 42.1443 96.7065 41.8993 96.7479 41.6612C96.7893 41.4232 96.901 41.2031 97.0686 41.0294C97.2524 40.8996 97.4564 40.8013 97.6723 40.7385C99.5385 40.02 100.534 38.1467 100.667 36.2298C100.72 35.5025 100.667 34.8335 100.868 34.1237C101.187 33.0271 102.153 31.8286 101.988 30.6593Z"
            fill="black"
            opacity="0.1"/>
        <path
            d="M101.406 30.6593C101.302 30.2233 101.086 29.8222 100.779 29.4957C99.4672 27.8464 98.0422 26.1534 96.0889 25.3709C94.7924 24.8854 93.3748 24.8285 92.0437 25.2085C90.7126 25.5885 89.5377 26.3855 88.6909 27.4828C87.9886 28.4311 87.5706 29.5597 86.964 30.5749C85.8438 32.454 84.1111 33.9027 82.2478 35.0487C81.1246 35.7382 79.9405 36.3345 78.8811 37.117C75.0297 39.9589 73.2506 45.2124 74.22 49.916C74.6466 51.9755 75.5493 54.0059 75.3055 56.0974C75.1168 57.7205 74.2548 59.1749 73.3812 60.5537C72.5076 61.9326 71.576 63.3288 71.2277 64.9171C70.8794 66.5053 71.2451 68.3874 72.5599 69.3502C73.0446 69.7051 73.6279 69.932 74.043 70.3567C74.3176 70.6872 74.547 71.0531 74.725 71.4446C75.4164 72.7229 76.3605 73.8465 77.4998 74.7468C78.639 75.647 79.9494 76.305 81.351 76.6805C82.599 77.0092 84.2736 76.89 84.7293 75.6799C84.7816 75.4662 84.8606 75.26 84.9644 75.0661C85.3765 74.4843 86.2849 74.8101 86.9234 75.1447C88.377 75.9062 89.9696 76.3644 91.6048 76.4915C92.2534 76.5772 92.9131 76.4982 93.5233 76.2617C94.0384 75.9995 94.4818 75.615 94.8148 75.1418C96.3414 73.1492 96.7797 70.5457 97.0409 68.047C97.2121 66.421 97.3311 64.7658 97.0206 63.1601C96.5272 60.5828 94.9628 58.1743 95.195 55.5621C95.4417 52.7696 97.7026 50.4861 98.048 47.7082C98.2235 46.2537 97.8611 44.7852 97.0293 43.5805C96.7223 43.2085 96.4621 42.8001 96.2543 42.3646C96.1553 42.1443 96.1245 41.8993 96.1658 41.6612C96.2072 41.4232 96.319 41.2031 96.4865 41.0294C96.6703 40.8996 96.8743 40.8013 97.0902 40.7385C98.9564 40.02 99.9519 38.1467 100.085 36.2298C100.138 35.5025 100.085 34.8335 100.286 34.1237C100.605 33.0271 101.571 31.8286 101.406 30.6593Z"
            fill="#BB7684"/>
        <g opacity="0.1">
            <path
                d="M84.0993 75.0522C83.9957 75.2465 83.9158 75.4526 83.8613 75.666C83.5914 76.3874 82.8861 76.719 82.0996 76.8005C83.1938 76.911 84.3634 76.6463 84.732 75.666C84.7865 75.4526 84.8664 75.2465 84.97 75.0522C85.043 74.9454 85.1432 74.86 85.2602 74.805C84.8191 74.677 84.3663 74.6828 84.0993 75.0522Z"
                fill="black"
                opacity="0.1"/>
            <path
                d="M101.42 30.6569C101.319 30.2198 101.102 29.8181 100.793 29.4933C99.4815 27.844 98.0564 26.151 96.1032 25.3685C95.2543 25.0363 94.3419 24.8992 93.4331 24.9671C94.0501 25.006 94.6572 25.1415 95.2325 25.3685C97.1857 26.151 98.6108 27.844 99.9226 29.4933C100.232 29.8181 100.448 30.2198 100.55 30.6569C100.715 31.8204 99.7514 33.0276 99.4321 34.1039C99.2203 34.8137 99.2812 35.4798 99.2319 36.2099C99.0955 38.124 98.1029 39.9915 96.2338 40.7187C96.0179 40.7815 95.8139 40.8798 95.6301 41.0096C95.4624 41.1838 95.3509 41.4046 95.31 41.6432C95.2691 41.8818 95.3008 42.1273 95.4008 42.3476C95.6075 42.7831 95.8668 43.1915 96.1728 43.5635C97.0055 44.7669 97.369 46.2344 97.1945 47.6883C96.8462 50.4721 94.5824 52.7527 94.3386 55.5423C94.1064 58.1603 95.6736 60.563 96.1641 63.1374C96.4718 64.743 96.3557 66.3982 96.1845 68.0243C95.9232 70.523 95.4879 73.1293 93.9584 75.119C93.6266 75.5922 93.1841 75.9767 92.6698 76.2389C92.3691 76.371 92.0481 76.4507 91.7207 76.4745C92.3374 76.5481 92.9627 76.4672 93.5404 76.2389C94.0557 75.9837 94.501 75.6062 94.8378 75.1394C96.3673 73.1497 96.8026 70.5433 97.0639 68.0446C97.2351 66.4186 97.3541 64.7634 97.0435 63.1577C96.553 60.5834 94.9858 58.1719 95.218 55.5627C95.4676 52.7672 97.7256 50.4867 98.0739 47.7087C98.2484 46.2548 97.8849 44.7872 97.0522 43.5839C96.7462 43.2118 96.4869 42.8035 96.2802 42.368C96.1802 42.1476 96.1485 41.9022 96.1894 41.6636C96.2303 41.425 96.3418 41.2042 96.5095 41.0299C96.6933 40.9001 96.8973 40.8019 97.1132 40.739C98.9823 40.0176 99.9749 38.1443 100.111 36.2303C100.161 35.5002 100.111 34.834 100.312 34.1243C100.622 33.0276 101.586 31.8292 101.42 30.6569Z"
                fill="black"
                opacity="0.1"/>
        </g>
        <path
            d="M90.4336 133.316C90.931 133.861 91.5713 134.254 92.2812 134.45C92.9911 134.647 93.7418 134.639 94.4475 134.428"
            fill="black"
            opacity="0.1"/>
        <path
            d="M109.032 183.059C108.755 183.283 108.432 183.445 108.086 183.532C107.74 183.62 107.38 183.631 107.029 183.565"
            fill="black"
            opacity="0.1"/>
        <path
            d="M30.5171 192.087C34.8337 192.087 38.333 191.495 38.333 190.764C38.333 190.033 34.8337 189.44 30.5171 189.44C26.2005 189.44 22.7012 190.033 22.7012 190.764C22.7012 191.495 26.2005 192.087 30.5171 192.087Z"
            fill="#6C63FF"
            opacity="0.1"/>
        <path
            d="M244.5 218.442C248.816 218.442 252.315 217.849 252.315 217.118C252.315 216.388 248.816 215.795 244.5 215.795C240.183 215.795 236.684 216.388 236.684 217.118C236.684 217.849 240.183 218.442 244.5 218.442Z"
            fill="#6C63FF"/>
        <path
            d="M244.5 192.966C248.816 192.966 252.315 192.374 252.315 191.643C252.315 190.912 248.816 190.319 244.5 190.319C240.183 190.319 236.684 190.912 236.684 191.643C236.684 192.374 240.183 192.966 244.5 192.966Z"
            fill="#6C63FF"
            opacity="0.1"/>
        <path
            d="M52.6792 204.378C56.9958 204.378 60.4951 203.785 60.4951 203.054C60.4951 202.323 56.9958 201.73 52.6792 201.73C48.3626 201.73 44.8633 202.323 44.8633 203.054C44.8633 203.785 48.3626 204.378 52.6792 204.378Z"
            fill="#6C63FF"
            opacity="0.1"/>
        <path
            d="M269.217 205.032C275.662 205.032 280.887 204.147 280.887 203.054C280.887 201.962 275.662 201.076 269.217 201.076C262.772 201.076 257.547 201.962 257.547 203.054C257.547 204.147 262.772 205.032 269.217 205.032Z"
            fill="#6C63FF"/>
        <path
            d="M101.425 223C115.973 223 127.767 221.002 127.767 218.537C127.767 216.073 115.973 214.075 101.425 214.075C86.8774 214.075 75.084 216.073 75.084 218.537C75.084 221.002 86.8774 223 101.425 223Z"
            fill="#6C63FF"
            opacity="0.1"/>
        <path
            d="M274.042 199.819C274.575 199.383 274.963 198.796 275.157 198.135C275.299 197.466 275.014 196.666 274.379 196.421C273.665 196.148 272.901 196.642 272.324 197.146C271.746 197.649 271.082 198.216 270.324 198.111C270.714 197.758 271.005 197.309 271.17 196.809C271.335 196.309 271.367 195.774 271.265 195.258C271.232 195.044 271.141 194.843 271.003 194.676C270.606 194.251 269.889 194.435 269.413 194.769C267.904 195.834 267.483 197.887 267.474 199.737C267.323 199.071 267.451 198.376 267.448 197.701C267.445 197.026 267.256 196.247 266.682 195.889C266.326 195.693 265.926 195.593 265.521 195.598C264.842 195.575 264.087 195.642 263.623 196.139C263.042 196.759 263.196 197.794 263.698 198.466C264.2 199.138 264.961 199.572 265.66 200.043C266.223 200.378 266.703 200.837 267.065 201.384C267.107 201.46 267.142 201.54 267.169 201.622H271.421C272.372 201.142 273.253 200.536 274.042 199.819Z"
            fill="#6C63FF"/>
        <path
            d="M249.326 213.954C249.858 213.518 250.246 212.931 250.438 212.269C250.58 211.6 250.298 210.815 249.66 210.556C248.946 210.283 248.183 210.777 247.605 211.28C247.028 211.784 246.363 212.351 245.605 212.246C245.995 211.893 246.286 211.444 246.451 210.944C246.616 210.444 246.649 209.909 246.546 209.393C246.514 209.178 246.424 208.977 246.285 208.811C245.89 208.386 245.17 208.569 244.697 208.904C243.188 209.968 242.767 212.022 242.758 213.872C242.604 213.206 242.732 212.511 242.729 211.836C242.726 211.161 242.538 210.382 241.963 210.024C241.607 209.832 241.206 209.737 240.802 209.747C240.123 209.724 239.368 209.791 238.904 210.288C238.324 210.908 238.477 211.944 238.979 212.616C239.482 213.287 240.242 213.721 240.944 214.192C241.506 214.528 241.985 214.986 242.346 215.533C242.388 215.609 242.423 215.689 242.451 215.772H246.702C247.654 215.286 248.537 214.675 249.326 213.954Z"
            fill="#6C63FF"/>
        <path
            d="M61.5308 187.712C61.5308 187.712 57.453 173.834 62.297 163.621C64.3597 159.348 64.983 154.52 64.0732 149.862C63.6243 147.655 62.9744 145.495 62.1315 143.407"
            stroke="#535461" stroke-miterlimit="10" stroke-width="2"/>
        <path
            d="M65.1359 136.952C65.1359 138.654 62.0623 143.585 62.0623 143.585C62.0623 143.585 58.9917 138.654 58.9917 136.952C58.979 136.54 59.0491 136.13 59.1978 135.745C59.3465 135.36 59.5708 135.009 59.8573 134.713C60.1438 134.417 60.4868 134.182 60.8658 134.021C61.2448 133.86 61.6522 133.777 62.0638 133.777C62.4754 133.777 62.8827 133.86 63.2618 134.021C63.6408 134.182 63.9837 134.417 64.2702 134.713C64.5568 135.009 64.781 135.36 64.9297 135.745C65.0784 136.13 65.1485 136.54 65.1359 136.952Z"
            fill="#6C63FF"/>
        <path
            d="M70.2152 146.375C69.2923 147.8 64.0391 150.267 64.0391 150.267C64.0391 150.267 64.1348 144.449 65.0578 143.027C65.5113 142.366 66.2043 141.908 66.9893 141.751C67.7744 141.594 68.5895 141.75 69.2614 142.186C69.9333 142.623 70.4089 143.304 70.587 144.086C70.7651 144.869 70.6317 145.69 70.2152 146.375Z"
            fill="#6C63FF"/>
        <path
            d="M69.9966 162.472C68.4816 163.24 62.7031 162.711 62.7031 162.711C62.7031 162.711 65.7128 157.739 67.2278 156.974C67.9519 156.634 68.78 156.59 69.5361 156.851C70.2922 157.113 70.9168 157.659 71.2772 158.375C71.6376 159.091 71.7055 159.919 71.4664 160.684C71.2273 161.449 70.7 162.09 69.9966 162.472Z"
            fill="#6C63FF"/>
        <path
            d="M67.0898 174.622C65.7257 175.631 59.9414 176.076 59.9414 176.076C59.9414 176.076 62.0717 170.666 63.4242 169.654C64.0806 169.215 64.8802 169.046 65.6574 169.181C66.4347 169.317 67.1301 169.747 67.5997 170.383C68.0693 171.018 68.277 171.811 68.1799 172.595C68.0829 173.38 67.6884 174.097 67.0782 174.599L67.0898 174.622Z"
            fill="#6C63FF"/>
        <path
            d="M57.5875 150.598C58.8065 151.782 64.4747 153.01 64.4747 153.01C64.4747 153.01 63.0874 147.363 61.8626 146.18C61.2735 145.635 60.4954 145.342 59.6941 145.364C58.8929 145.387 58.132 145.721 57.5736 146.298C57.0152 146.874 56.7036 147.646 56.7051 148.45C56.7066 149.253 57.0212 150.024 57.5817 150.598H57.5875Z"
            fill="#6C63FF"/>
        <path
            d="M54.3714 164.843C55.8864 165.608 61.662 165.078 61.662 165.078C61.662 165.078 58.6523 160.107 57.1373 159.342C56.4118 158.994 55.579 158.945 54.8177 159.205C54.0564 159.465 53.4272 160.014 53.0652 160.734C52.7032 161.454 52.6372 162.288 52.8814 163.056C53.1256 163.824 53.6606 164.466 54.3714 164.843Z"
            fill="#6C63FF"/>
        <path
            d="M53.1389 179.116C54.503 180.128 60.2873 180.571 60.2873 180.571C60.2873 180.571 58.157 175.16 56.8045 174.151C56.1482 173.712 55.3485 173.543 54.5713 173.679C53.794 173.814 53.0986 174.244 52.629 174.88C52.1594 175.515 51.9517 176.308 52.0488 177.092C52.1458 177.877 52.5403 178.594 53.1505 179.096L53.1389 179.116Z"
            fill="#6C63FF"/>
        <path
            d="M51.8848 186.84C51.8848 186.84 56.8506 185.851 58.177 184.533C59.5033 183.215 65.4589 180.911 66.1206 182.558C66.7823 184.204 75.0597 189.804 69.4321 190.793C63.8046 191.782 56.1889 192.11 54.5346 191.453C52.8803 190.796 51.8848 186.84 51.8848 186.84Z"
            fill="#A8A8A8"/>
        <path
            d="M69.4409 190.173C63.8133 191.162 56.1976 191.491 54.5433 190.83C53.2808 190.33 52.4043 187.922 52.0589 186.796L51.8848 186.84C51.8848 186.84 52.8774 190.793 54.5346 191.453C56.1918 192.113 63.8046 191.782 69.4321 190.793C71.0574 190.502 71.5218 189.839 71.3477 188.989C71.2171 189.533 70.6511 189.961 69.4409 190.173Z"
            fill="black"
            opacity="0.2"/>
        <path
            d="M246.098 172.561C246.098 172.561 247.695 174.652 245.364 177.797C243.033 180.941 241.112 183.614 241.881 185.584C241.881 185.584 245.399 179.722 248.266 179.641C251.134 179.559 249.241 176.077 246.098 172.561Z"
            fill="#6C63FF"/>
        <path
            d="M246.098 172.561C246.238 172.763 246.348 172.984 246.426 173.218C249.218 176.505 250.704 179.574 248.019 179.649C245.521 179.722 242.523 184.202 241.803 185.333C241.826 185.421 241.854 185.507 241.887 185.592C241.887 185.592 245.404 179.731 248.272 179.649C251.139 179.568 249.241 176.077 246.098 172.561Z"
            fill="black"
            opacity="0.1"/>
        <path
            d="M249.064 175.224C249.064 175.96 248.98 176.557 248.878 176.557C248.777 176.557 248.695 175.975 248.695 175.224C248.695 174.474 248.797 174.835 248.898 174.835C249 174.835 249.064 174.489 249.064 175.224Z"
            fill="#FFD037"/>
        <path
            d="M250.079 176.103C249.435 176.455 248.872 176.668 248.825 176.578C248.779 176.487 249.258 176.133 249.902 175.781C250.546 175.429 250.294 175.685 250.343 175.781C250.393 175.877 250.724 175.752 250.079 176.103Z"
            fill="#FFD037"/>
        <path
            d="M237.679 172.561C237.679 172.561 236.082 174.652 238.413 177.797C240.744 180.941 242.665 183.614 241.896 185.584C241.896 185.584 238.381 179.722 235.511 179.641C232.64 179.559 234.53 176.077 237.679 172.561Z"
            fill="#6C63FF"/>
        <path
            d="M237.679 172.561C237.54 172.763 237.429 172.984 237.351 173.218C234.559 176.505 233.073 179.574 235.758 179.649C238.257 179.722 241.255 184.202 241.975 185.333C241.951 185.422 241.922 185.508 241.888 185.592C241.888 185.592 238.373 179.731 235.502 179.649C232.632 179.568 234.53 176.077 237.679 172.561Z"
            fill="black"
            opacity="0.1"/>
        <path
            d="M234.713 175.224C234.713 175.96 234.797 176.557 234.899 176.557C235 176.557 235.081 175.975 235.081 175.224C235.081 174.474 234.98 174.835 234.878 174.835C234.777 174.835 234.713 174.489 234.713 175.224Z"
            fill="#FFD037"/>
        <path
            d="M233.697 176.103C234.342 176.455 234.902 176.668 234.951 176.578C235.001 176.487 234.519 176.133 233.874 175.781C233.23 175.429 233.483 175.685 233.433 175.781C233.384 175.877 233.053 175.752 233.697 176.103Z"
            fill="#FFD037"/>
        <path
            d="M235.221 185.318C235.221 185.318 239.679 185.179 241.025 184.222C242.372 183.265 247.884 182.119 248.217 183.64C248.551 185.161 254.916 191.287 249.883 191.328C244.851 191.369 238.19 190.543 236.849 189.725C235.508 188.908 235.221 185.318 235.221 185.318Z"
            fill="#A8A8A8"/>
        <path
            d="M249.97 190.807C244.938 190.848 238.277 190.022 236.936 189.205C235.914 188.582 235.505 186.345 235.372 185.312H235.221C235.221 185.312 235.511 188.917 236.846 189.734C238.181 190.551 244.848 191.378 249.88 191.337C251.331 191.337 251.834 190.807 251.807 190.042C251.604 190.511 251.05 190.799 249.97 190.807Z"
            fill="black"
            opacity="0.2"/>
    </g>
    <defs>
        <linearGradient gradientUnits="userSpaceOnUse" id="paint0_linear" x1="153.989" x2="153.989" y1="204.441"
                        y2="6.36992">
            <stop stop-color="#808080" stop-opacity="0.25"/>
            <stop offset="0.54" stop-color="#808080" stop-opacity="0.12"/>
            <stop offset="1" stop-color="#808080" stop-opacity="0.1"/>
        </linearGradient>
        <clipPath id="clip0">
            <rect fill="white" height="223" width="293"/>
        </clipPath>
    </defs>
</svg>
